<?xml version="1.0" encoding="UTF-8"?> <svg xmlns="http://www.w3.org/2000/svg" xmlns:xlink="http://www.w3.org/1999/xlink" version="1.1" width="1073px" height="767px" viewBox="-177 328 1073 767"><g id="layer1"><g style="fill:rgb(0,174,199); fill-opacity:1.0; stroke-linejoin: miter"><path d="M-186.76057,323.37006C-186.96255,323.37006,-187.15617,323.45035,-187.29898,323.59308C-187.44177,323.73596,-187.522,323.92957,-187.522,324.13153L-187.521,1105.6797C-187.521,1106.1003,-187.1801,1106.4414,-186.75958,1106.4414L906.5945,1106.4426C906.79626,1106.4426,906.98987,1106.3623,907.1328,1106.2192C907.2755,1106.0767,907.35583,1105.883,907.35583,1105.6809L907.35486,324.13263C907.35486,323.71204,907.01416,323.37122,906.5936,323.37122L-186.76057,323.37006 Z"></path></g><g><g style="fill:rgb(230,0,0); fill-opacity:1.0; stroke-linejoin: miter"><path d="M204.55252,425.06287C107.90186,425.06287,29.460716,503.50418,29.460716,600.1551C29.460716,796.7837,227.796,848.33374,362.9523,1042.7153C490.73138,849.53015,696.44385,790.49493,696.44385,600.1551C696.44385,503.50418,618.0027,425.06274,521.35205,425.06274C451.2452,425.06274,390.90564,466.45752,362.9523,526.01514C334.9945,466.45892,274.65637,425.06274,204.55261,425.06274 Z"></path></g></g><g style="fill:rgb(2,95,108); fill-opacity:1.0; stroke-linejoin: miter"><path d="M802.4236,1044.7432L798.5246,1045.7006Q770.8034,1048.5945,636.3008,1050.3293Q500.86737,1052.063,317.33643,1051.7352Q142.18005,1051.2773,37.164192,1049.0552Q3.5158997,1048.3369,-18.267582,1047.49L-36.57608,1046.6191Q-51.663834,1045.7203,-51.83351,1044.7432Q-47.253304,1041.7444,73.26967,1039.7532Q193.79251,1037.7623,375.29523,1037.6863Q556.79785,1037.7623,677.32086,1039.7532Q797.8434,1041.7441,802.4236,1044.7432"></path></g><g style="fill:rgb(80,134,38); fill-opacity:1.0; stroke-linejoin: miter"><path d="M622.16455,892.66376L622.1928,892.66437Q622.6026,892.6661,622.99255,892.8164Q623.13873,892.8682,623.31067,893.0032Q623.4049,893.0847,623.44446,893.1721Q623.5211,893.3294,623.4012,893.50146Q623.1976,893.63116,622.6044,893.6314Q622.4146,893.6291,622.1922,893.60956Q622.0946,893.598,621.99677,893.586Q621.61945,893.5264,621.56396,893.5122Q621.1537,893.4191,621.0605,893.2599Q621.0424,893.22577,621.041,893.1889Q621.0521,893.09357,621.07434,893.0716Q621.1378,892.9648,621.31384,892.85547Q621.6361,892.67316,622.16455,892.66376 Z"></path></g><g style="fill:rgb(2,95,108); fill-opacity:1.0; stroke-linejoin: miter"><path d="M623.3811,926.9584L623.3302,926.9603Q623.06714,927.0045,623.1609,927.2756Q623.3448,927.74524,623.9522,928.3706Q624.7241,929.17847,626.4618,930.3638Q628.21265,931.47644,629.54407,932.1195Q630.2097,932.4413,630.7707,932.64575Q631.33136,932.8502,631.78735,932.93713L632.21716,932.99506Q633.0258,932.9551,632.81836,932.2801Q632.6314,931.9423,631.4421,931.09955Q629.52423,929.85284,626.6756,928.36475Q625.0324,927.5266,624.25336,927.2065Q623.7789,926.9942,623.3811,926.9584 M621.7598,932.15466L621.7527,932.15564Q621.2442,932.1598,621.5182,932.69147Q621.7758,933.26276,623.25226,934.8017Q626.2587,937.7317,627.4616,937.95013L627.6316,937.92377Q627.79926,937.8842,627.95953,937.79333Q628.1197,937.7027,628.27185,937.56024Q628.5764,937.2759,628.8498,936.78546Q629.0767,936.2305,628.5522,935.6724Q627.29346,934.5278,625.18365,933.4526Q622.74414,932.18945,621.7598,932.15466 M620.4232,937.02997L620.3323,937.0553Q620.23517,937.3146,621.0777,938.3005Q621.6494,938.9826,622.4551,939.6492Q622.59717,939.77734,623.1809,940.15063Q623.4071,940.2842,623.61224,940.3732Q624.2582,940.63214,624.5915,940.524Q624.6493,940.52203,624.8141,940.4221Q624.8727,940.37714,624.91064,940.3169Q624.9866,940.19653,624.97955,940.01624Q624.9563,939.8739,624.8131,939.6786Q624.5216,939.3186,624.2681,939.10803Q623.927,938.795,622.90155,938.20166L621.4763,937.44543L621.1761,937.2973L620.85175,937.15094L620.5803,937.05585L620.4232,937.02997 M616.63226,940.5265L616.57465,940.528Q616.3007,940.5336,616.21967,940.7499Q616.1694,940.8089,616.3257,941.2762Q616.5497,941.85944,617.3411,942.6209Q617.79315,943.02747,618.2867,943.38007Q619.16473,943.9778,619.58575,944.1759Q620.7371,944.7528,621.2868,944.69904Q621.5424,944.67126,621.64014,944.46313Q621.8282,943.96405,621.8061,943.7125Q621.76056,942.91125,621.0565,942.20496Q620.28674,941.47,619.13904,941.0341Q618.6129,940.8364,617.6532,940.62695Q617.1628,940.52686,616.63226,940.5265 M615.9241,944.3897L615.916,944.3906Q615.7371,944.3882,615.69257,944.4059Q615.3959,944.5079,615.3014,944.56683L615.02765,944.77594L614.93896,944.96234L614.92395,945.1913L614.9783,945.4555Q615.1411,945.85333,615.2041,945.95276Q615.3696,946.2388,615.86676,946.78723Q616.1593,947.0914,616.49615,947.34784Q617.43317,948.0722,618.01575,948.14685L618.2816,948.14246L618.4966,948.0672L618.65765,947.93066L618.7617,947.7417L618.8053,947.50854L618.7854,947.2407L618.69867,946.9474L618.5421,946.63654Q618.4401,946.36505,616.9448,944.9874Q616.6893,944.755,616.28265,944.5079Q616.06537,944.3897,615.9241,944.3897 M609.85406,948.0755L609.8259,948.0765Q609.72754,948.0865,609.70844,948.1127L609.66406,948.3301Q609.727,948.68,609.9093,948.9733Q610.46326,949.8617,611.62537,950.97675Q612.37134,951.68805,613.2234,952.1921Q613.498,952.3437,613.7914,952.434L613.847,952.44775L614.4209,952.48975L614.7806,952.4318L615.0192,952.294L615.1419,952.08685L615.1528,951.8208Q615.1087,951.54834,614.91,951.2323Q614.8045,951.00775,614.1708,950.3736Q613.3099,949.6001,612.2518,949.0475Q611.3344,948.56885,610.8644,948.377Q610.0048,948.0433,609.85406,948.0755 M608.34485,952.4835L608.32153,952.48456Q608.0398,952.4975,608.12134,953.1729Q608.41345,954.26886,608.9123,955.1265Q609.3541,955.8994,609.88525,956.3341Q610.2131,956.62573,610.6577,956.6245Q610.7204,956.63293,610.9607,956.5159Q611.0526,956.45996,611.1321,956.37714Q611.286,956.22876,611.4122,955.9073Q611.4489,955.769,611.4002,955.56433Q611.357,955.40393,611.15753,955.0076Q610.92957,954.6079,610.6353,954.23193Q610.0976,953.5821,609.7963,953.32904Q608.9005,952.502,608.34485,952.4835 M679.9973,943.1643L679.99036,943.16473Q679.4463,943.3048,679.52155,943.8339Q679.59937,944.59784,680.06287,946.0269Q682.0292,952.1602,684.98425,959.1943Q685.45605,960.25507,686.138,961.71564Q686.97614,963.38153,687.4472,963.8973Q688.11896,964.1876,689.2749,964.1459Q690.2631,964.09283,690.405,963.5262L690.4597,963.1817Q690.4738,962.79596,690.3253,962.24316Q690.17694,961.69104,689.866,960.9716Q688.8283,958.49084,682.7046,947.4475Q680.64905,943.6665,679.9973,943.1643 M671.9563,943.7242L671.9228,943.7279Q671.6182,943.5875,671.706,945.0256Q671.8009,945.938,672.14136,947.13745L673.3465,951.2167Q676.2275,959.71,676.7498,960.92206Q677.9571,963.96814,678.7841,965.05145Q679.1884,965.347,680.7884,965.2288Q683.1614,964.7999,683.33124,964.41266Q683.862,963.9893,683.57104,963.2887L682.86115,961.9483L673.88214,946.1809Q672.3421,943.7827,671.9563,943.7242 M667.1135,948.3235L667.0837,948.5522Q666.9941,949.033,667.3865,950.7485Q667.5452,951.68805,669.1202,956.96564Q670.60095,961.73035,671.9343,964.4574Q672.5978,965.5456,672.89667,965.87695Q673.27704,966.21686,673.57745,966.28735Q674.92993,966.6304,676.2608,965.58026Q676.2786,965.28864,676.0827,964.66473Q675.4056,962.8149,675.0137,962.0464Q674.0577,959.95557,671.93713,955.9243Q671.2093,954.5238,668.7371,950.31256L667.69714,948.8413L667.1824,948.3379L667.1135,948.3235 M600.75165,965.66547L600.7315,965.66547Q600.58826,965.6583,600.41144,965.74805Q600.2611,965.8636,600.23346,966.0368Q600.1816,966.425,600.5306,966.94904Q600.7445,967.3244,601.2772,967.7104Q601.4397,967.82153,601.5683,967.8723Q601.7078,967.92053,601.9182,967.96747Q601.9641,967.97626,602.0878,967.97906Q602.62396,967.96423,602.8353,967.67584Q603.0571,967.3406,602.7938,966.92395Q602.4906,966.45294,601.8457,966.0554Q601.48376,965.8564,601.201,965.747Q600.9383,965.6687,600.75165,965.66547 M659.2287,949.32L659.09326,949.3541Q658.643,949.51337,658.63605,950.2006Q658.7148,951.8106,659.1209,953.799Q660.9068,962.24457,662.5886,967.13257Q662.8355,967.7873,663.1594,968.32513Q664.7401,968.639,666.1527,968.25494Q667.5265,967.9689,668.25476,967.36005Q668.38324,967.2626,668.4874,966.81885Q668.5077,966.75616,668.4012,966.4639Q667.6996,964.5638,662.5861,954.7649Q659.5927,949.29645,659.2287,949.32 M653.5915,954.22186L653.573,954.22284Q653.3215,954.3219,653.2354,954.9417Q653.2062,955.11127,653.3469,956.3938Q653.6596,958.9877,654.6945,963.85254Q655.12805,965.9121,656.0926,969.508Q656.70215,970.6189,657.02313,970.51276Q657.6129,970.6548,660.5022,968.83374Q660.25946,967.83276,659.22546,965.13525Q657.8223,961.6193,656.18335,958.0208Q655.55914,956.6681,654.97784,955.7675Q654.52997,954.96484,653.5915,954.22186 M648.3444,966.5664L648.33966,966.5668Q648.1986,966.5094,648.0647,966.87067Q647.9875,966.94684,648.0091,967.4891Q648.0161,968.43994,648.4735,969.979Q648.61456,970.43286,648.7755,970.809Q648.8907,971.1129,649.20917,971.628Q649.37476,971.8816,649.7691,972.1929Q649.8727,972.24976,650.0715,972.2668Q650.2817,972.2646,650.3918,972.0839Q650.4802,971.9474,650.50165,971.6022Q650.5219,971.26404,650.4554,970.9963L650.3474,970.441L650.20435,969.9507Q649.696,968.3642,649.3729,967.77966Q648.9323,967.0151,648.79205,966.8633Q648.5626,966.6013,648.3444,966.5664 M635.86475,963.82245L635.85236,963.82245Q635.61945,963.8761,635.64655,964.4707Q635.7086,965.0038,636.1064,966.27905Q638.2671,972.02185,638.8705,973.3269Q639.3155,974.4547,639.9683,975.2984Q640.54865,976.0933,641.1562,976.0574Q641.94855,976.0375,642.636,975.29553Q642.87036,974.60504,642.33417,973.53357Q641.6142,971.92993,637.90466,965.996Q637.38293,965.20306,636.5694,964.30975Q636.1362,963.87463,635.86475,963.82245 M632.39594,968.3291L632.3529,968.3343Q632.1768,968.3788,631.94946,968.7773Q631.85223,968.94727,631.8935,969.18146Q632.19403,970.9794,633.5034,974.3378Q634.2334,976.1559,634.99744,977.3597Q635.6834,978.28534,636.22375,978.0883Q636.7551,978.0205,637.2339,977.5399Q637.2918,977.4277,637.32074,977.29285Q637.35333,977.2395,637.3429,976.8398Q637.31445,976.5045,637.17084,976.08093Q636.4374,974.39185,636.3283,974.2238Q634.80896,971.37286,633.9827,970.00256Q632.9354,968.352,632.39594,968.3291 M593.7113,977.6121L593.70953,977.6123Q593.5646,977.6163,593.52985,977.66Q593.48254,977.7043,593.4956,977.789Q593.5614,978.07416,593.85455,978.3094Q594.1801,978.54865,594.4406,978.6393Q594.58124,978.6924,594.72656,978.72455Q594.8721,978.756,595.0219,978.76685L595.17316,978.77203L595.219,978.7717Q595.26764,978.7631,595.31635,978.7546L595.37994,978.72186L595.41034,978.6749Q595.4213,978.61676,595.3776,978.55084Q595.2861,978.42725,595.1926,978.3583Q595.0965,978.2767,594.9122,978.16113L594.7192,978.04816Q594.6535,978.00165,594.4819,977.8976Q594.45044,977.8774,594.2616,977.7806Q594.08356,977.69684,593.98834,977.6685Q593.8445,977.61975,593.7113,977.6121 M621.60596,975.19965L621.5482,975.2036Q621.4639,975.21295,621.4111,975.2626Q621.3062,975.42206,621.3229,975.5022Q621.31104,975.7227,621.4244,976.10406Q621.7233,977.0567,622.9318,979.1143Q624.3502,981.4382,625.1653,982.28235Q625.43524,982.5873,625.82495,982.8536Q625.9785,982.8898,626.23175,982.87646Q627.916,982.7244,627.0534,981.01855Q626.61523,980.2239,625.44464,978.7148Q624.7734,977.8663,623.6425,976.65326Q623.118,976.09296,622.3654,975.50793Q622.0161,975.2486,621.60596,975.19965 M618.7496,979.4969L618.7453,979.497Q618.32404,979.5239,618.4771,980.4726Q618.5995,981.66,619.2798,983.41846Q620.1991,985.4595,621.1727,985.50226Q621.2876,985.50134,621.39764,985.4708Q621.6724,985.316,621.7692,985.21875Q621.90625,985.08826,622.00256,984.91925L622.13416,984.55164L622.147,984.1795L622.07947,983.7529L621.93884,983.28503Q621.5331,982.359,621.3809,982.12683Q620.98566,981.46967,620.4876,980.88947Q619.5374,979.86145,618.7496,979.4969 M612.33875,983.93304L612.323,983.9334L612.2527,983.94855Q612.1867,983.97644,612.1379,984.05597Q612.0891,984.136,612.05774,984.2673Q611.9949,984.52997,612.0012,985.0002Q612.0417,986.02423,612.1093,986.5295Q612.23004,987.2213,612.3592,987.6484Q612.6764,988.6284,613.078,989.0343L613.2835,989.2167L613.6974,989.38666L614.06476,989.42456L614.3817,989.34546L614.644,989.1632L614.8474,988.89417L614.988,988.55164L615.0615,988.1521L615.06396,987.70953L614.991,987.2389L614.83875,986.75555Q614.7071,986.4757,614.5584,986.1893L614.117,985.6192Q613.51245,984.8746,613.0941,984.4591L612.7222,984.12524Q612.55963,983.9997,612.4434,983.95593L612.33875,983.93304 M599.2392,1019.4754L599.2331,1019.4754Q599.0851,1019.4754,598.97144,1019.57764Q598.8232,1019.7278,598.79596,1019.7887Q598.7389,1019.878,598.68414,1019.9927Q598.6327,1020.1081,598.5896,1020.2393Q598.4888,1020.58185,598.4786,1020.6701Q598.4177,1020.96564,598.38654,1021.39166Q598.3916,1021.66583,598.45233,1021.853Q598.49835,1021.99805,598.66614,1022.23663Q598.8404,1022.48804,599.20166,1022.5054Q599.3773,1022.5116,599.70526,1022.38605L599.8217,1022.3061L599.9157,1022.20514Q600.0399,1021.99335,600.046,1021.92206Q600.0739,1021.7646,600.077,1021.5632Q600.07886,1021.2077,600.015,1020.84204Q599.88715,1020.2172,599.8083,1020.074Q599.66406,1019.7673,599.6317,1019.7415Q599.5706,1019.65283,599.5067,1019.5936Q599.3788,1019.4754,599.2392,1019.4754 M605.143,1015.99194L605.06366,1015.999Q604.8205,1015.9795,603.9845,1016.731Q603.7699,1016.9086,603.0069,1017.94104Q602.2858,1018.944,601.8406,1019.7563Q601.6862,1019.9892,601.3284,1020.8671Q601.2092,1021.20154,601.1592,1021.4882L601.142,1021.85156L601.1913,1022.1846L601.30695,1022.4878Q601.4088,1022.7185,601.7378,1023.0047Q603.109,1023.8953,604.50214,1023.7861Q604.562,1023.83563,605.142,1023.58356L605.4706,1023.34155L605.7488,1023.0082L605.97766,1022.58203L606.158,1022.0597L606.2907,1021.43976L606.3907,1020.5808Q606.5114,1017.99866,606.1612,1016.9283Q605.8338,1015.90247,605.143,1015.99194 M611.28033,1014.0279L611.243,1014.0296Q611.1071,1014.05194,611.0605,1014.1109Q610.8239,1014.4038,610.5792,1014.92706Q610.31647,1015.73004,609.7507,1018.0013Q609.5799,1018.67084,609.3346,1020.2384Q609.17065,1021.62585,609.2419,1022.40326Q609.34827,1023.67224,609.9322,1024.2864Q610.2892,1024.6187,610.4519,1024.6555Q611.4952,1024.9559,611.97784,1024.9285Q612.2245,1024.9103,612.50757,1024.7759L612.75934,1024.55L612.9426,1024.2068L613.06104,1023.7349L613.07684,1023.4632Q613.1332,1022.40094,613.0847,1021.7337Q612.7154,1017.81604,612.2852,1015.87946Q611.9966,1014.71686,611.81433,1014.5168Q611.65924,1014.23474,611.4952,1014.065Q611.3694,1014.02686,611.28033,1014.0279 M618.18286,1011.7895L618.1775,1011.78973Q617.5355,1011.7476,617.1193,1014.68494Q616.66003,1017.7965,616.61456,1023.06793Q616.74347,1023.9004,616.98785,1024.315Q617.1347,1024.7146,617.8736,1025.3657Q619.0731,1026.219,620.37286,1026.209Q621.4055,1026.2041,622.0316,1025.2375Q622.2254,1024.7869,622.1887,1024.5049Q622.215,1024.3008,621.99634,1022.78Q621.50616,1019.37634,619.6896,1014.21326Q619.4412,1013.4673,618.7542,1012.2821Q618.4421,1011.7209,618.18286,1011.7895 M586.7692,1028.883L586.7282,1028.8978Q586.55035,1029.1416,586.62836,1029.4136Q586.6786,1029.7178,586.8725,1030.1783Q587.37146,1030.9182,588.87555,1032.2877Q591.2384,1034.3164,592.92993,1035.4548Q594.9888,1036.8855,595.8012,1036.8712L596.1094,1036.5842L596.21185,1036.2133L596.1378,1035.7617L595.9027,1035.2439Q595.3143,1034.2395,594.0014,1033.0684Q591.84296,1031.3015,590.4679,1030.5337Q589.69543,1030.0762,588.9492,1029.7205L588.20935,1029.3905Q587.4764,1029.0858,586.7692,1028.883 M667.389,847.8874L667.4713,847.89136L635.588,878.1247Q635.4504,879.6032,652.5076,866.80963L628.81885,890.08746L646.78644,879.175L623.74255,899.8778L644.6609,892.8483L621.7522,907.5859L643.1993,909.0592L622.218,912.2621L636.0866,917.42847Q624.92786,916.7115,622.58386,917.15424Q620.9017,916.7249,632.3712,924.44116Q632.32007,924.7537,623.9726,922.0272Q623.3325,922.0485,624.4629,923.5265Q625.67993,924.79895,634.8832,930.8922Q643.721,921.18713,671.47217,904.788Q687.8899,895.90765,707.1596,889.52563Q753.96,878.92566,784.1999,883.9277L738.0247,888.70776Q744.552,889.75195,772.22253,890.2986L732.8598,894.94446Q731.09064,895.6959,733.62585,896.03046L756.8755,897.578L720.3038,902.0563L751.12555,908.39197L710.8586,908.5002Q710.8217,908.94934,716.0684,912.39716Q727.0658,919.4624,737.4398,925.7033Q704.45844,913.1095,706.48047,914.3229L719.7353,932.04626L701.4714,920.0446L709.70734,943.6104Q697.5054,924.8088,697.30566,926.6956L706.0468,954.77026L691.9453,931.9089L699.1058,959.2338L687.1469,939.7439Q684.5939,936.04987,684.99225,937.8678Q687.53107,950.9222,692.44586,962.9242Q731.3862,965.79004,737.25946,968.02496Q751.00055,970.76404,763.1462,974.8877Q787.43695,983.1355,805.3454,996.92285L766.8705,981.98956L796.429,998.84924L758.75854,984.6627L780.358,998.4648L744.7606,984.89404L771.5006,1005.57007L734.2769,986.8635L752.4402,1013.3987L728.7352,990.2606L729.3549,994.364L735.20905,1012.87335L722.1527,993.1691L721.45734,1015.26984L716.0437,996.50964L714.9278,1027.3876L710.386,1002.9118Q709.78143,1000.39557,708.69165,998.9308L706.7077,1026.0918L700.9737,999.6539L698.54913,1026.5242L694.88794,1005.0914Q694.507,1003.3288,693.91724,1003.5268L693.68713,1033.3838L686.47473,1000.9531L685.12976,1022.83484L681.37915,1003.24554Q680.9477,1001.0601,680.48,1002.47504L679.2392,1033.5457L672.9441,1000.1217Q672.3451,998.80334,671.99414,1000.46423L668.69995,1024.3837L665.881,1000.6121L659.9655,1038.8196L657.4089,1009.0563L654.35016,1035.0852L646.58954,1000.1186L646.5437,1024.1672L641.9735,1004.8038L640.6799,1034.6758L629.7289,1004.42053Q629.35767,1004.9831,629.49426,1007.0238L631.8497,1029.031Q628.4452,1014.51514,627.708,1012.6209Q625.85284,1006.57837,625.5218,1009.5555Q625.3172,1015.76276,626.71967,1028.2979L642.5562,1039.2628L572.1632,1039.2625L572.16205,933.83215L578.1758,950.832L572.539,886.751L581.56506,929.67Q582.76654,934.3132,583.0382,933.8159L583.7074,851.30817L588.47327,902.7827Q588.85175,903.6128,590.202,900.87805L600.1989,876.17316L592.71783,914.37506Q592.61053,915.6149,593.159,914.9515Q596.6353,907.4636,596.7316,908.31665L587.03845,949.1782Q602.9553,906.212,607.42773,900.0034L653.03644,857.3121Q663.60675,848.99304,667.389,847.8874 Z"></path></g><g style="fill:rgb(80,134,38); fill-opacity:1.0; stroke-linejoin: miter"><path d="M70.46822,895.09485L70.440094,895.09534Q70.030396,895.098,69.64038,895.2481Q69.49424,895.2998,69.32226,895.4349Q69.22801,895.51624,69.18841,895.6037Q69.1118,895.76117,69.2316,895.93335Q69.43544,896.06287,70.02846,896.06335Q70.218185,896.0609,70.440735,896.04126Q70.53839,896.02966,70.63599,896.0181Q71.013306,895.958,71.06891,895.94366Q71.47922,895.85114,71.57242,895.69165Q71.590515,895.6575,71.591934,895.62054Q71.58089,895.52576,71.558624,895.5034Q71.494995,895.39655,71.319145,895.2872Q70.99669,895.1047,70.46822,895.09485 Z"></path></g><g style="fill:rgb(2,95,108); fill-opacity:1.0; stroke-linejoin: miter"><path d="M98.66832,927.35974L98.71912,927.3617Q98.98225,927.4055,98.88835,927.67694Q98.70448,928.1467,98.09707,928.77203Q97.32533,929.5797,95.58739,930.7654Q93.83661,931.8777,92.50525,932.521Q91.83952,932.8428,91.27869,933.047Q90.717865,933.25134,90.261856,933.33844L89.832115,933.3968Q89.02341,933.3563,89.23103,932.68134Q89.41793,932.34357,90.607,931.5006Q92.52508,930.25433,95.37375,928.7661Q97.01693,927.9276,97.79592,927.6079Q98.27041,927.39545,98.66832,927.35974 M100.2895,932.556L100.29675,932.5568Q100.805214,932.561,100.531265,933.0929Q100.27365,933.66394,98.797,935.2027Q95.79048,938.13306,94.58774,938.35175L94.41789,938.3251Q94.24989,938.2857,94.0898,938.1946Q93.929726,938.1037,93.777405,937.9616Q93.47282,937.6771,93.19948,937.1867Q92.972565,936.6319,93.497185,936.0739Q94.755844,934.9288,96.865875,933.85333Q99.30528,932.5907,100.2895,932.556 M101.62633,937.4314L101.71704,937.45624Q101.814354,937.7162,100.97167,938.70166Q100.40005,939.3837,99.594345,940.0506Q99.452225,940.1786,98.86832,940.55176Q98.64227,940.6854,98.43707,940.7746Q97.79112,941.0334,97.45795,940.9253Q97.40009,940.9233,97.23528,940.8235Q97.17662,940.7785,97.13861,940.7184Q97.06275,940.5978,97.06981,940.41785Q97.09305,940.27515,97.23609,940.07983Q97.527725,939.71985,97.781235,939.5093Q98.12239,939.1962,99.14775,938.6029L100.57316,937.8467L100.873436,937.69855L101.197655,937.55237L101.46915,937.4572L101.62633,937.4314 M105.41727,940.9277L105.474625,940.9292Q105.74866,940.9351,105.82977,941.1511Q105.88007,941.2101,105.72388,941.67737Q105.4998,942.26044,104.70835,943.02234Q104.25626,943.42896,103.762726,943.78107Q102.884605,944.379,102.4638,944.5771Q101.312256,945.154,100.76257,945.10034Q100.50698,945.0726,100.409325,944.86456Q100.22113,944.36523,100.24336,944.11395Q100.28895,943.3125,100.99286,942.60626Q101.76269,941.87115,102.91039,941.43555Q103.436516,941.23804,104.39627,941.02844Q104.88672,940.92816,105.41727,940.9277 M106.12554,944.79126L106.13352,944.79126Q106.31227,944.7894,106.35688,944.80707Q106.6536,944.9092,106.74825,944.96796L107.02191,945.17737L107.11054,945.3635L107.125465,945.5927L107.07123,945.8569Q106.908325,946.25464,106.84536,946.3542Q106.679825,946.63995,106.182846,947.1883Q105.89022,947.49255,105.553314,947.749Q104.61616,948.4734,104.03372,948.54834L103.7679,948.5438L103.55284,948.4684L103.39167,948.33185L103.28774,948.1429L103.24412,947.9098L103.26401,947.64197L103.35071,947.3486L103.50731,947.0377Q103.60942,946.7665,105.104614,945.3886Q105.3602,945.15643,105.76663,944.9092Q105.98409,944.79126,106.12554,944.79126 M112.19529,948.477L112.223564,948.4778Q112.32194,948.48785,112.340996,948.5141L112.38534,948.7314Q112.322464,949.0812,112.140076,949.37476Q111.58614,950.263,110.42408,951.3784Q109.67807,952.0895,108.82617,952.5932Q108.551506,952.74524,108.25819,952.8352L108.20248,952.849L107.62854,952.8909L107.269,952.833L107.03015,952.69543L106.9076,952.4881L106.89673,952.222Q106.94064,951.95,107.13948,951.634Q107.245,951.40894,107.87869,950.77454Q108.73965,950.0019,109.79773,949.4488Q110.71499,948.97015,111.18512,948.77844Q112.04468,948.4446,112.19529,948.477 M113.70467,952.8851L113.72809,952.88586Q114.0097,952.89905,113.92803,953.5743Q113.63602,954.6704,113.137184,955.52783Q112.69511,956.3008,112.16433,956.7354Q111.83633,957.0271,111.39199,957.0258Q111.32912,957.03424,111.08879,956.9175Q110.99686,956.86127,110.9173,956.77844Q110.76344,956.63,110.6374,956.3084Q110.600426,956.17035,110.64908,955.96564Q110.69256,955.80524,110.891945,955.40906Q111.12001,955.00946,111.41416,954.6335Q111.95182,953.9834,112.253105,953.73047Q113.14898,952.90356,113.70467,952.8851 M42.05207,943.5656L42.05889,943.566Q42.60288,943.706,42.52763,944.23517Q42.450035,944.9991,41.986416,946.42834Q40.02003,952.56116,37.06486,959.5955Q36.593174,960.6567,35.91129,962.1169Q35.073036,963.7826,34.60193,964.29834Q33.93025,964.58887,32.77442,964.5472Q31.785925,964.49426,31.644327,963.9272L31.589602,963.5829Q31.575436,963.19714,31.723827,962.64465Q31.87222,962.092,32.18314,961.37286Q33.22093,958.8921,39.344624,947.84894Q41.400368,944.06805,42.05207,943.5656 M50.09283,944.1254L50.126423,944.129Q50.431156,943.9887,50.343357,945.4268Q50.248333,946.33905,49.907925,947.5388L48.70284,951.6179Q45.821617,960.11145,45.2994,961.32324Q44.091915,964.3694,43.26502,965.4524Q42.86078,965.7485,41.26079,965.63007Q38.887737,965.20123,38.717896,964.81384Q38.187206,964.3905,38.478237,963.69L39.18805,962.34955L48.16718,946.58215Q49.70715,944.184,50.09283,944.1254 M54.935814,948.7248L54.9655,948.9536Q55.055122,949.4342,54.66285,951.1498Q54.504135,952.08936,52.929012,957.36694Q51.44816,962.13153,50.114944,964.85864Q49.45156,965.9468,49.152466,966.2786Q48.772194,966.61804,48.471653,966.68884Q47.119156,967.03156,45.788315,965.98145Q45.770508,965.6897,45.966568,965.066Q46.643715,963.2159,47.03555,962.4476Q47.99161,960.3571,50.112053,956.3255Q50.840107,954.92505,53.312263,950.71375L54.352043,949.2425L54.86689,948.73956L54.935814,948.7248 M121.29783,966.06647L121.31809,966.0667Q121.4612,966.0595,121.63798,966.14923Q121.7883,966.2649,121.81588,966.4385Q121.86789,966.82605,121.51895,967.35046Q121.304825,967.72565,120.772194,968.1114Q120.60961,968.22284,120.481,968.2741Q120.341515,968.32184,120.131195,968.3689Q120.08537,968.3778,119.96141,968.3805Q119.42549,968.3658,119.21402,968.0773Q118.99214,967.74194,119.255646,967.32526Q119.55885,966.8543,120.203674,966.4567Q120.56564,966.2577,120.84826,966.14844Q121.11116,966.0701,121.29783,966.06647 M62.820663,949.7213L62.9561,949.75555Q63.40628,949.9144,63.413216,950.60236Q63.334614,952.21204,62.928467,954.19995Q61.142387,962.6458,59.4607,967.53375Q59.213585,968.1887,58.88983,968.7263Q57.309124,969.0403,55.89638,968.6566Q54.522728,968.37006,53.794296,967.7612Q53.66594,967.66376,53.56169,967.22015Q53.541656,967.15735,53.64793,966.8654Q54.349648,964.9652,59.463276,955.16644Q62.456436,949.69775,62.820663,949.7213 M68.45796,954.6231L68.47626,954.624Q68.72777,954.7232,68.81389,955.34314Q68.843094,955.51245,68.702415,956.79474Q68.38944,959.38885,67.35472,964.25385Q66.921165,966.31335,65.95652,969.9093Q65.34711,971.02014,65.026184,970.914Q64.43638,971.05585,61.54715,969.2349Q61.789726,968.2342,62.823875,965.53625Q64.22699,962.0205,65.865974,958.422Q66.49004,957.0695,67.071465,956.1687Q67.51933,955.3661,68.45796,954.6231 M73.70469,966.9676L73.70966,966.96844Q73.85057,966.9108,73.98459,967.2721Q74.06175,967.3482,74.04007,967.89026Q74.033066,968.8415,73.57575,970.3802Q73.43474,970.8339,73.27368,971.2099Q73.15851,971.51404,72.840126,972.02905Q72.67459,972.2823,72.280266,972.5944Q72.17671,972.6508,71.977875,972.66785Q71.76762,972.6654,71.65759,972.48505Q71.56909,972.34845,71.54776,972.0034Q71.52727,971.66516,71.59384,971.3971L71.70187,970.84204L71.844955,970.35187Q72.35323,968.76544,72.67621,968.1809Q73.11685,967.41626,73.25714,967.26447Q73.48651,967.00256,73.70469,966.9676 M86.18451,964.22375L86.196915,964.224Q86.42983,964.2775,86.4028,964.87195Q86.34065,965.40515,85.942856,966.6805Q83.78226,972.4233,83.178894,973.72815Q82.73395,974.85614,82.081055,975.6998Q81.50064,976.4949,80.893234,976.45856Q80.10074,976.4389,79.41339,975.69684Q79.178986,975.0063,79.71517,973.93475Q80.43524,972.33136,84.14461,966.39716Q84.666275,965.6044,85.47973,964.71106Q85.91282,964.2762,86.18451,964.22375 M89.6532,968.7304L89.69638,968.7356Q89.8723,968.7802,90.099815,969.1786Q90.19704,969.3488,90.1557,969.58276Q89.85536,971.3807,88.54591,974.73914Q87.815865,976.55707,87.05188,977.761Q86.36589,978.68677,85.82555,978.4895Q85.29416,978.42194,84.81536,977.94116Q84.75757,977.82886,84.72869,977.6944Q84.69614,977.6408,84.70651,977.2414Q84.73485,976.90594,84.878494,976.48236Q85.61195,974.793,85.72106,974.62537Q87.240395,971.7736,88.066536,970.4041Q89.11384,968.75354,89.6532,968.7304 M128.3381,978.01355L128.3399,978.0137Q128.4849,978.0178,128.51959,978.0613Q128.56671,978.1059,128.55388,978.1904Q128.48785,978.4757,128.19485,978.7108Q127.86931,978.94995,127.6088,979.04065Q127.46819,979.0937,127.32286,979.12585Q127.17742,979.1578,127.027435,979.16815L126.87618,979.17346L126.83031,979.1733Q126.78168,979.1645,126.733025,979.156L126.669395,979.12317L126.63904,979.0765Q126.62811,979.0183,126.67159,978.95215Q126.763435,978.82855,126.85679,978.75977Q126.952965,978.678,127.13718,978.56244L127.33029,978.44946Q127.39586,978.403,127.56758,978.299Q127.598915,978.27893,127.78781,978.1821Q127.96592,978.09827,128.06107,978.06964Q128.20496,978.0214,128.3381,978.01355 M100.44347,975.6009L100.501175,975.6048Q100.58544,975.61426,100.638374,975.66376Q100.74317,975.82324,100.72658,975.9035Q100.738434,976.1239,100.62499,976.50525Q100.326035,977.458,99.11757,979.51556Q97.699104,981.8392,96.884,982.68353Q96.614105,982.98846,96.22444,983.2548Q96.070755,983.291,95.817566,983.2777Q94.13325,983.1256,94.99593,981.41974Q95.43414,980.62506,96.60465,979.116Q97.27584,978.26733,98.40678,977.05444Q98.931274,976.4944,99.68405,975.9092Q100.0333,975.6498,100.44347,975.6009 M103.29983,979.8983L103.30402,979.8991Q103.725204,979.9251,103.57233,980.87396Q103.45001,982.061,102.76969,983.8199Q101.85034,985.8609,100.8767,985.9037Q100.76185,985.9024,100.6519,985.872Q100.37701,985.71716,100.28027,985.61993Q100.14325,985.48975,100.04692,985.3202L99.91524,984.9528L99.902405,984.58105L99.97002,984.15436L100.11049,983.6862Q100.51638,982.7602,100.668526,982.528Q101.06369,981.87085,101.56183,981.29095Q102.51193,980.2627,103.29983,979.8983 M109.710396,984.3344L109.726234,984.33484L109.79663,984.3501Q109.862656,984.37787,109.91143,984.45734Q109.9602,984.5371,109.99165,984.6686Q110.05453,984.93164,110.04814,985.4015Q110.00761,986.426,109.94011,986.9309Q109.81935,987.62274,109.690125,988.05005Q109.37305,989.0297,108.9715,989.43585L108.76592,989.61835L108.35211,989.78796L107.98459,989.82623L107.66772,989.7467L107.40545,989.56476L107.20193,989.29535L107.061455,988.95306L106.98777,988.5538L106.98537,988.11096L107.058395,987.64044L107.2106,987.15674Q107.342224,986.8769,107.490875,986.5907L107.93241,986.0204Q108.536934,985.2761,108.95531,984.8604L109.32717,984.52655Q109.489815,984.401,109.60597,984.3573L109.710396,984.3344 M122.810196,1019.877L122.81627,1019.87775Q122.96437,1019.877,123.07804,1019.979Q123.22632,1020.12933,123.253494,1020.19006Q123.310356,1020.2795,123.36523,1020.3943Q123.41663,1020.50946,123.45982,1020.6407Q123.5606,1020.98346,123.57092,1021.0717Q123.631744,1021.367,123.662994,1021.7926Q123.65771,1022.0672,123.597084,1022.25446Q123.55083,1022.39966,123.38321,1022.638Q123.20906,1022.8895,122.84784,1022.9074Q122.67216,1022.9133,122.344154,1022.7874L122.22756,1022.7075L122.133896,1022.60675Q122.00964,1022.39496,122.00325,1022.3235Q121.9755,1022.16595,121.972404,1021.96454Q121.97058,1021.6092,122.03445,1021.2434Q122.16234,1020.61884,122.2412,1020.47534Q122.385315,1020.1689,122.417694,1020.1429Q122.47867,1020.0542,122.54273,1019.99524Q122.67062,1019.877,122.810196,1019.877 M116.90639,1016.3934L116.985916,1016.4004Q117.22904,1016.381,118.06478,1017.1326Q118.279465,1017.30975,119.04247,1018.3424Q119.76359,1019.3458,120.20873,1020.1579Q120.363106,1020.3908,120.72109,1021.2686Q120.8402,1021.603,120.89024,1021.88983L120.90739,1022.2529L120.85806,1022.5863L120.7424,1022.8895Q120.64055,1023.12,120.311676,1023.40607Q118.94039,1024.2966,117.54728,1024.1875Q117.48735,1024.237,116.907425,1023.98505L116.57887,1023.7428L116.30062,1023.40985L116.07186,1022.9834L115.891464,1022.4613L115.75863,1021.8411L115.65866,1020.9822Q115.53805,1018.40015,115.88814,1017.32965Q116.21554,1016.30383,116.90639,1016.3934 M110.769196,1014.42914L110.80652,1014.43085Q110.94239,1014.4533,110.98891,1014.51227Q111.2255,1014.8053,111.47034,1015.3284Q111.732864,1016.13165,112.2987,1018.40314Q112.46976,1019.0722,112.71473,1020.64026Q112.87885,1022.0272,112.80768,1022.805Q112.70109,1024.0739,112.11716,1024.6877Q111.760155,1025.02,111.59754,1025.057Q110.55426,1025.3574,110.07171,1025.3298Q109.82479,1025.312,109.541855,1025.1774L109.29019,1024.9514L109.10691,1024.6082L108.98838,1024.1365L108.97271,1023.8647Q108.91631,1022.80255,108.96479,1022.1353Q109.33405,1018.21765,109.76422,1016.28107Q110.052734,1015.1186,110.2351,1014.91815Q110.39008,1014.63635,110.5542,1014.4666Q110.68013,1014.42847,110.769196,1014.42914 M103.86657,1012.19086L103.87186,1012.1911Q104.51399,1012.14886,104.9302,1015.0867Q105.389336,1018.198,105.4349,1023.4694Q105.30585,1024.3018,105.06151,1024.7161Q104.91489,1025.1165,104.175735,1025.7671Q102.97649,1026.6204,101.676605,1026.6102Q100.64396,1026.6057,100.01784,1025.6388Q99.824005,1025.1886,99.86066,1024.9065Q99.83449,1024.7024,100.05305,1023.1815Q100.54338,1019.7776,102.3599,1014.615Q102.60817,1013.8688,103.29526,1012.6837Q103.60737,1012.1224,103.86657,1012.19086 M135.28043,1029.2847L135.32127,1029.2993Q135.49908,1029.5432,135.42104,1029.8152Q135.37091,1030.1191,135.17693,1030.5796Q134.6781,1031.3195,133.17389,1032.6895Q130.81113,1034.718,129.11957,1035.856Q127.060684,1037.2869,126.248215,1037.2725L125.940125,1036.9855L125.837616,1036.6147L125.91168,1036.163L126.14674,1035.6453Q126.73519,1034.6409,128.04797,1033.4697Q130.20654,1031.7032,131.58153,1030.9354Q132.35399,1030.4777,133.10028,1030.1217L133.84001,1029.792Q134.57336,1029.4873,135.28043,1029.2847 M54.660217,848.2886L54.577972,848.2925L86.46123,878.52576Q86.59874,880.0042,69.54166,867.2109L93.230545,890.489L75.262726,879.57574L98.306595,900.2791L77.38843,893.2494L100.297295,907.98694L78.85,909.4604L99.83151,912.6633L85.96266,917.8298Q97.12161,917.11304,99.46544,917.5556Q101.14779,917.1262,89.678024,924.8424Q89.72931,925.1551,98.076744,922.42865Q98.71686,922.4496,97.58653,923.9279Q96.36922,925.2003,87.16607,931.2936Q78.32822,921.5883,50.577034,905.1892Q34.15918,896.3087,14.889507,889.92694Q-31.911064,879.3268,-62.150894,884.3288L-15.975708,889.109Q-22.503048,890.15344,-50.17356,890.6996L-10.810734,895.3456Q-9.041626,896.0975,-11.576977,896.4315L-34.826454,897.979L1.7453804,902.45776L-29.07653,908.7933L11.190556,908.9014Q11.227386,909.3509,5.980917,912.7987Q-5.016697,919.8635,-15.390701,926.10474Q17.590767,913.5109,15.568676,914.7242L2.3137932,932.4476L20.577827,920.4458L12.341871,944.01184Q24.543873,925.21,24.743492,927.09674L16.002403,955.17145L30.104065,932.31006L22.94322,959.6351L34.902412,940.14526Q37.45531,936.45105,37.056995,938.269Q34.51809,951.32336,29.603327,963.3254Q-9.337139,966.19135,-15.2104645,968.4263Q-28.951576,971.1652,-41.097107,975.28925Q-65.38807,983.53674,-83.29632,997.3244L-44.82138,982.39075L-74.380165,999.2507L-36.709717,985.06396L-58.30886,998.86584L-22.711666,985.2956L-49.45169,1005.97156L-12.227787,987.2653L-30.39122,1013.8002L-6.6861534,990.6618L-7.3059998,994.76544L-13.159996,1013.2752L-0.103523254,993.57043L0.5918045,1015.6712L6.0054874,996.911L7.121504,1027.789L11.663107,1003.3132Q12.267775,1000.7969,13.357542,999.3321L15.341618,1026.4929L21.07547,1000.0554L23.500416,1026.9255L27.161324,1005.4927Q27.542147,1003.7302,28.132013,1003.9281L28.362219,1033.7852L35.574467,1001.3548L36.919563,1023.23645L40.670288,1003.6467Q41.101677,1001.4613,41.569313,1002.8763L42.810074,1033.947L49.105347,1000.52295Q49.704147,999.2048,50.05525,1000.8654L53.349266,1024.7849L56.168396,1001.01337L62.08374,1039.2211L64.640564,1009.4574L67.699036,1035.4863L75.459854,1000.5197L75.50562,1024.5681L80.075905,1005.20544L81.36955,1035.0771L92.32052,1004.82196Q92.69163,1005.38434,92.555084,1007.4253L90.199615,1029.4326Q93.60415,1014.9162,94.34131,1013.0225Q96.19656,1006.9797,96.52763,1009.9567Q96.73215,1016.16425,95.32976,1028.6992L79.49327,1039.6643L149.88638,1039.6636L149.88744,934.23315L143.87372,951.2332L149.51054,887.15234L140.48431,930.0715Q139.28279,934.71423,139.01128,934.21765L138.34195,851.7096L133.57608,903.1841Q133.19766,904.0142,131.84737,901.2794L121.85052,876.5745L129.3316,914.77637Q129.43904,916.0161,128.89041,915.3529Q125.414116,907.8653,125.31785,908.71814L135.0111,949.57983Q119.09404,906.6133,114.62167,900.40515L69.01284,857.7134Q58.442455,849.39404,54.660217,848.2886 Z"></path></g><g style="fill:rgb(255,255,255); fill-opacity:1.0; stroke-linejoin: miter"><path d="M214.72302,1001.3983L214.72302,1001.39844C214.7231,1001.3983,214.72333,1001.3983,214.72333,1001.3983L214.72278,1001.39844C214.68217,1001.39844,214.62874,1001.4251,214.56223,1001.4782L214.56223,1001.4789C214.62897,1001.4251,214.68248,1001.39844,214.72235,1001.3983 Z"></path></g><g style="fill:rgb(2,95,108); fill-opacity:1.0; stroke-linejoin: miter"><path d="M172.72868,933.45135L172.77954,933.45355Q173.04262,933.49725,172.94878,933.76855Q172.76491,934.23846,172.1575,934.8636Q171.38576,935.67145,169.64781,936.8572Q167.89703,937.9692,166.56561,938.6127Q165.89995,938.9345,165.33911,939.139Q164.77829,939.34296,164.32239,939.4301L163.89249,939.4884Q163.08377,939.4483,163.29146,938.7731Q163.47836,938.43555,164.66743,937.5925Q166.5856,936.3458,169.43413,934.8577Q171.07736,934.0196,171.8563,933.69946Q172.33084,933.4872,172.72868,933.45135 M174.34993,938.6476L174.35718,938.64856Q174.86565,938.6527,174.59169,939.18463Q174.33408,939.75586,172.85754,941.29443Q169.85085,944.2247,168.64813,944.4431L168.47826,944.41675Q168.31033,944.37744,168.15022,944.28656Q167.99016,944.19543,167.83783,944.0532Q167.53325,943.76886,167.2599,943.27844Q167.03294,942.7235,167.55762,942.1655Q168.81627,941.0205,170.92625,939.94543Q173.3657,938.6827,174.34993,938.6476 M175.68675,943.523L175.77747,943.5482Q175.87483,943.8077,175.0321,944.7933Q174.46048,945.4755,173.65471,946.14233Q173.51265,946.2703,172.92886,946.6436Q172.7027,946.7773,172.4975,946.86646Q171.85155,947.1251,171.51837,947.01697Q171.46053,947.015,171.29572,946.9151Q171.23705,946.87036,171.19904,946.81036Q171.12312,946.6895,171.13017,946.50946Q171.15344,946.3669,171.29646,946.1716Q171.58815,945.81195,171.84166,945.6009Q172.18282,945.2876,173.20815,944.69464L174.63353,943.93823L174.9338,943.7902L175.25803,943.6441L175.52957,943.54877L175.68675,943.523 M179.47762,947.0193L179.53503,947.0211Q179.8091,947.0268,179.8903,947.2428Q179.94049,947.302,179.78429,947.7691Q179.56021,948.35236,178.7687,949.11383Q178.31668,949.5206,177.82315,949.87274Q176.94504,950.4708,176.52423,950.6688Q175.37268,951.2457,174.823,951.19196Q174.56747,951.1642,174.46976,950.9563Q174.28168,950.45685,174.30373,950.2057Q174.34938,949.4042,175.05334,948.6979Q175.82312,947.96277,176.97083,947.52704Q177.49695,947.3298,178.4567,947.12Q178.94713,947.0198,179.47762,947.0193 M180.18596,950.8829L180.19394,950.8838Q180.37268,950.8811,180.4174,950.8988Q180.71396,951.0008,180.80867,951.0596L181.08232,951.2691L181.17096,951.45526L181.18599,951.6843L181.13164,951.9485Q180.96873,952.3465,180.90584,952.4457Q180.74023,952.7317,180.24326,953.28015Q179.95064,953.5843,179.61372,953.84076Q178.67657,954.5651,178.09413,954.64L177.82831,954.6352L177.61322,954.56L177.4521,954.42377L177.34818,954.2344L177.30455,954.00146L177.32446,953.73413L177.41113,953.4403L177.56773,953.12946Q177.66985,952.85803,179.16496,951.48035Q179.42061,951.2479,179.82716,951.0008Q180.04448,950.8829,180.18596,950.8829 M186.25583,954.56854L186.28398,954.5695Q186.38235,954.5795,186.40141,954.6057L186.44576,954.82306Q186.3829,955.17303,186.2005,955.4664Q185.64656,956.3548,184.4845,957.47003Q183.73848,958.18085,182.88658,958.68494Q182.61192,958.83685,182.31848,958.92694L182.2629,958.9407L181.68895,958.9824L181.3294,958.92474L181.09068,958.7871L180.96796,958.5798L180.95709,958.3137Q181.00105,958.0415,181.19989,957.72546Q181.30542,957.5007,181.9391,956.8665Q182.80017,956.09357,183.85814,955.5405Q184.77553,955.06213,185.24553,954.87006Q186.10509,954.5363,186.25583,954.56854 M187.76509,958.9767L187.78851,958.9776Q188.07011,958.99066,187.98845,959.66595Q187.69644,960.7621,187.1976,961.6198Q186.75552,962.39233,186.22475,962.82715Q185.8968,963.119,185.45241,963.11743Q185.3895,963.126,185.14914,963.00885Q185.05727,962.9532,184.9777,962.8702Q184.82385,962.72156,184.69781,962.4002Q184.66084,962.262,184.70949,962.0574Q184.75285,961.897,184.95236,961.5009Q185.18042,961.10114,185.47458,960.725Q186.01218,960.07513,186.31348,959.8221Q187.2094,958.9953,187.76509,958.9767 M116.11251,949.6576L116.11933,949.65784Q116.66343,949.7981,116.588066,950.32715Q116.510475,951.09106,116.04685,952.5202Q114.08047,958.6531,111.125305,965.6874Q110.65368,966.7486,109.97173,968.209Q109.13342,969.87463,108.66243,970.3904Q107.99069,970.6807,106.83481,970.6392Q105.84637,970.58594,105.70477,970.0193L105.65005,969.67505Q105.63585,969.28894,105.784325,968.73676Q105.93272,968.1839,106.24358,967.46484Q107.28137,964.98395,113.40506,953.94104Q115.46086,950.15985,116.11251,949.6576 M124.15338,950.21747L124.18685,950.2212Q124.491585,950.0807,124.40379,951.5185Q124.30885,952.431,123.96836,953.6305L122.76327,957.7097Q119.881996,966.2036,119.35989,967.41516Q118.15235,970.4611,117.325455,971.54443Q116.92122,971.84045,115.32123,971.7218Q112.94812,971.2933,112.77839,970.906Q112.24764,970.4824,112.53867,969.782L113.24849,968.4414L122.22761,952.67395Q123.7677,950.27576,124.15338,950.21747 M128.99625,954.8167L129.02592,955.0455Q129.11566,955.5263,128.72327,957.2415Q128.56456,958.18085,126.98944,963.4587Q125.50859,968.22345,124.175385,970.9505Q123.512,972.0389,123.212906,972.3704Q122.832634,972.70996,122.53209,972.7807Q121.179596,973.1235,119.848694,972.0736Q119.83095,971.7819,120.02701,971.1581Q120.70415,969.30786,121.095985,968.53937Q122.05199,966.4487,124.1726,962.41736Q124.90054,961.01685,127.37269,956.80566L128.41248,955.3344L128.92743,954.8314L128.99625,954.8167 M195.3582,972.15845L195.37852,972.15845Q195.52162,972.1512,195.69835,972.241Q195.84872,972.35657,195.87625,972.53Q195.92831,972.9177,195.57927,973.44226Q195.36525,973.8176,194.83263,974.2032Q194.67004,974.3145,194.54153,974.36566Q194.40193,974.4135,194.19156,974.46045Q194.1458,974.4695,194.02184,974.47205Q193.48592,974.45746,193.27444,974.1688Q193.0525,973.8335,193.31607,973.4172Q193.61928,972.94617,194.2641,972.54865Q194.626,972.34937,194.90869,972.2401Q195.17159,972.1622,195.3582,972.15845 M136.88109,955.8133L137.01654,955.84766Q137.46677,956.0064,137.47359,956.6941Q137.39499,958.30365,136.98883,960.2918Q135.20282,968.7377,133.52115,973.6259Q133.27402,974.28064,132.95021,974.81824Q131.36957,975.1321,129.95688,974.74854Q128.58316,974.4621,127.85482,973.85315Q127.72638,973.75586,127.62213,973.31195Q127.6021,973.24927,127.70843,972.95715Q128.4101,971.0571,133.52371,961.2582Q136.51697,955.7895,136.88109,955.8133 M142.51834,960.7147L142.53668,960.7159Q142.78821,960.81494,142.87433,961.43475Q142.90346,961.6043,142.76285,962.8866Q142.44989,965.48065,141.41516,970.34564Q140.98161,972.4052,140.01707,976.0011Q139.40756,977.1121,139.08664,977.00574Q138.49683,977.148,135.60759,975.3267Q135.85016,974.326,136.88431,971.62836Q138.28741,968.11255,139.9264,964.514Q140.55048,963.1614,141.13184,962.2607Q141.57976,961.4579,142.51834,960.7147 M147.76514,973.0594L147.77005,973.0603Q147.91101,973.0026,148.04503,973.3642Q148.12213,973.43994,148.1005,973.9822Q148.0935,974.93304,147.63614,976.4721Q147.49512,976.92584,147.3341,977.302Q147.21906,977.6058,146.90056,978.121Q146.73502,978.3746,146.3407,978.6863Q146.23718,978.7426,146.03831,978.75977Q145.82806,978.75757,145.71802,978.5769Q145.62953,978.44037,145.6082,978.0954Q145.5877,977.757,145.65422,977.48926L145.76231,976.93396L145.9054,976.44385Q146.41367,974.8573,146.73665,974.2729Q147.17728,973.5084,147.31758,973.3563Q147.54694,973.0944,147.76514,973.0594 M160.24495,970.3154L160.25735,970.3157Q160.49026,970.3692,160.4632,970.9638Q160.40103,971.4969,160.00323,972.77216Q157.8427,978.51483,157.23932,979.8199Q156.79433,980.94794,156.1415,981.7916Q155.56108,982.5863,154.95367,982.55035Q154.16118,982.5306,153.47383,981.7885Q153.23932,981.09784,153.7756,980.02655Q154.4957,978.4231,158.20505,972.4891Q158.72672,971.69617,159.54016,970.80286Q159.97327,970.3679,160.24495,970.3154 M163.71358,974.82214L163.75677,974.8274Q163.93274,974.8719,164.16025,975.2704Q164.25748,975.4406,164.21614,975.67456Q163.91571,977.47235,162.60635,980.8308Q161.87631,982.64874,161.1123,983.85266Q160.42633,984.7782,159.88599,984.5813Q159.3546,984.51373,158.8758,984.0329Q158.81813,983.92065,158.78912,983.78625Q158.75658,983.7325,158.7669,983.3332Q158.79532,982.9976,158.93893,982.5739Q159.6724,980.8848,159.7815,980.71704Q161.30084,977.8654,162.12698,976.49567Q163.17422,974.8453,163.71358,974.82214 M202.39853,984.1051L202.40034,984.1053Q202.54532,984.1095,202.57996,984.1532Q202.62726,984.19745,202.6143,984.2822Q202.54839,984.56714,202.25528,984.80237Q201.92967,985.0416,201.66922,985.13226Q201.52861,985.18536,201.38329,985.2174Q201.23784,985.2493,201.08783,985.2598L200.93669,985.26526L200.89078,985.26483Q200.8421,985.2561,200.7934,985.24756L200.72981,985.21484L200.69958,985.16815Q200.68854,985.11,200.73207,985.0438Q200.82385,984.92035,200.9172,984.85126Q201.01338,984.76965,201.1976,984.65424L201.3906,984.54114Q201.45628,984.49475,201.628,984.39056Q201.65933,984.3705,201.84827,984.2738Q202.02634,984.19006,202.12149,984.1615Q202.26543,984.1129,202.39853,984.1051 M174.5039,981.6926L174.56161,981.6966Q174.64589,981.70593,174.69876,981.75555Q174.80362,981.91504,174.78696,981.99536Q174.79887,982.2156,174.68538,982.59705Q174.38647,983.5499,173.17801,985.6073Q171.75949,987.93097,170.94444,988.7752Q170.67455,989.0805,170.28488,989.34644Q170.1312,989.38275,169.878,989.36945Q168.1937,989.2174,169.05638,987.51154Q169.49458,986.71674,170.6651,985.2077Q171.33629,984.35925,172.46716,983.14624Q172.99171,982.58606,173.74446,982.0008Q174.09375,981.7416,174.5039,981.6926 M177.36028,985.99L177.36458,985.9902Q177.78558,986.0169,177.63274,986.9656Q177.51039,988.1531,176.83014,989.9117Q175.91081,991.9526,174.93718,991.9955Q174.82233,991.9943,174.71237,991.96423Q174.43748,991.80884,174.34068,991.71173Q174.20372,991.5815,174.10739,991.412L173.97568,991.0447L173.96278,990.6727L174.03046,990.2461L174.17093,989.7779Q174.57683,988.8521,174.72897,988.6197Q175.12413,987.96265,175.62227,987.38257Q176.57237,986.35455,177.36028,985.99 M183.77081,990.4264L183.78665,990.42664L183.85704,990.4415Q183.92307,990.4694,183.97185,990.5492Q184.02061,990.6288,184.052,990.76025Q184.11494,991.0232,184.10858,991.49316Q184.06805,992.5177,184.00061,993.02246Q183.87968,993.71454,183.75053,994.1416Q183.43349,995.12164,183.03197,995.52765L182.82634,995.70996L182.41258,995.87994L182.04515,995.918L181.72818,995.83844L181.4659,995.65643L181.2624,995.3873L181.12193,995.04486L181.04826,994.64545L181.04584,994.20264L181.11887,993.7321L181.27107,993.2483Q181.40259,992.9687,181.55135,992.68274L181.99286,992.11224Q182.59741,991.3678,183.01575,990.9521L183.38759,990.6182Q183.55023,990.4928,183.66632,990.4489L183.77081,990.4264 M196.8706,1025.9685L196.87682,1025.9692Q197.02481,1025.969,197.13837,1026.071Q197.28676,1026.221,197.31393,1026.2819Q197.37079,1026.3711,197.42569,1026.4858Q197.47707,1026.6011,197.52026,1026.7322Q197.62103,1027.0752,197.6313,1027.1635Q197.69218,1027.4587,197.72343,1027.8848Q197.71814,1028.1589,197.65752,1028.3462Q197.61133,1028.4915,197.44365,1028.7297Q197.2695,1028.9814,196.90822,1028.999Q196.73259,1029.005,196.40453,1028.8792L196.288,1028.7993L196.19427,1028.6985Q196.07008,1028.4866,196.06369,1028.4153Q196.03593,1028.2578,196.03278,1028.0563Q196.03096,1027.7008,196.09488,1027.3352Q196.22278,1026.7107,196.30164,1026.5671Q196.44576,1026.2603,196.47804,1026.2346Q196.53911,1026.146,196.60304,1026.0872Q196.73106,1025.9685,196.8706,1025.9685 M190.96681,1022.485L191.04634,1022.4922Q191.28946,1022.4728,192.12521,1023.2243Q192.33983,1023.4014,193.10283,1024.4341Q193.82402,1025.4375,194.26917,1026.2498Q194.42354,1026.4827,194.78152,1027.3604Q194.90067,1027.695,194.95068,1027.9817L194.96782,1028.3446L194.9185,1028.6777L194.80295,1028.9814Q194.70099,1029.2119,194.37218,1029.4978Q193.00082,1030.3884,191.60771,1030.2794Q191.54784,1030.3289,190.9678,1030.0767L190.63925,1029.8345L190.361,1029.5015L190.1323,1029.0752L189.9519,1028.5531L189.81909,1027.9331L189.7191,1027.0739Q189.59846,1024.4917,189.94856,1023.4213Q190.27596,1022.3954,190.96681,1022.485 M184.8296,1020.52094L184.86682,1020.5224Q185.0028,1020.545,185.04932,1020.6042Q185.28592,1020.89685,185.53075,1021.4202Q185.79327,1022.2233,186.35912,1024.4946Q186.53009,1025.1642,186.77518,1026.732Q186.9393,1028.1191,186.86813,1028.8969Q186.76166,1030.1659,186.1776,1030.7795Q185.8206,1031.112,185.65793,1031.1487Q184.6147,1031.449,184.13214,1031.4216Q183.88522,1031.4038,183.6023,1031.269L183.35063,1031.0432L183.1673,1030.7L183.04883,1030.228L183.0331,1029.9563Q182.97675,1028.8943,183.02524,1028.227Q183.39447,1024.3093,183.82475,1022.373Q184.11314,1021.2103,184.29546,1021.0098Q184.45038,1020.728,184.61461,1020.5583Q184.74048,1020.51996,184.8296,1020.52094 M177.92702,1018.2828L177.93242,1018.2828Q178.5744,1018.24066,178.99065,1021.1783Q179.44978,1024.2898,179.49535,1029.5613Q179.36624,1030.3934,179.12207,1030.8081Q178.97527,1031.2079,178.23616,1031.8589Q177.03693,1032.7119,175.73698,1032.7018Q174.70438,1032.697,174.07828,1031.7305Q173.88445,1031.2802,173.92116,1030.998Q173.89494,1030.7942,174.11343,1029.2732Q174.60376,1025.8694,176.42035,1020.7065Q176.66856,1019.9605,177.3557,1018.7754Q177.66782,1018.2142,177.92702,1018.2828 M209.3408,1035.3765L209.38165,1035.3909Q209.55959,1035.635,209.48148,1035.907Q209.43135,1036.2108,209.23737,1036.6713Q208.73854,1037.4113,207.23438,1038.781Q204.87161,1040.8096,203.18,1041.9478Q201.12123,1043.3787,200.30865,1043.3643L200.00056,1043.0773L199.89806,1042.7065L199.97206,1042.2549L200.20712,1041.7373Q200.79562,1040.7327,202.1084,1039.5616Q204.26695,1037.7948,205.642,1037.0272Q206.41443,1036.5693,207.16066,1036.2135L207.90045,1035.8835Q208.63368,1035.5789,209.3408,1035.3765 M128.72064,854.3803L128.63834,854.3845L160.52165,884.61743Q160.6593,886.09595,143.60208,873.3028L167.29099,896.5807L149.32327,885.6678L172.36703,906.3708L151.44885,899.3413L174.35773,914.07886L152.91037,915.55206L173.89194,918.7549L160.02309,923.92145Q171.18207,923.2047,173.52583,923.6472Q175.20822,923.218,163.7385,930.93414Q163.78973,931.2467,172.13718,928.5202Q172.77725,928.5415,171.64696,930.0195Q170.42976,931.29193,161.22656,937.3852Q152.38864,927.6801,124.63758,911.2812Q108.21973,902.40094,88.95,896.01855Q42.149437,885.4186,11.90959,890.4206L58.08479,895.2009Q51.557495,896.2451,23.886936,896.7915L63.249702,901.43744Q65.018814,902.1891,62.48346,902.52356L39.233986,904.0712L75.80582,908.54926L44.983856,914.8852L85.25105,914.9933Q85.28789,915.44257,80.04138,918.8904Q69.04375,925.9553,58.669743,932.1965Q91.65126,919.60297,89.62911,920.8162L76.37424,938.5392L94.63832,926.5379L86.40231,950.10376Q98.60437,931.30206,98.80393,933.18866L90.062836,961.26355L104.164566,938.4019L97.003716,965.7269L108.96285,946.2373Q111.515755,942.5429,111.1175,944.36084Q108.57853,957.4155,103.663765,969.4176Q64.72336,972.283,58.85002,974.51794Q45.108917,977.257,32.963375,981.3811Q8.672403,989.6285,-9.23584,1003.41626L29.23901,988.4828L-0.31962204,1005.34235L37.350803,991.15594L15.751581,1004.9578L51.3488,991.3872L24.60883,1012.0634L61.832687,993.357L43.66923,1019.89185L67.37432,996.75385L66.7545,1000.857L60.900505,1019.36664L73.956924,999.6621L74.652306,1021.7629L80.06593,1003.00275L81.18195,1033.8811L85.723495,1009.40515Q86.328156,1006.8888,87.418015,1005.4239L89.40207,1032.585L95.13591,1006.147L97.56093,1033.0173L101.22171,1011.5845Q101.60259,1009.8219,102.19246,1010.0199L102.42267,1039.877L109.63491,1007.4465L110.98001,1029.3281L114.73078,1009.7385Q115.162056,1007.5531,115.62975,1008.96826L116.87058,1040.0391L123.16579,1006.61456Q123.76458,1005.2966,124.115685,1006.95734L127.409706,1030.8767L130.22882,1007.105L136.14423,1045.3129L138.70102,1015.54956L141.75945,1041.578L149.52023,1006.6116L149.56607,1030.6599L154.1364,1011.2971L155.42998,1041.169L166.3809,1010.91376Q166.75208,1011.4762,166.61565,1013.5171L164.26009,1035.5243Q167.6647,1021.0082,168.40175,1019.1142Q170.257,1013.0714,170.58807,1016.0484Q170.79265,1022.2559,169.3902,1034.7911L153.55371,1045.7561L223.94682,1045.7556L223.94786,940.32526L217.93413,957.32513L223.57089,893.2443L214.54482,936.16327Q213.34323,940.8061,213.07172,940.3096L212.40234,857.8013L207.63649,909.2757Q207.25801,910.1058,205.90778,907.37103L195.91087,882.66614L203.392,920.8679Q203.49942,922.1079,202.95096,921.4448Q199.47453,913.95685,199.37827,914.8099L209.07152,955.6715Q193.15445,912.70496,188.68208,906.4967L143.07327,863.8051Q132.50288,855.48596,128.72064,854.3803 Z"></path></g><g style="fill:rgb(2,95,108); fill-opacity:1.0; stroke-linejoin: miter"><path d="M544.9801,928.9888L544.92896,928.99097Q544.666,929.0349,544.75977,929.30597Q544.9437,929.77594,545.5511,930.4012Q546.32275,931.2091,548.0608,932.39453Q549.81165,933.5071,551.1428,934.15015Q551.8086,934.4719,552.3695,934.6764Q552.93024,934.88086,553.38635,934.9678L553.81604,935.02576Q554.62494,934.9857,554.41724,934.3107Q554.2302,933.9732,553.04114,933.13Q551.1229,931.8837,548.2744,930.3956Q546.63135,929.55725,545.8522,929.23694Q545.3776,929.0246,544.9801,928.9888 M543.3587,934.1854L543.35144,934.1862Q542.84296,934.19037,543.11694,934.72205Q543.3745,935.29333,544.8512,936.83234Q547.8578,939.76215,549.0604,939.9808L549.2303,939.9544Q549.3983,939.91486,549.55835,939.8242Q549.71844,939.73334,549.871,939.5909Q550.1753,939.3063,550.4488,938.8161Q550.67566,938.26117,550.151,937.7033Q548.8924,936.55817,546.7822,935.483Q544.343,934.2201,543.3587,934.1854 M542.02185,939.06055L541.93115,939.08563Q541.8339,939.3454,542.6766,940.3308Q543.2483,941.013,544.0541,941.67975Q544.19617,941.808,544.7799,942.18115Q545.00586,942.3148,545.211,942.4039Q545.85706,942.663,546.1902,942.5546Q546.24805,942.5527,546.41296,942.453Q546.47144,942.4078,546.5094,942.3478Q546.58545,942.2272,546.57837,942.047Q546.5552,941.90454,546.4121,941.7092Q546.1205,941.34924,545.867,941.1384Q545.52576,940.82544,544.50037,940.2319L543.0752,939.4758L542.77484,939.3279L542.45056,939.1815L542.1791,939.08636L542.02185,939.06055 M538.23096,942.5568L538.1735,942.55884Q537.89954,942.56445,537.8183,942.7803Q537.76807,942.83923,537.9243,943.30676Q538.1483,943.88983,538.93994,944.6515Q539.3917,945.0581,539.8855,945.41064Q540.76355,946.0084,541.18445,946.2065Q542.336,946.7834,542.8855,946.7295Q543.1413,946.7018,543.2388,946.4937Q543.42706,945.9944,543.40485,945.7431Q543.35913,944.94165,542.6554,944.2355Q541.8854,943.5008,540.7378,943.0645Q540.2117,942.86725,539.25183,942.65735Q538.7614,942.5573,538.23096,942.5568 M537.5226,946.42053L537.5145,946.4212Q537.33594,946.4186,537.2913,946.4367Q536.99475,946.5386,536.8999,946.5976L536.6264,946.8065L536.5375,946.9927L536.5227,947.2221L536.5769,947.48615Q536.73987,947.8838,536.80273,947.98334Q536.9684,948.26935,537.46533,948.8178Q537.75806,949.1217,538.09485,949.3784Q539.03186,950.10254,539.6145,950.1775L539.88025,950.1731L540.09534,950.0978L540.25635,949.96124L540.3606,949.77203L540.4042,949.5391L540.38416,949.27136L540.29755,948.9777L540.14087,948.6669Q540.03876,948.3956,538.5436,947.018Q538.28796,946.78534,537.8815,946.5384Q537.6642,946.42053,537.5226,946.42053 M531.45276,950.10626L531.4247,950.1074Q531.3263,950.11725,531.30725,950.14325L531.2628,950.36053Q531.3257,950.7106,531.50806,951.00415Q532.0621,951.8926,533.2241,953.0077Q533.97,953.7186,534.822,954.22284Q535.0968,954.3744,535.39,954.46436L535.44574,954.4784L536.01965,954.52014L536.37915,954.4624L536.618,954.3248L536.74054,954.1177L536.7515,953.8516Q536.7076,953.5789,536.50867,953.2631Q536.403,953.0381,535.76965,952.4042Q534.9084,951.6308,533.8505,951.07794Q532.9332,950.5998,532.463,950.4075Q531.6037,950.074,531.45276,950.10626 M529.9435,954.51447L529.92017,954.515Q529.6384,954.52844,529.7201,955.2034Q530.0122,956.29956,530.5109,957.1572Q530.953,957.92993,531.48376,958.3646Q531.81177,958.6565,532.2562,958.65497Q532.31903,958.66364,532.55945,958.54663Q532.65137,958.49066,532.73083,958.40784Q532.88464,958.25934,533.01074,957.938Q533.04767,957.7997,532.9991,957.5948Q532.9557,957.4344,532.7562,957.03815Q532.5282,956.63885,532.234,956.26263Q531.6964,955.613,531.3951,955.35974Q530.49915,954.5327,529.9435,954.51447 M601.596,945.1951L601.5891,945.19525Q601.04504,945.3355,601.12054,945.8647Q601.1981,946.6288,601.66174,948.0576Q603.628,954.1907,606.5831,961.2248Q607.05493,962.2859,607.73676,963.74634Q608.575,965.4121,609.04596,965.92786Q609.71783,966.2183,610.87354,966.1768Q611.862,966.12354,612.0037,965.55664L612.0585,965.2124Q612.0726,964.8269,611.9243,964.2739Q611.7758,963.7215,611.4649,963.00214Q610.4271,960.5216,604.30347,949.47797Q602.24774,945.6973,601.596,945.1951 M593.5552,945.7547L593.52155,945.7585Q593.2169,945.6182,593.3047,947.0561Q593.39966,947.96857,593.7401,949.1683L594.9454,953.2472Q597.82635,961.7407,598.3487,962.95276Q599.5561,965.99866,600.3831,967.0819Q600.7873,967.37775,602.3872,967.2595Q604.7602,966.8309,604.93024,966.4431Q605.46075,966.02,605.1699,965.3195L604.4599,963.979L595.481,948.2114Q593.941,945.8133,593.5552,945.7547 M588.7123,950.35406L588.68256,950.5829Q588.5927,951.06396,588.98517,952.7792Q589.144,953.7186,590.71893,958.99634Q592.19977,963.76105,593.5332,966.4881Q594.19653,967.5763,594.49554,967.9079Q594.8758,968.2473,595.17633,968.3181Q596.5288,968.6608,597.8598,967.61096Q597.8775,967.31934,597.68146,966.6957Q597.0043,964.8456,596.6124,964.0771Q595.65656,961.98645,593.536,957.955Q592.8079,956.5543,590.33594,952.343L589.296,950.8722L588.78107,950.36884L588.7123,950.35406 M522.3504,967.696L522.33026,967.69666Q522.18713,967.689,522.0102,967.77875Q521.85986,967.89453,521.83234,968.06775Q521.7804,968.4557,522.1293,968.98Q522.34326,969.35535,522.876,969.7409Q523.0386,969.85223,523.167,969.90326Q523.3065,969.951,523.5171,969.9984Q523.56287,970.0072,523.6867,970.00964Q524.22266,969.9952,524.4342,969.7064Q524.656,969.37134,524.3926,968.9549Q524.0895,968.4839,523.44446,968.0859Q523.0825,967.8871,522.8,967.77795Q522.5371,967.6994,522.3504,967.696 M580.82733,951.3508L580.6919,951.3851Q580.24176,951.54395,580.23505,952.23157Q580.31354,953.8413,580.7198,955.82947Q582.50555,964.2751,584.1875,969.1635Q584.4344,969.81824,584.7584,970.3556Q586.3388,970.6698,587.7516,970.28564Q589.1255,969.9996,589.85364,969.39075Q589.9821,969.2933,590.0863,968.84955Q590.1064,968.78687,590.0,968.4947Q589.29834,966.5943,584.1849,956.7957Q581.1917,951.327,580.82733,951.3508 M575.19037,956.2526L575.17175,956.2533Q574.92035,956.3525,574.83417,956.9724Q574.80493,957.14197,574.94574,958.42426Q575.25854,961.0181,576.2934,965.883Q576.7269,967.9429,577.69147,971.5387Q578.3011,972.64954,578.622,972.54315Q579.21173,972.68536,582.1011,970.8642Q581.85834,969.86346,580.8242,967.166Q579.42114,963.6498,577.782,960.0515Q577.158,958.6988,576.5767,957.7982Q576.12885,956.9958,575.19037,956.2526 M569.9433,968.5971L569.93854,968.5979Q569.7976,968.53986,569.6637,968.9016Q569.5864,968.97766,569.608,969.51953Q569.615,970.47076,570.0722,972.0097Q570.2133,972.46344,570.37427,972.8394Q570.48944,973.1435,570.8079,973.65857Q570.9735,973.91205,571.36774,974.2237Q571.47144,974.28033,571.67035,974.2976Q571.8803,974.2949,571.9904,974.1143Q572.07886,973.9777,572.1005,973.63257Q572.12085,973.2947,572.05426,973.02686L571.9462,972.47156L571.8031,971.98157Q571.29486,970.39514,570.97186,969.8102Q570.5312,969.046,570.3909,968.89417Q570.1615,968.63184,569.9433,968.5971 M557.4637,965.8529L557.45135,965.85315Q557.2183,965.9068,557.24536,966.5015Q557.3075,967.0345,557.70526,968.3099Q559.86597,974.0524,560.46936,975.3573Q560.91406,976.48535,561.5671,977.32904Q562.14746,978.1239,562.75494,978.08795Q563.54724,978.06805,564.2346,977.3261Q564.4691,976.6357,563.9328,975.56415Q563.2128,973.9605,559.5034,968.0264Q558.98193,967.2335,558.1684,966.34045Q557.7352,965.90533,557.4637,965.8529 M553.99506,970.3597L553.9518,970.3651Q553.7758,970.4097,553.54834,970.8081Q553.4512,970.9781,553.4926,971.2123Q553.7929,973.00995,555.1023,976.3684Q555.8323,978.18634,556.5962,979.3905Q557.2823,980.31604,557.82263,980.1188Q558.354,980.0512,558.8327,979.5706Q558.89056,979.4581,558.91943,979.32367Q558.9522,979.2703,558.9418,978.87067Q558.9132,978.53546,558.7697,978.11163Q558.0362,976.4223,557.92706,976.2545Q556.40784,973.4034,555.5817,972.0334Q554.53436,970.38257,553.99506,970.3597 M515.3102,979.6428L515.30835,979.6431Q515.16345,979.6471,515.12866,979.69104Q515.08154,979.73517,515.09436,979.81995Q515.1603,980.1052,515.45337,980.3401Q515.77905,980.5797,516.0394,980.6699Q516.1801,980.7232,516.32544,980.7551Q516.47076,980.78705,516.62085,980.7979L516.772,980.803L516.81793,980.80273Q516.8666,980.79395,516.9152,980.7853L516.9788,980.7527L517.00916,980.706Q517.02014,980.6476,516.97656,980.58167Q516.8849,980.45825,516.7915,980.38904Q516.6952,980.3075,516.5111,980.19196L516.3181,980.079Q516.2523,980.0325,516.0806,979.9284Q516.04944,979.90845,515.8605,979.8114Q515.68243,979.7279,515.58716,979.6991Q515.44324,979.6507,515.3102,979.6428 M543.2047,977.23035L543.147,977.2343Q543.0628,977.24347,543.00995,977.2933Q542.905,977.45276,542.9219,977.533Q542.9098,977.7534,543.02325,978.13477Q543.32227,979.08765,544.5306,981.14484Q545.9491,983.4687,546.76416,984.31305Q547.0341,984.618,547.4238,984.8843Q547.5774,984.9205,547.8306,984.9074Q549.5149,984.7551,548.6521,983.04926Q548.2141,982.25433,547.04346,980.7457Q546.3722,979.89685,545.2414,978.6837Q544.71686,978.1234,543.9643,977.53864Q543.615,977.2793,543.2047,977.23035 M540.3483,981.52783L540.3441,981.5286Q539.923,981.5549,540.07587,982.5033Q540.1981,983.6907,540.8784,985.44916Q541.79785,987.4899,542.7716,987.53296Q542.8862,987.5319,542.99634,987.5015Q543.27124,987.3467,543.3679,987.24945Q543.505,987.1192,543.6013,986.94995L543.73303,986.5825L543.74585,986.21045L543.6782,985.7838L543.5377,985.31573Q543.1317,984.3897,542.97974,984.1573Q542.5845,983.5001,542.0864,982.92Q541.13617,981.8922,540.3483,981.52783 M533.93774,985.96387L533.9219,985.9645L533.85144,985.9791Q533.7854,986.0074,533.73663,986.08704Q533.6881,986.1664,533.6566,986.29785Q533.59375,986.5609,533.6001,987.03076Q533.6404,988.0553,533.70807,988.5602Q533.8289,989.25214,533.95807,989.6793Q534.275,990.6595,534.67676,991.0651L534.88226,991.2475L535.29626,991.4177L535.6635,991.4555L535.98047,991.37616L536.24274,991.1943L536.4463,990.92487L536.5868,990.5826L536.6603,990.18304L536.6627,989.74023L536.58984,989.2695L536.4375,988.78625Q536.30597,988.50616,536.15735,988.22L535.7159,987.6499Q535.1113,986.9054,534.6929,986.4897L534.32104,986.15607Q534.1582,986.0305,534.04224,985.987L533.93774,985.96387 M520.838,1021.5062L520.83203,1021.5065Q520.68396,1021.5065,520.57025,1021.6087Q520.42206,1021.7586,520.3948,1021.8195Q520.3379,1021.9088,520.28296,1022.02374Q520.2317,1022.1387,520.1883,1022.27014Q520.0876,1022.6129,520.07733,1022.7009Q520.0165,1022.9962,519.9851,1023.42224Q519.9906,1023.6964,520.05133,1023.88385Q520.09735,1024.0288,520.2651,1024.2675Q520.4393,1024.519,520.80054,1024.5364Q520.97626,1024.5425,521.304,1024.4169L521.42065,1024.3369L521.5144,1024.236Q521.6388,1024.0242,521.645,1023.9527Q521.67285,1023.7954,521.676,1023.594Q521.67786,1023.2384,521.6139,1022.8731Q521.4859,1022.24786,521.407,1022.10504Q521.26294,1021.79846,521.23065,1021.77234Q521.16943,1021.6834,521.1056,1021.62445Q520.9778,1021.5062,520.838,1021.5062 M526.7417,1018.0226L526.6623,1018.02985Q526.4192,1018.01044,525.5835,1018.7621Q525.3688,1018.93945,524.6057,1019.9716Q523.88464,1020.9748,523.4396,1021.78735Q523.2852,1022.02,522.9272,1022.89795Q522.8082,1023.2325,522.75806,1023.5193L522.7409,1023.8824L522.79016,1024.2156L522.90576,1024.519Q523.0077,1024.7495,523.33655,1025.0358Q524.70776,1025.9261,526.1008,1025.817Q526.1609,1025.8665,526.7409,1025.6141L527.06934,1025.3723L527.34766,1025.0391L527.5764,1024.6128L527.7568,1024.0906L527.8895,1023.4706L527.9897,1022.6119Q528.1103,1020.02966,527.7599,1018.9591Q527.43256,1017.93304,526.7417,1018.0226 M532.8789,1016.0587L532.8418,1016.0602Q532.7058,1016.08276,532.65924,1016.1417Q532.4226,1016.43463,532.178,1016.95764Q531.91547,1017.7611,531.3495,1020.0321Q531.1786,1020.70166,530.9335,1022.2695Q530.76953,1023.65686,530.84045,1024.4343Q530.94714,1025.7031,531.531,1026.3173Q531.88794,1026.6497,532.0508,1026.6865Q533.094,1026.9868,533.5765,1026.9592Q533.8235,1026.9414,534.10645,1026.8066L534.35803,1026.5808L534.5414,1026.2377L534.6599,1025.7659L534.6757,1025.494Q534.73193,1024.4318,534.6836,1023.7644Q534.3142,1019.84686,533.88403,1017.9105Q533.59534,1016.7477,533.4133,1016.54736Q533.2581,1016.2653,533.094,1016.0958Q532.96814,1016.05786,532.8789,1016.0587 M539.7816,1013.8203L539.7765,1013.8203Q539.1343,1013.7781,538.718,1016.7159Q538.2589,1019.82745,538.2134,1025.0986Q538.34235,1025.9312,538.58655,1026.3458Q538.7335,1026.7456,539.4725,1027.3966Q540.67163,1028.2496,541.9717,1028.2395Q543.0043,1028.2347,543.6305,1027.2683Q543.8242,1026.8179,543.7876,1026.5354Q543.8137,1026.3315,543.5952,1024.8105Q543.105,1021.4068,541.28845,1016.2442Q541.04004,1015.498,540.353,1014.31305Q540.04083,1013.7516,539.7816,1013.8203 M508.3679,1030.9138L508.32703,1030.9285Q508.14923,1031.1725,508.2272,1031.4445Q508.27734,1031.7485,508.47144,1032.209Q508.97012,1032.9487,510.4744,1034.3186Q512.83716,1036.3474,514.5287,1037.4855Q516.5876,1038.9164,517.4001,1038.9021L517.7081,1038.6147L517.81067,1038.2439L517.7366,1037.7926L517.5017,1037.2747Q516.913,1036.2703,515.6002,1035.0991Q513.44183,1033.3323,512.0667,1032.5647Q511.29428,1032.1069,510.54813,1031.7512L509.8082,1031.4214Q509.07513,1031.1162,508.3679,1030.9138 M588.98773,849.918L589.06995,849.92194L557.18695,880.15515Q557.0494,881.63367,574.1064,868.8402L550.41754,892.1183L568.3852,881.2054L545.34155,901.9084L566.2595,894.8789L543.35095,909.61646L564.798,911.0898L543.81665,914.2926L557.68536,919.45917Q546.5265,918.7422,544.18274,919.18475Q542.5005,918.75574,553.97015,926.4718Q553.9187,926.7845,545.57153,924.05817Q544.93115,924.0792,546.06165,925.55725Q547.27905,926.82947,556.48193,932.9226Q565.3199,923.2181,593.0709,906.8186Q609.48895,897.93835,628.75836,891.5564Q675.5589,880.95654,705.79865,885.9584L659.6236,890.7388Q666.1509,891.7827,693.8213,892.32916L654.45874,896.9753Q652.6895,897.72675,655.22485,898.0613L678.4745,899.6087L641.9025,904.08704L672.72437,910.4229L632.45734,910.531Q632.4206,910.98016,637.66693,914.428Q648.6646,921.4932,659.0387,927.73425Q626.0573,915.14044,628.0792,916.35394L641.33405,934.0772L623.0701,922.07556L631.3061,945.6411Q619.10425,926.8394,618.90454,928.7264L627.64545,956.8007L613.54407,933.93976L620.7048,961.26465L608.74567,941.7748Q606.19275,938.0803,606.5911,939.89844Q609.13007,952.95264,614.04474,964.95526Q652.985,967.82074,658.8583,970.0559Q672.59937,972.79474,684.745,976.9184Q709.03595,985.166,726.94403,998.95355L688.46924,984.02014L718.0278,1000.88007L680.3576,986.69366L701.9567,1000.4956L666.3595,986.92487L693.0996,1007.6009L655.8757,988.8946L674.03906,1015.4294L650.3342,992.29144L650.9539,996.39484L656.80804,1014.9044L643.7515,995.19995L643.0561,1017.3004L637.6425,998.54047L636.5264,1029.418L631.985,1004.9426Q631.3803,1002.4264,630.2904,1000.96185L628.3065,1028.1222L622.5727,1001.68445L620.14777,1028.5549L616.48676,1007.1224Q616.10596,1005.35944,615.5161,1005.5573L615.2859,1035.4149L608.0736,1002.984L606.72845,1024.8655L602.97766,1005.27606Q602.54645,1003.09045,602.0787,1004.50543L600.838,1035.5767L594.54285,1002.15234Q593.94385,1000.8339,593.5928,1002.4946L590.2988,1026.4141L587.4796,1002.6425L581.5644,1040.8506L579.0076,1011.08685L575.94916,1037.1155L568.18835,1002.149L568.1426,1026.1978L563.57214,1006.83453L562.27875,1036.7065L551.32776,1006.4512Q550.95667,1007.01355,551.09314,1009.05457L553.44855,1031.0618Q550.04395,1016.5459,549.307,1014.65186Q547.45154,1008.60913,547.1206,1011.58594Q546.9161,1017.7937,548.3185,1030.3286L564.15497,1041.2935L493.7619,1041.2935L493.7609,935.86273L499.7745,952.8629L494.13776,888.78204L503.16385,931.7007Q504.36533,936.3436,504.6369,935.84686L505.30615,853.339L510.072,904.81335Q510.45053,905.6436,511.80075,902.9089L521.7976,878.204L514.3168,916.4059Q514.2092,917.6454,514.7577,916.9823Q518.2341,909.4947,518.33044,910.3476L508.63727,951.20917Q524.5543,908.24255,529.0265,902.03424L574.6351,859.34265Q585.20557,851.0234,588.98773,849.918 Z"></path></g><g style="fill:rgb(255,255,255); fill-opacity:1.0; stroke-linejoin: miter"><path d="M301.10843,571.06616L363.32465,571.06647L425.54105,571.0666Q425.5411,660.0145,425.54114,748.9621Q363.32474,748.9626,301.10852,748.96295Q301.10846,660.0147,301.10843,571.06616"></path></g><g style="fill:rgb(0,0,0); fill-opacity:0.99607843; stroke-linejoin: miter"><path d="M249.11676,913.89325L375.6135,913.8938L502.1104,913.89435Q502.1104,932.9327,502.11047,951.97076Q375.6135,951.9715,249.11687,951.9718Q249.11676,932.9327,249.11676,913.89325"></path></g><g style="fill:rgb(60,70,79); fill-opacity:1.0; stroke-linejoin: miter"><path d="M426.1605,747.31903L488.5369,893.66876L550.9133,1040.0186Q378.56,1040.759,206.20668,1041.4994Q254.55536,895.20557,302.90408,748.9121L426.1605,747.31903"></path></g><g style="fill:rgb(83,93,102); fill-opacity:1.0; stroke-linejoin: miter"><path d="M232.51558,951.21045Q227.55777,968.2196,222.60219,985.2278Q375.80206,985.2265,529.0014,985.2259L515.41614,951.2354L515.4065,951.2112L375.8624,951.21106L232.51558,951.21045 Z"></path></g><g style="fill:rgb(83,93,102); fill-opacity:1.0; stroke-linejoin: miter"><path d="M201.79247,1010.62964L201.79248,1044.6464L562.5197,1044.6453L562.5196,1010.63055L201.79247,1010.62964 Z"></path></g><g style="fill:rgb(83,93,102); fill-opacity:1.0; stroke-linejoin: miter"><path d="M249.99126,891.2254Q245.03568,908.23334,240.08012,925.24164L505.02292,925.24084L504.82025,924.734L502.11496,917.9675Q502.1104,915.9309,502.1104,913.89435L500.48642,913.89526L491.4543,891.3041L491.42328,891.22626L249.99335,891.2254 Z"></path></g><g style="fill:rgb(83,93,102); fill-opacity:1.0; stroke-linejoin: miter"><path d="M267.4686,831.2404Q262.51306,848.2487,257.5576,865.2567Q369.29666,865.25665,481.03546,865.256L467.44003,831.24097L377.19498,831.24084L267.47092,831.2404 Z"></path></g><g style="fill:rgb(83,93,102); fill-opacity:1.0; stroke-linejoin: miter"><path d="M284.9464,771.25543Q279.9908,788.2636,275.03522,805.2717L457.05673,805.2709L443.4568,771.25604L284.94867,771.25543 Z"></path></g><g style="fill:rgb(255,218,0); fill-opacity:1.0; stroke-linejoin: miter"><path d="M93.01467,660.73114L93.0149,660.7314L93.015076,660.73157L93.0149,660.7314L93.01467,660.73114L93.0149,660.7314L93.015076,660.73157Q93.0149,660.7314,93.01467,660.73114"></path></g><g style="fill:rgb(215,237,249); fill-opacity:1.0; stroke-linejoin: miter"><path d="M-15.604252,650.6933C-16.35004,647.91254,-16.70541,645.04425,-16.662205,642.1383C-16.401672,624.95886,-2.2139168,611.19366,14.966877,611.45386C22.113468,611.5605,29.057665,614.1483,34.519825,618.7387C39.37752,622.8204,42.88992,628.3223,44.55255,634.395C56.065125,633.4944,66.34834,640.94635,69.43511,651.6428C71.18158,651.27234,72.96332,651.09937,74.75634,651.1272C87.97785,651.3275,98.5733,662.1685,98.37373,675.39026C98.172935,688.6141,87.254654,699.1296,74.03277,698.9299L-9.682507,697.66437C-22.904903,697.46436,-33.499107,686.62146,-33.299164,673.3995C-33.13542,662.5822,-25.83598,653.4457,-15.604252,650.6933 Z"></path></g><g style="fill:rgb(215,237,249); fill-opacity:1.0; stroke-linejoin: miter"><path d="M725.74426,568.3319C726.49,565.5514,726.84534,562.68317,726.80237,559.7772C726.54156,542.59753,712.354,528.8324,695.1732,529.09283C688.02655,529.19946,681.0825,531.787,675.6204,536.3773C670.7626,540.45935,667.25024,545.9613,665.5877,552.0337C654.0751,551.1331,643.7918,558.5854,640.7051,569.28186C638.95874,568.9114,637.1769,568.73834,635.3839,568.76624C622.16235,568.9662,611.56696,579.80725,611.7666,593.02893C611.96735,606.2529,622.88556,616.76843,636.1074,616.56885L719.8226,615.30304C733.0449,615.1032,743.63904,604.2603,743.4391,591.0383C743.2754,580.2208,735.976,571.0845,725.74426,568.3319 Z"></path></g><g style="fill:rgb(215,237,249); fill-opacity:1.0; stroke-linejoin: miter"><path d="M143.41284,497.5204C143.80902,496.043,143.9978,494.51904,143.97495,492.97504C143.83643,483.84744,136.29843,476.53394,127.17014,476.6725C123.37313,476.72925,119.6836,478.10394,116.78163,480.54276C114.20063,482.71152,112.33439,485.63437,111.45115,488.8611C105.33443,488.3825,99.87085,492.3417,98.23088,498.02493C97.30301,497.8281,96.356285,497.73618,95.40372,497.75098C88.37904,497.85736,82.74965,503.61728,82.85567,510.64203C82.96231,517.66797,88.76326,523.2548,95.78811,523.1487L140.26654,522.47626C147.29169,522.3701,152.92053,516.609,152.81421,509.5843C152.72723,503.83688,148.84901,498.98264,143.41284,497.5204 Z"></path></g></g></svg> 