<?xml version="1.0" encoding="UTF-8" standalone="no"?>
<svg
   enable-background="new 0 0 38.1 38.1"
   version="1.1"
   viewBox="0 0 38.1 38.1"
   id="svg1203"
   xmlns="http://www.w3.org/2000/svg"
   xmlns:svg="http://www.w3.org/2000/svg">
  <defs
     id="defs1207" />
  <style
     type="text/css"
     id="style1195">.st0{fill:#00A5CB;} .st1{fill:#0190B0;} .st2{clip-path:url(#SVGID_2_);} .st3{fill:#DCDBDB;} .st4{fill:#FFFFFF;} .st5{fill:#F2F2F2;} .st6{clip-path:url(#SVGID_4_);} .st7{fill:none;} .st8{fill:none;stroke:#FFFFFF;stroke-miterlimit:10;} .st9{clip-path:url(#SVGID_6_);}</style>
  <g
     id="g1269"
     transform="matrix(0.30204541,0,0,-0.30204541,-1.5459892,39.11479)">
    <path
       d="m 131.0604,66.5284 c 0,-34.778 -28.193,-62.971 -62.971,-62.971 -34.778,0 -62.971,28.193 -62.971,62.971 0,34.778 28.193,62.971 62.971,62.971 34.778,0 62.971,-28.193 62.971,-62.971"
       style="fill:#9a0e62;fill-opacity:1;fill-rule:nonzero;stroke:none"
       id="path20" />
    <path
       d="m 68.1942,3.5577 c -34.778,0 -62.971,28.193 -62.971,62.971 0,34.778 28.193,62.971 62.971,62.971"
       style="fill:#ce1483;fill-opacity:1;fill-rule:nonzero;stroke:none"
       id="path24" />
    <path
       d="m 98.2424,57.4151 c -2.383,0 -4.316,1.932 -4.316,4.316 0,2.383 1.933,4.315 4.316,4.315 2.383,0 4.316,-1.932 4.316,-4.315 0,-2.384 -1.933,-4.316 -4.316,-4.316 m -11.15,33.065 c -2.668,0 -4.831,2.163 -4.831,4.831 0,2.668 2.163,4.831 4.831,4.831 2.668,0 4.831,-2.163 4.831,-4.831 0,-2.668 -2.163,-4.831 -4.831,-4.831 m 5.102,-47.941 c 0,-0.939 -0.761,-1.7 -1.701,-1.7 -0.939,0 -1.7,0.761 -1.7,1.7 0,0.939 0.761,1.701 1.7,1.701 0.94,0 1.701,-0.762 1.701,-1.701 m -15.054,-10.646 c -1.829,0 -3.312,1.482 -3.312,3.312 0,1.829 1.483,3.311 3.312,3.311 1.829,0 3.312,-1.482 3.312,-3.311 0,-1.83 -1.483,-3.312 -3.312,-3.312 m -5.006,20.853 c 0,2.298 1.862,4.159 4.159,4.159 2.297,0 4.159,-1.861 4.159,-4.159 0,-2.296 -1.862,-4.158 -4.159,-4.158 -2.297,0 -4.159,1.862 -4.159,4.158 m 3.404,22.85 c 1.88,0 3.405,-1.524 3.405,-3.404 0,-1.88 -1.525,-3.404 -3.405,-3.404 -1.88,0 -3.404,1.524 -3.404,3.404 0,1.88 1.524,3.404 3.404,3.404 m -14.36,17.52 c -2.15,0 -3.892,1.743 -3.892,3.893 0,2.15 1.742,3.893 3.892,3.893 2.15,0 3.893,-1.743 3.893,-3.893 0,-2.15 -1.743,-3.893 -3.893,-3.893 m 0.491,-30.57 c -2.421,0 -4.383,1.963 -4.383,4.384 0,2.421 1.962,4.383 4.383,4.383 2.421,0 4.383,-1.962 4.383,-4.383 0,-2.421 -1.962,-4.384 -4.383,-4.384 m -4.235,-32.441 c -2.068,0 -3.744,1.676 -3.744,3.744 0,2.067 1.676,3.744 3.744,3.744 2.068,0 3.744,-1.677 3.744,-3.744 0,-2.068 -1.676,-3.744 -3.744,-3.744 m -0.351,57.398 c 0.656,0 1.188,-0.532 1.188,-1.188 0,-0.656 -0.532,-1.188 -1.188,-1.188 -0.656,0 -1.188,0.532 -1.188,1.188 0,0.656 0.532,1.188 1.188,1.188 m -13.524,-44.964 c -2.944,0 -5.33,2.387 -5.33,5.331 0,2.944 2.386,5.33 5.33,5.33 2.944,0 5.331,-2.386 5.331,-5.33 0,-2.944 -2.387,-5.331 -5.331,-5.331 m -13.74,41.968 c 0,4.157 3.37,7.527 7.527,7.527 4.157,0 7.527,-3.37 7.527,-7.527 0,-4.157 -3.37,-7.527 -7.527,-7.527 -4.157,0 -7.527,3.37 -7.527,7.527 m 3.853,-23.743 c -0.946,0 -1.713,0.768 -1.713,1.714 0,0.947 0.767,1.714 1.713,1.714 0.947,0 1.714,-0.767 1.714,-1.714 0,-0.946 -0.767,-1.714 -1.714,-1.714 m 66.32,6.977 c -0.169,7.295 -2.677,13.997 -6.802,19.415 1.562,1.769 2.54,4.067 2.54,6.613 0,5.543 -4.493,10.036 -10.036,10.036 -3.741,0 -6.965,-2.071 -8.691,-5.105 -2.746,0.897 -5.652,1.424 -8.66,1.577 -0.97,2.718 -3.541,4.675 -6.592,4.675 -3.803,0 -6.881,-3.028 -7.002,-6.801 -3.612,-1.377 -6.925,-3.345 -9.811,-5.814 -1.563,0.885 -3.342,1.432 -5.266,1.432 -5.939,0 -10.753,-4.814 -10.753,-10.753 0,-3.834 2.022,-7.177 5.043,-9.08 -0.479,-2.252 -0.742,-4.583 -0.742,-6.978 0,-0.729 0.063,-1.443 0.109,-2.161 -0.038,0.001 -0.07,0.022 -0.109,0.022 -1.352,0 -2.448,-1.096 -2.448,-2.449 0,-1.352 1.096,-2.448 2.448,-2.448 0.255,0 0.488,0.073 0.719,0.146 0.668,-3.179 1.782,-6.193 3.282,-8.969 -0.924,-1.26 -1.487,-2.801 -1.487,-4.483 0,-4.206 3.41,-7.615 7.615,-7.615 1.33,0 2.56,0.371 3.647,0.969 1.025,-0.747 2.084,-1.445 3.192,-2.073 -0.663,-0.999 -1.054,-2.195 -1.054,-3.484 0,-3.484 2.825,-6.308 6.309,-6.308 3.327,0 6.023,2.584 6.262,5.85 1.61,-0.238 3.245,-0.402 4.921,-0.402 2.113,0 4.173,0.219 6.177,0.594 0.067,-2.555 2.148,-4.608 4.719,-4.608 2.613,0 4.731,2.118 4.731,4.731 0,1.026 -0.334,1.968 -0.889,2.744 2.188,1.079 4.248,2.373 6.133,3.885 0.665,-1.022 1.762,-1.738 3.072,-1.738 2.058,0 3.727,1.669 3.727,3.727 0,1.301 -0.706,2.391 -1.716,3.058 2.481,3.061 4.416,6.573 5.697,10.389 2.802,0.581 4.908,3.061 4.908,6.035 0,2.322 -1.298,4.319 -3.193,5.371"
       style="fill:#ffffff;fill-opacity:1;fill-rule:nonzero;stroke:none"
       id="path28" />
  </g>
</svg>
