<?xml version="1.0" encoding="UTF-8" standalone="no"?>
<svg
   enable-background="new 0 0 38.1 38.1"
   version="1.1"
   viewBox="0 0 38.1 38.1"
   id="svg10"
   xmlns="http://www.w3.org/2000/svg"
   xmlns:svg="http://www.w3.org/2000/svg">
  <defs
     id="defs14" />
  <style
     type="text/css"
     id="style2">.st0{fill:#00A5CB;} .st1{fill:#0190B0;} .st2{clip-path:url(#SVGID_2_);} .st3{fill:#DCDBDB;} .st4{fill:#FFFFFF;} .st5{fill:#F2F2F2;} .st6{clip-path:url(#SVGID_4_);} .st7{fill:none;} .st8{fill:none;stroke:#FFFFFF;stroke-miterlimit:10;} .st9{clip-path:url(#SVGID_6_);}</style>
  <circle
     class="st0"
     cx="19.3"
     cy="19"
     r="18.8"
     id="circle4"
     style="fill:#ce1483;fill-opacity:1" />
  <path
     class="st1"
     d="m19.2 0.2c10.4 0 18.8 8.4 18.8 18.8s-8.4 18.8-18.8 18.8"
     id="path6"
     style="fill:#9a0e62;fill-opacity:1" />
  <path
     class="st4"
     d="m23.5 8.1c-0.8-0.1-1.6 0-2.5 0.4-0.6 0.3-1.2 0.8-1.5 1.5-0.3 0.5-0.3 1.6-1 1.8-0.2 0.1-0.4-0.4-0.5-0.5-0.9-1.5-1.4-3.4-2-5-0.3-1-0.6-2-0.8-3-0.1-0.4-0.2-0.9-0.2-1.3-0.1-0.7-0.4-0.6-1.1-0.4-0.6 0.2-1.8 0.5-2.2 0.9-0.3 0.3-0.1 1 0 1.4 0.2 1.1 0.5 2.3 0.9 3.3 0.5 1.5 1.2 2.9 1.6 4.3 0.8 2.6 3.7 5.1 2 8-1 1.7-2.8 3-4.7 2.7-1.8-0.2-3.5-1.5-5.3-0.8-1.4 0.5-2.2 1.9-2.4 3.3-0.2 0.9-0.2 1.8-0.1 2.7v1.2c0.1 0.7 0.8 1.6 1.3 2.1 0.4 0.4 1.5 1.6 2.2 1.5 0.1-1.3 0-2.6 0.1-3.8 0-0.6-0.1-1.3 0.1-1.9 0-0.1 0.1-0.3 0.2-0.4 0.1-0.2 0.4-0.2 0.6-0.1 1.1 0.4 2.3 1.6 3.3 2.3 3.1 2.6 7.2 2.1 10.2-0.2 1.2-1 2.4-2.1 3.4-3.4 2.1-2.6 3.7-6.2 3.7-9.7 0-2.7-2.4-6.4-5.3-6.9zm-4.2 16.9c-0.6 0-1-0.5-1-1 0-0.6 0.5-1 1-1 0.6 0 1 0.5 1 1s-0.5 1-1 1zm1.7-4.7c-0.4 0-0.7-0.3-0.7-0.7s0.3-0.7 0.7-0.7 0.7 0.3 0.7 0.7-0.3 0.7-0.7 0.7zm4.1-1.4c-0.3 0-0.6-0.3-0.6-0.6s0.3-0.6 0.6-0.6 0.6 0.3 0.6 0.6-0.3 0.6-0.6 0.6z"
     id="path8" />
</svg>
