<?xml version="1.0" encoding="UTF-8" standalone="no"?>
<svg
   data-name="Layer 1"
   width="1013.02965"
   height="844.99456"
   viewBox="0 0 1013.02965 844.99456"
   version="1.1"
   id="svg74"
   sodipodi:docname="undraw_new_ideas_jdea.svg"
   inkscape:version="1.1.2 (0a00cf5339, 2022-02-04)"
   xmlns:inkscape="http://www.inkscape.org/namespaces/inkscape"
   xmlns:sodipodi="http://sodipodi.sourceforge.net/DTD/sodipodi-0.dtd"
   xmlns="http://www.w3.org/2000/svg"
   xmlns:svg="http://www.w3.org/2000/svg"
   xmlns:rdf="http://www.w3.org/1999/02/22-rdf-syntax-ns#"
   xmlns:cc="http://creativecommons.org/ns#"
   xmlns:dc="http://purl.org/dc/elements/1.1/">
  <defs
     id="defs78" />
  <sodipodi:namedview
     id="namedview76"
     pagecolor="#ffffff"
     bordercolor="#666666"
     borderopacity="1.0"
     inkscape:pageshadow="2"
     inkscape:pageopacity="0.0"
     inkscape:pagecheckerboard="0"
     showgrid="false"
     inkscape:zoom="0.70532998"
     inkscape:cx="506.14608"
     inkscape:cy="422.49728"
     inkscape:window-width="3440"
     inkscape:window-height="1366"
     inkscape:window-x="0"
     inkscape:window-y="48"
     inkscape:window-maximized="1"
     inkscape:current-layer="svg74" />
  <title
     id="title2">new_ideas</title>
  <path
     d="m 56.032221,270.31 c 0,35.17 8.33,64.12 22.7799,88.92 a -177.67758,177.67758 0 0 0 16.19,23.25 c 53.119999,64.97 151.879999,100.53 241.139999,158.13 263.48,170.02 292.02,-102.42 280.12,-270.3 -4.8,-67.74 -31.18,-129.79 -73.09,-177.3 a -278.22062,278.22062 0 0 0 -28.45,-27.97 C 467.14212,24.52 405.67212,0 336.14212,0 c -119.29,0 -221.16,71.95 -261.549999,173.34 a -261.84957,261.84957 0 0 0 -18.55993,96.97 z"
     fill="#ce1483"
     id="path4" />
  <path
     d="m 276.46211,60.91998 266.71,32.09 a -278.22062,278.22062 0 0 0 -28.45,-27.97 z"
     fill="#d0cde1"
     id="path6" />
  <path
     d="m 78.812111,359.22998 a -177.67758,177.67758 0 0 0 16.19,23.25 l 228.459999,-27.48 z"
     fill="#d0cde1"
     id="path8" />
  <path
     d="m 65.272211,201.21997 387.189939,-50.22 -377.869999,22.34 a -260.439,260.439 0 0 0 -9.31994,27.88 z"
     fill="#d0cde1"
     id="path10" />
  <path
     d="m 589.99758,72.00214 c 0,0.69 0.02,1.37 0.08,2.04 a -27.99706,27.99706 0 1 0 52.68,-15.11 -25.73956,25.73956 0 0 0 -2.06,-3.31 -27.9889,27.9889 0 0 0 -50.6,14.1 c -0.07,0.74997 -0.1,1.50998 -0.1,2.28 z"
     fill="#ce1483"
     id="path12" />
  <path
     d="m 589.99758,72.00214 c 0,0.69 0.02,1.37 0.08,2.04 l 41.92,-5.04 -41.9,0.72 c -0.07,0.74997 -0.1,1.50998 -0.1,2.28 z"
     fill="#d0cde1"
     id="path14" />
  <path
     d="m 599.99758,86.11212 38.78,4.67 a -28.05694,28.05694 0 0 0 2.96,-3.95 z"
     fill="#d0cde1"
     id="path16" />
  <path
     d="m 610.99758,55.11212 31.76,3.82 a -25.73956,25.73956 0 0 0 -2.06,-3.31 z"
     fill="#d0cde1"
     id="path18" />
  <path
     d="m 206.26468,576.12783 c 0.32346,0.60949 0.65991,1.20075 1.027,1.76443 a -27.99706,27.99706 0 1 0 39.45,-38.042 -25.73938,25.73938 0 0 0 -3.37127,-1.9581 -27.98891,27.98891 0 0 0 -38.08621,36.17477 c 0.28977,0.69535 0.61952,1.38072 0.98048,2.0609 z"
     fill="#ce1483"
     id="path20" />
  <path
     d="m 206.26468,576.12783 c 0.32346,0.60949 0.65991,1.20075 1.027,1.76443 l 34.66603,-24.10292 -36.67354,20.27763 c 0.2898,0.69531 0.61955,1.38068 0.98051,2.06086 z"
     fill="#d0cde1"
     id="path22" />
  <path
     d="m 221.71226,583.90368 36.44426,-14.054 a -28.05745,28.05745 0 0 0 0.76292,-4.87668 z"
     fill="#d0cde1"
     id="path24" />
  <path
     d="m 216.89675,551.36428 29.8449,-11.514 a -25.73938,25.73938 0 0 0 -3.37127,-1.9581 z"
     fill="#d0cde1"
     id="path26" />
  <path
     d="m 7.9523006,93.45254 c -0.48176,0.494 -0.9422,0.99477 -1.367,1.5163 a -27.99707,27.99707 0 1 0 48.2635504,25.96387 -25.73851,25.73851 0 0 0 0.83628,-3.80793 A -27.9889,27.9889 0 0 0 9.6158206,91.89007 c -0.57376,0.48809 -1.1259,1.01121 -1.66352,1.56247 z"
     fill="#ce1483"
     id="path28" />
  <path
     d="m 7.9523006,93.45254 c -0.48176,0.494 -0.9422,0.99477 -1.367,1.5163 L 40.114851,120.62922 9.6158506,91.89007 c -0.57379,0.48809 -1.12593,1.01121 -1.66355,1.56247 z"
     fill="#d0cde1"
     id="path30" />
  <path
     d="m 5.2597406,110.53592 24.5021604,30.41946 a -28.0572,28.0572 0 0 0 4.87694,-0.76118 z"
     fill="#d0cde1"
     id="path32" />
  <path
     d="m 34.778861,96.02312 20.07,24.90959 a -25.73851,25.73851 0 0 0 0.83628,-3.80793 z"
     fill="#d0cde1"
     id="path34" />
  <path
     d="m 533.25058,609.45319 c 0,0 -61.44557,2.56024 -61.44557,17.92163 0,15.36139 69.12627,0 69.12627,0 z"
     fill="#a0616a"
     id="path36" />
  <path
     d="m 625.41894,844.99456 115.21045,-7.6807 5.12047,-61.44558 25.60232,53.76488 112.65022,-15.3614 c -2.56023,-97.28882 -43.524,-192.01741 -46.08418,-204.81858 -2.56018,-12.80117 -8.67923,-65.69564 -8.67923,-65.69564 -11.1882,-23.73325 -69.81727,-25.96064 -115.77362,-23.81013 -19.04829,0.87055 -35.94576,2.509 -46.36577,3.68674 -6.88688,0.768 -10.95787,1.33137 -10.95787,1.33137 -18.35667,18.92015 -30.18524,44.70155 -37.45621,73.50417 -26.21675,103.7663 6.73342,246.52487 6.73342,246.52487 z"
     fill="#2f2e41"
     id="path38" />
  <circle
     cx="-753.43054"
     cy="187.01488"
     r="64.005814"
     fill="#a0616a"
     id="circle40"
     transform="scale(-1,1)" />
  <path
     d="m 796.9545,202.37628 c 0,0 17.92161,79.36719 46.08418,102.40928 28.16257,23.04209 -110.09,0 -110.09,0 0,0 30.72278,-51.20465 7.68069,-74.24674 -23.04209,-23.04209 56.32513,-28.16254 56.32513,-28.16254 z"
     fill="#a0616a"
     id="path42" />
  <path
     d="m 666.38266,530.08599 42.47445,4.71074 118.82018,13.21089 c 0,0 0.56318,-1.51061 1.5617,-4.25007 8.628,-23.52854 50.18049,-138.022 54.76341,-172.406 5.12046,-38.40349 -48.64441,-84.48767 -48.64441,-84.48767 0,0 -51.20465,-10.24093 -66.566,-10.24093 -15.36135,0 -76.807,23.04209 -76.807,23.04209 l -22.914,206.12433 -1.97143,17.84474 z"
     fill="#d0cde1"
     id="path44" />
  <path
     d="m 618.68552,598.4697 86.10059,-50.46208 c 0,0 1.51076,-4.91576 4.071,-13.21089 1.28011,-4.14756 2.8415,-9.16551 4.60823,-14.84931 9.93371,-31.90055 26.60085,-84.53892 39.96518,-122.9935 20.48186,-58.88534 -79.36719,104.96952 -79.36719,104.96952 l -4.99233,3.866 -1.97143,17.84474 c -6.88688,0.768 -10.95787,1.33137 -10.95787,1.33137 -18.35664,18.92013 -30.18521,44.70153 -37.45618,73.50415 z"
     opacity="0.15"
     id="path46" />
  <path
     d="m 732.9487,304.78556 c 0,0 25.60232,33.283 5.12046,92.16836 -20.48186,58.88536 -48.64441,151.0537 -48.64441,151.0537 l -148.49347,87.0479 -20.48186,-25.60233 138.25254,-107.52975 c 0,0 5.12047,-194.57765 30.72279,-202.25835 25.60232,-7.6807 43.52395,5.12047 43.52395,5.12047 z"
     fill="#d0cde1"
     id="path48" />
  <path
     d="m 859.68019,528.80588 c 0,0 -35.84325,74.24673 -51.20464,66.566 -15.36139,-7.68073 38.40348,-84.4876 38.40348,-84.4876 z"
     fill="#a0616a"
     id="path50" />
  <path
     d="m 863.52054,325.26741 135.69231,112.65022 c 0,0 51.20465,35.84326 -43.524,61.44558 -94.72864,25.60232 -102.40924,40.96371 -102.40924,40.96371 0,0 -10.24093,-33.283 -23.04209,-28.16255 l 110.09,-53.76488 -89.60813,-53.76488 z"
     fill="#d0cde1"
     id="path52" />
  <path
     d="m 918.05662,239.54882 c -7.12167,-3.52691 -22.84789,-10.64479 -36.24333,-19.2202 0.93932,-27.89762 -2.49607,-53.22261 -12.55222,-66.64662 -5.64462,-12.81652 -17.49793,-25.6481 -26.7814,-35.75325 -22.798,-24.81537 -73.20958,-38.66708 -82.15062,-26.26844 -67.62534,1.33509 -74.74468,54.34307 -74.74468,54.34307 0.3518,22.17187 23.39557,22.87345 43.58176,22.0655 -1.80765,15.13647 3.00971,30.86424 16.95952,37.83915 26.676,13.338 34.67888,30.67741 21.34081,42.68173 -13.33807,12.00432 -37.3465,44.01548 -5.33523,52.01821 32.01127,8.00273 36.01275,24.00854 26.676,30.67752 -9.33675,6.66898 21.34096,-12.00421 21.34096,-12.00421 0,0 5.33512,32.01127 33.345,24.00842 2.51013,-0.71721 5.01892,-2.55489 7.48541,-5.30331 7.56478,8.312 14.31345,13.22658 19.39967,13.25359 29.13026,0.15447 25.63705,-32.10971 25.63705,-32.10971 0,0 34.57609,9.71049 23.7871,5.80578 -10.78899,-3.90471 -11.25117,-20.39647 17.4169,-36.73375 28.66807,-16.33728 -3.082,-40.69002 -19.1627,-48.65348 z"
     fill="#2f2e41"
     id="path54" />
  <path
     d="m 560.64711,323.1809 0.46437,-0.0612 -1.13287,4.30643 a -113.17562,113.17562 0 0 1 -4.65,17.67685 l -33.22635,126.30782 a -21.40811,21.40811 0 0 1 -17.43077,15.71007 l -67.75971,10.48261 a -21.408,21.408 0 0 1 -22.1461,-11.05183 L 350.37182,366.27537 a -113.00339,113.00339 0 0 1 -5.50835,-10.28834 l -2.18627,-4.08367 0.34094,-0.045 a -113.84725,113.84725 0 1 1 217.629,-28.67751 z"
     fill="#3f3d56"
     id="path56" />
  <path
     d="m 432.75341,505.85568 a -23.29759,23.29759 0 0 0 3.56446,-0.27442 l 70.82763,-10.958 a -23.3712,23.3712 0 0 0 19.03418,-17.15528 L 560.91011,345.4421 a -119.05567,119.05567 0 0 0 4.87793,-18.55615 l 0.87842,-5.77588 A -120.02561,120.02561 0 0 0 429.27392,187.24679 l 0.30664,1.97656 a -118.0685,118.0685 0 0 1 134.93116,132.9126 l -0.6753,4.32031 a -118.2809,118.2809 0 0 1 -4.83691,18.39991 l -34.7544,132.103 a -21.36975,21.36975 0 0 1 -17.40527,15.6875 l -70.82764,10.958 a -21.407,21.407 0 0 1 -22.11425,-11.03613 l -1.76368,0.94336 a -23.42072,23.42072 0 0 0 20.61914,12.34378 z"
     fill="#d0cde1"
     id="path58" />
  <rect
     x="-598.38812"
     y="-268.4696"
     width="125.31395"
     height="2.58676"
     transform="matrix(-0.3439057,-0.93900419,-0.93900419,0.3439057,0,0)"
     fill="#d0cde1"
     id="rect60" />
  <rect
     x="-502.24078"
     y="319.37775"
     width="2.58676"
     height="125.31395"
     transform="matrix(-0.99903613,-0.04389541,-0.04389541,0.99903613,0,0)"
     fill="#d0cde1"
     id="rect62" />
  <path
     d="m 438.74104,565.71076 90.75733,-14.04041 a -2.587,2.587 0 0 0 -0.791,-5.11309 l -90.75733,14.04041 a -2.587,2.587 0 1 0 0.791,5.11309 z"
     fill="#3f3d56"
     id="path64" />
  <path
     d="m 436.41389,546.4378 90.75733,-14.04041 a -2.587,2.587 0 1 0 -0.791,-5.11309 l -90.75734,14.04041 a -2.587,2.587 0 1 0 0.791,5.11309 z"
     fill="#3f3d56"
     id="path66" />
  <path
     d="m 434.08674,527.16484 90.75737,-14.04041 a -2.587,2.587 0 0 0 -0.791,-5.11309 l -90.75733,14.04041 a -2.587,2.587 0 0 0 0.791,5.11309 z"
     fill="#3f3d56"
     id="path68" />
  <path
     d="m 486.94076,576.92591 c -18.00222,2.785 -34.1481,-4.99048 -36.06278,-17.367 l 65.19188,-10.08536 c 1.91469,12.37651 -11.12687,24.66737 -29.1291,27.45236 z"
     fill="#3f3d56"
     id="path70" />
  <path
     d="m 454.31732,327.09949 c 3.87236,-0.59843 7.07617,-3.65939 8.83264,-5.711 0.57595,-0.67259 1.1365,-1.37029 1.69874,-2.06952 2.04551,-2.54625 3.97681,-4.95084 6.66642,-6.20478 5.93686,-2.76991 12.93209,1.099 18.98864,5.24984 l 1.46325,-2.13343 c -6.65876,-4.56514 -14.42362,-8.78213 -21.54579,-5.46138 -3.23493,1.50894 -5.44871,4.26464 -7.58906,6.92909 -0.545,0.67867 -1.089,1.35527 -1.64693,2.00782 -1.82636,2.13272 -5.46883,5.58876 -9.37174,4.79166 a -12.5979,12.5979 0 0 1 -4.49545,-2.37986 -24.07683,24.07683 0 0 0 -3.18135,-2.00734 -12.66906,12.66906 0 0 0 -13.90684,1.96545 -25.02449,25.02449 0 0 0 -1.88717,1.99578 c -1.16372,1.32656 -2.26229,2.5785 -3.69247,3.03366 -2.11435,0.676 -4.349,-0.53253 -6.71686,-1.80932 -2.442,-1.31774 -4.96637,-2.68088 -7.8299,-2.34462 -0.0929,0.0112 -0.18677,0.0238 -0.27915,0.0381 -5.09561,0.78831 -7.44484,6.42363 -8.77412,10.62937 l 2.46725,0.7789 c 1.80618,-5.71683 4.00582,-8.55982 6.889,-8.87675 2.05123,-0.24128 4.114,0.87246 6.298,2.05116 2.7378,1.4784 5.57148,3.00651 8.7311,1.99813 2.11483,-0.67292 3.5069,-2.2585 4.852,-3.79208 a -22.79725,22.79725 0 0 1 1.68845,-1.79311 -10.16528,10.16528 0 0 1 11.01236,-1.55665 -21.837,21.837 0 0 1 2.83631,1.80124 -14.69665,14.69665 0 0 0 5.46961,2.80242 -8.504,8.504 0 0 0 3.02306,0.0673 z"
     fill="#d0cde1"
     id="path72" />
  <metadata
     id="metadata895">
    <rdf:RDF>
      <cc:Work
         rdf:about="">
        <dc:title>new_ideas</dc:title>
      </cc:Work>
    </rdf:RDF>
  </metadata>
</svg>
