<?xml version="1.0" encoding="UTF-8" standalone="no"?>
<svg
   data-name="Layer 1"
   width="650.50209"
   height="698.68496"
   viewBox="0 0 650.50209 698.68496"
   version="1.1"
   id="svg136"
   sodipodi:docname="undraw_in_thought_re_qyxl.svg"
   inkscape:version="1.1.2 (0a00cf5339, 2022-02-04)"
   xmlns:inkscape="http://www.inkscape.org/namespaces/inkscape"
   xmlns:sodipodi="http://sodipodi.sourceforge.net/DTD/sodipodi-0.dtd"
   xmlns="http://www.w3.org/2000/svg"
   xmlns:svg="http://www.w3.org/2000/svg">
  <defs
     id="defs140" />
  <sodipodi:namedview
     id="namedview138"
     pagecolor="#ffffff"
     bordercolor="#666666"
     borderopacity="1.0"
     inkscape:pageshadow="2"
     inkscape:pageopacity="0.0"
     inkscape:pagecheckerboard="0"
     showgrid="false"
     inkscape:zoom="0.85303113"
     inkscape:cx="324.72437"
     inkscape:cy="349.34247"
     inkscape:window-width="1712"
     inkscape:window-height="1360"
     inkscape:window-x="0"
     inkscape:window-y="48"
     inkscape:window-maximized="0"
     inkscape:current-layer="svg136" />
  <path
     d="m 140.80761,282.9626 c -30.66552,-30.188 -43.61718,-61.68164 -36.47021,-88.67871 9.17187,-34.645 49.918,-58.59912 111.79053,-65.72022 l 0.22851,1.98731 c -61.01123,7.0215 -101.13574,30.43798 -110.0854,64.24462 -6.95556,26.27344 5.80811,57.07911 35.93994,86.74219 z"
     fill="#f0f0f0"
     id="path2"
     style="fill:#ce1483;fill-opacity:0.24772571" />
  <path
     d="m 436.67822,390.1208 c -38.27246,0 -79.86231,-5.6875 -121.17285,-16.624 -51.08594,-13.52442 -97.92627,-33.938 -135.457,-59.03467 l 1.11132,-1.66211 c 37.3501,24.9751 83.98291,45.29541 134.85743,58.76318 45.97458,12.17186 92.29392,17.81151 133.93356,16.32328 l 0.0723,1.998 q -6.5962,0.23731 -13.34473,0.23632 z"
     fill="#f0f0f0"
     id="path4"
     style="fill:#ce1483;fill-opacity:0.24772571" />
  <path
     d="m 524.47998,377.54365 -0.64063,-1.89453 c 34.22949,-11.57324 55.63867,-30.21631 61.91309,-53.91553 7.97558,-30.12744 -9.35156,-65.08838 -48.79,-98.44287 C 497.32279,189.7668 440.16166,161.95039 376.00638,144.9665 l 0.51172,-1.93359 c 64.43555,17.05859 121.875,45.019 161.73535,78.731 40.06153,33.88086 57.61719,69.56591 49.43262,100.48144 -6.45414,24.37887 -28.31059,43.50045 -63.20609,55.2983 z"
     fill="#f0f0f0"
     id="path6"
     style="fill:#ce1483;fill-opacity:0.24772571" />
  <path
     d="M 210.17334,390.95674 C 134.97021,357.60322 77.0205,314.33125 47.00004,269.11103 l 1.666,-1.10644 c 29.813,44.90723 87.4585,87.92285 162.31787,121.124 z"
     fill="#f0f0f0"
     id="path8"
     style="fill:#ce1483;fill-opacity:0.24772571" />
  <path
     d="m 474.58154,448.73896 q -11.63526,0 -23.668,-0.51953 l 0.0859,-1.998 c 59.8643,2.59179 112.68363,-4.57227 152.75785,-20.72168 l 0.74805,1.85547 c -34.95798,14.08589 -79.51462,21.38374 -129.9238,21.38374 z"
     fill="#f0f0f0"
     id="path10"
     style="fill:#ce1483;fill-opacity:0.24772571" />
  <path
     d="m 430.94775,130.35713 c -12.42969,-4.04688 -25.21484,-7.81494 -38,-11.19971 C 319.37404,99.67988 247.05029,92.76436 183.79248,99.1623 l -0.20118,-1.99023 c 63.49366,-6.41895 136.065,0.51318 209.86817,20.05176 12.82129,3.39453 25.64258,7.17334 38.10742,11.23193 z"
     fill="#f0f0f0"
     id="path12"
     style="fill:#ce1483;fill-opacity:0.24772571" />
  <path
     d="M 93.80761,285.9626 C 63.14209,255.7746 50.19043,224.28096 57.3374,197.28389 c 9.17187,-34.645 49.918,-58.59912 111.79053,-65.72022 l 0.22851,1.98731 c -61.01123,7.0215 -101.13574,30.43798 -110.0854,64.24462 -6.95556,26.27344 5.80811,57.07911 35.93994,86.74219 z"
     fill="#f0f0f0"
     id="path14"
     style="fill:#ce1483;fill-opacity:0.24772571" />
  <path
     d="m 389.67822,393.1208 c -38.27246,0 -79.86231,-5.6875 -121.17285,-16.624 -51.08594,-13.52442 -97.92627,-33.938 -135.457,-59.03467 l 1.11132,-1.66211 c 37.3501,24.9751 83.98291,45.29541 134.85743,58.76318 45.97458,12.17186 92.29392,17.81151 133.93356,16.32328 l 0.0723,1.998 q -6.5962,0.23731 -13.34473,0.23632 z"
     fill="#f0f0f0"
     id="path16"
     style="fill:#ce1483;fill-opacity:0.24772571" />
  <path
     d="m 477.47998,380.54365 -0.64063,-1.89453 c 34.22949,-11.57324 55.63867,-30.21631 61.91309,-53.91553 7.97558,-30.12744 -9.35156,-65.08838 -48.79,-98.44287 C 450.32279,192.7668 393.16166,164.95039 329.00638,147.9665 l 0.51172,-1.93359 c 64.43555,17.05859 121.875,45.019 161.73535,78.731 40.06153,33.88086 57.61719,69.56591 49.43262,100.48144 -6.45414,24.37887 -28.31059,43.50045 -63.20609,55.2983 z"
     fill="#f0f0f0"
     id="path18"
     style="fill:#ce1483;fill-opacity:0.24772571" />
  <path
     d="M 163.17334,393.95674 C 87.97021,360.60322 30.0205,317.33125 4e-5,272.11103 l 1.666,-1.10644 c 29.813,44.90723 87.4585,87.92285 162.31787,121.124 z"
     fill="#f0f0f0"
     id="path20"
     style="fill:#ce1483;fill-opacity:0.24772571" />
  <path
     d="m 427.58154,451.73896 q -11.63526,0 -23.668,-0.51953 l 0.0859,-1.998 c 59.86426,2.59179 112.68359,-4.57227 152.75781,-20.72168 l 0.74805,1.85547 c -34.95798,14.08589 -79.51462,21.38374 -129.9238,21.38374 z"
     fill="#f0f0f0"
     id="path22"
     style="fill:#ce1483;fill-opacity:0.24772571" />
  <path
     d="m 383.94775,133.35713 c -12.42969,-4.04688 -25.21484,-7.81494 -38,-11.19971 C 272.37404,102.67988 200.05029,95.76436 136.79248,102.1623 l -0.20118,-1.99023 c 63.49366,-6.41895 136.065,0.51318 209.86817,20.05176 12.82129,3.39453 25.64258,7.17334 38.10742,11.23193 z"
     fill="#f0f0f0"
     id="path24"
     style="fill:#ce1483;fill-opacity:0.24772571" />
  <g
     id="a9a6faa7-f9f8-42ac-a25b-707af5da24b3"
     data-name="Group 221">
    <path
       id="b6badfe4-ecf7-40b3-ab9a-d2e442646810-1611"
       data-name="Path 2938"
       d="m 671.134,414.03945 17,-2 6,52 15.319,71.808 a 11.00008,11.00008 0 1 1 -11.933,1.5 l -15.386,-42.308 z"
       transform="translate(-274.74896,-100.65752)"
       fill="#ffb6b6" />
    <path
       id="eb66624a-625c-4022-aac2-7acd24895291-1612"
       data-name="Path 2939"
       d="m 646.438,784.75347 h 14.006 l 6.664,-54.025 h -20.672 z"
       transform="translate(-274.74896,-100.65752)"
       fill="#ffb6b6" />
    <path
       id="a67f4ff8-8ebc-49ff-bea4-e9dad041920e-1613"
       data-name="Path 2940"
       d="m 642.866,798.32748 h 45.162 v -0.571 a 17.579,17.579 0 0 0 -17.577,-17.578 h -27.585 z"
       transform="translate(-274.74896,-100.65752)"
       fill="#2f2e41" />
    <path
       id="f2666089-6ab6-4bee-94c7-c04bd8c6f398-1614"
       data-name="Path 2941"
       d="m 538.948,777.11443 13.752,2.655 16.788,-51.78 -20.3,-3.919 z"
       transform="translate(-274.74896,-100.65752)"
       fill="#ffb6b6" />
    <path
       id="e202d012-54d0-4120-af29-b522f4befddf-1615"
       data-name="Path 2942"
       d="m 532.87,789.76748 44.343,8.563 0.108,-0.561 a 17.58,17.58 0 0 0 -13.926,-20.593 v 0 l -27.083,-5.23 z"
       transform="translate(-274.74896,-100.65752)"
       fill="#2f2e41" />
    <path
       id="a7799203-f10e-4175-b8b3-865436e3910e-1616"
       data-name="Path 2943"
       d="m 668.4,328.82644 -8.138,15.614 -60.951,-13.443 6.677,-30.273 c 5.285,-23.962 26.472,-41.267 50.434,-35.982 23.962,5.285 35.142,28.705 29.857,52.667 l -9.822,30.6 -9.938,-2.192 z"
       transform="translate(-274.74896,-100.65752)"
       fill="#2f2e41" />
    <path
       id="fb4efb0d-4e34-4aa4-af9b-85f1b453b517-1617"
       data-name="Path 2944"
       d="m 690.134,501.04046 c 0,0 6,30 -2,74 -8,44 -10,63 -10,63 0,0 6,7 2,11 -4,4 0,12 0,12 l -9,97 -31,-5 4,-91 c 0,0 -4,-8 -2,-10 2,-2 -2,-14 -2,-14 l -5,-95 -31,104 c 0,0 3,4 0,7 -3,3 -9,18 -9,18 l -20,70 -32,-6 18,-80 c 0,0 -2,-5 1,-8 a 7.83394,7.83394 0 0 0 2,-7 c 0,0 -3,-3 1,-7 4,-4 6,-20 6,-20 0,0 3,-107 13,-113 10,-6 106,0 106,0 z"
       transform="translate(-274.74896,-100.65752)"
       fill="#2f2e41" />
    <circle
       id="b01ade62-873d-4b0f-b59f-ba4b75076aa4"
       data-name="Ellipse 569"
       cx="370.16806"
       cy="206.92093"
       r="28"
       fill="#ffb6b6" />
    <path
       id="b558b83e-b369-42dd-8f4d-22a4c2c4f5e2-1618"
       data-name="Path 2945"
       d="m 605.457,343.42044 c 0,0 -20.324,-2.381 -26.324,3.619 l 6,121 c 0,0 -4,3 -2,10 a 28.56751,28.56751 0 0 1 0,14 c 0,0 -6,7 -3,10 3,3 111,1 111,1 0,0 4,-7 -2,-11 -6,-4 -3,-15 -3,-15 0,0 2,-3 -3,-8 -5,-5 -9,-46 -9,-46 l 13,-50 c 0,0 -13.086,-14.771 -28.043,-15.885 z"
       transform="translate(-274.74896,-100.65752)"
       fill="#e6e6e6" />
    <path
       id="f8cef0e8-06d3-4209-b80b-8403fdc77134-1619"
       data-name="Path 2946"
       d="m 671.639,373.72644 15.493,-0.688 c 0,0 9,18 10,34 l 5.507,59.688 -35.507,5.312 z"
       transform="translate(-274.74896,-100.65752)"
       fill="#e6e6e6" />
    <path
       id="f41dbfcb-858e-4d45-9b75-6131cbc8ec95-1620"
       data-name="Path 2947"
       d="m 668.906,308.96745 10.4,-13.382 a 10.911,10.911 0 0 0 -8.282,-12.969 l -39.292,-8.667 a 10.912,10.912 0 0 0 -12.97,8.282 l -0.022,0.1 2.814,16.159 0.494,-0.088 c 24.385,-4.348 31.331,-2.818 46.459,10.226 z"
       transform="translate(-274.74896,-100.65752)"
       fill="#2f2e41" />
    <path
       id="ed879564-5a8c-4e9d-a096-68f5b6ab9b62-1621"
       data-name="Path 2948"
       d="m 564.258,522.78045 1.875,-78.74 2,-56 24,3 -12.889,133.845 a 11,11 0 1 1 -15.45752,-1.75067 q 0.2309,-0.184 0.4715,-0.35532 z"
       transform="translate(-274.74896,-100.65752)"
       fill="#ffb6b6" />
    <path
       id="aaf783f1-6b30-4a3e-8412-451b817d63a0-1622"
       data-name="Path 2949"
       d="m 596.64,348.72644 -17.507,-1.688 c 0,0 -3,0 -6,10 -3,10 -19.492,115.688 -19.492,115.688 l 36.493,3.312 z"
       transform="translate(-274.74896,-100.65752)"
       fill="#e6e6e6" />
  </g>
  <circle
     id="af8c7bff-6816-464a-b0a9-6a679aecd372"
     data-name="Ellipse 563"
     cx="156.16608"
     cy="65.034927"
     r="45.498001"
     fill="#ce1483" />
  <path
     d="m 166.83804,92.9961 a -46.49805,46.49805 0 1 1 46.498,-46.498 -46.55065,46.55065 0 0 1 -46.498,46.498 z m 0,-90.9961 a -44.49805,44.49805 0 1 0 44.498,44.49805 A -44.54859,44.54859 0 0 0 166.83804,2 Z"
     fill="#3f3d56"
     id="path41" />
  <circle
     id="a60e3f6d-2e55-4ba4-880b-24129c1d171d"
     data-name="Ellipse 565"
     cx="574.83014"
     cy="227.41992"
     r="31.243999"
     fill="#ce1483" />
  <path
     d="m 582.15904,246.93506 a -32.24414,32.24414 0 1 1 32.24414,-32.24414 -32.28068,32.28068 0 0 1 -32.24414,32.24414 z m 0,-62.48828 a -30.24414,30.24414 0 1 0 30.24414,30.24414 -30.27823,30.27823 0 0 0 -30.24414,-30.24414 z"
     fill="#3f3d56"
     id="path44" />
  <path
     id="aea90dfe-d7fa-4ce2-8106-f6b698b2b1f8-1623"
     data-name="Path 2960"
     d="m 649.50204,698.68496 h -600 a -1,1 0 1 1 0,-2 h 600 a -1,1 0 0 1 0,2 z"
     fill="#cacaca" />
  <g
     id="baaccb77-fe9e-4683-9e52-b00664372613"
     data-name="Group 58">
    <path
       id="fb603159-8dea-4755-9c7c-d25bd7f9bc0c-1624"
       data-name="Path 438"
       d="m 882.44706,758.66947 a 19.47408,19.47408 0 0 1 -18.806,-3.313 c -6.587,-5.528 -8.652,-14.637 -10.332,-23.07 l -4.97,-24.945 10.405,7.165 c 7.483,5.152 15.134,10.47 20.316,17.933 5.182,7.463 7.443,17.651 3.28,25.727"
       transform="translate(-274.74896,-100.65752)"
       fill="#fd6584" />
    <path
       id="a8ec8a48-e4af-4fa0-8d27-3c92af74fe9a-1625"
       data-name="Path 439"
       d="m 880.84005,790.60551 c 1.31,-9.542 2.657,-19.206 1.738,-28.85 -0.816,-8.565 -3.429,-16.93 -8.749,-23.789 a 39.57383,39.57383 0 0 0 -10.153,-9.2 c -1.015,-0.641 -1.95,0.968 -0.939,1.606 a 37.62185,37.62185 0 0 1 14.881,17.956 c 3.24,8.241 3.76,17.224 3.2,25.978 -0.338,5.294 -1.053,10.553 -1.774,15.806 a 0.964,0.964 0 0 0 0.65,1.144 0.936,0.936 0 0 0 1.144,-0.65 z"
       transform="translate(-274.74896,-100.65752)"
       fill="#f2f2f2" />
    <path
       id="b09ba816-4f06-4578-8eb4-a29f6123e742-1626"
       data-name="Path 442"
       d="m 871.41305,775.29649 a 14.336,14.336 0 0 1 -12.491,6.447 c -6.323,-0.3 -11.595,-4.713 -16.34,-8.9 l -14.035,-12.396 9.289,-0.444 c 6.68,-0.32 13.533,-0.618 19.9,1.442 6.367,2.06 12.231,7.018 13.394,13.6"
       transform="translate(-274.74896,-100.65752)"
       fill="#e6e6e6" />
    <path
       id="add4fdd4-5f13-462c-8fd8-fbec5e5c357a-1627"
       data-name="Path 443"
       d="m 884.542,796.09147 c -6.3,-11.156 -13.618,-23.555 -26.685,-27.518 a 29.77876,29.77876 0 0 0 -11.224,-1.159 c -1.192,0.1 -0.894,1.94 0.3,1.837 a 27.66482,27.66482 0 0 1 17.912,4.739 c 5.051,3.438 8.983,8.217 12.311,13.286 2.039,3.1 3.865,6.341 5.691,9.573 0.57905,1.03204 2.285,0.28698 1.695,-0.758 z"
       transform="translate(-274.74896,-100.65752)"
       fill="#f2f2f2" />
  </g>
  <g
     id="ee656491-410e-4193-8926-ffe46b73d48a"
     data-name="Group 222">
    <path
       id="a6ee8b3a-6384-4722-b3cb-80bef4872a5a-1628"
       data-name="Path 2961"
       d="m 387.748,771.657 a 14.336,14.336 0 0 0 13.96062,-1.64007 c 5.07425,-3.78449 6.97639,-10.39054 8.56966,-16.51565 l 4.70658,-18.12088 -7.94921,4.82625 c -5.71691,3.47012 -11.565,7.05522 -15.69149,12.32341 -4.12649,5.26819 -6.2142,12.65074 -3.49467,18.76417"
       transform="translate(-274.74896,-100.65752)"
       fill="#e6e6e6" />
    <path
       id="f2bbd591-1ffb-4624-8852-7218542fde3c-1629"
       data-name="Path 2962"
       d="m 388.492,796.23851 c -1.01542,-12.77166 -1.882,-27.14307 6.735,-37.73552 a 29.77858,29.77858 0 0 1 8.65784,-7.23779 c 1.04413,-0.58366 1.826,1.10841 0.77852,1.6907 a 27.66393,27.66393 0 0 0 -12.1997,13.94507 c -2.265,5.67471 -2.85236,11.83543 -2.77685,17.89882 0.0431,3.71021 0.34161,7.4182 0.6351,11.11874 0.0962,1.1799 -1.73528,1.51547 -1.82991,0.31998 z"
       transform="translate(-274.74896,-100.65752)"
       fill="#f2f2f2" />
  </g>
  <circle
     id="e41ec8f5-a87e-4b16-bc24-7a000bd09eb1"
     data-name="Ellipse 567"
     cx="94.865059"
     cy="334.45993"
     r="44.912998"
     fill="#e4e4e4"
     style="fill:#ce1483;fill-opacity:0.24772571" />
  <path
     d="m 105.39997,362.07569 a -45.91285,45.91285 0 1 1 45.91308,-45.9126 -45.96467,45.96467 0 0 1 -45.91308,45.9126 z m 0,-89.82569 A -43.91285,43.91285 0 1 0 149.31304,316.16309 -43.96263,43.96263 0 0 0 105.39997,272.25 Z"
     fill="#2f2e41"
     id="path56"
     style="fill:#ce1483;fill-opacity:0.24772571" />
  <circle
     cx="67.751045"
     cy="170.34248"
     r="8"
     fill="#f2f2f2"
     id="circle58"
     style="fill:#ce1483;fill-opacity:0.24772571" />
  <circle
     cx="478.75104"
     cy="130.34248"
     r="8"
     fill="#fd6584"
     id="circle60"
     style="fill:#ce1483;fill-opacity:0.24772571" />
  <circle
     cx="531.75104"
     cy="414.34247"
     r="8"
     fill="#f2f2f2"
     id="circle62"
     style="fill:#ce1483;fill-opacity:0.24772571" />
  <polygon
     points=""
     fill="#f2f2f2"
     id="polygon64" />
  <path
     d="m 173.47924,201.64348 0.30342,-1.97729 39.07263,5.99423 c -3.98179,-3.84384 -17.168,-15.73149 -29.12694,-16.93687 -14.28681,-1.43982 -20.57275,4.676 -21.40353,12.91859 -0.83078,8.24259 4.10776,15.49 18.39488,16.9302 12.11058,1.22082 27.64265,-8.04289 32.0955,-10.89447 z"
     fill="#f2f2f2"
     id="path66"
     style="fill:#ce1483;fill-opacity:0.24772571" />
  <polygon
     points=""
     fill="#f2f2f2"
     id="polygon68" />
  <path
     d="m 547.36771,95.72793 -1.20553,-1.59638 31.5445,-23.82322 c -5.5317,0.17315 -23.24738,1.33352 -32.45121,9.064 -10.99524,9.2353 -10.99568,18.0055 -5.66758,24.34912 5.3281,6.34362 13.9664,7.85835 24.96212,-1.3769 9.32063,-7.82832 13.513,-25.42051 14.57462,-30.60051 z"
     fill="#f2f2f2"
     id="path70"
     style="fill:#ce1483;fill-opacity:0.24772571" />
  <polygon
     points=""
     fill="#f2f2f2"
     id="polygon72" />
  <path
     d="m 472.88522,325.06475 -0.86731,-1.1485 22.69437,-17.13937 c -3.97973,0.12457 -16.72509,0.95939 -23.34669,6.521 -7.91041,6.64423 -7.91073,12.95387 -4.07748,17.51772 3.83325,4.56385 10.048,5.65361 17.95874,-0.9906 6.70562,-5.632 9.72181,-18.28852 10.48556,-22.01522 z"
     fill="#f2f2f2"
     id="path74"
     style="fill:#ce1483;fill-opacity:0.24772571" />
  <path
     d="m 293.23038,52.252 c 6.14879,-16.53194 20.67627,-30.81667 38.23241,-32.51582 a -81.26684,81.26684 0 0 0 -12.844,54.29669 c 0.89844,7.34267 2.66227,15.41593 -1.29595,21.66534 -2.46282,3.88858 -6.80323,6.28249 -11.27737,7.36283 -4.4744,1.08028 -9.13654,0.99659 -13.73863,0.90672 l -1.03029,0.50874 C 288.03992,87.13763 287.0816,68.78394 293.23038,52.252 Z"
     fill="#f0f0f0"
     id="path76"
     style="fill:#ce1483;fill-opacity:0.24772571" />
  <path
     d="m 331.54778,20.09639 a -69.46131,69.46131 0 0 0 -25.80578,34.066 -29.91265,29.91265 0 0 0 -1.82558,9.1926 -17.15622,17.15622 0 0 0 2.31994,8.72606 c 1.385,2.49909 3.091,4.895 3.84436,7.68725 a -10.50475,10.50475 0 0 1 -1.47529,8.46337 c -1.98468,3.11122 -4.9689,5.32376 -7.96242,7.386 -3.32372,2.28975 -6.81231,4.61543 -8.846,8.21248 -0.24641,0.43583 -0.90826,0.028 -0.66223,-0.40717 3.53827,-6.25825 10.964,-8.53149 15.50673,-13.84739 2.1197,-2.48049 3.50472,-5.61481 2.84937,-8.91778 -0.57308,-2.88829 -2.33027,-5.36049 -3.75444,-7.87876 a -18.30685,18.30685 0 0 1 -2.5863,-8.44768 -27.65338,27.65338 0 0 1 1.46542,-9.22888 -67.38964,67.38964 0 0 1 9.50523,-18.79553 -70.69316,70.69316 0 0 1 17.06068,-16.89636 c 0.40916,-0.28566 0.7728,0.402 0.36631,0.68582 z"
     fill="#ffffff"
     id="path78"
     style="fill:#ce1483;fill-opacity:0.24772571" />
  <path
     d="m 307.02893,49.63248 a -10.42139,10.42139 0 0 1 -5.20576,-12.4501 c 0.15335,-0.47609 0.90037,-0.26014 0.74681,0.21658 a -9.65,9.65 0 0 0 4.86612,11.57129 c 0.44694,0.22466 0.0372,0.8856 -0.40717,0.66223 z"
     fill="#ffffff"
     id="path80"
     style="fill:#ce1483;fill-opacity:0.24772571" />
  <path
     d="m 305.36724,70.90635 a -20.08641,20.08641 0 0 0 11.39256,-9.192 c 0.24795,-0.43494 0.90988,-0.02725 0.66223,0.40717 a -20.89281,20.89281 0 0 1 -11.87443,9.541 c -0.47837,0.14957 -0.65613,-0.60742 -0.18036,-0.75617 z"
     fill="#ffffff"
     id="path82"
     style="fill:#ce1483;fill-opacity:0.24772571" />
  <path
     d="m 319.33484,30.62586 a -5.899,5.899 0 0 0 5.50539,1.01112 c 0.47624,-0.15556 0.65349,0.60163 0.18036,0.75618 a -6.61035,6.61035 0 0 1 -6.09292,-1.10507 -0.40175,0.40175 0 0 1 -0.12753,-0.5347 -0.39066,0.39066 0 0 1 0.5347,-0.12753 z"
     fill="#ffffff"
     id="path84"
     style="fill:#ce1483;fill-opacity:0.24772571" />
  <path
     d="m 373.7793,61.87628 c -0.2946,0.10559 -0.58921,0.21118 -0.88564,0.32309 a -77.687,77.687 0 0 0 -11.452,5.25938 c -0.28616,0.15479 -0.57384,0.316 -0.855,0.47865 a -81.89936,81.89936 0 0 0 -22.91541,19.59789 -79.53468,79.53468 0 0 0 -6.83507,9.96571 c -2.79266,4.82059 -5.43706,10.26953 -9.53838,13.78262 a -13.64235,13.64235 0 0 1 -1.33656,1.03217 l -27.98417,-6.62184 c -0.056,-0.047 -0.11391,-0.0877 -0.17027,-0.13469 l -1.12941,-0.21331 c 0.0917,-0.1873 0.19089,-0.37959 0.28262,-0.56689 0.0528,-0.10887 0.11175,-0.21626 0.1645,-0.32513 0.0371,-0.0721 0.0746,-0.1442 0.104,-0.21139 0.0123,-0.024 0.0249,-0.048 0.0356,-0.0657 0.0294,-0.0672 0.0638,-0.12649 0.0917,-0.1873 q 0.827,-1.61457 1.67953,-3.22313 c 0.002,-0.006 0.002,-0.006 0.009,-0.0113 a -116.94421,116.94421 0 0 1 15.52689,-22.87678 c 0.18372,-0.206 0.36863,-0.41843 0.56513,-0.62139 a -75.89471,75.89471 0 0 1 9.01481,-8.49255 -67.09652,67.09652 0 0 1 5.52493,-3.9448 -55.79245,55.79245 0 0 1 15.99471,-6.96226 c 11.29084,-2.92428 23.39124,-2.205 33.35174,3.57023 0.25478,0.14792 0.50357,0.2944 0.75675,0.44872 z"
     fill="#f0f0f0"
     id="path86"
     style="fill:#ce1483;fill-opacity:0.24772571" />
  <path
     d="m 373.63235,62.21657 a -69.46125,69.46125 0 0 0 -41.11453,11.66291 -29.91234,29.91234 0 0 0 -6.9922,6.24065 -17.15609,17.15609 0 0 0 -3.40135,8.364 c -0.39882,2.82922 -0.47913,5.7694 -1.55875,8.45241 a -10.50474,10.50474 0 0 1 -6.27347,5.8693 c -3.45782,1.28922 -7.17266,1.2591 -10.80444,1.1034 -4.03239,-0.17288 -8.21806,-0.41633 -12.00751,1.2313 -0.45915,0.19963 -0.74206,-0.52448 -0.28361,-0.72381 6.593,-2.86658 13.89071,-0.21081 20.71833,-1.72024 3.1859,-0.70433 6.17884,-2.373 7.64418,-5.40483 1.28139,-2.65118 1.3668,-5.683 1.74585,-8.55118 a -18.30691,18.30691 0 0 1 3.02108,-8.30214 -27.65318,27.65318 0 0 1 6.72648,-6.48646 -67.39008,67.39008 0 0 1 18.90563,-9.2844 -70.69334,70.69334 0 0 1 23.79478,-3.21908 c 0.49868,0.01826 0.375,0.78628 -0.12043,0.76814 z"
     fill="#ffffff"
     id="path88"
     style="fill:#ce1483;fill-opacity:0.24772571" />
  <path
     d="m 336.27266,71.03742 a -10.42142,10.42142 0 0 1 3.33931,-13.07494 c 0.40909,-0.28779 0.87553,0.33438 0.4659,0.62256 a -9.65,9.65 0 0 0 -3.0814,12.16877 c 0.2216,0.44847 -0.50348,0.72951 -0.72381,0.28361 z"
     fill="#ffffff"
     id="path90"
     style="fill:#ce1483;fill-opacity:0.24772571" />
  <path
     d="m 322.13755,87.02298 a -20.0864,20.0864 0 0 0 14.63051,-0.48016 c 0.45984,-0.198 0.7429,0.526 0.28361,0.72381 a -20.89288,20.89288 0 0 1 -15.22539,0.4687 c -0.472,-0.16859 -0.15817,-0.88 0.31127,-0.71235 z"
     fill="#ffffff"
     id="path92"
     style="fill:#ce1483;fill-opacity:0.24772571" />
  <path
     d="m 357.54153,63.27072 a -5.899,5.899 0 0 0 3.787,4.12195 c 0.4739,0.16252 0.15955,0.87382 -0.31127,0.71235 a -6.61031,6.61031 0 0 1 -4.19953,-4.55069 -0.40175,0.40175 0 0 1 0.2201,-0.50371 -0.39067,0.39067 0 0 1 0.50371,0.2201 z"
     fill="#ffffff"
     id="path94"
     style="fill:#ce1483;fill-opacity:0.24772571" />
  <path
     d="m 208.23038,280.252 c 6.14879,-16.53194 20.67627,-30.81667 38.23241,-32.51582 a -81.26684,81.26684 0 0 0 -12.844,54.29669 c 0.89844,7.34267 2.66227,15.41593 -1.29595,21.66534 -2.46282,3.88858 -6.80323,6.28249 -11.27737,7.36283 -4.4744,1.08028 -9.13654,0.99659 -13.73863,0.90672 l -1.03029,0.50874 c -3.23663,-17.33887 -4.19495,-35.69256 1.95383,-52.2245 z"
     fill="#f0f0f0"
     id="path96"
     style="fill:#ce1483;fill-opacity:0.24772571" />
  <path
     d="m 246.54778,248.09639 a -69.46131,69.46131 0 0 0 -25.80574,34.06595 -29.91265,29.91265 0 0 0 -1.82558,9.1926 -17.15622,17.15622 0 0 0 2.31994,8.72606 c 1.385,2.49909 3.091,4.895 3.84436,7.68725 a -10.50475,10.50475 0 0 1 -1.47529,8.46337 c -1.98468,3.11122 -4.9689,5.32376 -7.96242,7.386 -3.32372,2.28975 -6.81231,4.61543 -8.846,8.21248 -0.24641,0.43583 -0.90826,0.028 -0.66223,-0.40717 3.53827,-6.25825 10.964,-8.53149 15.50673,-13.84739 2.1197,-2.48049 3.50472,-5.61481 2.84937,-8.91778 -0.57308,-2.88829 -2.33027,-5.36049 -3.75444,-7.87876 a -18.30685,18.30685 0 0 1 -2.5863,-8.44768 -27.65338,27.65338 0 0 1 1.46542,-9.22888 -67.38964,67.38964 0 0 1 9.50523,-18.79553 -70.69316,70.69316 0 0 1 17.06068,-16.89636 c 0.40916,-0.28566 0.7728,0.402 0.36631,0.68582 z"
     fill="#ffffff"
     id="path98"
     style="fill:#ce1483;fill-opacity:0.24772571" />
  <path
     d="m 222.02893,277.63248 a -10.42139,10.42139 0 0 1 -5.20576,-12.4501 c 0.15335,-0.47609 0.90037,-0.26014 0.74681,0.21658 a -9.65,9.65 0 0 0 4.86612,11.57129 c 0.44694,0.22466 0.0372,0.8856 -0.40717,0.66223 z"
     fill="#ffffff"
     id="path100"
     style="fill:#ce1483;fill-opacity:0.24772571" />
  <path
     d="m 220.36724,298.90635 a -20.08641,20.08641 0 0 0 11.39256,-9.192 c 0.248,-0.43494 0.90988,-0.0273 0.66223,0.40717 a -20.89281,20.89281 0 0 1 -11.87443,9.541 c -0.47837,0.14957 -0.65613,-0.60742 -0.18036,-0.75617 z"
     fill="#ffffff"
     id="path102"
     style="fill:#ce1483;fill-opacity:0.24772571" />
  <path
     d="m 234.33484,258.62586 a -5.899,5.899 0 0 0 5.50539,1.01112 c 0.47624,-0.15556 0.65349,0.60163 0.18036,0.75618 a -6.61035,6.61035 0 0 1 -6.09292,-1.10507 -0.40175,0.40175 0 0 1 -0.12753,-0.5347 -0.39066,0.39066 0 0 1 0.5347,-0.12753 z"
     fill="#ffffff"
     id="path104"
     style="fill:#ce1483;fill-opacity:0.24772571" />
  <path
     d="m 288.7793,289.87628 c -0.2946,0.10559 -0.58921,0.21118 -0.88564,0.32309 a -77.687,77.687 0 0 0 -11.452,5.25938 c -0.28616,0.15479 -0.57384,0.316 -0.855,0.47865 a -81.89936,81.89936 0 0 0 -22.91541,19.59789 -79.53468,79.53468 0 0 0 -6.83507,9.96571 c -2.79266,4.82059 -5.43706,10.26953 -9.53838,13.78262 a -13.64235,13.64235 0 0 1 -1.33656,1.03217 l -27.98417,-6.62184 c -0.056,-0.047 -0.11391,-0.0877 -0.17027,-0.13469 l -1.12941,-0.21331 c 0.0917,-0.1873 0.19089,-0.37959 0.28262,-0.56689 0.0528,-0.10887 0.11175,-0.21626 0.1645,-0.32513 0.0371,-0.0721 0.0746,-0.1442 0.104,-0.21139 0.0123,-0.024 0.0249,-0.048 0.0356,-0.0657 0.0294,-0.0672 0.0638,-0.12649 0.0917,-0.1873 q 0.827,-1.61457 1.67953,-3.22313 c 0.002,-0.006 0.002,-0.006 0.009,-0.0113 a -116.94421,116.94421 0 0 1 15.52657,-22.87674 c 0.18372,-0.206 0.36863,-0.41843 0.56513,-0.62139 a -75.89471,75.89471 0 0 1 9.01481,-8.49255 -67.09652,67.09652 0 0 1 5.52493,-3.9448 -55.79245,55.79245 0 0 1 15.99471,-6.96226 c 11.29084,-2.92428 23.39124,-2.205 33.35174,3.57023 0.25478,0.14792 0.50357,0.2944 0.75675,0.44872 z"
     fill="#f0f0f0"
     id="path106"
     style="fill:#ce1483;fill-opacity:0.24772571" />
  <path
     d="m 288.63235,290.21657 a -69.46125,69.46125 0 0 0 -41.11453,11.66291 -29.91234,29.91234 0 0 0 -6.9922,6.24065 -17.15609,17.15609 0 0 0 -3.40135,8.364 c -0.39882,2.82922 -0.47913,5.7694 -1.55875,8.45241 a -10.50474,10.50474 0 0 1 -6.27347,5.8693 c -3.45782,1.28922 -7.17266,1.2591 -10.80444,1.1034 -4.03239,-0.17288 -8.21806,-0.41633 -12.00751,1.2313 -0.45915,0.19963 -0.74206,-0.52448 -0.28361,-0.72381 6.593,-2.86658 13.89071,-0.21081 20.71833,-1.72024 3.1859,-0.70433 6.17884,-2.373 7.64418,-5.40483 1.28139,-2.65118 1.3668,-5.683 1.74585,-8.55118 a -18.30691,18.30691 0 0 1 3.02108,-8.30214 -27.65318,27.65318 0 0 1 6.72648,-6.48646 -67.39008,67.39008 0 0 1 18.90563,-9.2844 -70.69334,70.69334 0 0 1 23.79478,-3.21908 c 0.49868,0.0183 0.375,0.78628 -0.12043,0.76814 z"
     fill="#ffffff"
     id="path108"
     style="fill:#ce1483;fill-opacity:0.24772571" />
  <path
     d="m 251.27266,299.03742 a -10.42142,10.42142 0 0 1 3.33931,-13.07494 c 0.40909,-0.28779 0.87553,0.33438 0.4659,0.62256 a -9.65,9.65 0 0 0 -3.0814,12.16877 c 0.2216,0.44847 -0.50348,0.72951 -0.72381,0.28361 z"
     fill="#ffffff"
     id="path110"
     style="fill:#ce1483;fill-opacity:0.24772571" />
  <path
     d="m 237.13755,315.02298 a -20.0864,20.0864 0 0 0 14.63051,-0.48016 c 0.45984,-0.198 0.7429,0.526 0.28361,0.72381 a -20.89288,20.89288 0 0 1 -15.22539,0.4687 c -0.472,-0.16859 -0.15817,-0.88 0.31127,-0.71235 z"
     fill="#ffffff"
     id="path112"
     style="fill:#ce1483;fill-opacity:0.24772571" />
  <path
     d="m 272.54153,291.27072 a -5.899,5.899 0 0 0 3.787,4.12195 c 0.4739,0.16252 0.15955,0.87382 -0.31127,0.71235 a -6.61031,6.61031 0 0 1 -4.19953,-4.55069 -0.40175,0.40175 0 0 1 0.2201,-0.50371 -0.39067,0.39067 0 0 1 0.50371,0.2201 z"
     fill="#ffffff"
     id="path114"
     style="fill:#ce1483;fill-opacity:0.24772571" />
  <path
     d="m 556.57485,404.16687 c -3.13786,-11.73057 -0.67686,-25.53931 8.50057,-33.49063 a -55.94745,55.94745 0 0 0 14.432,35.5974 c 3.431,3.76352 7.6389,7.59221 7.90795,12.67782 a -12.50652,12.50652 0 0 1 -3.39557,8.62788 -37.14308,37.14308 0 0 1 -7.35042,5.98492 l -0.37555,0.69623 c -8.72779,-8.44266 -16.58112,-18.36301 -19.71898,-30.09362 z"
     fill="#f0f0f0"
     id="path116"
     style="fill:#ce1483;fill-opacity:0.24772571" />
  <path
     d="m 565.2667,370.84456 a -47.82,47.82 0 0 0 -0.90735,29.40773 -20.59268,20.59268 0 0 0 2.63925,5.88767 -11.811,11.811 0 0 0 4.78028,3.97346 -24.44625,24.44625 0 0 1 5.22193,2.78275 -7.23191,7.23191 0 0 1 2.54522,5.33872 -18.78969,18.78969 0 0 1 -1.52556,7.31962 c -0.953,2.61006 -1.9843,5.306 -1.69214,8.1357 0.0354,0.34286 -0.49867,0.37774 -0.534,0.0354 -0.50831,-4.92319 2.75388,-9.159 3.185,-13.95355 a -7.32394,7.32394 0 0 0 -1.955,-6.14147 c -1.47291,-1.39285 -3.44463,-2.08017 -5.24779,-2.92609 a -12.60323,12.60323 0 0 1 -4.81884,-3.711 -19.03771,19.03771 0 0 1 -2.85588,-5.76448 -46.394,46.394 0 0 1 -2.156,-14.339 -48.668,48.668 0 0 1 2.842,-16.28439 c 0.11581,-0.32343 0.594,-0.0824 0.479,0.239 z"
     fill="#ffffff"
     id="path118"
     style="fill:#ce1483;fill-opacity:0.24772571" />
  <path
     d="m 563.2762,397.19662 a -7.17452,7.17452 0 0 1 -7.88449,-4.91362 c -0.10368,-0.32837 0.40172,-0.5049 0.50553,-0.1761 a -6.64345,6.64345 0 0 0 7.34357,4.5557 c 0.34042,-0.052 0.37387,0.48228 0.0354,0.534 z"
     fill="#ffffff"
     id="path120"
     style="fill:#ce1483;fill-opacity:0.24772571" />
  <path
     d="m 570.82283,409.80048 a -13.82831,13.82831 0 0 0 2.73118,-9.70052 c -0.0342,-0.343 0.49987,-0.378 0.534,-0.0354 a -14.38351,14.38351 0 0 1 -2.86255,10.0885 c -0.20891,0.27463 -0.61041,-0.0794 -0.40264,-0.35258 z"
     fill="#ffffff"
     id="path122"
     style="fill:#ce1483;fill-opacity:0.24772571" />
  <path
     d="m 562.60814,381.62285 a -4.06112,4.06112 0 0 0 3.49332,-1.62678 c 0.20532,-0.27714 0.60662,0.0772 0.40263,0.35258 a -4.55082,4.55082 0 0 1 -3.86056,1.80822 -0.27658,0.27658 0 0 1 -0.2847,-0.24931 -0.26894,0.26894 0 0 1 0.24931,-0.28471 z"
     fill="#ffffff"
     id="path124"
     style="fill:#ce1483;fill-opacity:0.24772571" />
  <path
     d="m 605.62494,377.46392 c -0.12328,0.17669 -0.24656,0.35339 -0.36835,0.53436 a -53.48206,53.48206 0 0 0 -4.332,7.51675 c -0.0989,0.20095 -0.19618,0.40609 -0.28914,0.60946 a -56.38309,56.38309 0 0 0 -5.05162,20.13441 -54.75484,54.75484 0 0 0 0.13546,8.31833 c 0.35381,3.819 1.04129,7.93164 0.13937,11.53833 a -9.393,9.393 0 0 1 -0.33884,1.11211 l -18.34753,7.437 c -0.0502,-0.004 -0.0989,-0.004 -0.14925,-0.008 l -0.719,0.33043 c -0.0232,-0.1417 -0.0441,-0.28916 -0.0673,-0.43086 -0.0138,-0.0821 -0.0235,-0.16594 -0.0372,-0.24808 -0.008,-0.0553 -0.0156,-0.11067 -0.0259,-0.16011 -0.003,-0.0184 -0.005,-0.0369 -0.006,-0.0511 -0.0103,-0.0494 -0.0146,-0.0965 -0.0232,-0.1417 q -0.17932,-1.23593 -0.34192,-2.47865 c -0.002,-0.004 -0.002,-0.004 7e-4,-0.01 a -80.509,80.509 0 0 1 -0.40281,-19.02986 c 0.021,-0.18885 0.0401,-0.38181 0.0695,-0.57406 a -52.248,52.248 0 0 1 1.67526,-8.3602 -46.18955,46.18955 0 0 1 1.529,-4.41644 -38.40967,38.40967 0 0 1 6.20319,-10.28328 c 5.17225,-6.14179 12.25119,-10.561 20.14415,-11.28932 0.20192,-0.0186 0.39996,-0.0355 0.60358,-0.0498 z"
     fill="#f0f0f0"
     id="path126"
     style="fill:#ce1483;fill-opacity:0.24772571" />
  <path
     d="m 605.67809,377.71348 a -47.82,47.82 0 0 0 -18.43,22.93414 -20.593,20.593 0 0 0 -1.43749,6.29 -11.81107,11.81107 0 0 0 1.42449,6.05065 -24.446,24.446 0 0 1 2.494,5.36582 -7.23189,7.23189 0 0 1 -1.18206,5.79507 -18.78977,18.78977 0 0 1 -5.625,4.92581 c -2.33239,1.5102 -4.77893,3.04187 -6.24933,5.47713 -0.17816,0.29506 -0.62559,10e-4 -0.4477,-0.29325 2.55825,-4.23693 7.71316,-5.65491 10.944,-9.22355 a -7.32394,7.32394 0 0 0 2.1366,-6.08069 c -0.33744,-1.99891 -1.49794,-3.73481 -2.42835,-5.49585 a -12.60324,12.60324 0 0 1 -1.61321,-5.86428 -19.03767,19.03767 0 0 1 1.19036,-6.322 -46.394,46.394 0 0 1 6.91158,-12.747 -48.66809,48.66809 0 0 1 12.07352,-11.2911 c 0.28719,-0.18851 0.52388,0.29189 0.23856,0.47917 z"
     fill="#ffffff"
     id="path128"
     style="fill:#ce1483;fill-opacity:0.24772571" />
  <path
     d="m 588.22304,397.55573 a -7.17451,7.17451 0 0 1 -3.337,-8.67026 c 0.11492,-0.3246 0.62473,-0.16127 0.50966,0.16376 a -6.64346,6.64346 0 0 0 3.12058,8.05881 c 0.30314,0.16341 0.008,0.61017 -0.29325,0.44769 z"
     fill="#ffffff"
     id="path130"
     style="fill:#ce1483;fill-opacity:0.24772571" />
  <path
     d="m 586.66019,412.16279 a -13.82828,13.82828 0 0 0 8.02108,-6.101 c 0.1792,-0.29443 0.62668,-8.2e-4 0.44769,0.29325 a -14.3835,14.3835 0 0 1 -8.35956,6.33164 c -0.33214,0.0935 -0.43954,-0.43093 -0.10921,-0.52393 z"
     fill="#ffffff"
     id="path132"
     style="fill:#ce1483;fill-opacity:0.24772571" />
  <path
     d="m 597.06609,384.71873 a -4.06112,4.06112 0 0 0 3.76866,0.80432 c 0.33079,-0.0977 0.43785,0.4269 0.10921,0.52393 a -4.55086,4.55086 0 0 1 -4.17112,-0.88056 -0.27659,0.27659 0 0 1 -0.0772,-0.37047 -0.26894,0.26894 0 0 1 0.37047,-0.0772 z"
     fill="#ffffff"
     id="path134"
     style="fill:#ce1483;fill-opacity:0.24772571" />
</svg>
