<svg xmlns="http://www.w3.org/2000/svg" width="578" height="412" viewBox="219 984 578 412"><path d="M218.999 983.637a.36.36 0 0 0-.362.362V1396c0 .2.163.362.363.362l578.001.001a.36.36 0 0 0 .362-.362V984c0-.2-.163-.362-.363-.362z" style="fill:#00aec7;fill-opacity:1;stroke-linejoin:miter"/><path d="m763.8 1343.553-2.198.32q-15.635.97-91.497 1.55-76.386.58-179.9.47-98.79-.153-158.02-.897-59.183-.749-47.997-1.764 15.635-.969 91.497-1.55 76.386-.58 179.9-.47 98.79.153 158.02.897 18.978.24 31.264.524l10.327.292q8.51.3 8.605.628" style="fill:#000;fill-opacity:.44313726;stroke-linejoin:miter"/><path d="m399.683 1229.771-.57 15.38q-4.055 46.482-23.726 74.35-19.807 27.845-46.649 22.582-25.617-7.356-40.975-43.05-4.922-11.536-8.107-25.142l-2.678-13.988q-2.207-14.437-2.231-30.132.67-48.165 18.296-80.148 17.627-31.984 44.172-33.199 26.545 1.216 44.171 33.199 17.627 31.983 18.297 80.148" style="fill:#ba0c0c;fill-opacity:1;stroke-linejoin:miter"/><path d="m400.451 1230.367-.497 15.418q-3.534 46.594-20.68 74.53-17.267 27.913-40.664 22.637-22.33-7.374-35.718-43.154-4.29-11.565-7.067-25.204l-2.334-14.022q-1.923-14.472-1.945-30.205.584-48.283 15.95-80.343 15.364-32.061 38.503-33.28 23.139 1.219 38.504 33.28t15.948 80.343" style="fill:red;fill-opacity:1;stroke-linejoin:miter"/><path d="m391.363 1230.767-.507 12.744q-1.4 17.111-4.915 31.156-4.856 16.886-6.462 19.343-2.55 5.872-5.63 10.98-6.2 10.203-13.317 14.978-9.097 4.78-11.192 4.108-3.902.352-8.034-.653-2.196.028-11.005-6.771-3.397-3.125-6.432-7.406-6.07-8.562-10.693-21.752-10.301-31.901-8.209-66.188.938-17.073 4.176-31.477 1.62-7.202 3.815-13.736.773-3.758 7.81-17.953 11.67-20.943 28.056-21.696 8.185.52 15.104 6.065 3.459 2.773 6.601 6.803 7.58 11.173 8.715 14.916 5.335 11.828 8.322 26.286 1.493 7.23 2.4 15.116.82 3.532 1.397 25.137" style="fill:#fff;fill-opacity:1;stroke-linejoin:miter"/><path d="m383.168 1230.52-.318 10.343q-1.437 16.688-3.757 25.311-2.322 8.572-4.403 14.27-2.574 5.99-5.182 10.418-6.147 9.657-10.693 12.25-7.528 4.924-14.088 3.24-14.348-3.907-22.803-24.68-1.757-3.952-3.552-10.313-3.72-14.548-3.87-17.578-1.836-11.868-1.69-24.138.478-31.795 10.304-52.798 10.192-22.078 24.844-22.529 13.745.294 24.201 20.673 10.83 23.3 11.007 55.532" style="fill:red;fill-opacity:1;stroke-linejoin:miter"/><path d="m373.334 1231.467-.464 7.443q-1.053 9.938-3.283 18.149-3.48 11.93-7.027 16.858-4.792 7.124-7.665 8.836-6.056 3.683-9.928 2.712-6.132-1.762-9.246-5.41-1.82-1.885-3.412-4.363-.938-.868-4.26-8.77-2.357-5.583-4.58-18.876-1.166-8.735-.799-18.813.475-10.176 2.231-18.773.879-4.299 2.077-8.203.4-2.199 4.317-10.826 3.487-6.966 7.51-10.834 2.013-1.934 4.16-3.094.989-1.063 6.741-1.736 2.199.116 4.258.944 1.117-.03 5.864 4.082 3.7 3.787 6.842 10.418 3.231 7.57 4.907 16.363 1.754 11.258 1.638 13.877.254 4.855.12 10.016" style="fill:#fff;fill-opacity:1;stroke-linejoin:miter"/><path d="m365.019 1230.1.036 5.025q-.308 13.117-4.822 23.186-1.996 3.475-2.838 4.55-1.079 1.493-1.953 2.248-3.8 2.982-6.972 2.619-7.765-1.226-12.654-12.55-2.434-6.128-3.8-12.908-1.22-7.362-1.187-12.819-.178-14.86 4.511-25.355 4.711-10.273 11.52-10.34 1.082-.022 3.041.532 1.579.751 3.67 2.373 2.098 1.643 5.086 6.685 2.07 3.747 4.064 10.772 1.08 4.619 1.648 8.186.488 4.106.65 7.795" style="fill:red;fill-opacity:1;stroke-linejoin:miter"/><path d="M637.23 1188.507q2.668-1.208 4.862-.524.291.011 3.315 1.352 3.524.924 3.809 1.19 1.36.676 2.173 2.054 2.516 4.555 2.32 11.41-.051 1.453-.24 3.04l-2.725 3.53q-8.116-2.073-11.353-4.194-1.652-1.02-3.268-2.642-.964-.895-3.949-4.597-.485-.554-.961-.982-1.097-1.024-2.615-1.415-.078-1.922 1.977-3.789 3.125-2.833 6.644-4.428" style="fill:#000;fill-opacity:1;stroke-linejoin:miter"/><path d="M612.311 1245.706q.886-.047 1.85.406.894.387 3.092 1.844l2.19-.071.32 5.3q-2.22 1.188-3.19 1.29-.926.162-2.163-.608-1.06 1.215-1.912 1.204-1.158.09-3.136-1.824-2.097-2.139-2.187-3.423-.015-.605.51-1.022.461-.39 1.802-.826-1.265.014-1.42-.349-.235-.628.47-1.273.338-.294 1.047-.415.222-.038.55-.066z" style="fill:#ffc3a1;fill-opacity:1;stroke-linejoin:miter"/><path d="m619.128 1247.767 1.807-.176 2.125 8.152q-1.493.684-2.123.615-.755-.043-1.129-.808-.38-.76-.536-2.55-.145-1.502-.144-5.225" style="fill:#fff;fill-opacity:1;stroke-linejoin:miter"/><path d="m682.892 1223.487.007.008q6.373 7.305 7.07 7.381l.015.002q.32.009-.54-1.628-.711-1.378-3.246-5.564zm-18.697-22.023q.633.018 1.272.21h.034q.894.026 4.421 2.987 1.278.74 2.683 1.161 16.835 3.017 17.707 3.815 4.255 1.542 6.099 4.811.96 1.616 1.744 3.98l6.386 20.025q.818 3.176-1.756 3.102-.682-.02-1.603-.268l10.643 11.607-2.378 2.479q.576 2.7.627 5.894-.478 15.028-.272 15.257.093 2.949.815 7.478l16.398-6.655q1.74-2.815 7.44-6.12 3.987 3.035 5.368 9.476.87 3.481 2.068 11.264-19.015 6.46-34.257 13.7-2.961 1.162-4.854 1.243-.255.018-.503.01-2.92-.083-4.86-3.679-2.03-3.277-8.376-20.46l-9.309 10.965 14.275 37.353-.156.1-18.46 3.972-13.611-36.738q-1.451-4.607-.057-9.236 1.164-4.44 7.16-15.126l-2.594.113 4.584-20.776-14.622-10.942q-8.314 9.323-14.094 11.719-2.688 1.214-6.523 1.96-14.074 1.589-15.028 2.165l-.845-11.151 18.56-4.132 7.45-10.268q-1.736-6.488-.99-14.755l8.412-12.146 2.949 1.383q4.03-4.629 5.913-5.333l.089-.04q1.017-.434 2.05-.404" style="fill:#000;fill-opacity:1;stroke-linejoin:miter"/><path d="M648.042 1210.602q1.024-1.483 3.234-3.556l.777.666q-1.326 2.17-1.638 4.774-.39 2.983-.042 7.9.535 8.472 3.729 14.835-4.002-2.383-5.587-4.101-1.558-1.592-2.165-4.208-.165-.67-.31-1.508l-.623-4.179q-.194-1.19-.653-3.512 1.83-5.186 3.264-7.09" style="fill:#fff;fill-opacity:1;stroke-linejoin:miter"/><path d="M631.28 1197.659q3.5-.193 4.23.587.707.553.804 2.558l2.258 1.21 1.144 2.932 1.555-.22q.243-2.729.6-3.342.398-.777 1.37-.513 1.173.309 1.776 1.124.425.5.571 2.366.117.323.465.597.474.539 5.473 2.647l-6.23 10.493-4.064-1.611-2.64-.108q-2.573 1.349-3.24.934-.745-.257-.709-3.063-1.08-1.063-1.118-1.507-.115-.51.653-1.268-1.193.176-1.48-.201-.364-.33-.434-1.903-2.055.358-2.076-.254-.072-.292.198-.992l1.432-3.25-.112-.822q-.641-.91-.69-2.006-.1-1.046.262-4.373m68.086 41.786q2.093 3.97 2.534 5.222.217.579.299 1.044.054.202.107 1.212.022.208.078.422.046.183.157.464.574 1.323.614 1.484.171.497.191.83.036.524-.27.876-.337.378-.834.404h-.062q-.833-.025-1.245-1.202-.25-.67-.415-1.7-.174.143-.322.252-.003.277.02.572.014.178.036.35l.108.782q.023.187.03.332.007.143 0 .256.331.724.488 1.124.251.626.365 1.101.232.95-.1 1.426-.253.385-.759.532-.243.063-.472.056-.199-.005-.387-.063.415.951.345 1.368-.034.353-.304.577-.278.227-.691.24l-.06-.001q-.686-.02-1.33-.647-.232-.22-.478-.524-.632.486-1.183.47-.253-.007-.49-.12-1.046-.483-1.896-2.009-1.075-1.772-1.202-6.062-.224-.043-.404-.155-1.541 2.49-2.408 3.049-.608.43-1.212.413-.092-.003-.184-.016-.756-.16-.75-.73.019-.251.286-.584l.254-.297q.753-.794.849-.912.265-.301.48-.598.358-.498.567-.992.626-1.464.71-3.942v-.003l.051.092q.062-.21.178-.376.398-.658 2.124-1.435 1.478-.701 6.586-2.552h.004v.002l-.003-.026z" style="fill:#ffc3a1;fill-opacity:1;stroke-linejoin:miter"/><path d="m693.239 1330.748 1.623 1.991 1.09-.52q1 1.81 1.396 2.849 1.126 2.363.634 7.775l-10.636.311-.1-2.054q-5.492 1.714-8.294 2.195-3.21.59-5.922.387-6.163-.562-7.389-2.998-.467-1.472 1.448-2.083.595-.186 1.692-.268.02-.034 4.048-.146.928-.046 1.69-.143 1.693-.21 2.767-.772 2.338-1.206 3.563-4.539l12.341-1.976m44.418-65.032q1.379-.935 3.792.452 1.346.716 4.44 3.04l-.853 1.024q7.23 2.29 10.638 5.44 3.497 3.15 6.046 7.563 1.874 3.28.34 3.957-2.038 1.269-2.965.921-.526-.12-1.13-.479-3.216-2.129-3.835-2.399-1.122-.599-2.391-.981-1.127-.346-2.655-.62-7.305-1.002-10.2-1.69l-5.56-10.077q2.92-5.433 4.318-6.142m-91.953-47.718 2.637 2.775-1.432 2.027q-.007 2.649.962 4.321.593 1.121 2.008 2.624l1.284 1.299 2.868 2.685q.526.502.787.8.6.656.429.941-.214.359-1.808.479-1.064.027-1.973-.377-1.694-.732-2.933-3.066-2.022-3.846-3.41-10.163-.348-1.723-.252-2.955l.83-1.385" style="fill:#000;fill-opacity:1;stroke-linejoin:miter"/><path d="m643.027 1211.206 2.392 6.754-6.514-1.766q1.917-1.582 2.685-2.544.742-.897 1.434-2.438" style="fill:#fa5757;fill-opacity:.07450981;stroke-linejoin:miter"/><path d="M348.804 1230.64h88.407v3.497h-88.407z" style="fill:#000;fill-opacity:1;stroke-linejoin:miter"/><path d="m413.457 1230.915 2.951-3.454 2.952-3.453 16.379-.838-1.422 7.469zm-.701 3.002 5.935 6.88 16.382.763-1.456-7.463z" style="fill:red;fill-opacity:1;stroke-linejoin:miter"/></svg>