<svg xmlns="http://www.w3.org/2000/svg" width="1396" height="1397" viewBox="-32 405 1396 1397"><path d="M-37.615 400.538a1.723 1.723 0 0 0-1.723 1.723v1409.436c0 .952.772 1.723 1.724 1.723h1408.245a1.724 1.724 0 0 0 1.723-1.722l-.002-1409.435c0-.952-.77-1.723-1.723-1.723z" style="fill:#06899c;fill-opacity:1;stroke-linejoin:miter"/><path d="M588.227 1249.983 45.07 1336.5q2.846 34.534 62.793 139.48 118.806 206.27 145.802 219.725z" style="fill:#fff;fill-opacity:.11372549;stroke-linejoin:miter"/><path d="m486.799 1278.04 14.47 25.064 14.471 25.064-34.255 19.778-28.943-50.129z" style="fill:#313440;fill-opacity:1;stroke-linejoin:miter"/><path d="m492.882 1230.264 33.637 58.262 33.637 58.263-41.196 23.784-67.276-116.523z" style="fill:#3f434f;fill-opacity:1;stroke-linejoin:miter"/><path d="m557.965 1171.24 42.419 73.472 42.419 73.472-93.882 54.202-84.839-146.944z" style="fill:#292b37;fill-opacity:1;stroke-linejoin:miter"/><path d="M919.894 1059.73c-41.646-72.133-134.363-97.106-206.805-55.282-2.62 1.512-5.679 3.69-8.738 5.866-16.722 12.326-30.935 27.93-41.673 45.639-11.77 19.125-29.5 47.857-43.26 71.009-6.377 10.669-13.481 26.484-52.904 47.19l38.797 67.2 38.89 67.354c37.796-23.877 54.89-22.032 67.318-22.22 26.93-.34 60.524-1.24 82.972-1.87 20.859-.535 41.48-5.042 60.515-13.36 3.415-1.561 6.83-3.122 9.45-4.635 72.442-41.824 97.083-134.759 55.438-206.892" style="fill:#fdc00f;fill-opacity:1;stroke-linejoin:miter"/><path d="m581.755 1200.905-15.397-26.664c39.579-20.795 46.529-36.521 52.905-47.19 13.76-23.152 31.337-51.795 43.106-70.92 10.893-17.798 25.106-33.402 41.829-45.728 3.058-2.177 6.117-4.354 8.737-5.867 50.709-29.276 111.277-25.815 157.368 3.472-42.493-14.513-90.869-11.45-132.792 12.755-2.775 1.601-5.988 3.867-9.265 6.376-17.802 12.95-32.827 29.639-44.377 48.432-12.493 20.365-31.23 50.912-45.868 75.392-6.75 11.09-14.423 28.056-56.246 49.942" style="fill:#e2a305;fill-opacity:1;stroke-linejoin:miter"/><path d="M638.91 1325.529c-2.003 1.157-4.434.505-5.59-1.498l-85.074-147.347c-1.155-2.005-.504-4.436 1.5-5.593l7.552-4.36c2.004-1.157 4.435-.505 5.591 1.498l84.982 147.194c1.158 2.003.507 4.435-1.497 5.591l-7.552 4.36Zm-38.025 21.269c-2.004 1.157-4.435.505-5.592-1.498l-85.073-147.347c-1.155-2.005-.504-4.436 1.5-5.593l7.552-4.36c2.004-1.158 4.435-.506 5.592 1.498l84.981 147.194c1.159 2.003.507 4.435-1.497 5.591l-7.552 4.36Zm-22.658 13.081c-2.003 1.157-4.434.505-5.591-1.498l-85.073-147.347c-1.156-2.005-.504-4.436 1.5-5.593l7.552-4.36c2.004-1.157 4.435-.506 5.592 1.498l84.98 147.194c1.16 2.003.508 4.435-1.496 5.591l-7.553 4.36Z" style="fill:#3f434f;fill-opacity:1;stroke-linejoin:miter"/><path d="M926.207 1168.907c13.193-56.527-17.862-104.976-19.173-106.89-3.601-5.525-11.025-6.994-16.395-3.482-5.526 3.601-6.994 11.025-3.482 16.396.267.462 26.831 41.845 16.001 88.582-7.235 30.893-29.26 57.173-65.61 78.57-5.087 2.937-7.113 9.039-5.036 14.416.202.705.558 1.322.825 1.784 3.293 5.703 10.497 7.503 16.2 4.21 42.208-24.78 67.984-56.306 76.67-93.586" style="fill:#fed96f;fill-opacity:1;stroke-linejoin:miter"/><path d="m278.097 845.974-11.86-1.72-11.86-1.719q3.701 3.19 7.4 6.381l-3.452 9.064z" style="fill:#fff;fill-opacity:1;stroke-linejoin:miter"/><path d="m268.243 839.192-.274-1.397-.274-1.397-5.817 12.927 10.205 9.192zm547.481 19.48-11.86-1.72-11.858-1.719 7.4 6.382-3.453 9.063z" style="fill:#fff;fill-opacity:1;stroke-linejoin:miter"/><path d="m805.871 851.89-.274-1.396-.275-1.398-5.817 12.927 10.206 9.193zM455.65 1658.107l-11.859-1.719-11.86-1.72 7.4 6.382-3.452 9.063z" style="fill:#fff;fill-opacity:1;stroke-linejoin:miter"/><path d="m445.798 1651.325-.275-1.396-.275-1.398-5.816 12.927 10.205 9.193zM280.752 657.062l-11.86-1.72-11.858-1.72 7.4 6.382-3.453 9.064z" style="fill:#fff;fill-opacity:1;stroke-linejoin:miter"/><path d="m270.9 650.28-.275-1.397-.275-1.397-5.817 12.927 10.205 9.192zm-44.5 89.34 17.472 2.533 17.472 2.533-10.902-9.401 5.086-13.354z" style="fill:#fff;fill-opacity:1;stroke-linejoin:miter"/><path d="m240.916 749.612.404 2.058.405 2.058 8.57-19.045-15.036-13.543zm912.531 100.164 17.472 2.533 17.472 2.533-10.902-9.401 5.087-13.354z" style="fill:#fff;fill-opacity:1;stroke-linejoin:miter"/><path d="m1167.963 859.767.404 2.058.405 2.059 8.57-19.045-15.036-13.543zM421.976 1701.63l11.01 4.731 11.01 4.73-5.496-8.079 5.68-7.86z" style="fill:#fff;fill-opacity:1;stroke-linejoin:miter"/><path d="m429.738 1710.731-.097 1.42-.096 1.421 8.964-10.98q-3.74-5.76-7.478-11.521zm304.584-165.045 11.01 4.73 11.01 4.73-5.496-8.079 5.68-7.86z" style="fill:#fff;fill-opacity:1;stroke-linejoin:miter"/><path d="m742.084 1554.787-.097 1.42-.096 1.421 8.964-10.981-7.479-11.52zm-596.867-431.151 11.01 4.73 11.01 4.73-5.495-8.08 5.68-7.86z" style="fill:#fff;fill-opacity:1;stroke-linejoin:miter"/><path d="m152.98 1132.736-.097 1.42-.097 1.421 8.965-10.98-7.479-11.52z" style="fill:#fff;fill-opacity:1;stroke-linejoin:miter"/><path d="m516.219 937.588-.444-.401q-4.673-4.246-12.251-4.931-7.416-1.08-15.132 1.69-14.368 6.412-17.342 21.346-2.638 12.221 2.933 22.848 2.557 4.444 7.181 8.251 5.337 4.456 16.162 10.699l3.753 7.425z" style="fill:#000;fill-opacity:.99607843;stroke-linejoin:miter"/><path d="M502.412 1010.3v.003zl-3.554-10.08-2.045-3.463c2.55-1.489 4.286-3.175 5.094-5.108.756-1.81.897-4.015.375-6.531-.445-2.144-1.028-3.591-1.511-4.423-.314-.539-.587-1.097-.943-1.598-2.279-3.213-3.442-4.918-3.443-5.158a6 6 0 0 1-.893-3.567c.226-3.495 1.618-5.213 3.647-5.401.534-.05 1.36.178 2.583.73.415.188 2.126 1.405 5.153 3.707.738.56 1.246.637 1.281.304.07-.636-.121-1.279-.365-1.93-1.766-4.733-2.914-7.972-3.412-9.722-.914-3.21-1.231-5.125-1.325-5.701-.544-3.323-.193-6.792 2.095-9.968 3.363-4.67 7.08-6.374 10.44-5.653 4.887 4.394 7.765 7.48 8.846 9.128 1.199 1.83 1.734 3.95 1.403 6.506 7.03 3.746 10.73 6.389 11.572 7.644 1.043 1.552.144 3.08-3.139 4.915 1.84 2.102 2.773 3.54 2.973 4.275.223.82-.078 1.705-1.074 2.707.942-.313 1.62.107 1.96 1.284.303 1.042.479 2.93.6 5.644 1.581 2.404 2.548 4.273 2.713 5.637.16 1.318-.078 2.215-.523 2.674q-.728 1.514-5.684 4.31l-6.696 1.113 1.88 24.207zv.004Z" style="fill:#ffb298;fill-opacity:1;stroke-linejoin:miter"/><path d="m515.896 958.166.077-.377q.464-2.506 1.243-3.748.175-.274.38-.516.088-.136.668-.666.594-.518 1.828-1.27-1.38 1.722-2.08 2.841-.7 1.072-2.116 3.736m5.659 2.754.001.002z" style="fill:#000;fill-opacity:.99607843;stroke-linejoin:miter"/><path d="m518.897 958.605 1.093-4.4q.886.091 1.299.361.419.23 1.195 1.14z" style="fill:#fff;fill-opacity:.99607843;stroke-linejoin:miter"/><path d="m519.952 954.21.526 1.723 1.895-.188q-.33-.575-.54-.835-.212-.252-.262-.285-.093-.083-.194-.148-.1-.062-.21-.107-.05-.032-.342-.1-.295-.06-.873-.06m-26.578-30.095" style="fill:#000;fill-opacity:.99607843;stroke-linejoin:miter"/><path d="m495.38 1002.972 17.325-.15 17.325-.15 3.946 10.972-34.26 5.345zm35.624 31.412 56.616-1.948 56.616-1.949 1.064 30.881-113.231 3.906zm18.696 82.026.002.004-.51-4.882-4.188-3.853-3.686 1.723-12.752 17.901c9.987 14.131 21.723 51.713 34.061 54.133 6.301 1.236 11.158 1.072 14.508.51 2.09-.35 4.246-.567 6.426-.966l19.56-3.961c4.212-.76 8.145-1.018 11.797-1.086 5.668-.106 102.977 58.036 45.251-.501l27.015 18.344c-6.555-1.615-3.369-39.364-18.492-53.951-20.652-19.916-60.58-17.926-69.315-17.658l-24.938-23.43-19.92 4.308-14.87 15.328 6.203.73 3.078-7.606-1.708.713Z" style="fill:#000;fill-opacity:1;stroke-linejoin:miter"/><path d="m499.142 1017.473.002.003q-6.839 16.045-7.778 26.237-1.654 11.995 4.171 27.328 4.233 10.407 10.733 21.447 3.576 6.282 18.784 30.687 2.688 4.494 4.673 8.303 1.327 2.267 4.676 10.074 1.576 3.793 4.954 14.094 1.877 4.629 2.511 5.429 4.646 7.781 15.775 17.592L607 1117.462q-4.78 1.085-9.903-.905-4.386-2.706-5.38-4.295-1.868-2.096-3.863-5.33-4.007-6.665-8.545-17.912l-16.471-41.63q-4.763-11.287-9.288-18.486-6.865-12.144-21.678-20.521z" style="fill:#000;fill-opacity:1;stroke-linejoin:miter"/><path d="m529.129 1121.55.001.002z" style="fill:#fff;fill-opacity:.99607843;stroke-linejoin:miter"/><path d="m530.482 1044.068 56.616-1.95 56.615-1.949 1.064 30.882-113.23 3.906zm26.017-10.558q.243.457.483.916l-.317-.144q.357.675.719 1.372l3.461-2.297-4.342.15Zm-22.495-24.288 3.868 9.52 9.073 2.838 7.39 12.002.736-.026 1.587.723q-.206-.384-.411-.76l.25-.012q-.977-1.842-2.005-3.671-3.565-6.269-7.194-9.86-4.555-4.586-13.068-10.615z" style="fill:#000;fill-opacity:1;stroke-linejoin:miter"/><path d="m741.912 1267.18 1.24.208q8.682 1.429 12.893.286 2.442-.504 4.766-1.489 1.327-.558 2.676-1.225 8.715-4.54 9.126-4.542 3.162-1.301 4.987-1.107 2.31-.123 4.18 3.487 1.393 3.613-.04 8.215-1.459 5.207-10.22 11.65-.751.6-4.976 3.461l-28.874 19.344q-3.284 2.776-5.088 3.921-4.01 2.468-6.297 1.847-2.883-.406-6.022-5.091-2.045-2.512-7.894-15.72l14.716.239z" style="fill:#000;fill-opacity:.99607843;stroke-linejoin:miter"/><path d="m748.163 1268.088-40.212-63.116-40.211-63.115-27.524 38.235 47.084 68.713 31.24 53.62z" style="fill:#000;fill-opacity:1;stroke-linejoin:miter"/><path d="m639.201 1031.881 27.892-7.079 7.73 20.154q.9 2.674.61 5.073t-2.725 4.302q-1.483 1.133-4.171 2.095-2.013.713-4.546 1.306-8.865 2.075-29.043 3.893z" style="fill:#ffb298;fill-opacity:.99607843;stroke-linejoin:miter"/><path d="m638.679 1041.564 27.892-7.08 7.728 20.154q.901 2.674.61 5.073-.29 2.399-2.723 4.302-1.483 1.132-4.171 2.094-2.013.715-4.546 1.307-8.866 2.075-29.044 3.893z" style="fill:#ffb298;fill-opacity:.99607843;stroke-linejoin:miter"/><path d="M594.163 719.93a47.2 47.2 0 0 0 1.6-12.94c-.394-25.985-21.853-46.806-47.839-46.412a47.2 47.2 0 0 0-29.574 11.018 47.4 47.4 0 0 0-15.175 23.68c-17.413-1.362-32.967 9.91-37.635 26.089a36 36 0 0 0-8.049-.78c-19.997.302-36.023 16.7-35.721 36.699.303 20 16.817 35.907 36.815 35.605l126.62-1.913c20-.302 36.024-16.703 35.722-36.701-.248-16.363-11.288-30.183-26.764-34.346M974.785 581.37a22 22 0 0 1-.744-6.017c.183-12.083 10.162-21.765 22.246-21.582a21.95 21.95 0 0 1 13.753 5.124 22.03 22.03 0 0 1 7.056 11.012c8.098-.634 15.33 4.608 17.502 12.131a16.8 16.8 0 0 1 3.742-.362c9.3.14 16.752 7.765 16.612 17.065s-7.82 16.697-17.12 16.557l-58.882-.89c-9.3-.141-16.751-7.768-16.61-17.067.115-7.609 5.249-14.035 12.445-15.97m27.028 835.623a31 31 0 0 0 1.056-8.538c-.26-17.145-14.42-30.882-31.566-30.622a31.14 31.14 0 0 0-19.514 7.27 31.27 31.27 0 0 0-10.012 15.625c-11.49-.899-21.753 6.539-24.833 17.214a23.8 23.8 0 0 0-5.31-.514c-13.196.2-23.77 11.019-23.57 24.215s11.096 23.691 24.291 23.492l83.548-1.264c13.196-.2 23.77-11.021 23.57-24.217-.164-10.796-7.448-19.914-17.66-22.661m-793.166-444.78a22 22 0 0 1-.744-6.018c.183-12.083 10.162-21.765 22.246-21.581a21.94 21.94 0 0 1 13.753 5.123 22.03 22.03 0 0 1 7.057 11.012c8.097-.634 15.33 4.608 17.5 12.132a16.8 16.8 0 0 1 3.744-.363c9.3.14 16.751 7.766 16.611 17.066s-7.82 16.697-17.12 16.556l-58.882-.89c-9.3-.14-16.751-7.767-16.61-17.067.115-7.608 5.249-14.034 12.445-15.97m902.56 160.292a22 22 0 0 1-.744-6.017c.183-12.083 10.162-21.765 22.246-21.582a21.94 21.94 0 0 1 13.753 5.124 22.03 22.03 0 0 1 7.056 11.012c8.098-.634 15.33 4.607 17.501 12.131a16.8 16.8 0 0 1 3.743-.363c9.3.14 16.752 7.766 16.611 17.066-.14 9.301-7.82 16.697-17.12 16.557l-58.881-.89c-9.3-.141-16.752-7.768-16.61-17.067.114-7.61 5.248-14.035 12.445-15.97" style="fill:#69e8fb;fill-opacity:1;stroke-linejoin:miter"/></svg>