<svg xmlns="http://www.w3.org/2000/svg" viewBox="0 0 38.1 38.1"><path d="M131.06 66.528c0-34.778-28.193-62.97-62.97-62.97-34.779 0-62.972 28.192-62.972 62.97S33.311 129.5 68.09 129.5s62.971-28.193 62.971-62.97" style="fill:#9a0e62;fill-opacity:1;fill-rule:nonzero;stroke:none" transform="matrix(.30205 0 0 -.30205 -1.546 39.115)"/><path d="M68.194 3.558c-34.778 0-62.97 28.193-62.97 62.97 0 34.779 28.192 62.972 62.97 62.972" style="fill:#ce1483;fill-opacity:1;fill-rule:nonzero;stroke:none" transform="matrix(.30205 0 0 -.30205 -1.546 39.115)"/><path d="M98.242 57.415a4.316 4.316 0 1 0 0 8.633 4.316 4.316 0 0 0 0-8.633M87.092 90.48a4.831 4.831 0 1 0 0 9.662 4.831 4.831 0 0 0 0-9.662m5.102-47.94a1.7 1.7 0 1 0-3.4 0 1.7 1.7 0 0 0 3.4 0M77.14 31.892a3.312 3.312 0 1 0 0 6.623 3.312 3.312 0 0 0 0-6.623m-5.006 20.853a4.158 4.158 0 1 0 8.317.002 4.158 4.158 0 0 0-8.317-.002m3.404 22.85a3.405 3.405 0 1 0 0-6.81 3.405 3.405 0 0 0 0 6.81m-14.36 17.52a3.89 3.89 0 0 0-3.892 3.893 3.892 3.892 0 1 0 3.892-3.893m.491-30.57a4.383 4.383 0 1 0 .001 8.767 4.383 4.383 0 0 0 0-8.767m-4.236-32.44a3.744 3.744 0 1 0 0 7.486 3.744 3.744 0 0 0 0-7.487m-.35 57.398a1.188 1.188 0 1 0 0-2.376 1.188 1.188 0 0 0 0 2.376M43.558 42.54a5.33 5.33 0 1 0 .002 10.66 5.33 5.33 0 0 0 0-10.66M29.82 84.506a7.527 7.527 0 1 0 15.054 0 7.527 7.527 0 0 0-15.055 0m3.853-23.743a1.714 1.714 0 1 0 .002 3.428 1.714 1.714 0 0 0-.002-3.428m66.32 6.977a33.2 33.2 0 0 1-6.802 19.415c1.562 1.77 2.54 4.067 2.54 6.613 0 5.543-4.493 10.036-10.036 10.036-3.74 0-6.965-2.07-8.69-5.105-2.747.897-5.653 1.424-8.66 1.577-.97 2.718-3.542 4.675-6.593 4.675-3.803 0-6.88-3.028-7.002-6.8a33.4 33.4 0 0 1-9.81-5.815c-1.564.885-3.343 1.432-5.267 1.432-5.939 0-10.753-4.814-10.753-10.753 0-3.834 2.022-7.177 5.043-9.08a33.5 33.5 0 0 1-.742-6.978c0-.729.063-1.443.11-2.16-.039 0-.07.021-.11.021a2.448 2.448 0 0 1 0-4.897c.255 0 .488.073.72.146a33.2 33.2 0 0 1 3.28-8.967 7.55 7.55 0 0 1-1.487-4.483 7.615 7.615 0 0 1 7.615-7.615c1.33 0 2.56.371 3.647.97a33 33 0 0 1 3.192-2.074 6.3 6.3 0 0 1-1.054-3.484 6.31 6.31 0 0 1 6.31-6.308c3.326 0 6.022 2.584 6.261 5.85 1.61-.238 3.245-.402 4.921-.402 2.113 0 4.173.22 6.177.594a4.724 4.724 0 0 1 4.72-4.608 4.73 4.73 0 0 1 4.73 4.731 4.7 4.7 0 0 1-.889 2.744 33.4 33.4 0 0 1 6.133 3.885c.665-1.022 1.762-1.738 3.072-1.738a3.727 3.727 0 0 1 3.727 3.727c0 1.301-.706 2.391-1.716 3.058a33.3 33.3 0 0 1 5.697 10.39 6.166 6.166 0 0 1 4.908 6.034c0 2.322-1.298 4.32-3.193 5.371" style="fill:#fff;fill-opacity:1;fill-rule:nonzero;stroke:none" transform="matrix(.30205 0 0 -.30205 -1.546 39.115)"/></svg>