<svg xmlns="http://www.w3.org/2000/svg" width="1618" height="1000" viewBox="-449 211 1618 1000"><path d="M-449.001 209.504a1.495 1.495 0 0 0-1.495 1.495V1211c0 .826.67 1.495 1.496 1.495l1618.001.001a1.495 1.495 0 0 0 1.495-1.495V211c0-.826-.67-1.495-1.496-1.495z" style="fill:#00aec7;fill-opacity:1;stroke-linejoin:miter"/><path d="m366.343 496.799-1.252-3.337-1.253-3.337-59.403 3.293-3.655 28.566 13.166 26.033z" style="fill:#ffc8a6;fill-opacity:.99607843;stroke-linejoin:miter"/><path d="m936.354 1135.22-5.002 1.65q-7.902 1.109-22.569 2.12-3.106.566-59.22 2.807-49.627 1.724-126.312 3.054-99.185 1.507-122.678 1.598-43.178.4-89.402.626-92.45.451-197.087.2-49.931-.176-95.42-.501-25.52-.07-126.466-1.315-77.646-1.102-137.519-2.805-133.675-4.12-111.024-8.562 9.956-2.212 49.291-4.08 19.668-.935 46.68-1.784 9.351-.488 96.692-2.334 145.154-2.725 352.116-2.841 125.97.215 146.529.454 45.946.274 88.029.71 84.166.874 152.88 2.4t108.049 3.394q19.667.935 31.99 1.955 24.38 2.625 20.443 3.254" style="fill:#000;fill-opacity:.20392157;stroke-linejoin:miter"/><path d="m42.279 676.49-2.238 15.72q-7.752 48.254-6.145 86.694 4.188 39.94 21.45 49.343 22.558 24.538 157.345-9.444l30.839 310.638 80.58-14.565q4.842-171.511 1.022-235.438-5.01-81.697-21.724-101.58-14.421-19.885-37.343-24.352-24.052-6.637-101.515-7.139l-3.685-85.662z" style="fill:#000;fill-opacity:.99607843;stroke-linejoin:miter"/><path d="m279.946 862.317 16.855 39.596-20.732 31.893-30.167-7.164q7.88-11.133 11.952-12.705 4.048-2.285 12.406 1.132l-15.648-33.436z" style="fill:#ffc8a6;fill-opacity:1;stroke-linejoin:miter"/><path d="m-65.524 525.908 21.279.001 21.28.001v312.831l-42.56.001z" style="fill:#1b0202;fill-opacity:1;stroke-linejoin:miter"/><path d="M-67.831 811.104H76.557l144.388.001v68.188l-288.776.001z" style="fill:#1b0202;fill-opacity:1;stroke-linejoin:miter"/><path d="M-53.137 827.635h12.244l12.243.002v314.56l-24.487.001zm207.007 28.348h12.244l12.243.001v286.212l-24.487.001z" style="fill:#1b0202;fill-opacity:1;stroke-linejoin:miter"/><path d="m359.273 627.015 219.442.001h219.442v27.019l-438.884.001z" style="fill:#293855;fill-opacity:1;stroke-linejoin:miter"/><path d="m388.49 600.691 110.456.001h110.457v26.714H388.49z" style="fill:#1b0202;fill-opacity:1;stroke-linejoin:miter"/><path d="m619.341 391.093 10.02 1.453 10.02 1.454-31.058 214.235-20.04-2.904z" style="fill:#1b0202;fill-opacity:1;stroke-linejoin:miter"/><path d="m361.12 642.592 10.125.001 10.124.002v486.427l-20.248.002z" style="fill:#293855;fill-opacity:1;stroke-linejoin:miter"/><path d="M479.72 553.262q4.307-16.313-1.683-28.117c-.227-1.098-4.761-6.394-10.853-17.543-6.71-12.281-9.222-19.59-10.41-20.498-3.431-4.723-7.972-8.304-13.757-10.377-18.814-6.744-41.211-7.404-67.042-2.253-5.48 1.092-12.633 8.926-18.52 10.65l-4.5 24.8c13.032 29.417 13.232 37.18 23.236 48.175 5.017 5.514 11.04 10.845 18.143 16.033 4.08 2.98 14.018 9.005 29.895 18.03 2.46 1.399 4.559 3.016 6.505 4.52 4.561 3.526 8.094 8 10.541 13.501 7.33-.929 13.879-5.879 19.632-14.859 8.742-13.643 15.002-27.642 18.794-41.99Z" style="fill:#000;fill-opacity:1;stroke-linejoin:miter"/><path d="M433.427 595.843c-1.505-13.382-4.14-20.966-7.394-23.47-2.732-2.103-7.642-3.034-15.298-2.12l-9.038-11.672-17.754-3.689-.242-9.045c10.18-2.665 16.268-4.928 18.412-6.608 2.644-2.07 3.21-4.76 1.605-8.275-1.936-4.24-4.664-7.164-8.09-9.019-2.215-1.2-6.827-1.614-13.986-.978-1.299-.237-2.459-1.074-3.84-2.067-2.236-1.609-28.725-10.971-20.279-28.56l-49.781 53.498 15.25.214-2.927 28.183c-3.466 10.605-3.933 16.825-2.205 19.294 1.738 2.482 7.476 3.028 18.083 1.097 4.716 3.416 7.922 4.924 9.635 4.91 2.004-.018 4.193-1.53 6.575-4.923.095 4.628 1.034 7.222 2.56 8.217 1.58 1.03 5.226 1.38 11.23.64-.046 8.013 1.08 11.7 3.428 11.548 1.152-.074 2.966-.603 5.444-2.076l17.096-11.244 4.781-.152c3.852 1.846 7.858 2.411 12.053 2.001 4.018-.393 12.227-2.185 24.6-5.682Z" style="fill:#ffc8a6;fill-opacity:1;stroke-linejoin:miter"/><path d="m345.205 542.079-40.666-7.124 16.274 35.319q7.155-12.407 11.882-17.692 4.386-5.075 12.478-10.482" style="fill:#fa5757;fill-opacity:.07450981;stroke-linejoin:miter"/><path d="m168.43 745.146-1.371 2.43q-13.453 28.045-54.875 31.947-32.26 6.322-84.976-13.81 5.904-89.558 36.29-138.326Q112.621 547.01 189.73 502.83q52.066-27.782 129.569-17.66l-1.552 43.496 2.721 18.908-17.796 6.476q-2.18 23.687-16.579 39.087-1.034 1.738-12.202 10.1-32.106 20.285-44.136 30.223-11.108 9.06-19.613 20.57-6.977 8.576-17.479 29.79-2.662 3.441-24.234 61.326" style="fill:#fff;fill-opacity:1;stroke-linejoin:miter"/><path d="m267.946 555.175-20.26-20.966 52.452 7.968q-9.568 141.398-10.2 197.533-1.373 58.734 4.185 147.073l-47.214-2.744q-38.868-199.34-59.42-286.76z" style="fill:#fff;fill-opacity:1;stroke-linejoin:miter"/><path d="m295.178 1105.804 4.994.04q22.527.157 32.628 1.198 13.05 1.28 18.745 3.872 2.745 1.197 4.6 2.744 1.363.603 3.973 5.272 2.226 4.822 1.257 15.465l-122.83 1.638 8.86-31.805z" style="fill:#000;fill-opacity:.99607843;stroke-linejoin:miter"/><path d="m773.972 642.592 20.249.003v486.427l-20.249.002z" style="fill:#293855;fill-opacity:1;stroke-linejoin:miter"/><path d="m658.867 550.013 36.774.001 36.775.002v77.247l-73.55.003z" style="fill:#fff;fill-opacity:1;stroke-linejoin:miter"/><path d="M691.958 561.148h56.524a3.18 3.18 0 0 1 3.178 3.178v37.172a3.18 3.18 0 0 1-3.178 3.178l-56.525.001a3.18 3.18 0 0 1-3.178-3.178v-37.173a3.18 3.18 0 0 1 3.178-3.178m0 6.356 3.178-3.178v37.173l-3.178-3.178h56.525l-3.179 3.177v-37.172l3.179 3.178z" style="fill:#fff;fill-opacity:1;stroke-linejoin:miter"/></svg>