<svg xmlns="http://www.w3.org/2000/svg" width="2000" height="1295" viewBox="-640 65 2000 1295"><path d="M-640.001 63.427A1.57 1.57 0 0 0-641.573 65l.001 1295.001c0 .868.704 1.572 1.572 1.572h2000.001a1.57 1.57 0 0 0 1.572-1.571L1361.572 65c0-.868-.704-1.572-1.572-1.572z" style="fill:#00b2e6;fill-opacity:1;stroke-linejoin:miter"/><path d="m589.78 313.518-8.719.036q-74.128.29-142.692 23.648-44.015 11.968-123.708 56.688-63.419 1.64-70.567 4.434-27.652 12.295-25.449 25.628 2.267 12.49 4.404 14.158 24.006-31.65 47.02-14.914-47.49 12.185-28.343 49.339 19.254-38.422 47.218-32.89-34.876 29.795.116 44.858-2.425-26.4 19.972-29.333 7.7-1.108 19.87 1.024-13.616 24.715-11.253 27.461 14.15-.109 24.368-5.795 8.616 1.7 12.488-31.512l12.71-11.342q39.159-27.172 77.759-36.741 131.66-20.454 196.997 20.211 52.777 32.354 64.346 128.174-43.844-95.873-80.228-97.391-98.199-8.61-122.993 62.52-10.884 28.04 38.387 63.386l29.482 3.108q-.867-14.931 12.326-9.3.178-12.929 2.577-11.576 3.617-2.7 9.446 2.037l.172-9.852q3.682-2.402 8.546 2.72 13.296 23.78 8.822 33.827-7.893 12.24-30.273 14.58-1.606.843-1.206 4.213l33.596 30.272q-60.965-24.991-143.15-37.514-59.26-6.838-191.187 7.207l-9.56-4.067-17.065-28.673q-7.335-7.447-14.96-7.197-9.658-1.996-32.697 18.984 32.702-5.57 30.968.709 10.34 5.068-5.6 23.168-3.16 1.764-15.157 1.13-31.088-11.752-42.258-10.136-21.942 8.544-28.693 30.745.027 1.718 1.053 1.694 5.823-5.784 30.651-11.497 12.272.512 28.759 13.6-48.667-4.99-53.226 32.636-.117 3.962.788 3.48 9.488-12.676 21.183-15.56 21.52-2.251 27.99 3.764-14.84 11.14-17.12 25.716-5.244 9.965 13.924 41.805-9.035-46.03 24.67-53.256-9.104 24.799 6.712 47.52 15.675-60.453 47.078-56.491 127.52-33.644 211.21-6.134 58.925 5.874 157.698 127.968 106.3 150.936 43.345 277.843-43.738 76.77-131.961 139.937-85.378 65.472-203.858 126.563l301.985-.002q142.754-78.012 262.149-229.068 112.78-175.358 103.692-346.352-2.128-164.233-156.951-320.286-70.793-66.667-150.672-96.298-18.55-13.195-124.93-23.614" style="fill:#000;fill-opacity:.5058824;stroke-linejoin:miter"/><path d="m725.267 1324.485-4.096 1.783q-31.232 5.495-170.405 8.62-128.685 3.028-321.037 2.682-175.618-.693-285.806-4.27-22.391-.681-45.253-1.778-14.533-.488-49.269-3.031-23.364-2.047-21.441-4.162 6.25-5.483 131.672-9.103 130.085-3.806 316.966-3.883 67.233-.025 156.819.83 80.515 1.05 91.293 1.32 39.245.826 69.145 1.7 124.969 3.593 131.412 9.292" style="fill:#000;fill-opacity:.57254905;stroke-linejoin:miter"/><path d="m249.297 907.658-4.171-.668q-18.785-2.92-28.473-8.246-11.799-5.739-21.772-19.667-3.256-4.67-5.976-10.094l-2.532-5.569q-2.37-5.735-3.877-11.96-2.846-15.858-2.028-19.333.2-6.627 1.812-13.3 3.41-13.48 12.008-25.823 1.55-3.49 14.83-16.82 5.597-5.05 11.817-9.092 25.326-16.474 56.03-11.145 36.84 5.518 87.26 39.442z" style="fill:#000;fill-opacity:.99607843;stroke-linejoin:miter"/><path d="m230.906 884.112-.731 2.033q-6.344 16.426 4.344 20.178 4.671 2.092 11.581 3.482 29.158 5.185 28.456 5.498l23.522 7.03q4.551 1.037 8.705.762l20.207-2.988 25.743-1.206q6.982-.657 13.18-3.063 8.052-2.45 17.361-15.6 5.896-9.287 10.926-20.032l51.62-81.325-38.24 3.21-74.122-17.433q-20.69-20.32-29.859-15.63-5.257 2.606-7.514 8.3-1.855 6.43-.349 8.767 3.05 7.032 17.643 13.631-35.236 4.962-45.867 8.514-15.019 4.386-21.652 11.804-4.722 4.315-7.769 15.486-1.653 4.964-3.428 32.85-.726 6.246-3.757 15.732" style="fill:#f0c4a9;fill-opacity:1;stroke-linejoin:miter"/><path d="m383.387 884.298-7.575-44.405 35.979-8.158z" style="fill:#ff0023;fill-opacity:.15294118;stroke-linejoin:miter"/><path d="M420.76 849.67q-15.987 11.86-31.974 23.716l11.924-77.824 39.262 15.128z" style="fill:#000;fill-opacity:.99607843;stroke-linejoin:miter"/><path d="m103.92 1315.905-127.859 11.717-43.693-11.389q58.895-30.18 85.285-42.523 26.612-12.596 34.902-13.153 3.423-.117 4.204.936 1.172.812 1.103 4.44z" style="fill:#f0c4a9;fill-opacity:1;stroke-linejoin:miter"/><path d="M177.163 1015.298 69.888 1089.47l51.26 41.804zm402.593 256.323 4.866-5.331q39.567-40.426 41.68-122.9 1.915-70.574-3.346-107.362-7.725-56.995-11.389-67.132-5.127-21.535-12.222-40.514-21.967-55.777-59.945-82.878-25.03-18.574-53.626-30.74-6.926-3.443-43.342-17.45l-29.954-6.567-5.222 37.575-71.38 135.697z" style="fill:#fff;fill-opacity:1;stroke-linejoin:miter"/><path d="m37.542 1263.383 11.509 2.33q15.885 38.75 34.932 49.425 7.764 5.199 15.97 9.707 6.208 1.41 19.044-11.288 48.238-52.087 102.182-142.47 26.526-45.952 45.423-117.291 59.545 153.04 83.274 197.468 28.44 56.488 57.346 70.813 47.419 24.034 101.028 1.75 48.833-22.249 99.533-87.642 10.123-13.734 8.026-23.706l-103.26-78.427Q413.527 1007.54 358.94 957.79q-51.294-44.231-74.422-45.058-21.98-5.473-48.36 8.678-26.849 16.193-53.157 54.833-53.16 76.95-145.458 287.14" style="fill:#000;fill-opacity:.99607843;stroke-linejoin:miter"/><path d="m602.014 1134.023 2.858 4.573q19.937 29.367 18.875 53.624.4 7.887-7.157 28.531-5.818 14.858-21.702 43.03l-92.404-120.3-26.378-72.403zM477.792 1010.07l-166.983 132.185-220.172 3.05 30.35-63.584 153.055-24.113q43.118-66.754 62.065-97.767 19.413-31.434 53.014-89.576z" style="fill:#fff;fill-opacity:1;stroke-linejoin:miter"/><path d="m123.447 1122.025-37.593 9.469-10.872 50.789-35.434-26.067q-3.926-19.282-4.556-29.454-1.045-12.31 1.983-23.194 3.18-11.002 11.463-18.636 2.769-2.484 6.127-4.407l3.509-1.762q3.657-1.609 7.922-2.521 16.304-4.537 65.89 7.002z" style="fill:#f0c4a9;fill-opacity:1;stroke-linejoin:miter"/><path d="m133.376 1142.405 18.875 14.035-45.673 45.312q-5.56-3.33-10.751-6.96-14.109-10.117-16.59-21.84-1.638-4.556-1.482-18.424.637-12.296 2.514-25.6l33.412-6.65z" style="fill:#f0c4a9;fill-opacity:1;stroke-linejoin:miter"/><path d="M284.366 854.227q-.6-6.254-.685-9.487-.04-1.299-.021-2.542l.036-1.225q.053-1.209.185-2.34l.155-1.11.195-1.072.231-1.036q.25-1.019.557-1.981.754-2.42 2.558-6.342zm9.105-3.773q1.729-3.705 2.415-5.765.28-.824.497-1.649l.197-.825.156-.825.112-.825.066-.826.021-.826-.019-.826q-.038-.826-.142-1.654-.241-2.067-1.17-5.791zm-11.718 28.397q-1.94 5.975-2.724 9.113-.32 1.26-.572 2.477l-.23 1.204q-.21 1.192-.326 2.325l-.09 1.117-.041 1.089v1.061q.023 1.048.115 2.055.212 2.525 1.123 6.745zm8.071 5.656q.885 3.992 1.108 6.152.096.865.129 1.717l.013.848-.026.84-.07.83-.115.82-.158.81-.197.803q-.217.799-.497 1.584-.684 1.965-2.398 5.4z" style="fill:#000;fill-opacity:.99607843;stroke-linejoin:miter"/><path d="m326.203 887.648 6.58-3.104 6.58-3.104-10.014-11.211q.82 4.384 1.638 8.769z" style="fill:red;fill-opacity:.18039216;stroke-linejoin:miter"/><path d="m364.866 875.335.004.97q.02 3.55-.192 5.95-.242 2.312-.376 3.019-.26 1.525-.749 3.457-1.215 4.6-5.22 14.02z" style="fill:red;fill-opacity:.21176471;stroke-linejoin:miter"/><path d="m229.696 773.524 1.493 4.59q3.286 14.364-3.833 26.626-7.194 12.285-21.96 16.438-14.364 3.285-26.627-3.834-3.94-2.31-7.207-5.59l-3.044-3.497q-2.848-3.728-4.692-8.283-5.267-14.137.295-27.162 5.561-13.025 19.415-18.998 14.137-5.266 27.162.295 13.025 5.562 18.998 19.415" style="fill:#000;fill-opacity:.99607843;stroke-linejoin:miter"/></svg>