<svg xmlns="http://www.w3.org/2000/svg" width="1618" height="1000" viewBox="-350 195 1618 1000"><path d="M-350.001 193.49a1.51 1.51 0 0 0-1.509 1.51l.001 1000.001a1.51 1.51 0 0 0 1.509 1.509h1618.001a1.51 1.51 0 0 0 1.509-1.508L1269.509 195a1.51 1.51 0 0 0-1.509-1.509z" style="fill:#74c4ff;fill-opacity:1;stroke-linejoin:miter"/><path d="m975.988 1106.943-4.41.651q-31.357 1.969-183.498 3.15-153.194 1.178-360.792.956-198.125-.312-316.912-1.824-38.06-.489-62.7-1.065l-20.71-.593q-17.066-.612-17.258-1.277 5.18-2.04 141.508-3.394t341.631-1.406q205.304.052 341.632 1.406 136.328 1.355 141.508 3.396" style="fill:#000;fill-opacity:.35686275;stroke-linejoin:miter"/><path d="m667.11 886.986-3.335 25.16q-17.026 75.586-78.632 117.579-62.008 41.928-141.467 28.105-75.586-17.028-117.578-78.633-13.445-19.905-21.496-42.873l-6.495-23.498q-5.044-24.144-3.45-49.936 7.117-79.004 63.064-128.152 55.947-49.149 135.21-46.026 79.006 7.117 128.154 63.064t46.025 135.21" style="fill:#e9d0e4;fill-opacity:.99607843;stroke-linejoin:miter"/><path d="M363.185 671.82c52.598-32.148 114.49-41.728 174.494-27.402 59.821 14.436 110.644 51.37 142.79 103.968 32.148 52.6 41.909 114.383 27.402 174.497-14.507 60.112-51.371 110.642-103.97 142.79-52.597 32.147-114.379 41.909-174.492 27.4-60.113-14.505-110.643-51.369-142.79-103.968-32.147-52.598-41.909-114.38-27.403-174.494 14.618-59.932 51.37-110.643 103.969-142.79m78.254 371.405c46.624 11.251 94.705 3.613 135.655-21.415s69.563-64.514 80.926-110.959c11.252-46.624 3.616-94.705-21.413-135.654-25.027-40.953-64.515-69.566-110.958-80.927-46.625-11.253-94.705-3.616-135.656 21.412-40.95 25.028-69.564 64.515-80.926 110.958-11.251 46.627-3.615 94.707 21.414 135.658 24.917 40.768 64.333 69.674 110.958 80.927" style="fill:#393037;fill-opacity:1;stroke-linejoin:miter"/><path d="m244.137 833.749 7.069-32.044q30.268-95.5 114.261-142.805 84.51-47.189 185.351-20.62 95.5 30.267 142.809 114.259 15.125 27.126 22.968 57.607l5.775 30.988q3.835 31.662-1.064 64.712-17.879 101.002-95.376 158.152-77.495 57.147-179.266 44.387-100.997-17.88-158.145-95.373-57.147-77.495-44.382-179.263" style="fill:#7d8b96;fill-opacity:1;stroke-linejoin:miter"/><path d="m281.573 838.79 5.968-27.028q25.531-80.555 96.378-120.459 71.283-39.797 156.344-17.388 80.55 25.53 120.456 96.38 12.755 22.88 19.368 48.587l4.877 26.14q3.234 26.704-.9 54.586-15.079 85.192-80.449 133.394-65.364 48.208-151.21 37.445-85.189-15.083-133.392-80.45-48.2-65.366-37.44-151.206" style="fill:#3c464f;fill-opacity:1;stroke-linejoin:miter"/><path d="m286.505 839.456 5.822-26.368q24.907-78.584 94.022-117.514 69.54-38.827 152.524-16.964 78.582 24.906 117.512 94.025 12.444 22.321 18.895 47.4l4.756 25.503q3.156 26.05-.876 53.25-14.711 83.111-78.484 130.136-63.766 47.028-147.514 36.527-83.107-14.716-130.132-78.48-47.024-63.771-36.525-147.515" style="fill:#535d66;fill-opacity:1;stroke-linejoin:miter"/><path d="M703.096 947.013v.002a231 231 0 0 1-8.97 22.573l-20.45-9.398a209 209 0 0 0 8.094-20.375Zm-26.734 54.364v.004a234 234 0 0 1-14.514 19.473l-17.322-14.374a211 211 0 0 0 13.112-17.592Zm-39.877 45.594v.004a234 234 0 0 1-19.033 15.082l-13.046-18.341a211 211 0 0 0 17.201-13.632Zm-50.26 33.81v.002a232 232 0 0 1-22.288 9.668l-7.864-21.088a209 209 0 0 0 20.125-8.733Zm-57.303 19.663v.002a232 232 0 0 1-24.029 3.544l-2.112-22.409a209 209 0 0 0 21.69-3.2Zm-60.477 4.12v.002c-.137-.011-.507-.035-.644-.044v.004a236 236 0 0 1-23.487-2.711l3.701-22.203a212 212 0 0 0 21.24 2.45v.003c.137.005.45.026.586.034Zm-59.516-11.552v.002a231 231 0 0 1-22.602-8.907l9.342-20.476a208 208 0 0 0 20.398 8.035Zm-54.438-26.58-.101-.07-.007-.004.101.067a232 232 0 0 1-19.51-14.456l14.325-17.361a210 210 0 0 0 17.623 13.06l.101.068.007.005Zm-45.706-39.754v.002a234 234 0 0 1-15.138-18.994l18.306-13.095a211 211 0 0 0 13.68 17.164Zm-33.945-50.167v.004a232 232 0 0 1-9.732-22.264l21.067-7.922a209 209 0 0 0 8.787 20.099Zm-19.824-57.249.061.275-.001-.004-.06-.274a231 231 0 0 1-3.61-24.015l22.402-2.174a209 209 0 0 0 3.259 21.677l-.06-.275v.004Zm-4.285-60.456v.003c.022-.358.057-.939.08-1.295v.004c.5-7.74 1.374-15.363 2.604-22.865l22.212 3.641a213 213 0 0 0-2.355 20.673v.004c-.019.283-.055.878-.073 1.167Zm11.387-59.556v.002a230 230 0 0 1 8.844-22.628l20.503 9.286a208 208 0 0 0-7.98 20.418Zm26.43-54.51v.004a232 232 0 0 1 14.408-19.56l17.4 14.276a210 210 0 0 0-13.015 17.665Zm39.628-45.816v.002a233 233 0 0 1 18.95-15.192l13.146 18.27a212 212 0 0 0-17.127 13.727Zm50.072-34.081.002-.002.007-.003h-.002a232 232 0 0 1 22.226-9.79l7.98 21.045a210 210 0 0 0-20.068 8.839l-.002.001-.006.003Zm57.196-19.983v.002a231 231 0 0 1 24.008-3.68l2.236 22.397a208 208 0 0 0-21.671 3.319Zm60.44-4.453v.003c.69.037 1.241.07 1.935.115v.002a235 235 0 0 1 22.235 2.499l-3.58 22.222a213 213 0 0 0-20.108-2.263v.002c-.601-.04-1.15-.074-1.755-.108Zm59.59 11.223v.002a230 230 0 0 1 22.652 8.78l-9.228 20.527a208 208 0 0 0-20.442-7.923Zm54.583 26.28a232 232 0 0 1 19.598 14.354l-14.23 17.437a210 210 0 0 0-17.702-12.966Zm45.926 39.5v.003a233 233 0 0 1 15.242 18.906l-18.233 13.197a211 211 0 0 0-13.775-17.09Zm34.22 49.978v.002a232 232 0 0 1 9.854 22.202l-21.022 8.04a210 210 0 0 0-8.899-20.049Zm20.14 57.141v.004a231 231 0 0 1 3.745 23.996l-22.39 2.298a208 208 0 0 0-3.38-21.662Zm4.62 60.418v.002c-.048.872-.098 1.71-.155 2.584v.001a235 235 0 0 1-2.813 24.12l-22.19-3.761a213 213 0 0 0 2.544-21.814v.002c.053-.817.094-1.526.137-2.338Z" style="fill:#3c464f;fill-opacity:1;stroke-linejoin:miter"/><path d="M419.809 807.4h.003z" style="fill:#7d8b96;fill-opacity:.99607843;stroke-linejoin:miter"/><path d="M335.791 984.265c-64.208-80.177-51.262-197.226 28.917-261.435 80.177-64.208 197.224-51.264 261.431 28.913 64.209 80.176 51.265 197.225-28.914 261.434-80.177 64.21-197.224 51.266-261.434-28.912" style="fill:#cdcdd0;fill-opacity:1;stroke-linejoin:miter"/><path d="M597.225 1013.177c-80.178 64.21-197.224 51.266-261.434-28.912-64.208-80.177-51.262-197.226 28.917-261.435Z" style="fill:#5a8bb0;fill-opacity:1;stroke-linejoin:miter"/><path d="m522.445 834.786-82.958 66.434 132.826 80.848Z" style="fill:#fff;fill-opacity:1;stroke-linejoin:miter"/><path d="m480.967 868.003-41.48 33.217 132.826 80.848Z" style="fill:#dedde0;fill-opacity:1;stroke-linejoin:miter"/><path d="m522.445 834.786-82.958 66.434-49.867-147.281Z" style="fill:#ff0039;fill-opacity:1;stroke-linejoin:miter"/><path d="m480.967 868.003-41.48 33.217-49.867-147.281Z" style="fill:#bf3c1a;fill-opacity:1;stroke-linejoin:miter"/><path d="m904.343 650.32.016-.003h.01l-.023.003Zm-53.44-12.645q-.007-.001-.013-.004v.001c-.085-.031-.11-.048-.1-.048s.057.016.117.051Zm17.495 38.35c5.547-.049 11.536-2.015 17.022-5.634 5.134-3.38 11.293-9.56 16.102-16.059l.002-.003.003-.003v-.001a201 201 0 0 1 2.965-4.003c.333.027 1.018.167 1.79.402v.001c1.848.564 4.396.845 6.749.824 1.514-.013 2.979-.152 4.147-.435l.003-.001c3.93-.978 6.788-2.673 9.862-5.803 3.01-3.062 4.553-5.621 5.81-9.77v-.002c.607-2.042.724-3.212.695-6.497-.05-5.756-1.23-9.208-4.875-14.414v.001c-1.87-2.672-6.29-6.948-9.326-9.072l-.001-.001c-6.729-4.68-15.243-7.441-22.487-7.378a27 27 0 0 0-1.467.053v.001c-9.23.599-15.498 5.385-18.25 13.923v.003c-.49 1.547-.992 3.51-1.09 4.37l-.21 1.456a.56.56 0 0 0 .507.639l2.28.201h.003c2.387.193 6.726 1.46 9.34 2.769l.003.001c3.124 1.544 8.452 5.52 9.425 7.023l.007.01v.001c.095.14.13.208.144.239l.003.001c-.042.11-.255.355-1.09 1.13l-.011.01a72 72 0 0 1-3.14 2.848l-.005.004-1.323 1.147-1.576-1.396c-4.485-3.998-10.011-6.074-15.269-6.028-3.416.03-6.722.957-9.545 2.84l-.004.004h-.001l-.007.004c-1.006.706-2.275 1.694-2.79 2.254l-.002.002c-1.314 1.437-3.097 4.626-3.704 6.602-.241.785-.372 1.063-.443 1.156l-.004.001-.05-.01-.012-.003c-1.99-.401-5.94-1.308-7.267-1.646l.004.001c.275-1.038 1.175-3.559 1.773-4.782 2.65-5.353 6.728-9.407 12.026-11.897l2.678-1.257a.56.56 0 0 0 .32-.462l.172-2.057c.285-3.111 1.524-7.99 2.672-10.496v.001c1.522-3.271 3.169-5.57 5.786-8.108 4.666-4.499 10.407-7.069 17.856-7.976h.003c1.435-.183 2.764-.373 3.081-.47.012-.004.165-.046.28-.163l.002.001c.233-.232.176-.568.174-.568v.001c-.04-.347-.308-1.025-.583-1.636l-.001-.001c-1.73-3.809-2.69-9.996-2.266-14.626v-.001c.621-6.95 3.85-12.994 8.895-16.794v.001l2.103-1.568a.56.56 0 0 0 .215-.565l-.265-1.263v.001c-.121-.653-.268-2.995-.288-5.265-.037-4.237.528-6.965 1.94-9.823v.001l.616-1.163a.56.56 0 0 0-.1-.66l-2.65-2.634-.002-.002c-3.724-3.66-7.482-5.35-12.083-5.309-3.358.03-7.408 1.44-10.597 3.671l-.005.004-1.477 1.057a.56.56 0 0 0-.232.514l.241 2.305c.61 6.11-1.43 13.59-5.236 19.254-1.737 2.544-5.744 6.492-6.935 7.174l-.003.002-.766-1.1c-.437-.629-.965-1.388-1.555-2.229l-2.159-3.081.613-.473.002-.002c6.06-4.727 9.241-12.479 8.2-19.948v-.005c-.48-3.186-1.605-6.599-3.06-9.093v-.002c-1.525-2.598-5.105-6.182-7.675-7.635v.001c-.757-.455-1.339-.846-1.628-1.07l.003.002c.264-.656.838-2.117 1.475-3.739v.001l1.302-3.27.611.266v.001c4.896 2.148 9.972 6.82 12.84 11.82v.001c.466.83.964 1.61 1.174 1.848l-.001.001c-.007 0 .19.233.477.23.112 0 .21-.038.216-.04v.001c.283-.097 1.43-.672 2.68-1.311h.001c3.982-2.05 6.546-2.687 11.269-2.728 2.96-.026 4.608.118 6.023.496v.001c4.281 1.138 9.24 4.014 12.1 7.067l1.31 1.412a.56.56 0 0 0 .768.052l2.45-2.014.001-.002c4.128-3.419 9.615-5.93 15.405-7.04h.003c1.401-.271 2.72-.58 3.024-.7v.002c.009-.004.136-.05.235-.15.304-.31.135-.717.118-.76a1.8 1.8 0 0 0-.322-.508v.002c-1.034-1.262-2.712-6.772-3.058-10.474v-.003l-.244-2.465a.56.56 0 0 0-.655-.497l-1.137.2c-2.984.523-5.846.799-8.509.822-2.534.023-4.88-.184-6.967-.618h-.002c-11.264-2.293-19.566-9.694-23.847-21.288-.606-1.632-1.007-2.624-1.54-2.973a1 1 0 0 0-.69-.159l-.007.001-.007.001q-2.208.314-4.294.333c-4.777.041-9.098-1.077-13.02-3.364v.001c-1.09-.641-1.736-1.014-2.38-1.008-.349.003-.659.113-.966.237l-.008.003c-3.664 1.538-7.931 2.416-11.865 2.45a25 25 0 0 1-2.954-.143h-.005c-3.102-.318-6.976-1.192-8.815-1.94l-.004-.001-1.016-.402a.557.557 0 0 0-.7.253l-1.243 2.285c-1.804 3.263-3.427 7.662-4.381 11.857l-.001.003c-.712 3.227-.799 4.288-.753 9.527.043 4.821.184 6.48.79 9.157 2.328 10.399 7.3 19.185 14.94 26.439l.002.002 1.96 1.848-1.796 1.698v.002c-4.314 4.067-8.42 9.695-10.81 14.844-7.335 15.65-4.537 33.35 7.386 47.286l1.296 1.533-1.455 2.224c-2.403 3.642-5.5 10.265-6.806 14.533v.004c-.591 1.989-1.389 5.435-1.753 7.677l-.001.006c-.545 3.59-.628 4.925-.422 10.323.172 5.109.378 6.794 1.047 9.591l.001.005c2.186 8.826 5.8 15.382 11.317 20.516 4.05 3.756 7.764 5.773 12.6 6.736a22 22 0 0 0 4.61.431" style="fill:#fff;fill-opacity:1;stroke-linejoin:miter"/><path d="m941.52 492.795-.043-.055.046.055Zm-74.334-106.958-.002-.002a.2.2 0 0 1-.038-.035l.001.001a.2.2 0 0 1 .042.036Zm2.69-6.911q-.013-.001.009-.002h.008l.003.002h-.017Zm87.988 144.455c1.413-.012 2.813-.115 3.922-.312v.001c7.66-1.363 15.205-6.722 19.926-14.054l.002-.004c3.073-4.844 5.072-10.344 6.163-16.963v-.002c.76-4.689.743-13.76-.007-19.177v-.002c-2.788-19.412-12.856-33.046-29.35-39.629l-.007-.003-.007-.002c-1.467-.567-2.925-1.112-3.59-1.294h.003c.17-.55.506-1.956.825-3.34v-.001c.564-2.476.644-3.956.63-9.147v-.003c-.048-5.543-.15-6.523-.858-8.998-.96-3.364-2.5-6.699-4.24-9.178-1.325-1.947-4.562-5.158-6.493-6.475-1.94-1.323-5.559-2.897-8.27-3.614h-.002c-1.907-.496-4.692-.718-7.5-.693-2.767.024-5.608.288-7.73.79l-.008.002c-.86.214-1.634.39-2.155.504h-.003c.033-.597.101-1.55.204-2.635v-.006c.552-6.611-.66-13.537-3.32-18.898v-.002c-2.91-5.82-8.4-10.09-14.715-11.463l-.007-.002c-1.39-.283-2.533-.41-4.374-.394-.786.007-1.706.04-2.82.098l.002.001c-4.772.2-7.894.873-12.174 2.545l-1.386.527-1.85-1.625v.002c-5.535-4.901-10.794-7.848-16.666-9.342v.001c-1.625-.416-3.488-.558-6.442-.532l.003.001-.45.001c-4.45.04-6.632.546-10.337 2.36-7.789 3.754-13.2 10.713-15.716 20.166-.606 2.177-.687 3.452-.64 8.761.019 5.773.088 6.465.957 9.596v.001c1.156 4.211 3.017 8.577 5.164 12.116l.001.002c1.836 3 5.58 8.017 6.882 9.23l.015.013.42.366-1.632 2.032c-5.34 6.628-8.553 13.48-9.803 20.936v.003c-.671 4.156-.388 11.256.649 15.034 2.418 8.922 7.463 15.731 14.37 19.238 2.96 1.51 6.07 2.245 9.2 2.218 4.288-.038 8.584-1.51 12.555-4.345l1.578-1.107.533.408c2.543 1.99 6.494 4.357 8.718 5.218v.001c2.345.933 2.931.995 6.447.997h.005c3.533-.032 4.05-.099 5.837-.995v.001c3.11-1.541 5.29-4.629 6.171-8.528v.001c.51-2.19.46-6.982-.08-9.722v.002c-.167-.928-.25-1.749-.25-2.052l.003.001c.231-.226.95-.757 1.874-1.296l.01-.006c1.126-.69 3.106-2.12 4.36-3.265v.001c5.707-5.003 8.724-10.96 8.668-17.322-.045-5.123-1.5-8.445-5.331-12.242-2.025-2.02-3.034-2.714-5.57-3.89-3.14-1.471-6.003-2.365-8.223-2.51l-1.168-.085-.045-.001a.56.56 0 0 0-.528.385l-.925 2.791v.001c-2.575 7.83-7.05 13.158-13.964 16.692-1.921.982-4.87 2.095-6.513 2.445l-.008.001-.463.106-.434-1.915v.002a248 248 0 0 0-.848-3.674l-.14-.593-.304-1.306.774-.215v.001c.776-.211 2.389-.875 3.61-1.42l.011-.006c10.569-5.03 14.527-16.004 9.587-26.38l-.192-.395-.001-.002c-2.343-4.649-5.847-8.115-10.928-10.808l-.006-.004a39 39 0 0 1-2.012-1.095h.003a346 346 0 0 1 2.671-7.041c.288.073.773.236 1.376.494 8.739 3.778 16.119 12.368 18.116 21.114l.56 2.431c.052.23.244.403.479.432l1.71.206h.003c7.502.867 15.597 5.034 20.1 10.286 2.09 2.452 4.687 7.29 5.513 10.27v.002c.728 2.568 1.033 8.68.565 11.386v.002c-1.238 7.265-5.305 13.915-11.48 18.665l-1.729 1.312a.56.56 0 0 0-.221.452l.025 2.846c.032 3.643-.617 6.57-2.259 10.086-1.12 2.353-1.802 3.355-3.958 5.58l-.001.002-2.665 2.775a.56.56 0 0 0-.125.573l1.038 2.995c1.78 5.31 4.042 8.856 7.536 11.968v.001c4.122 3.666 9.502 5.459 15.898 5.402 4.917-.043 10.438-1.177 16.474-3.392l.01-.004c1.69-.627 3.431-1.304 4.09-1.625-.108.35-.258.79-.447 1.268l-.006.016c-2 5.555-2.608 11.883-1.425 16.134 1.726 6.337 6.875 10.995 13.504 12.338v.001c1.383.282 3.253.411 5.051.395m-16.954 96.636.136-.018c.094-.024.575-.12 1.098-.187l.014-.001c2.277-.346 5.044-1.245 7.575-2.49 2.21-1.063 3.268-1.875 5.184-3.858v.001c3.703-3.803 5.454-7.8 6.048-13.607.802-7.78-2.045-17.14-6.967-23.158l-.004-.005c-.415-.495-.778-.95-1.047-1.3l.002.002a57 57 0 0 1 1.96-.165l.001.001c3.805-.26 6.461-.967 10.144-2.736v.001c7.108-3.407 12.123-8.414 15.595-15.58v-.002c2.46-5.125 3.058-7.68 3.04-13.397v.001c-.002-3.883-.14-5.05-.781-7.206-.8-2.741-2.534-6.324-4.14-8.576l-.003-.003c-.55-.762-1.084-1.502-1.207-1.684v.002c-.194-.286-.517-.296-.604-.297h.001-.03c-.528.004-1.604.416-2.78.98-5.708 2.649-10.11 3.74-15.392 3.786-3.546.03-5.589-.226-12.295-1.619h-.003c-3.245-.658-6.038-.995-8.631-.972-4.41.04-8.193 1.119-12.589 3.355v.001c-5.237 2.643-8.892 6.01-10.825 9.995v.001l-.002.003c-1.012 2.104-1.079 2.484-1.049 5.854.028 3.14.133 3.824 1.012 5.839.536 1.242 1.747 3.322 2.694 4.637l.01.013v.003c.505.675.94 1.277 1.237 1.705l.004.001q-.196.009-.43.01c-6.914.062-13.192 5.686-14.915 13.213-.539 2.307-.499 6.793.08 9.12v.001c.677 2.674 2.521 6.157 4.341 8.172l.001.002c1.38 1.52 2.126 2.001 4.411 2.891l.006.003c4.31 1.623 10.332 4.805 13.178 6.924l.003.002c3.36 2.467 7.494 6.686 9.666 9.898l.003.005c.94 1.35 2.532 4.187 3.59 6.318v.004c.94 1.863 1.854 3.517 2.173 3.88a.66.66 0 0 0 .487.237m-192.944 31.68-.017-.003v.001l-.01-.001.023.003Zm53.208-13.584.013-.005v.002c.084-.033.11-.05.1-.05a.4.4 0 0 0-.117.053Zm-16.817 38.652c-5.547.049-11.57-1.812-17.119-5.333-5.192-3.29-11.46-9.36-16.382-15.773l-.002-.003-.003-.003v-.001a202 202 0 0 0-3.035-3.951c-.332.034-1.014.186-1.782.434v.001c-1.838.596-4.38.923-6.734.943-1.514.014-2.981-.1-4.154-.362h-.003c-3.946-.91-6.834-2.554-9.963-5.63-3.063-3.008-4.652-5.54-5.981-9.665v-.004c-.643-2.03-.781-3.198-.81-6.482-.05-5.757 1.068-9.228 4.62-14.498v.001c1.823-2.705 6.167-7.058 9.166-9.235h.001c6.645-4.798 15.11-7.71 22.353-7.774q.742-.006 1.467.028c9.24.437 15.591 5.111 18.493 13.6l.001.003c.517 1.538 1.053 3.491 1.167 4.35l.234 1.452a.56.56 0 0 1-.495.648l-2.275.241h-.005c-2.382.236-6.698 1.578-9.289 2.933l-.003.001c-3.096 1.599-8.353 5.668-9.3 7.188l-.006.011v.002c-.093.14-.128.208-.14.24h-.004c.045.11.262.35 1.11 1.11l.012.01a72 72 0 0 0 3.19 2.793l.004.004 1.343 1.124 1.552-1.424c4.413-4.076 9.902-6.249 15.16-6.295 3.416-.03 6.738.838 9.594 2.671l.003.003h.002l.006.005c1.019.687 2.305 1.653 2.83 2.204l.002.002c1.339 1.413 3.177 4.57 3.82 6.536.255.78.39 1.056.463 1.148h.004l.049-.01.013-.004a217 217 0 0 0 7.237-1.773l-.004.001c-.294-1.033-1.238-3.537-1.857-4.75-2.744-5.305-6.893-9.287-12.234-11.683l-2.7-1.21a.56.56 0 0 1-.328-.456l-.208-2.054c-.34-3.106-1.664-7.962-2.857-10.447-1.58-3.243-3.266-5.513-5.927-8.004-4.745-4.416-10.53-6.885-17.994-7.661h-.003c-1.438-.157-2.77-.324-3.089-.416v.001c-.012-.004-.166-.044-.282-.158l-.002.001c-.238-.228-.186-.565-.184-.565v.001c.034-.348.29-1.03.554-1.646v-.001c1.663-3.84 2.515-10.042 2.009-14.664v-.001c-.744-6.937-4.078-12.924-9.19-16.634l-2.13-1.53a.56.56 0 0 1-.224-.561l.242-1.267c.11-.655.215-2.999.195-5.27-.037-4.236-.65-6.954-2.113-9.786v.001l-.635-1.152a.56.56 0 0 1 .088-.662l2.602-2.68.003-.002c3.659-3.724 7.386-5.48 11.988-5.521 3.357-.03 7.432 1.309 10.66 3.484l.004.003 1.496 1.031a.56.56 0 0 1 .241.511l-.2 2.308c-.503 6.12 1.668 13.563 5.573 19.159 1.782 2.513 5.858 6.39 7.06 7.051l.004.001c.16-.235.416-.619.747-1.113.426-.636.94-1.404 1.515-2.255l2.104-3.12-.62-.46-.003-.003c-6.143-4.62-9.46-12.314-8.55-19.8v-.006c.424-3.193 1.488-6.626 2.899-9.145v-.002c1.48-2.624 4.995-6.271 7.54-7.769v.001c.749-.468 1.323-.87 1.609-1.098l-.004.001c-.275-.652-.874-2.101-1.54-3.712v.001l-1.359-3.246-.607.276v.001c-4.857 2.234-9.85 6.995-12.63 12.045-.45.839-.935 1.627-1.141 1.869h.002a.65.65 0 0 1-.473.24.7.7 0 0 1-.217-.037v.001c-.284-.092-1.442-.647-2.703-1.263l-.001-.001c-4.017-1.98-6.592-2.57-11.315-2.53-2.96.027-4.605.2-6.013.602v.001c-4.26 1.214-9.169 4.178-11.975 7.28l-1.284 1.435a.56.56 0 0 1-.767.066l-2.484-1.971-.002-.002c-4.188-3.345-9.718-5.759-15.527-6.768v.001l-.003-.001c-1.406-.246-2.73-.53-3.036-.645a.7.7 0 0 1-.237-.145c-.31-.305-.147-.715-.131-.758a1.7 1.7 0 0 1 .312-.513v.001c1.013-1.28 2.593-6.818 2.874-10.526v-.002l.2-2.47a.56.56 0 0 1 .647-.508l1.14.18c2.993.471 5.859.695 8.522.672 2.534-.022 4.877-.27 6.955-.74l.002-.001c11.222-2.49 19.392-10.037 23.468-21.704.577-1.643.961-2.642 1.488-3a1 1 0 0 1 .686-.171v.001h.007l.007.001q2.214.275 4.3.256c4.777-.042 9.077-1.236 12.96-3.592 1.076-.66 1.716-1.043 2.36-1.049.35-.003.661.102.97.22l.008.003c3.692 1.473 7.973 2.276 11.907 2.242a25 25 0 0 0 2.95-.197h.006c3.096-.372 6.954-1.314 8.779-2.093l.005-.003 1.008-.42a.563.563 0 0 1 .704.241l1.284 2.263c1.86 3.232 3.561 7.6 4.59 11.779v.003c.769 3.214.874 4.272.92 9.512.043 4.82-.07 6.482-.627 9.17-2.146 10.438-6.962 19.31-14.474 26.697l-.001.002-1.927 1.882 1.825 1.667v.001c4.385 3.99 8.59 9.546 11.07 14.651 7.61 15.52 5.123 33.267-6.552 47.409l-1.269 1.555 1.494 2.2c2.467 3.598 5.679 10.165 7.06 14.41l.002.004c.625 1.978 1.484 5.41 1.887 7.645l.001.005c.607 3.58.715 4.914.604 10.315-.082 5.111-.259 6.8-.879 9.608v.005c-2.03 8.863-5.529 15.482-10.954 20.712-3.984 3.827-7.662 5.909-12.48 6.956v.002a22 22 0 0 1-4.602.511" style="fill:#fff;fill-opacity:1;stroke-linejoin:miter"/><path d="m710.87 622.043-.137-.016a12 12 0 0 0-1.1-.167l-.015-.002c-2.283-.305-5.066-1.155-7.618-2.355-2.228-1.025-3.3-1.818-5.25-3.767v.002c-3.77-3.738-5.591-7.703-6.287-13.5v.002c-.939-7.766 1.743-17.174 6.558-23.278l.004-.006a41 41 0 0 0 1.024-1.317l-.002.001a58 58 0 0 0-1.963-.13l-.001.001c-3.809-.193-6.477-.853-10.19-2.557v.001c-7.168-3.282-12.27-8.2-15.867-15.303l-.001-.002c-2.548-5.081-3.192-7.626-3.275-13.342v.001c-.066-3.882.051-5.05.655-7.218.752-2.755 2.422-6.367 3.988-8.647l.002-.003c.537-.772 1.058-1.52 1.178-1.705v.001c.188-.289.511-.304.599-.307l-.002.001c.013-.002.018-.002.031-.002.528-.005 1.61.389 2.797.931v.001c5.753 2.547 10.173 3.56 15.456 3.514 3.545-.032 5.584-.324 12.264-1.835l.003-.001c3.233-.714 6.02-1.1 8.613-1.123 4.41-.039 8.211.974 12.645 3.132v.002c5.284 2.55 8.998 5.851 11 9.803l.002.003c1.05 2.086 1.123 2.465 1.152 5.835.028 3.14-.065 3.825-.91 5.856-.513 1.25-1.687 3.352-2.611 4.684l-.009.013-.001.001v.001a67 67 0 0 0-1.207 1.728l-.003.001q.196.004.43.002c6.914-.06 13.29 5.453 15.145 12.948.58 2.296.619 6.783.081 9.119v.002c-.63 2.685-2.413 6.2-4.197 8.247v.001c-1.353 1.545-2.092 2.04-4.36 2.97l-.006.002c-4.281 1.7-10.245 4.987-13.054 7.156l-.003.002c-3.316 2.525-7.375 6.816-9.49 10.066l-.004.006c-.915 1.367-2.457 4.23-3.477 6.38l-.002.003c-.905 1.88-1.79 3.55-2.103 3.918a.66.66 0 0 1-.483.246M708.02 494.85l.042-.055v.002l-.045.054Zm72.438-108.25h.002v-.002a.2.2 0 0 0 .038-.035l-.001.001a.2.2 0 0 0-.042.036Zm-2.81-6.862q.011-.001-.01-.002h-.008l-.003.002h.017ZM692.216 525.72c-1.412.012-2.813-.066-3.926-.244v.002c-7.682-1.229-15.32-6.454-20.17-13.702l-.002-.004c-3.158-4.79-5.254-10.253-6.461-16.852v-.001c-.844-4.675-.985-13.745-.331-19.174v-.003c2.446-19.457 12.273-33.267 28.647-40.14l.008-.003.006-.002c1.457-.593 2.905-1.163 3.566-1.357l-.003.001c-.18-.548-.54-1.948-.883-3.326v-.001c-.607-2.466-.714-3.944-.792-9.134v-.003c-.049-5.543.036-6.526.7-9.012.902-3.38 2.383-6.742 4.078-9.251v.001c1.291-1.971 4.47-5.238 6.378-6.59v.002c1.917-1.358 5.507-2.995 8.205-3.76h.002c1.898-.53 4.679-.8 7.486-.825 2.767-.025 5.613.189 7.744.653l.007.002c.865.2 1.64.36 2.164.466l.003.001a72 72 0 0 0-.25-2.632v-.006c-.668-6.6.422-13.547 2.986-18.954v-.001c2.807-5.87 8.222-10.236 14.511-11.72l.008-.002c1.385-.308 2.525-.455 4.366-.471a68 68 0 0 1 2.821.047l-.002.002c4.775.116 7.908.733 12.217 2.33l1.395.502 1.82-1.657v.001c5.448-4.997 10.655-8.036 16.5-9.632 1.617-.445 3.477-.62 6.432-.645h-.004l.45-.006c4.45-.04 6.641.43 10.377 2.178 7.854 3.616 13.387 10.478 16.07 19.885.643 2.166.747 3.44.794 8.749.083 5.772.025 6.465-.788 9.611v.001c-1.082 4.23-2.866 8.63-4.95 12.205l-.001.002c-1.783 3.031-5.439 8.115-6.719 9.35l-.014.014-.415.373 1.668 2.002c5.457 6.533 8.79 13.328 10.17 20.76l.001.004c.744 4.143.586 11.247-.384 15.042v.002c-2.26 8.962-7.186 15.86-14.03 19.487-2.932 1.561-6.03 2.352-9.159 2.38-4.288.037-8.61-1.358-12.63-4.124l-1.596-1.078-.526.416v.001c-2.508 2.035-6.417 4.47-8.625 5.37v.002c-2.328.974-2.913 1.046-6.43 1.109l-.004.001c-3.533.03-4.052-.028-5.854-.892-3.136-1.485-5.37-4.534-6.32-8.417-.547-2.18-.583-6.972-.09-9.721v.001c.15-.93.219-1.752.214-2.055h-.004c-.235-.222-.963-.74-1.896-1.262l-.01-.006c-1.138-.67-3.143-2.065-4.416-3.188v.002c-5.795-4.902-8.917-10.806-8.973-17.168-.045-5.123 1.35-8.47 5.115-12.333 1.988-2.056 2.986-2.768 5.5-3.988 3.114-1.526 5.96-2.47 8.178-2.655v.002l1.166-.107.046-.002a.56.56 0 0 1 .534.376l.973 2.775c2.713 7.784 7.282 13.033 14.257 16.444 1.938.948 4.906 2.009 6.555 2.33h.008l.464.098.401-1.921c.226-1.126.557-2.647.783-3.687l.13-.596.281-1.31-.778-.202v.001c-.78-.197-2.404-.833-3.634-1.356l-.012-.006c-10.656-4.844-14.806-15.745-10.05-26.207q.09-.199.185-.398l.001-.002c2.261-4.69 5.703-8.217 10.736-11l.006-.004c.88-.47 1.61-.892 1.993-1.13l-.004.001c-.492-1.31-2.266-5.74-2.794-6.993-.286.078-.77.25-1.367.518-8.671 3.93-15.899 12.649-17.741 21.43l-.517 2.44a.56.56 0 0 1-.472.44l-1.706.236h-.003c-7.485 1-15.505 5.309-19.915 10.639-2.047 2.488-4.558 7.372-5.332 10.365l-.001.003c-.682 2.58-.878 8.696-.363 11.394v.001c1.366 7.243 5.549 13.82 11.807 18.46v.001l1.75 1.28c.144.105.23.271.23.449l.026 2.846c.032 3.643.732 6.558 2.436 10.044 1.161 2.334 1.861 3.323 4.055 5.51h.002l2.712 2.73c.15.149.202.37.136.57l-.986 3.013c-1.686 5.34-3.884 8.926-7.323 12.1-4.057 3.739-9.405 5.625-15.8 5.682-4.918.043-10.458-.994-16.532-3.103l-.01-.004v.002c-1.7-.598-3.454-1.245-4.118-1.554.115.349.272.786.47 1.26l.006.016c2.097 5.52 2.816 11.835 1.708 16.106v.001c-1.614 6.366-6.68 11.114-13.284 12.574-1.378.306-3.245.469-5.044.485" style="fill:#fff;fill-opacity:1;stroke-linejoin:miter"/><path d="M181.601 374.474h-.22c-22.343.046-42.47 8.39-57.945 23.926-7.188 7.28-11.084 12.599-18.688 25.556q-.06.106-.164.106c-.472 0-1.642-1.606-3.508-4.738-9.312-15.914-23.502-29.254-38.35-36.06-12.04-5.553-25-8.33-38.788-8.33q-5.346 0-10.858.557c-22.4 2.182-40.574 10.462-55.134 25.02-12.854 12.907-21.002 28.857-24.99 49.071-1.812 9.161-1.898 26.863-.17 36.2 5.68 30.634 22.529 60.573 54.959 97.56 13.829 15.844 40.987 41.977 65.082 62.806 13.515 11.693 43.234 36.173 51.427 42.382q.03.023.086.023c1.341 0 13.78-9.438 32.158-24.202 57.653-46.514 99.256-91.407 121.03-130.704 17.455-31.474 23.744-60.729 18.684-86.662-2.467-12.571-7.927-25.501-14.783-35.01-4.837-6.706-14.746-16.209-21.532-20.712-16.081-10.673-37.367-16.79-58.296-16.79" style="fill:#ff0039;fill-opacity:1;stroke-linejoin:miter"/></svg>