<svg xmlns="http://www.w3.org/2000/svg" width="1172.706" height="1021.537" style="font-family:Arial" viewBox="0 0 320 278.75"><defs><linearGradient id="a" x1="25%" x2="25%" y1="0%" y2="100%"><stop offset="0%" stop-color="#ffce47"/><stop offset="100%" stop-color="#c89d04"/></linearGradient><linearGradient id="b" x1="25%" x2="25%" y1="0%" y2="100%"><stop offset="0%" stop-color="#ffe760"/><stop offset="100%" stop-color="#e3b52c"/></linearGradient><linearGradient id="c" x1="25%" x2="25%" y1="0%" y2="100%"><stop offset="0%" stop-color="#ff9543"/><stop offset="100%" stop-color="#c76610"/></linearGradient><linearGradient id="d" x1="25%" x2="25%" y1="0%" y2="100%"><stop offset="0%" stop-color="#ffad5a"/><stop offset="100%" stop-color="#e37d2b"/></linearGradient><linearGradient id="e" x1="25%" x2="25%" y1="0%" y2="100%"><stop offset="0%" stop-color="#fd5958"/><stop offset="100%" stop-color="#c41f2f"/></linearGradient><linearGradient id="f" x1="25%" x2="25%" y1="0%" y2="100%"><stop offset="0%" stop-color="#ff736e"/><stop offset="100%" stop-color="#e03e43"/></linearGradient><linearGradient id="g" x1="25%" x2="25%" y1="0%" y2="100%"><stop offset="0%" stop-color="#d32e6f"/><stop offset="100%" stop-color="#9c0044"/></linearGradient><linearGradient id="h" x1="25%" x2="25%" y1="0%" y2="100%"><stop offset="0%" stop-color="#ef4c86"/><stop offset="100%" stop-color="#b80059"/></linearGradient><linearGradient id="i" x1="25%" x2="25%" y1="0%" y2="100%"><stop offset="0%" stop-color="#902775"/><stop offset="100%" stop-color="#5f0049"/></linearGradient><linearGradient id="j" x1="25%" x2="25%" y1="0%" y2="100%"><stop offset="0%" stop-color="#a9408c"/><stop offset="100%" stop-color="#77055f"/></linearGradient><linearGradient id="k" x1="25%" x2="25%" y1="0%" y2="100%"><stop offset="0%" stop-color="#492466"/><stop offset="100%" stop-color="#1e003b"/></linearGradient><linearGradient id="l" x1="25%" x2="25%" y1="0%" y2="100%"><stop offset="0%" stop-color="#60397d"/><stop offset="100%" stop-color="#330f50"/></linearGradient></defs><path fill="url('#a')" d="M0 0v-150h25V10z" transform="translate(65 178)"/><path fill="url('#b')" d="M50 0v-150H25V10z" transform="translate(65 178)"/><path fill="#ffff79" d="m65 28 25 10 25-10-25-10z"/><text x="-10" y="14" fill="#222" font-family="Lato" font-size="7" text-anchor="end" transform="translate(65 178)"><tspan x="-10" dy="0">Darm</tspan></text><text fill="#c89d04" font-family="Lato" font-size="8" font-weight="bold" text-anchor="middle" transform="translate(90 13)"> 70 </text><path fill="url('#c')" d="M0 0v-42.857h25V10z" transform="translate(105 194)"/><path fill="url('#d')" d="M50 0v-42.857H25V10z" transform="translate(105 194)"/><path fill="#ffc672" d="m105 151.143 25 10 25-10-25-10z"/><text x="-10" y="14" fill="#222" font-family="Lato" font-size="7" text-anchor="end" transform="translate(105 194)"><tspan x="-10" dy="0">Lymphknoten</tspan></text><text fill="#c76610" font-family="Lato" font-size="8" font-weight="bold" text-anchor="middle" transform="translate(130 136.14)"> 20 </text><path fill="url('#e')" d="M0 0v-10.714h25V10z" transform="translate(145 210)"/><path fill="url('#f')" d="M50 0v-10.714H25V10z" transform="translate(145 210)"/><path fill="#ff8c85" d="m145 199.286 25 10 25-10-25-10z"/><text x="-10" y="14" fill="#222" font-family="Lato" font-size="7" text-anchor="end" transform="translate(145 210)"><tspan x="-10" dy="0">Milz</tspan></text><text fill="#c41f2f" font-family="Lato" font-size="8" font-weight="bold" text-anchor="middle" transform="translate(170 184.29)"> 5 </text><path fill="url('#g')" d="M0 0v-4.286h25V10z" transform="translate(185 226)"/><path fill="url('#h')" d="M50 0v-4.286H25V10z" transform="translate(185 226)"/><path fill="#ff669d" d="m185 221.714 25 10 25-10-25-10z"/><text x="-10" y="14" fill="#222" font-family="Lato" font-size="7" text-anchor="end" transform="translate(185 226)"><tspan x="-10" dy="0">Mandeln</tspan></text><text fill="#9c0044" font-family="Lato" font-size="8" font-weight="bold" text-anchor="middle" transform="translate(210 206.71)"> 2 </text><path fill="url('#i')" d="M0 0v-4.286h25V10z" transform="translate(225 242)"/><path fill="url('#j')" d="M50 0v-4.286H25V10z" transform="translate(225 242)"/><path fill="#c359a4" d="m225 237.714 25 10 25-10-25-10z"/><text x="-10" y="14" fill="#222" font-family="Lato" font-size="7" text-anchor="end" transform="translate(225 242)"><tspan x="-10" dy="0">Tonsillen</tspan></text><text fill="#5f0049" font-family="Lato" font-size="8" font-weight="bold" text-anchor="middle" transform="translate(250 222.71)"> 2 </text><path fill="url('#k')" d="M0 0v-2.143h25V10z" transform="translate(265 258)"/><path fill="url('#l')" d="M50 0v-2.143H25V10z" transform="translate(265 258)"/><path fill="#774e94" d="m265 255.857 25 10 25-10-25-10z"/><text x="-10" y="14" fill="#222" font-family="Lato" font-size="7" text-anchor="end" transform="translate(265 258)"><tspan x="-10" dy="0">Peyer-Plaques</tspan></text><text fill="#1e003b" font-family="Lato" font-size="8" font-weight="bold" text-anchor="middle" transform="translate(290 240.86)"> 1 </text><g transform="translate(65 178)"><circle cx="-5" cy="12" r=".8" fill="#4c1a00"/><path fill="none" stroke="#4c1a00" stroke-dasharray="0.6,2" stroke-linecap="round" stroke-width=".6" d="m10 6-15 6"/><circle cx="10" cy="6" r=".8" fill="#4c1a00"/></g><g transform="translate(65 178)"><circle cx="35" cy="28" r=".8" fill="#4c1a00"/><path fill="none" stroke="#4c1a00" stroke-dasharray="0.6,2" stroke-linecap="round" stroke-width=".6" d="m50 22-15 6"/><circle cx="50" cy="22" r=".8" fill="#4c1a00"/></g><g transform="translate(65 178)"><circle cx="75" cy="44" r=".8" fill="#4c1a00"/><path fill="none" stroke="#4c1a00" stroke-dasharray="0.6,2" stroke-linecap="round" stroke-width=".6" d="m90 38-15 6"/><circle cx="90" cy="38" r=".8" fill="#4c1a00"/></g><g transform="translate(65 178)"><circle cx="115" cy="60" r=".8" fill="#4c1a00"/><path fill="none" stroke="#4c1a00" stroke-dasharray="0.6,2" stroke-linecap="round" stroke-width=".6" d="m130 54-15 6"/><circle cx="130" cy="54" r=".8" fill="#4c1a00"/></g><g transform="translate(65 178)"><circle cx="155" cy="76" r=".8" fill="#4c1a00"/><path fill="none" stroke="#4c1a00" stroke-dasharray="0.6,2" stroke-linecap="round" stroke-width=".6" d="m170 70-15 6"/><circle cx="170" cy="70" r=".8" fill="#4c1a00"/></g><g transform="translate(65 178)"><circle cx="195" cy="92" r=".8" fill="#4c1a00"/><path fill="none" stroke="#4c1a00" stroke-dasharray="0.6,2" stroke-linecap="round" stroke-width=".6" d="m210 86-15 6"/><circle cx="210" cy="86" r=".8" fill="#4c1a00"/></g></svg>