<svg xmlns="http://www.w3.org/2000/svg" width="1073" height="767" viewBox="-177 328 1073 767"><path d="M-186.76 323.37a.76.76 0 0 0-.762.762l.001 781.548c0 .42.34.761.761.761l1093.355.002a.76.76 0 0 0 .76-.762V324.133a.76.76 0 0 0-.761-.762z" style="fill:#00aec7;fill-opacity:1;stroke-linejoin:miter"/><path d="M204.553 425.063c-96.651 0-175.092 78.441-175.092 175.092 0 196.629 198.335 248.179 333.491 442.56 127.78-193.185 333.492-252.22 333.492-442.56 0-96.65-78.441-175.092-175.092-175.092-70.107 0-130.446 41.395-158.4 100.952-27.957-59.556-88.296-100.952-158.4-100.952Z" style="fill:#e60000;fill-opacity:1;stroke-linejoin:miter"/><path d="m802.424 1044.743-3.9.958q-27.72 2.893-162.223 4.628-135.434 1.734-318.965 1.406-175.156-.458-280.172-2.68-33.648-.718-55.432-1.565l-18.308-.87q-15.088-.9-15.258-1.877 4.58-2.999 125.104-4.99 120.523-1.99 302.025-2.067 181.503.076 302.026 2.067 120.522 1.991 125.103 4.99" style="fill:#025f6c;fill-opacity:1;stroke-linejoin:miter"/><path d="M622.165 892.664h.028q.41.002.8.152.146.052.318.187.094.082.133.17.077.156-.043.328-.203.13-.797.13-.19-.002-.412-.021l-.195-.024q-.378-.06-.433-.074-.41-.093-.503-.252-.019-.034-.02-.071.011-.095.033-.117.064-.107.24-.217.322-.182.85-.191" style="fill:#508626;fill-opacity:1;stroke-linejoin:miter"/><path d="m623.381 926.958-.05.002q-.264.044-.17.316.184.47.791 1.095.772.807 2.51 1.993 1.75 1.112 3.082 1.755.666.322 1.227.527.56.204 1.016.291l.43.058q.809-.04.601-.715-.187-.338-1.376-1.18-1.918-1.247-4.766-2.735-1.644-.838-2.423-1.159-.474-.212-.872-.248m-1.621 5.197h-.007q-.509.005-.235.536.258.572 1.734 2.11 3.007 2.93 4.21 3.15l.17-.027q.167-.04.328-.13.16-.091.312-.234.304-.284.578-.775.227-.554-.298-1.113-1.259-1.144-3.368-2.22-2.44-1.263-3.424-1.297m-1.337 4.875-.09.025q-.098.26.745 1.246.571.682 1.377 1.348.142.128.726.502.226.133.431.222.646.26.98.151.057-.002.222-.102.059-.045.097-.105.076-.12.069-.3-.024-.143-.167-.338-.291-.36-.545-.571-.341-.313-1.366-.906l-1.426-.757-.3-.148-.324-.146-.272-.095zm-3.79 3.497-.058.001q-.274.006-.355.222-.05.059.106.526.224.583 1.015 1.345.452.406.946.76.878.597 1.299.795 1.151.577 1.7.523.256-.028.354-.236.188-.499.166-.75-.045-.802-.75-1.508-.77-.735-1.917-1.17-.526-.199-1.486-.408-.49-.1-1.02-.1m-.709 3.863h-.008q-.179-.002-.223.016-.297.102-.392.16l-.273.21-.089.186-.015.23.054.264q.163.397.226.497.166.286.663.834.292.304.63.56.936.725 1.519.8l.266-.005.215-.075.16-.136.105-.19.043-.232-.02-.268-.086-.294-.157-.31q-.102-.272-1.597-1.65-.256-.232-.662-.48-.218-.117-.359-.117m-6.07 3.686h-.028q-.098.01-.118.037l-.044.217q.063.35.245.643.554.889 1.716 2.004.746.711 1.598 1.215.275.152.568.242l.056.014.574.042.36-.058.238-.138.123-.207.01-.266q-.043-.273-.242-.589-.106-.224-.74-.858-.86-.774-1.918-1.327-.918-.478-1.388-.67-.86-.334-1.01-.301m-1.51 4.408h-.022q-.282.013-.2.689.291 1.096.79 1.953.442.773.973 1.208.328.292.773.29.062.009.303-.108.092-.056.171-.139.154-.148.28-.47.037-.138-.012-.343-.043-.16-.242-.556-.228-.4-.523-.776-.537-.65-.839-.903-.896-.827-1.451-.845m71.652-9.32h-.007q-.544.14-.468.67.077.764.54 2.193 1.967 6.133 4.922 13.167.472 1.061 1.154 2.522.838 1.666 1.31 2.181.671.29 1.827.249.988-.053 1.13-.62l.055-.344q.014-.386-.135-.939-.148-.552-.459-1.271-1.038-2.481-7.161-13.524-2.056-3.781-2.708-4.284m-8.04.56-.034.004q-.305-.14-.217 1.298.095.912.435 2.111l1.206 4.08q2.88 8.493 3.403 9.705 1.207 3.046 2.034 4.13.404.295 2.004.177 2.373-.43 2.543-.816.531-.424.24-1.124l-.71-1.34-8.979-15.768q-1.54-2.398-1.926-2.457m-4.842 4.6-.03.228q-.09.481.303 2.197.158.939 1.733 6.217 1.481 4.764 2.814 7.491.664 1.089.963 1.42.38.34.68.41 1.353.343 2.684-.707.018-.291-.178-.915-.677-1.85-1.07-2.619-.955-2.09-3.076-6.122-.728-1.4-3.2-5.611l-1.04-1.472-.515-.503zm-66.362 17.341h-.02q-.144-.007-.32.083-.15.116-.179.289-.051.388.298.912.214.375.746.761.163.112.291.162.14.049.35.095.046.01.17.012.536-.015.747-.303.222-.335-.041-.752-.303-.471-.948-.869-.362-.199-.645-.308-.263-.078-.45-.082m58.478-16.345-.136.034q-.45.16-.457.847.079 1.61.485 3.598 1.786 8.446 3.468 13.334.246.654.57 1.192 1.581.314 2.994-.07 1.374-.286 2.102-.895.128-.097.232-.541.02-.063-.086-.355-.701-1.9-5.815-11.7-2.993-5.468-3.357-5.444m-5.638 4.902h-.018q-.251.1-.338.72-.029.17.112 1.452.313 2.594 1.347 7.459.434 2.06 1.399 5.655.61 1.11.93 1.005.59.142 3.48-1.68-.244-1-1.278-3.698-1.403-3.516-3.042-7.114-.624-1.353-1.205-2.253-.448-.803-1.386-1.546m-5.248 12.344h-.004q-.141-.057-.275.305-.078.076-.056.618.007.95.464 2.49.142.454.303.83.115.304.433.819.166.254.56.565.104.057.303.074.21-.002.32-.183.088-.137.11-.482.02-.338-.047-.606l-.108-.555-.143-.49q-.508-1.587-.831-2.171-.44-.765-.581-.917-.23-.262-.448-.297m-12.48-2.744h-.012q-.233.054-.205.649.062.533.46 1.808 2.16 5.743 2.764 7.048.445 1.128 1.097 1.971.58.795 1.188.76.793-.02 1.48-.762.234-.691-.302-1.762-.72-1.604-4.43-7.538-.521-.793-1.335-1.686-.433-.435-.704-.488m-3.47 4.507-.042.005q-.176.045-.404.443-.097.17-.055.404.3 1.798 1.61 5.157.73 1.818 1.493 3.022.686.925 1.227.728.531-.067 1.01-.548.058-.112.087-.247.032-.053.022-.453-.029-.336-.172-.76-.734-1.688-.843-1.856-1.519-2.851-2.345-4.221-1.048-1.651-1.587-1.674m-38.685 9.283h-.001q-.145.004-.18.048-.047.044-.034.129.065.285.359.52.325.24.586.33.14.053.286.086.145.031.295.042l.151.005h.046l.097-.017.064-.033.03-.047q.011-.058-.032-.124-.092-.124-.185-.193-.096-.081-.28-.197l-.194-.113q-.066-.046-.237-.15-.032-.02-.22-.117-.178-.084-.274-.112-.144-.05-.277-.057m27.895-2.412-.058.004q-.084.009-.137.059-.105.16-.088.24-.012.22.101.601.3.953 1.508 3.01 1.418 2.324 2.233 3.168.27.305.66.572.154.036.407.022 1.684-.152.821-1.857-.438-.795-1.608-2.304-.672-.849-1.803-2.062-.524-.56-1.277-1.145-.349-.26-.759-.308m-2.856 4.297h-.005q-.421.027-.268.976.123 1.187.803 2.945.92 2.042 1.893 2.084.115 0 .225-.031.274-.155.371-.252.137-.13.234-.3l.131-.367.013-.373-.068-.426-.14-.468q-.406-.926-.558-1.158-.395-.657-.893-1.238-.95-1.028-1.738-1.392m-6.411 4.436h-.016l-.07.016q-.066.027-.115.107t-.08.211q-.063.263-.057.733.04 1.024.108 1.53.121.691.25 1.118.317.98.719 1.386l.206.183.413.17.368.038.317-.08.262-.182.203-.269.141-.342.073-.4.003-.442-.073-.471-.152-.483q-.132-.28-.28-.567l-.442-.57q-.605-.744-1.023-1.16l-.372-.334q-.162-.125-.279-.17zm-13.1 35.542h-.006q-.148 0-.262.103-.148.15-.175.21-.057.09-.112.205-.051.115-.094.246-.101.343-.111.431-.061.296-.092.722.005.274.065.461.046.145.214.384.174.251.536.268.175.007.503-.119l.117-.08.094-.1q.124-.213.13-.284.028-.157.031-.359.002-.355-.062-.721-.128-.625-.207-.768-.144-.307-.176-.332-.061-.09-.125-.148-.128-.119-.268-.119m5.904-3.483-.08.007q-.242-.02-1.078.732-.215.178-.978 1.21-.721 1.003-1.166 1.815-.155.233-.513 1.111-.119.335-.169.621l-.017.364.05.333.115.303q.102.23.43.517 1.372.89 2.765.781.06.05.64-.202l.329-.242.278-.334.229-.426.18-.522.133-.62.1-.86q.12-2.581-.23-3.652-.327-1.026-1.018-.936m6.137-1.964-.037.002q-.136.022-.183.08-.236.294-.48.817-.264.803-.83 3.074-.17.67-.415 2.237-.164 1.388-.093 2.165.106 1.27.69 1.883.357.333.52.37 1.043.3 1.526.273.247-.019.53-.153l.251-.226.184-.343.118-.472.016-.272q.056-1.062.008-1.73-.37-3.917-.8-5.854-.288-1.162-.47-1.362-.156-.282-.32-.452-.126-.038-.215-.037m6.903-2.239h-.005q-.643-.041-1.059 2.896-.459 3.112-.504 8.383.128.832.373 1.247.147.4.886 1.05 1.2.854 2.499.844 1.032-.005 1.659-.972.193-.45.157-.732.026-.204-.193-1.725-.49-3.404-2.306-8.567-.249-.746-.936-1.93-.312-.562-.571-.494m-31.414 17.094-.04.015q-.179.244-.1.516.05.304.243.764.5.74 2.004 2.11 2.362 2.028 4.054 3.167 2.059 1.43 2.871 1.416l.308-.287.103-.37-.074-.452-.235-.518q-.589-1.005-1.902-2.176-2.158-1.766-3.533-2.534-.773-.458-1.519-.814l-.74-.33q-.733-.304-1.44-.507m80.62-180.996.082.004-31.883 30.234q-.138 1.478 16.92-11.315l-23.69 23.277 17.968-10.912-23.043 20.703 20.918-7.03-22.909 14.738 21.447 1.473-20.981 3.203 13.869 5.166q-11.16-.716-13.503-.274-1.682-.43 9.787 7.287-.05.313-8.398-2.414-.64.021.49 1.5 1.217 1.272 10.42 7.365 8.838-9.705 36.59-26.104 16.417-8.88 35.687-15.262 46.8-10.6 77.04-5.598l-46.175 4.78q6.527 1.044 34.198 1.59l-39.363 4.646q-1.77.752.766 1.086l23.25 1.548-36.572 4.478 30.822 6.336-40.267.108q-.037.45 5.21 3.897 10.997 7.065 21.37 13.306-32.98-12.593-30.959-11.38l13.255 17.723-18.264-12.001 8.236 23.565q-12.202-18.801-12.401-16.914l8.74 28.074-14.1-22.861 7.16 27.325-11.96-19.49q-2.552-3.694-2.154-1.876 2.54 13.054 7.454 25.056 38.94 2.866 44.813 5.101 13.742 2.739 25.887 6.863 24.291 8.247 42.2 22.035L766.87 981.99l29.559 16.86-37.67-14.187 21.599 13.802-35.597-13.571 26.74 20.676-37.224-18.707 18.163 26.536-23.705-23.138.62 4.103 5.854 18.51-13.056-19.705-.696 22.1-5.413-18.76-1.116 30.879-4.542-24.476q-.605-2.516-1.694-3.981l-1.984 27.16-5.734-26.437-2.425 26.87-3.661-21.433q-.381-1.762-.97-1.564l-.23 29.857-7.213-32.43-1.345 21.88-3.75-19.588q-.432-2.186-.9-.771l-1.24 31.07-6.296-33.423q-.599-1.319-.95.342l-3.294 23.92-2.819-23.772-5.915 38.208-2.557-29.764-3.059 26.03-7.76-34.967-.046 24.048-4.57-19.363-1.294 29.872-10.951-30.255q-.371.562-.235 2.603l2.356 22.007q-3.405-14.516-4.142-16.41-1.855-6.043-2.186-3.065-.205 6.207 1.198 18.742l15.836 10.965h-70.393v-105.43l6.013 16.999-5.637-64.081 9.026 42.919q1.202 4.643 1.473 4.146l.67-82.508 4.765 51.475q.379.83 1.729-1.905l9.997-24.705-7.481 38.202q-.107 1.24.441.577 3.476-7.488 3.573-6.635l-9.694 40.861q15.917-42.966 20.39-49.175l45.608-42.69q10.57-8.32 14.353-9.426" style="fill:#025f6c;fill-opacity:1;stroke-linejoin:miter"/><path d="M70.468 895.095h-.028q-.41.003-.8.153-.146.052-.318.187-.094.081-.134.169-.076.157.044.33.203.129.796.13.19-.003.413-.023l.195-.023q.377-.06.433-.074.41-.093.503-.252.019-.034.02-.071-.011-.095-.033-.118-.064-.106-.24-.216-.322-.182-.85-.192" style="fill:#508626;fill-opacity:1;stroke-linejoin:miter"/><path d="m98.668 927.36.051.002q.263.043.17.315-.185.47-.792 1.095-.772.808-2.51 1.993-1.75 1.113-3.082 1.756-.665.322-1.226.526t-1.017.291l-.43.059q-.809-.04-.601-.716.187-.337 1.376-1.18 1.918-1.247 4.767-2.735 1.643-.838 2.422-1.158.474-.213.872-.248m1.621 5.196h.008q.508.005.234.537-.257.57-1.734 2.11-3.007 2.93-4.21 3.149l-.17-.027q-.167-.04-.327-.13-.16-.091-.313-.233-.304-.285-.578-.775-.226-.555.298-1.113 1.259-1.145 3.369-2.22 2.44-1.263 3.424-1.298m1.336 4.875.091.025q.097.26-.745 1.246-.572.682-1.378 1.349-.142.128-.726.5-.226.134-.43.224-.647.258-.98.15-.058-.002-.223-.101-.058-.045-.096-.106-.076-.12-.07-.3.024-.143.167-.338.292-.36.545-.57.341-.314 1.367-.907l1.425-.756.3-.148.325-.147.271-.095zm3.791 3.497.058.001q.274.006.355.222.05.06-.106.526-.224.583-1.016 1.345-.452.407-.945.76-.878.597-1.3.795-1.15.577-1.7.523-.256-.027-.354-.235-.188-.5-.166-.751.046-.802.75-1.508.77-.735 1.917-1.17.527-.198 1.486-.408.49-.1 1.021-.1m.709 3.863h.008q.178-.002.223.016.297.102.391.161l.274.21.089.186.014.229-.054.264q-.163.398-.226.497-.165.286-.662.834-.293.305-.63.561-.937.724-1.52.8l-.265-.005-.215-.076-.161-.136-.104-.19-.044-.232.02-.268.087-.293.156-.311q.102-.272 1.598-1.65.255-.232.662-.479.217-.118.359-.118m6.07 3.686h.028q.098.01.117.037l.044.217q-.063.35-.245.644-.554.888-1.716 2.003-.746.712-1.598 1.215-.274.152-.568.242l-.056.014-.573.042-.36-.058-.239-.138-.122-.207-.011-.266q.044-.272.242-.588.106-.225.74-.86.86-.772 1.919-1.325.917-.479 1.387-.67.86-.334 1.01-.302m1.51 4.408h.023q.282.014.2.69-.292 1.095-.79 1.953-.443.773-.974 1.207-.328.292-.772.29-.063.01-.303-.107-.092-.057-.172-.14-.154-.148-.28-.47-.037-.138.012-.342.044-.16.243-.557.228-.4.522-.775.538-.65.84-.904.895-.826 1.45-.845m-71.652-9.32.007.001q.544.14.469.67-.078.763-.542 2.192-1.966 6.133-4.921 13.168-.472 1.06-1.154 2.52-.838 1.667-1.31 2.182-.67.29-1.827.25-.988-.054-1.13-.62l-.054-.345q-.015-.386.134-.938.148-.553.46-1.272 1.037-2.48 7.16-13.524 2.056-3.781 2.708-4.283m8.04.56.034.003q.305-.14.217 1.298-.095.912-.435 2.112l-1.205 4.079q-2.881 8.493-3.404 9.705-1.207 3.046-2.034 4.13-.404.296-2.004.177-2.373-.429-2.543-.816-.53-.423-.24-1.124l.71-1.34 8.98-15.768q1.54-2.398 1.925-2.457m4.843 4.6.03.229q.09.48-.303 2.196-.159.94-1.734 6.217-1.48 4.765-2.814 7.492-.663 1.088-.963 1.42-.38.339-.68.41-1.353.343-2.684-.708-.017-.291.179-.915.677-1.85 1.069-2.618.956-2.09 3.076-6.122.728-1.4 3.2-5.612l1.04-1.472.515-.502zm66.362 17.341h.02q.143-.007.32.083.15.116.178.29.052.387-.297.911-.214.376-.747.761-.162.112-.291.163-.14.048-.35.095-.046.009-.17.011-.536-.014-.747-.303-.222-.335.042-.752.303-.47.948-.868.362-.2.644-.309.263-.078.45-.082M62.82 949.721l.135.035q.45.158.457.846-.078 1.61-.485 3.598-1.786 8.446-3.467 13.334-.247.655-.571 1.192-1.58.314-2.994-.07-1.373-.286-2.102-.895-.128-.097-.232-.54-.02-.064.086-.356.702-1.9 5.815-11.699 2.993-5.468 3.358-5.445m5.637 4.902.018.001q.252.1.338.72.03.168-.112 1.45-.313 2.595-1.347 7.46-.434 2.06-1.398 5.655-.61 1.111-.93 1.005-.59.142-3.48-1.68.243-1 1.277-3.698 1.403-3.515 3.042-7.114.624-1.353 1.205-2.253.448-.803 1.387-1.546m5.247 12.345h.005q.14-.057.275.304.077.076.055.618-.007.952-.464 2.49-.141.454-.302.83-.115.304-.434.819-.165.253-.56.565-.103.057-.302.074-.21-.003-.32-.183-.089-.137-.11-.482-.02-.338.046-.606l.108-.555.143-.49q.508-1.587.831-2.171.44-.765.581-.917.23-.261.448-.296m12.48-2.744h.012q.233.053.206.648-.062.533-.46 1.809-2.16 5.742-2.764 7.047-.445 1.128-1.098 1.972-.58.795-1.188.759-.792-.02-1.48-.762-.234-.69.302-1.762.72-1.604 4.43-7.538.521-.793 1.335-1.686.433-.435.705-.487m3.468 4.506.043.006q.176.044.404.443.097.17.056.404-.3 1.798-1.61 5.156-.73 1.818-1.494 3.022-.686.926-1.226.729-.532-.068-1.01-.549-.058-.112-.087-.247-.033-.053-.022-.453.028-.335.171-.759.734-1.689.843-1.857 1.52-2.851 2.346-4.22 1.047-1.651 1.586-1.675m38.685 9.284h.002q.145.004.18.047.047.045.034.13-.066.285-.36.52-.325.239-.585.33-.14.053-.286.085t-.296.042l-.15.005h-.047l-.097-.017-.064-.033-.03-.047q-.01-.058.033-.124.091-.123.185-.192.096-.082.28-.198l.193-.113q.066-.046.238-.15.03-.02.22-.117.178-.084.273-.112.144-.049.277-.056m-27.895-2.413.058.004q.084.01.137.059.105.16.089.24.011.22-.102.601-.299.953-1.507 3.01-1.419 2.324-2.234 3.169-.27.304-.66.57-.153.037-.406.024-1.685-.152-.822-1.858.438-.795 1.609-2.304.67-.849 1.802-2.062.524-.56 1.277-1.145.35-.26.76-.308m2.856 4.297.004.001q.421.026.268.975-.122 1.187-.802 2.946-.92 2.04-1.893 2.084-.115-.002-.225-.032-.275-.155-.372-.252-.137-.13-.233-.3l-.132-.367-.013-.372.068-.427.14-.468q.406-.926.559-1.158.395-.657.893-1.237.95-1.028 1.738-1.393m6.41 4.436h.016l.07.016q.067.028.115.107.05.08.08.212.064.263.057.733-.04 1.024-.108 1.529-.12.692-.25 1.12-.317.979-.718 1.385l-.206.182-.414.17-.367.038-.317-.08-.263-.181-.203-.27-.14-.342-.074-.4-.003-.442.073-.47.153-.484q.131-.28.28-.566l.441-.57q.605-.745 1.023-1.16l.372-.334q.163-.126.279-.17zm13.1 35.543h.006q.148 0 .262.102.148.15.175.211.057.09.112.204.052.115.095.247.1.342.11.43.062.296.093.722-.005.274-.066.461-.046.146-.214.384-.174.251-.535.27-.176.005-.504-.12l-.116-.08-.094-.101q-.124-.212-.13-.284-.029-.157-.032-.358-.001-.356.062-.722.128-.624.207-.768.144-.306.177-.332.06-.089.125-.148.128-.118.267-.118m-5.904-3.484.08.007q.243-.019 1.079.733.214.177.977 1.21.722 1.003 1.167 1.815.154.233.512 1.11.12.335.17.622l.016.363-.049.333-.116.303q-.101.231-.43.517-1.372.89-2.765.782-.06.049-.64-.203l-.328-.242-.278-.333-.23-.427-.18-.522-.132-.62-.1-.859q-.121-2.582.23-3.652.327-1.026 1.017-.937m-6.137-1.964.038.002q.135.022.182.081.236.293.481.816.263.804.829 3.075.17.67.416 2.237.164 1.387.093 2.165-.107 1.269-.69 1.883-.358.332-.52.369-1.044.3-1.526.273-.247-.018-.53-.153l-.252-.226-.183-.343-.119-.471-.015-.272q-.057-1.062-.008-1.73.37-3.917.8-5.854.288-1.162.47-1.363.155-.282.32-.451.125-.039.214-.038m-6.902-2.238h.005q.642-.042 1.058 2.896.46 3.111.505 8.382-.13.833-.373 1.247-.147.4-.886 1.051-1.2.853-2.5.843-1.032-.004-1.658-.971-.194-.45-.157-.732-.027-.205.192-1.725.49-3.404 2.307-8.567.248-.746.935-1.931.312-.562.572-.493m31.413 17.094.041.014q.178.244.1.516-.05.304-.244.765-.499.74-2.003 2.11-2.363 2.028-4.054 3.166-2.06 1.43-2.872 1.417l-.308-.287-.102-.371.074-.452.235-.518q.588-1.004 1.901-2.175 2.159-1.767 3.534-2.535.772-.457 1.518-.813l.74-.33q.733-.305 1.44-.507M54.66 848.289l-.082.004 31.883 30.233q.138 1.478-16.92-11.315l23.69 23.278-17.968-10.913 23.044 20.703-20.919-7.03 22.91 14.738-21.448 1.473 20.982 3.203-13.87 5.167q11.16-.717 13.503-.274 1.683-.43-9.787 7.286.051.313 8.399-2.413.64.02-.49 1.499-1.218 1.272-10.42 7.366-8.839-9.706-36.59-26.105-16.418-8.88-35.687-15.262-46.801-10.6-77.04-5.598l46.174 4.78q-6.527 1.044-34.198 1.59l39.363 4.647q1.77.751-.766 1.086l-23.25 1.547 36.572 4.479-30.822 6.335 40.268.108q.036.45-5.21 3.898-10.998 7.065-21.372 13.306 32.982-12.594 30.96-11.38L2.314 932.447l18.264-12.002-8.236 23.566q12.202-18.802 12.401-16.915l-8.74 28.074 14.101-22.86-7.16 27.324 11.958-19.49q2.553-3.694 2.155-1.876-2.539 13.054-7.454 25.056-38.94 2.866-44.813 5.101-13.742 2.74-25.887 6.863-24.291 8.248-42.2 22.035l38.476-14.933-29.56 16.86 37.671-14.187-21.599 13.802 35.597-13.57-26.74 20.676 37.224-18.707-18.163 26.535 23.705-23.138-.62 4.103-5.854 18.51L-.104 993.57l.696 22.101 5.413-18.76 1.117 30.878 4.541-24.476q.605-2.516 1.695-3.98l1.984 27.16 5.733-26.438 2.425 26.87 3.661-21.432q.381-1.763.971-1.565l.23 29.857 7.212-32.43 1.346 21.881 3.75-19.59q.432-2.185.9-.77l1.24 31.071 6.295-33.424q.6-1.318.95.342l3.294 23.92 2.82-23.772 5.915 38.208 2.557-29.764 3.058 26.03 7.76-34.967.047 24.048 4.57-19.363 1.294 29.872 10.95-30.255q.372.562.235 2.603l-2.355 22.008q3.404-14.517 4.141-16.41 1.856-6.043 2.187-3.066.204 6.207-1.198 18.742l-15.837 10.965h70.393l.001-105.43-6.013 17 5.637-64.082-9.027 42.92q-1.201 4.642-1.473 4.146l-.669-82.508-4.766 51.474q-.378.83-1.729-1.905l-9.996-24.705 7.48 38.202q.108 1.24-.44.577-3.477-7.488-3.573-6.635l9.693 40.862q-15.917-42.967-20.39-49.175l-45.608-42.692q-10.57-8.319-14.353-9.424" style="fill:#025f6c;fill-opacity:1;stroke-linejoin:miter"/><path d="M214.723 1001.398q-.06 0-.16.08.1-.08.16-.08" style="fill:#fff;fill-opacity:1;stroke-linejoin:miter"/><path d="m172.729 933.451.05.003q.264.043.17.315-.184.47-.792 1.095-.771.807-2.51 1.993-1.75 1.112-3.081 1.756-.666.321-1.227.526-.56.204-1.017.291l-.43.058q-.808-.04-.6-.715.186-.337 1.375-1.18 1.919-1.247 4.767-2.735 1.643-.838 2.422-1.159.475-.212.873-.248m1.62 5.197h.008q.509.005.235.537-.258.57-1.734 2.11-3.007 2.93-4.21 3.148l-.17-.026q-.168-.04-.328-.13-.16-.092-.312-.234-.305-.284-.578-.775-.227-.555.298-1.113 1.258-1.144 3.368-2.22 2.44-1.262 3.424-1.297m1.337 4.875.09.025q.098.26-.745 1.245-.572.683-1.377 1.35-.142.127-.726.5-.226.134-.431.223-.646.26-.98.151-.057-.002-.222-.102-.059-.045-.097-.105-.076-.12-.069-.3.023-.143.166-.338.292-.36.546-.571.34-.313 1.366-.906l1.426-.757.3-.148.324-.146.272-.095zm3.79 3.496.058.002q.274.006.355.222.05.059-.106.526-.224.583-1.015 1.345-.452.407-.946.759-.878.598-1.299.796-1.151.577-1.701.523-.256-.028-.353-.236-.188-.5-.166-.75.045-.802.75-1.508.77-.735 1.917-1.171.526-.197 1.486-.407.49-.1 1.02-.1m.709 3.863h.008q.179-.002.223.016.297.102.392.16l.273.21.089.186.015.23-.054.264q-.163.398-.226.497-.166.286-.663.834-.292.304-.63.56-.936.725-1.519.8l-.266-.005-.215-.075-.16-.136-.105-.19-.043-.233.02-.267.086-.294.157-.31q.102-.272 1.597-1.65.256-.232.662-.48.217-.117.359-.117m6.07 3.686h.028q.098.01.117.037l.045.217q-.063.35-.245.643-.554.889-1.716 2.004-.747.71-1.598 1.215-.275.152-.569.242l-.055.014-.574.041-.36-.057-.238-.138-.123-.207-.01-.266q.043-.272.242-.589.105-.224.74-.859.86-.772 1.918-1.326.918-.478 1.388-.67.86-.334 1.01-.301m1.51 4.408h.023q.281.014.2.689-.293 1.096-.791 1.954-.442.772-.973 1.207-.328.292-.773.29-.062.009-.303-.108-.092-.056-.171-.139-.154-.148-.28-.47-.037-.138.011-.343.044-.16.243-.556.228-.4.523-.776.537-.65.838-.903.896-.827 1.452-.845m-71.652-9.32h.006q.544.141.47.67-.079.764-.542 2.193-1.967 6.133-4.922 13.167-.471 1.062-1.153 2.522-.839 1.666-1.31 2.181-.671.29-1.827.25-.989-.054-1.13-.62l-.055-.345q-.014-.386.134-.938.149-.553.46-1.272 1.037-2.481 7.161-13.524 2.056-3.781 2.708-4.283m8.04.56.034.003q.305-.14.217 1.298-.095.912-.436 2.111l-1.205 4.08q-2.881 8.494-3.403 9.705-1.208 3.046-2.035 4.13-.404.295-2.004.177-2.373-.429-2.543-.816-.53-.424-.24-1.124l.71-1.34 8.98-15.768q1.54-2.398 1.925-2.457m4.843 4.6.03.228q.09.481-.303 2.197-.158.939-1.734 6.217-1.48 4.764-2.814 7.492-.663 1.088-.962 1.42-.38.339-.68.41-1.353.343-2.684-.707-.018-.292.178-.916.677-1.85 1.069-2.619.956-2.09 3.077-6.122.728-1.4 3.2-5.611l1.04-1.472.514-.503zm66.361 17.341h.02q.144-.007.32.083.15.116.178.289.052.388-.297.912-.214.376-.746.761-.163.111-.291.163-.14.048-.35.094-.046.01-.17.012-.536-.015-.748-.303-.221-.336.042-.752.303-.47.948-.868.362-.2.645-.309.263-.078.45-.082m-58.478-16.345.136.035q.45.158.457.846-.079 1.61-.485 3.598-1.786 8.446-3.468 13.334-.247.655-.57 1.192-1.581.314-2.994-.07-1.374-.286-2.102-.895-.129-.097-.233-.541-.02-.063.086-.355.702-1.9 5.816-11.699 2.993-5.469 3.357-5.445m5.637 4.902h.019q.251.1.337.72.03.17-.111 1.452-.313 2.594-1.348 7.459-.433 2.06-1.398 5.655-.61 1.111-.93 1.005-.59.142-3.48-1.68.243-1 1.277-3.698 1.403-3.515 3.042-7.114.624-1.353 1.206-2.253.448-.803 1.386-1.546m5.247 12.344.005.001q.141-.057.275.304.077.076.056.618-.007.951-.465 2.49-.14.454-.302.83-.115.304-.433.819-.166.254-.56.565-.104.057-.303.074-.21-.002-.32-.183-.088-.137-.11-.482-.02-.338.046-.606l.108-.555.143-.49q.509-1.587.832-2.171.44-.765.58-.917.23-.262.448-.297m12.48-2.744h.012q.233.054.206.649-.062.533-.46 1.808-2.16 5.743-2.764 7.048-.445 1.128-1.097 1.972-.58.794-1.188.758-.793-.02-1.48-.761-.235-.691.302-1.762.72-1.604 4.429-7.538.522-.793 1.335-1.686.433-.435.705-.488m3.469 4.507.043.005q.176.045.403.443.097.17.056.405-.3 1.797-1.61 5.156-.73 1.818-1.494 3.022-.686.925-1.226.728-.531-.067-1.01-.548-.058-.112-.087-.247-.032-.053-.022-.453.028-.335.172-.76.733-1.688.843-1.856 1.519-2.852 2.345-4.221 1.047-1.65 1.587-1.674m38.685 9.283q.145.005.18.048.047.044.034.13-.066.284-.359.52-.325.239-.586.33-.14.052-.286.084t-.295.043l-.151.005h-.046l-.098-.017-.063-.033-.03-.047q-.011-.058.032-.124.092-.124.185-.193.096-.081.28-.197l.194-.113q.065-.046.237-.15.031-.02.22-.117.178-.084.273-.112.144-.05.278-.057m-27.895-2.412.058.004q.084.009.137.059.105.159.088.24.012.22-.102.601-.299.953-1.507 3.01-1.419 2.324-2.234 3.168-.27.306-.66.571-.153.037-.406.023-1.684-.152-.822-1.857.439-.795 1.61-2.304.67-.849 1.801-2.062.525-.56 1.277-1.145.35-.26.76-.308m2.856 4.297h.005q.42.027.268.976-.123 1.187-.803 2.946-.92 2.04-1.893 2.083-.115 0-.225-.03-.275-.156-.371-.253-.137-.13-.234-.3l-.131-.367-.013-.372.067-.427.14-.468q.407-.926.559-1.158.395-.657.893-1.237.95-1.028 1.738-1.393m6.41 4.436h.017l.07.015q.066.028.115.108t.08.211q.063.263.057.733-.041 1.025-.108 1.53-.121.692-.25 1.119-.318.98-.719 1.386l-.206.182-.413.17-.368.038-.317-.08-.262-.182-.204-.269-.14-.342-.074-.4-.002-.442.073-.47.152-.485q.132-.28.28-.565l.442-.57q.604-.745 1.023-1.16l.372-.335q.162-.125.278-.17zm13.1 35.542.006.001q.148 0 .261.102.149.15.176.21.057.09.112.205.051.115.094.246.101.343.111.432.061.295.092.72-.005.275-.065.462-.047.146-.214.384-.174.251-.536.269-.175.006-.503-.12l-.117-.08-.094-.1q-.124-.212-.13-.284-.028-.157-.031-.359-.002-.355.062-.72.128-.625.207-.769.144-.307.176-.332.061-.089.125-.148.128-.119.268-.119m-5.904-3.483.08.007q.242-.02 1.078.732.215.177.978 1.21.721 1.004 1.166 1.816.155.233.513 1.11.119.335.169.622l.017.363-.05.333-.115.303q-.102.23-.43.517-1.372.89-2.765.781-.06.05-.64-.202l-.329-.243-.278-.332-.229-.427-.18-.522-.133-.62-.1-.86q-.12-2.581.23-3.652.327-1.026 1.018-.936m-6.137-1.964.037.001q.136.023.182.082.237.293.482.816.262.803.828 3.075.171.67.416 2.237.164 1.387.093 2.165-.106 1.269-.69 1.883-.357.332-.52.369-1.043.3-1.526.273-.247-.018-.53-.153l-.251-.226-.184-.343-.118-.472-.016-.272q-.056-1.062-.008-1.729.37-3.918.8-5.854.288-1.163.47-1.363.155-.282.32-.452.125-.038.215-.037m-6.903-2.238h.005q.642-.042 1.059 2.895.459 3.112.504 8.383-.129.832-.373 1.247-.147.4-.886 1.05-1.2.854-2.499.844-1.033-.005-1.659-.972-.194-.45-.157-.732-.026-.204.192-1.725.49-3.404 2.307-8.566.249-.746.936-1.932.312-.56.571-.492m31.414 17.094.04.014q.179.244.1.516-.05.304-.244.764-.498.74-2.003 2.11-2.362 2.029-4.054 3.167-2.059 1.43-2.871 1.416l-.308-.287-.103-.37.074-.452.235-.518q.589-1.004 1.901-2.175 2.159-1.767 3.534-2.535.772-.458 1.519-.813l.74-.33q.733-.305 1.44-.507M128.72 854.38l-.083.005 31.884 30.232q.137 1.479-16.92-11.314l23.689 23.278-17.968-10.913 23.044 20.703-20.918-7.03 22.909 14.738-21.448 1.473 20.982 3.203-13.869 5.166q11.16-.716 13.503-.274 1.682-.429-9.788 7.287.052.313 8.4-2.414.64.022-.491 1.5-1.217 1.272-10.42 7.365-8.838-9.705-36.59-26.104-16.417-8.88-35.687-15.262-46.8-10.6-77.04-5.598l46.175 4.78q-6.528 1.044-34.198 1.59l39.363 4.646q1.769.752-.767 1.087l-23.249 1.547 36.572 4.478-30.822 6.336 40.267.108q.037.45-5.21 3.897-10.997 7.065-21.371 13.307 32.981-12.594 30.96-11.38l-13.256 17.722 18.264-12.001-8.236 23.566q12.202-18.802 12.402-16.915l-8.741 28.075 14.102-22.862-7.161 27.325 11.959-19.49q2.553-3.694 2.155-1.876-2.54 13.054-7.454 25.057-38.94 2.865-44.814 5.1-13.741 2.739-25.887 6.863-24.29 8.248-42.199 22.035l38.475-14.933-29.559 16.86 37.67-14.187-21.598 13.802 35.597-13.57-26.74 20.675 37.224-18.706-18.164 26.535 23.705-23.138-.62 4.103-5.853 18.51 13.056-19.705.695 22.1 5.414-18.76 1.116 30.88 4.541-24.477q.605-2.516 1.695-3.981l1.984 27.161 5.734-26.438 2.425 26.87 3.66-21.433q.382-1.762.971-1.564l.23 29.857 7.213-32.43 1.345 21.881 3.75-19.59q.432-2.185.9-.77l1.24 31.071 6.296-33.424q.599-1.318.95.342l3.294 23.92 2.819-23.772 5.915 38.208 2.557-29.763 3.058 26.028 7.761-34.966.046 24.048 4.57-19.363 1.294 29.872 10.95-30.255q.372.562.236 2.603l-2.356 22.007q3.405-14.516 4.142-16.41 1.855-6.043 2.186-3.066.205 6.208-1.198 18.743l-15.836 10.965h70.393v-105.43l-6.013 17 5.637-64.082-9.026 42.92q-1.202 4.642-1.473 4.146l-.67-82.509-4.766 51.475q-.378.83-1.728-1.905l-9.997-24.705 7.481 38.202q.107 1.24-.441.577-3.476-7.488-3.573-6.635l9.694 40.862q-15.918-42.967-20.39-49.175l-45.609-42.692q-10.57-8.319-14.352-9.425m416.26 74.609-.051.002q-.263.044-.17.315.185.47.792 1.095.772.808 2.51 1.994 1.75 1.112 3.082 1.755.666.322 1.226.526.561.205 1.017.292l.43.058q.809-.04.601-.715-.187-.338-1.376-1.181-1.918-1.246-4.767-2.734-1.643-.839-2.422-1.16-.474-.211-.872-.247m-1.621 5.196-.008.001q-.508.004-.234.536.258.571 1.734 2.11 3.007 2.93 4.21 3.149l.17-.027q.167-.04.327-.13t.313-.233q.304-.285.578-.775.227-.555-.298-1.113-1.259-1.145-3.369-2.22-2.439-1.263-3.423-1.298m-1.337 4.876-.09.025q-.098.26.745 1.245.571.682 1.377 1.349.142.128.726.501.226.134.431.223.646.259.98.15.057-.001.222-.101.058-.045.096-.105.076-.12.07-.301-.024-.142-.167-.338-.292-.36-.545-.57-.341-.314-1.367-.907l-1.425-.756-.3-.148-.324-.146-.272-.096zm-3.791 3.496-.058.002q-.273.005-.355.221-.05.06.106.527.224.583 1.016 1.345.452.406.945.759.879.597 1.3.796 1.151.576 1.7.523.256-.028.354-.236.188-.5.166-.75-.046-.802-.75-1.509-.77-.734-1.917-1.17-.526-.198-1.486-.408-.49-.1-1.021-.1m-.708 3.864h-.009q-.178-.002-.223.016-.296.102-.391.16l-.274.21-.088.186-.015.23.054.263q.163.398.226.497.165.286.662.835.293.304.63.56.937.725 1.52.8l.265-.005.215-.075.161-.137.105-.189.043-.233-.02-.268-.086-.293-.157-.311q-.102-.271-1.597-1.649-.256-.233-.663-.48-.217-.117-.358-.117m-6.07 3.685-.028.001q-.099.01-.118.036l-.044.218q.063.35.245.643.554.889 1.716 2.004.746.71 1.598 1.215.275.151.568.241l.056.014.574.042.36-.058.238-.137.123-.207.01-.266q-.043-.273-.242-.589-.106-.225-.74-.859-.86-.773-1.918-1.326-.918-.478-1.388-.67-.86-.334-1.01-.302m-1.51 4.408-.023.001q-.282.013-.2.688.292 1.097.79 1.954.443.773.974 1.208.328.292.772.29.063.009.303-.108.092-.056.172-.14.154-.148.28-.469.037-.138-.012-.343-.043-.16-.243-.557-.228-.4-.522-.775-.538-.65-.839-.903-.896-.827-1.452-.846m71.653-9.319h-.007q-.544.14-.468.67.077.764.54 2.193 1.967 6.133 4.922 13.167.472 1.06 1.154 2.521.838 1.666 1.309 2.182.672.29 1.828.249.988-.053 1.13-.62l.054-.345q.015-.385-.134-.938-.148-.553-.46-1.272-1.037-2.48-7.16-13.524-2.056-3.78-2.708-4.283m-8.04.56-.034.004q-.305-.14-.217 1.297.095.913.435 2.112l1.205 4.08q2.881 8.493 3.404 9.705 1.207 3.046 2.034 4.129.404.296 2.004.178 2.373-.43 2.543-.817.53-.423.24-1.124l-.71-1.34-8.979-15.768q-1.54-2.398-1.926-2.456m-4.843 4.6-.03.228q-.09.481.303 2.196.159.94 1.734 6.217 1.48 4.765 2.814 7.492.664 1.088.963 1.42.38.34.68.41 1.353.343 2.684-.707.018-.292-.179-.915-.677-1.85-1.069-2.619-.955-2.09-3.076-6.122-.728-1.4-3.2-5.612l-1.04-1.47-.515-.504zm-66.362 17.342h-.02q-.143-.007-.32.083-.15.116-.178.289-.052.388.297.912.214.375.747.76.163.112.291.163.14.048.35.095.046.01.17.012.536-.015.747-.304.222-.335-.041-.751-.303-.471-.949-.87-.361-.198-.644-.307-.263-.079-.45-.082m58.477-16.345-.135.034q-.45.159-.457.847.079 1.61.485 3.597 1.786 8.446 3.467 13.335.247.654.571 1.192 1.58.314 2.994-.07 1.374-.286 2.102-.895.128-.098.232-.541.02-.063-.086-.355-.702-1.9-5.815-11.7-2.993-5.468-3.358-5.444m-5.637 4.902h-.018q-.252.1-.338.72-.03.169.112 1.451.313 2.594 1.347 7.459.434 2.06 1.398 5.656.61 1.11.931 1.004.59.142 3.48-1.679-.244-1-1.278-3.698-1.403-3.516-3.042-7.115-.624-1.352-1.205-2.253-.448-.802-1.387-1.545m-5.247 12.344h-.004q-.141-.057-.275.305-.078.076-.056.618.007.95.464 2.49.141.453.302.83.115.303.434.819.165.253.56.565.103.056.302.074.21-.003.32-.184.089-.136.11-.481.02-.338-.046-.606l-.108-.555-.143-.49q-.508-1.587-.831-2.172-.44-.764-.581-.916-.23-.262-.448-.297m-12.48-2.744h-.012q-.233.054-.206.649.063.533.46 1.808 2.161 5.742 2.764 7.047.445 1.128 1.098 1.972.58.795 1.188.759.792-.02 1.48-.762.234-.69-.302-1.762-.72-1.603-4.43-7.538-.521-.792-1.335-1.686-.433-.435-.704-.487m-3.469 4.507-.043.005q-.176.045-.404.443-.097.17-.055.404.3 1.798 1.61 5.156.73 1.818 1.493 3.022.686.926 1.227.729.531-.068 1.01-.548.058-.113.086-.247.033-.054.023-.453-.029-.336-.172-.76-.734-1.689-.843-1.856-1.52-2.852-2.345-4.222-1.048-1.65-1.587-1.673m-38.685 9.283h-.002q-.145.004-.18.048-.046.044-.034.129.066.285.36.52.325.24.585.33.141.053.286.085.146.032.296.043l.151.005h.046l.097-.018.064-.032.03-.047q.011-.058-.032-.124-.092-.124-.185-.193-.097-.082-.28-.197l-.194-.113q-.066-.046-.237-.15-.032-.02-.22-.118-.179-.083-.274-.112-.144-.048-.277-.056m27.895-2.413-.058.004q-.084.01-.137.06-.105.159-.088.239-.012.22.101.602.3.953 1.508 3.01 1.418 2.324 2.233 3.168.27.305.66.571.153.036.407.023 1.684-.152.821-1.858-.438-.795-1.609-2.303-.67-.85-1.802-2.062-.524-.56-1.277-1.145-.349-.26-.76-.309m-2.856 4.298h-.004q-.421.027-.268.975.122 1.188.802 2.946.92 2.04 1.894 2.084.114-.001.224-.032.275-.154.372-.252.137-.13.233-.3l.132-.366.013-.373-.068-.426-.14-.468q-.406-.926-.558-1.159-.395-.657-.894-1.237-.95-1.028-1.738-1.392m-6.41 4.436h-.016l-.07.015q-.067.028-.115.108-.049.08-.08.21-.063.264-.057.734.04 1.024.108 1.53.12.691.25 1.118.317.98.719 1.386l.205.182.414.17.367.038.317-.079.263-.182.203-.27.14-.341.074-.4.003-.443-.073-.47-.153-.484q-.131-.28-.28-.566l-.441-.57q-.605-.745-1.023-1.16l-.372-.334q-.163-.125-.279-.169zm-13.1 35.542h-.006q-.148 0-.262.103-.148.15-.175.21-.057.09-.112.205-.051.115-.095.246-.1.343-.11.43-.062.296-.093.722.006.274.066.462.046.145.214.383.174.252.536.27.175.005.503-.12l.117-.08.093-.101q.125-.212.131-.283.028-.158.031-.359.002-.356-.062-.72-.128-.626-.207-.769-.144-.307-.176-.333-.062-.089-.125-.148-.128-.118-.268-.118m5.904-3.483-.08.007q-.243-.02-1.079.732-.214.177-.977 1.21-.721 1.003-1.166 1.815-.155.233-.513 1.111-.119.334-.169.621l-.017.363.05.334.115.303q.102.23.43.517 1.372.89 2.765.781.06.05.64-.203l.328-.242.279-.333.228-.426.18-.522.134-.62.1-.86q.12-2.581-.23-3.652-.327-1.026-1.018-.936m6.137-1.964-.037.001q-.136.023-.183.082-.236.293-.481.816-.263.803-.828 3.074-.171.67-.417 2.237-.163 1.388-.093 2.165.107 1.27.691 1.883.357.333.52.37 1.043.3 1.525.272.247-.018.53-.152l.252-.226.183-.343.119-.472.016-.272q.056-1.062.008-1.73-.37-3.917-.8-5.854-.289-1.162-.47-1.363-.156-.282-.32-.451-.126-.038-.215-.037m6.903-2.239h-.005q-.643-.042-1.059 2.896-.46 3.111-.505 8.383.13.832.374 1.247.147.4.885 1.05 1.2.854 2.5.843 1.032-.004 1.659-.97.193-.451.157-.734.026-.204-.193-1.725-.49-3.403-2.307-8.566-.248-.746-.935-1.931-.312-.561-.571-.493m-31.414 17.094-.041.014q-.178.244-.1.516.05.304.244.765.5.74 2.003 2.11 2.363 2.028 4.055 3.167 2.059 1.43 2.871 1.416l.308-.287.103-.371-.074-.451-.235-.518q-.589-1.005-1.902-2.176-2.158-1.767-3.533-2.534-.773-.458-1.519-.814l-.74-.33q-.733-.305-1.44-.507m80.62-180.996.082.004-31.883 30.233q-.138 1.479 16.92-11.315l-23.69 23.278 17.968-10.913-23.043 20.703 20.918-7.03-22.909 14.738 21.447 1.474-20.981 3.203 13.868 5.166q-11.158-.717-13.502-.274-1.683-.43 9.787 7.287-.051.313-8.398-2.414-.64.021.49 1.5 1.217 1.271 10.42 7.365 8.838-9.705 36.589-26.104 16.418-8.88 35.687-15.263 46.8-10.6 77.04-5.598l-46.174 4.78q6.527 1.045 34.197 1.591l-39.362 4.646q-1.77.752.766 1.086l23.25 1.548-36.572 4.478 30.821 6.336-40.267.108q-.036.45 5.21 3.897 10.998 7.065 21.372 13.306-32.982-12.594-30.96-11.38l13.255 17.723-18.264-12.001 8.236 23.565q-12.202-18.802-12.401-16.915l8.74 28.075-14.1-22.861 7.16 27.325-11.96-19.49q-2.552-3.695-2.154-1.877 2.54 13.055 7.454 25.057 38.94 2.866 44.813 5.1 13.741 2.74 25.887 6.863 24.29 8.248 42.199 22.036l-38.475-14.934 29.559 16.86-37.67-14.186 21.599 13.802-35.597-13.571 26.74 20.676-37.224-18.706 18.163 26.534-23.705-23.138.62 4.104 5.854 18.51-13.057-19.705-.695 22.1-5.413-18.76-1.117 30.878-4.541-24.475q-.605-2.517-1.695-3.981l-1.983 27.16-5.734-26.438-2.425 26.87-3.661-21.432q-.381-1.763-.97-1.565l-.231 29.858-7.212-32.431-1.346 21.882-3.75-19.59q-.432-2.186-.9-.77l-1.24 31.07-6.295-33.424q-.6-1.318-.95.343l-3.294 23.92-2.82-23.772-5.915 38.208-2.556-29.764-3.059 26.029-7.76-34.967-.046 24.049-4.57-19.363-1.294 29.871-10.951-30.255q-.371.563-.235 2.604l2.356 22.007q-3.405-14.516-4.142-16.41-1.855-6.043-2.186-3.066-.205 6.208 1.197 18.743l15.837 10.965h-70.393l-.001-105.431 6.013 17-5.636-64.081 9.026 42.919q1.201 4.643 1.473 4.146l.67-82.508 4.765 51.474q.379.83 1.729-1.904l9.997-24.705-7.481 38.202q-.108 1.24.44.576 3.477-7.487 3.573-6.634l-9.693 40.861q15.917-42.966 20.39-49.175l45.608-42.691q10.57-8.32 14.353-9.425" style="fill:#025f6c;fill-opacity:1;stroke-linejoin:miter"/><path d="M301.108 571.066h124.433v177.896H301.11z" style="fill:#fff;fill-opacity:1;stroke-linejoin:miter"/><path d="M249.117 913.893h126.497l126.496.001v38.077H249.117z" style="fill:#000;fill-opacity:.99607843;stroke-linejoin:miter"/><path d="m426.16 747.319 62.377 146.35 62.376 146.35-344.706 1.48 96.697-292.587z" style="fill:#3c464f;fill-opacity:1;stroke-linejoin:miter"/><path d="m232.516 951.21-9.914 34.018 306.4-.002-13.586-33.99-.01-.025h-282.89m-30.724 59.419v34.016H562.52v-34.015zm48.199-119.405-9.91 34.017 264.942-.001-.203-.507-2.705-6.767q-.005-2.036-.005-4.073l-1.624.001-9.032-22.59-.03-.079h-241.43Zm17.478-59.985-9.911 34.017 223.477-.001-13.595-34.015H267.471Zm17.477-59.985-9.91 34.017 182.02-.001-13.6-34.015H284.95Z" style="fill:#535d66;fill-opacity:1;stroke-linejoin:miter"/><path d="M-15.604 650.693a31.2 31.2 0 0 1-1.058-8.555c.26-17.18 14.448-30.944 31.629-30.684a31.2 31.2 0 0 1 19.553 7.285 31.3 31.3 0 0 1 10.033 15.656c11.512-.9 21.795 6.551 24.882 17.248a23.8 23.8 0 0 1 5.321-.516c13.222.2 23.817 11.042 23.618 24.263-.201 13.224-11.12 23.74-24.341 23.54l-83.716-1.266c-13.222-.2-23.816-11.043-23.616-24.264.164-10.818 7.463-19.954 17.695-22.707m741.348-82.361a31.2 31.2 0 0 0 1.058-8.555c-.26-17.18-14.448-30.945-31.629-30.684a31.2 31.2 0 0 0-19.553 7.284 31.33 31.33 0 0 0-10.032 15.657c-11.513-.9-21.796 6.551-24.883 17.248a23.8 23.8 0 0 0-5.321-.516c-13.222.2-23.817 11.041-23.617 24.263.2 13.224 11.119 23.74 24.34 23.54l83.716-1.266c13.222-.2 23.816-11.043 23.616-24.265-.164-10.817-7.463-19.953-17.695-22.706M143.413 497.52c.396-1.477.585-3.001.562-4.545-.139-9.128-7.677-16.441-16.805-16.303a16.58 16.58 0 0 0-10.388 3.87 16.64 16.64 0 0 0-5.33 8.32c-6.118-.48-11.581 3.48-13.221 9.163a12.7 12.7 0 0 0-2.827-.274c-7.025.106-12.654 5.866-12.548 12.891s5.907 12.613 12.932 12.507l44.479-.673c7.025-.106 12.654-5.867 12.547-12.892-.087-5.747-3.965-10.601-9.401-12.064" style="fill:#d7edf9;fill-opacity:1;stroke-linejoin:miter"/></svg>