<svg xmlns="http://www.w3.org/2000/svg" width="1920" height="1300" viewBox="-600 63 1920 1300"><path d="M-600.001 61.666a1.333 1.333 0 0 0-1.333 1.333V1363c0 .736.598 1.333 1.334 1.333l1920.001.001a1.333 1.333 0 0 0 1.333-1.333V63c0-.736-.598-1.333-1.334-1.333z" style="fill:teal;fill-opacity:1;stroke-linejoin:miter"/><path d="m7.86 531.269 1311.66-303.112-1.087 1004.656-1348.89-538.987z" style="fill:#fccf5b;fill-opacity:.22745098;stroke-linejoin:miter"/><path d="M-121.65 711.088c-7.904-70.665-99.623-106.068-50.613-201.215 33.054-64.125 167.847-84.686 197.72 27.837 22.984 86.546-44.821 98.707-54.793 174.837z" style="fill:#fccf5b;fill-opacity:1;stroke-linejoin:miter"/><path d="M-29.84 754.911s14.054-11.692.356-19.425c0 0 16.108-13.574.148-22.939l-21.632-.337c2.59-24.628 6.383-49.195 8.92-73.771 1.563-15.233 2.844-30.514 4.275-45.759 1.436-15.05 4.086-30.417 3.025-45.54-.556-7.962-.64-18.473-8.172-23.162-5.117-3.178-9.708 2.737-11.89 6.534-3.028 5.263-4.827 11.353-6.392 17.365-2.138-9.467-6.076-16.51-13.259-14.856-8.752 1.999-12.697 20.171-14.498 26.995-.154.576-.299 1.172-.468 1.766-.735-3.645-1.622-7.271-2.756-10.855-2.567-8.077-4.847-18.985-13.445-22.43-13.2-5.292-17.296 26.522-17.827 33.067-2.447 30.562 3.613 62.643 9.34 92.5 2.89 15.055 5.642 30.178 8.441 45.247.58 3.151.946 7.595 1.672 12.053l-17.648-.276s-17.28 7.117-1.367 23.187c0 0-16.314 8.025-1.01 20.282 0 0-14.709 9.548 1.607 18.438l18.22 1.047 14.189 16.784 23.927 1.303 15.266-15.968 17.877-.72s20.221-9.229 3.1-20.53m-66.462-43.417c-1.114-4.468-1.551-9.388-2.352-13.698-2.04-11.027-4.664-21.915-6.561-32.967-4.205-24.531-9.066-48.87-10.4-73.8-.922-17.28-2.187-34.483 4.425-50.844 3.57-8.845 8.544 2.744 9.846 6.24 2.077 5.621 3.81 11.187 5.103 17.023 1.497 6.749 2.252 13.64 3.104 20.517-.037 3.78.405 7.448 1.554 10.837a.3.3 0 0 1 .019.098c.009 0 .009-.002.022-.002.091.298.184.593.297.88 1.526 3.944 7.392 1.445 6.714-2.402-.739-4.099-1.313-8.223-1.878-12.344.447-12.253 5.84-26.982 10.262-35.602 5.383-10.495 8.383 12.882 8.796 16.079.349 2.622.605 5.35.81 8.1-.969 5.774-1.175 11.587.624 16.354 1.325 3.483 6.607 1.896 6.788-1.437.123-2.171.283-6.043.264-10.727.228-.924.423-1.866.488-2.836.375-6.163 1.642-11.898 3.235-17.825 1.407-5.215 2.919-10.391 4.857-15.426 2.727-7.055 6.56-4.473 7.327 2.254.697 6.178 1.454 12.07 1.266 18.313-.332 11.266-2.066 22.79-3.249 34.007-2.477 23.39-4.645 46.842-6.634 70.285-1.39 16.577-4.156 33.006-6.264 49.527z" style="fill:#231f20;fill-opacity:1;stroke-linejoin:miter"/><path d="M-168.577 561.233c3.379-7.523 4.732-15.691 7.588-23.42 2.14-5.805 5.084-10.978 8.329-16.22 3.46-5.585 6.96-11.5 10.73-16.839 1.297-1.833-.037-4.356-2.405-3.719-7.532 2.05-12.13 6.309-16.36 12.839-3.453 5.34-6.553 10.802-8.903 16.714-3.663 9.249-5.902 19.209-5.89 29.166 0 3.587 5.435 4.75 6.91 1.48Zm43.538-75.122a.8.8 0 0 1-.18-.161q.411.49.83.984c-1.215-1.607-2.998-3.34-5.253-2.934.84.18 1.693.366 2.535.544a3 3 0 0 1-.147-.064c-1.58-.722-3.328-.737-4.82.228-1.408.917-2.329 2.608-2.182 4.308q.006.072.008.152c.183-.848.36-1.699.543-2.544-.974 1.768-.703 3.96.43 5.575 1.203 1.722 3.128 2.585 5.189 2.496 1.71-.068 3.309-1.144 4.098-2.648.956-1.836.69-4.605-1.05-5.936ZM-7.43 630.751c3.826 1.66 6.959-2.95 8.687-5.634 2.681-4.152 4.939-8.648 7.325-12.973 2.059-3.738 4.352-7.707 5.397-11.867.77-3.012.747-8.971-2.982-10.191-3.01-.992-5.583 3.531-6.657 5.595-2.197 4.203-3.875 8.638-6.142 12.832-2.165 4.013-4.204 8.09-6.062 12.255-1.315 2.934-3.771 8.163.435 9.983v.002Z" style="fill:#fde29d;fill-opacity:1;stroke-linejoin:miter"/><path d="M46.838 482.054c4.892-2.326 10.073-6.463 14.091-10.062 7.143-6.384 12.714-13.953 17.58-22.076 1.196-2.007-.866-5.274-3.301-4.24-9.67 4.113-16.847 8.899-23.534 17.184-3.66 4.55-11.893 8.814-10.918 15.755.437 3.132 3.1 4.845 6.082 3.439m-232.257-1.46c-.389-8.133-7.327-13.999-12.127-19.975-2.415-3.017-5.136-5.788-7.626-8.73-2.762-3.253-5.138-6.769-8.451-9.468-2.411-1.963-7.268-1.724-7.83 2.12-1.331 8.986 5.16 15.348 10.908 21.362 5.978 6.252 11.927 13.78 19.66 17.876 2.333 1.23 5.615-.313 5.466-3.185m5.535-79.537c-1.18 8.26 3.418 16.095 7.088 23.208 4.253 8.255 9.622 15.077 15.988 21.77 1.636 1.72 4.75.395 4.658-1.963-.314-8.721-3.13-16.07-7.34-23.622-3.855-6.909-7.328-15.75-12.87-21.436-2.164-2.224-7.036-1.385-7.524 2.043M-24.7 434.832c2.454-2.33 3.968-6.228 5.382-9.245a175 175 0 0 0 5.702-13.646c1.867-5.07 3.815-10.11 5.416-15.276 1.562-5.046 3.928-10.635 3.426-16.012-.139-1.455-1.552-2.384-2.906-1.645-4.365 2.4-7.791 7.462-10.081 11.778-3.07 5.83-5.742 11.68-7.819 17.947-2.146 6.472-8.822 20.364-2.288 26.118.946.822 2.246.853 3.168-.02zm41.123 16.45c-1.186 1.216.978-1.075 1.01-1.163.178-.43.402-.82.64-1.22.834-1.333 1.659-2.655 2.57-4.033 2.412-3.675 5.07-7.192 7.732-10.689 5.163-6.756 11.2-13.255 14.1-20.997 1.528-4.066-3.453-6.448-6.58-4.985-8.198 3.826-14.57 13.147-19.558 20.868-2.635 4.092-12.234 19.316-3.972 22.772 1.408.585 2.908.625 4.058-.553m-82.586-29.188c2.828-2.553 3.433-7.39 4.43-10.895 1.63-5.791 2.086-11.96 2.713-17.93.662-6.269.447-12.642-.055-18.915-.412-5.437-1.183-11.619-4.476-16.125-.938-1.292-2.583-1.292-3.516.024-3.255 4.652-3.473 10.692-3.857 16.185-.438 6.276-.35 12.62-.555 18.914-.2 6.098-.68 12.174-.9 18.275-.145 3.806.072 8.484 3.444 10.845.873.606 2.054.27 2.772-.378m-45.718 6.842c-.018.165-.05.328-.068.497-.126 1.035 1.193 1.205 1.804.73 5.912-4.664.771-17.194-.762-22.839-2.18-7.995-4.41-19.892-11.33-25.257-1.5-1.155-3.84-.896-4.386 1.199-2.38 9.173.202 18.889 3.252 27.585 1.812 5.132 5.393 19.715 12.481 19.624-.005-.703 0-1.403-.007-2.095-.173.023-.337.05-.494.072-.298.04-.45.19-.49.484" style="fill:#fccf5b;fill-opacity:1;stroke-linejoin:miter"/><path d="m7.622 827.754 2.147 1.993q17.486 15.893 17.668 25.305 1.055 10.444-6.676 27.113 6.058 26.108 1.934 40.93-3.081 9.367-10.572 16.5-4.53 5.186-23.11 17.803-8.7 13.597-14.176 17.91-6.383 5.178-10.728 6.64-23.244 8.324-63.071-5.974-41.048-13.427-126.576-52.724l2.232-127.326 62.732.09 27.41-29.59q47.423 12.568 63.065 11.647 8.086-.226 14.412-2.012 28.152-10.073 27.205-8.972 11.8-2.086 16.708-1.03Q1.987 767.16 6.85 780.773q4.16 9.299.772 46.981" style="fill:#ffb185;fill-opacity:1;stroke-linejoin:miter"/><path d="M-273.192 796.07h42.835l42.836.001v163.474l-85.672.001z" style="fill:#fff;fill-opacity:1;stroke-linejoin:miter"/><path d="M831.562 426.955q-3.425-.325-6.942-.495l-.504-.024q-24.651-1.186-46.598 4.313-21.924 4.997-39.107 16.272-16.68 11.3-27.11 28.95-9.927 17.676-11.089 41.825l77.563 22.893q.629-13.08 11.15-22.155 10.522-9.074 25.615-8.348.974.047 1.93.138 11.87 1.127 20.825 9.026 9.195 8.006 8.566 21.086-.436 9.056-8.418 17.748-7.48 8.717-28.735 20.805-10.353 5.553-19.292 13.19-8.413 7.16-15.486 17.913-6.545 10.274-10.744 24.191-4.2 13.917-5.096 32.532l-.726 15.093 69.426 3.34q.267-5.534 1.012-10.54 1.466-9.51 4.75-14.9 9.207-13.171 19.704-21.743t20.923-15.633q10.4-6.56 20.298-13.143 9.874-6.08 17.88-15.276 7.503-9.22 12.685-22.585 5.157-12.863 6.15-33.49 1.162-24.148-6.447-44.18-7.129-19.505-21.544-34.318-13.936-14.285-33.673-23.303-16.882-7.274-36.966-9.182m-6.999 304.577-68.923-3.316-3.34 69.426 68.922 3.317z" style="fill:#000;fill-opacity:1;stroke-linejoin:miter"/><path d="m705.331 831.033-2.147 1.993q-17.486 15.892-17.668 25.304-1.054 10.444 6.677 27.113-6.059 26.109-1.935 40.93 3.082 9.367 10.573 16.5 4.53 5.187 23.11 17.804 8.699 13.596 14.175 17.91 6.383 5.177 10.729 6.64 23.244 8.323 63.07-5.974 41.049-13.428 126.577-52.725l-2.233-127.326-62.731.091-27.411-29.59q-47.423 12.568-63.065 11.646-8.085-.226-14.412-2.012-28.152-10.072-27.204-8.972-11.801-2.085-16.709-1.03-13.761 1.103-18.624 14.716-4.16 9.3-.772 46.982" style="fill:#ffb185;fill-opacity:1;stroke-linejoin:miter"/><path d="M986.146 799.349h-85.672v163.474l85.672.001z" style="fill:#fff;fill-opacity:1;stroke-linejoin:miter"/><path d="M1325.387 782.85h-183.225l-183.226.001v217.673h366.45zm-1929.889-5.262h366.45v217.674h-366.45z" style="fill:#000;fill-opacity:1;stroke-linejoin:miter"/></svg>