<svg xmlns="http://www.w3.org/2000/svg" width="708.604" height="835.208" style="font-family:Arial" viewBox="0 0 375 442"><defs><linearGradient id="a" x1="0%" x2="100%" y1="0%" y2="0%"><stop offset="0%" stop-color="#ffc839"/><stop offset="100%" stop-color="#ffe154"/></linearGradient><linearGradient id="b" x1="0%" x2="100%" y1="0%" y2="0%"><stop offset="0%" stop-color="#ffb93e"/><stop offset="100%" stop-color="#ffd258"/></linearGradient><linearGradient id="c" x1="0%" x2="100%" y1="0%" y2="0%"><stop offset="0%" stop-color="#ffab46"/><stop offset="100%" stop-color="#ffc45e"/></linearGradient><linearGradient id="d" x1="0%" x2="100%" y1="0%" y2="0%"><stop offset="0%" stop-color="#ff9c51"/><stop offset="100%" stop-color="#ffb569"/></linearGradient><linearGradient id="e" x1="0%" x2="100%" y1="0%" y2="0%"><stop offset="0%" stop-color="#ff8e5c"/><stop offset="100%" stop-color="#ffa673"/></linearGradient><linearGradient id="f" x1="0%" x2="100%" y1="0%" y2="0%"><stop offset="0%" stop-color="#ff7f69"/><stop offset="100%" stop-color="#ff9880"/></linearGradient><linearGradient id="g" x1="0%" x2="100%" y1="0%" y2="0%"><stop offset="0%" stop-color="#ff7277"/><stop offset="100%" stop-color="#ff8c8e"/></linearGradient><linearGradient id="h" x1="0%" x2="100%" y1="0%" y2="0%"><stop offset="0%" stop-color="#ff6785"/><stop offset="100%" stop-color="#ff819c"/></linearGradient><linearGradient id="i" x1="0%" x2="100%" y1="0%" y2="0%"><stop offset="0%" stop-color="#ff5d93"/><stop offset="100%" stop-color="#ff79ab"/></linearGradient><linearGradient id="j" x1="0%" x2="100%" y1="0%" y2="0%"><stop offset="0%" stop-color="#ff57a2"/><stop offset="100%" stop-color="#ff73ba"/></linearGradient><linearGradient id="k" x1="0%" x2="100%" y1="0%" y2="0%"><stop offset="0%" stop-color="#ff54af"/><stop offset="100%" stop-color="#ff6fc8"/></linearGradient><linearGradient id="l" x1="0%" x2="100%" y1="0%" y2="0%"><stop offset="0%" stop-color="#f653bc"/><stop offset="100%" stop-color="#ff6ed5"/></linearGradient></defs><path fill="#eeeeee50" d="M83 13h274v20H83z"/><path fill="url('#a')" d="M0 0h210v20H0z" transform="translate(83 13)"/><text x="-8" y="14" fill="#f5af19" font-family="Lato" font-size="12" font-weight="bold" text-anchor="end" transform="translate(83 13)"><tspan x="-8" dy="0">Weizenkeim</tspan></text><path fill="#390000" d="M81.5 5H83v36h-1.5z"/><g transform="translate(293 13)"><circle cy="10" r="10" fill="#f5af19"/><circle cy="10" r="7" fill="#fff"/><circle cy="10" r="4" fill="#d99700"/><text x="17" y="14" fill="#f5af19" font-family="Lato" font-size="12" font-weight="bold"> 354 </text></g><path fill="#eeeeee50" d="M83 49h274v20H83z"/><path fill="url('#b')" d="M0 0h122.43v20H0z" transform="translate(83 49)"/><text x="-8" y="14" fill="#fea122" font-family="Lato" font-size="12" font-weight="bold" text-anchor="end" transform="translate(83 49)"><tspan x="-8" dy="0">Cheddar </tspan></text><path fill="#390000" d="M81.5 41H83v36h-1.5z"/><g transform="translate(205.43 49)"><circle cy="10" r="10" fill="#fea122"/><circle cy="10" r="7" fill="#fff"/><circle cy="10" r="4" fill="#e28900"/><text x="17" y="14" fill="#fea122" font-family="Lato" font-size="12" font-weight="bold"> 199 </text></g><path fill="#eeeeee50" d="M83 85h274v20H83z"/><path fill="url('#c')" d="M0 0h59.718v20H0z" transform="translate(83 85)"/><text x="-8" y="14" fill="#ff932d" font-family="Lato" font-size="12" font-weight="bold" text-anchor="end" transform="translate(83 85)"><tspan x="-8" dy="0">Pilze </tspan></text><path fill="#390000" d="M81.5 77H83v36h-1.5z"/><g transform="translate(142.72 85)"><circle cy="10" r="10" fill="#ff932d"/><circle cy="10" r="7" fill="#fff"/><circle cy="10" r="4" fill="#e27b0e"/><text x="17" y="14" fill="#ff932d" font-family="Lato" font-size="12" font-weight="bold"> 88 </text></g><path fill="#eeeeee50" d="M83 121h274v20H83z"/><path fill="url('#d')" d="M0 0h46.723v20H0z" transform="translate(83 121)"/><text x="-8" y="14" fill="#ff843a" font-family="Lato" font-size="12" font-weight="bold" text-anchor="end" transform="translate(83 121)"><tspan x="-8" dy="0">Erbsen </tspan></text><path fill="#390000" d="M81.5 113H83v36h-1.5z"/><g transform="translate(129.72 121)"><circle cy="10" r="10" fill="#ff843a"/><circle cy="10" r="7" fill="#fff"/><circle cy="10" r="4" fill="#e26c22"/><text x="17" y="14" fill="#ff843a" font-family="Lato" font-size="12" font-weight="bold"> 65 </text></g><path fill="#eeeeee50" d="M83 157h274v20H83z"/><path fill="url('#e')" d="M0 0h30.904v20H0z" transform="translate(83 157)"/><text x="-8" y="14" fill="#ff7546" font-family="Lato" font-size="12" font-weight="bold" text-anchor="end" transform="translate(83 157)"><tspan x="-8" dy="0">Muscheln </tspan></text><path fill="#390000" d="M81.5 149H83v36h-1.5z"/><g transform="translate(113.9 157)"><circle cy="10" r="10" fill="#ff7546"/><circle cy="10" r="7" fill="#fff"/><circle cy="10" r="4" fill="#e25d30"/><text x="17" y="14" fill="#ff7546" font-family="Lato" font-size="12" font-weight="bold"> 37 </text></g><path fill="#eeeeee50" d="M83 193h274v20H83z"/><path fill="url('#f')" d="M0 0h29.209v20H0z" transform="translate(83 193)"/><text x="-8" y="14" fill="#ff6653" font-family="Lato" font-size="12" font-weight="bold" text-anchor="end" transform="translate(83 193)"><tspan x="-8" dy="0">Brokkoli</tspan></text><path fill="#390000" d="M81.5 185H83v36h-1.5z"/><g transform="translate(112.21 193)"><circle cy="10" r="10" fill="#ff6653"/><circle cy="10" r="7" fill="#fff"/><circle cy="10" r="4" fill="#e24d3e"/><text x="17" y="14" fill="#ff6653" font-family="Lato" font-size="12" font-weight="bold"> 34 </text></g><path fill="#eeeeee50" d="M83 229h274v20H83z"/><path fill="url('#g')" d="M0 0h25.82v20H0z" transform="translate(83 229)"/><text x="-8" y="14" fill="#ff5861" font-family="Lato" font-size="12" font-weight="bold" text-anchor="end" transform="translate(83 229)"><tspan x="-8" dy="0">Kichererbse</tspan></text><path fill="#390000" d="M81.5 221H83v36h-1.5z"/><g transform="translate(108.82 229)"><circle cy="10" r="10" fill="#ff5861"/><circle cy="10" r="7" fill="#fff"/><circle cy="10" r="4" fill="#e23d4c"/><text x="17" y="14" fill="#ff5861" font-family="Lato" font-size="12" font-weight="bold"> 28 </text></g><path fill="#eeeeee50" d="M83 265h274v20H83z"/><path fill="url('#h')" d="M0 0h25.82v20H0z" transform="translate(83 265)"/><text x="-8" y="14" fill="#ff4b6e" font-family="Lato" font-size="12" font-weight="bold" text-anchor="end" transform="translate(83 265)"><tspan x="-8" dy="0">Blumenkohl</tspan></text><path fill="#390000" d="M81.5 257H83v36h-1.5z"/><g transform="translate(108.82 265)"><circle cy="10" r="10" fill="#ff4b6e"/><circle cy="10" r="7" fill="#fff"/><circle cy="10" r="4" fill="#e22c58"/><text x="17" y="14" fill="#ff4b6e" font-family="Lato" font-size="12" font-weight="bold"> 28 </text></g><path fill="#eeeeee50" d="M83 301h274v20H83z"/><path fill="url('#i')" d="M0 0h24.69v20H0z" transform="translate(83 301)"/><text x="-8" y="14" fill="#ff407c" font-family="Lato" font-size="12" font-weight="bold" text-anchor="end" transform="translate(83 301)"><tspan x="-8" dy="0">Sauerkraut</tspan></text><path fill="#390000" d="M81.5 293H83v36h-1.5z"/><g transform="translate(107.69 301)"><circle cy="10" r="10" fill="#ff407c"/><circle cy="10" r="7" fill="#fff"/><circle cy="10" r="4" fill="#e21a66"/><text x="17" y="14" fill="#ff407c" font-family="Lato" font-size="12" font-weight="bold"> 26 </text></g><path fill="#eeeeee50" d="M83 337h274v20H83z"/><path fill="url('#j')" d="M0 0h23.56v20H0z" transform="translate(83 337)"/><text x="-8" y="14" fill="#f7388a" font-family="Lato" font-size="12" font-weight="bold" text-anchor="end" transform="translate(83 337)"><tspan x="-8" dy="0">Vollkorn</tspan></text><path fill="#390000" d="M81.5 329H83v36h-1.5z"/><g transform="translate(106.56 337)"><circle cy="10" r="10" fill="#f7388a"/><circle cy="10" r="7" fill="#fff"/><circle cy="10" r="4" fill="#db0773"/><text x="17" y="14" fill="#f7388a" font-family="Lato" font-size="12" font-weight="bold"> 24 </text></g><path fill="#eeeeee50" d="M83 373h274v20H83z"/><path fill="url('#k')" d="M0 0h21.864v20H0z" transform="translate(83 373)"/><text x="-8" y="14" fill="#eb3597" font-family="Lato" font-size="12" font-weight="bold" text-anchor="end" transform="translate(83 373)"><tspan x="-8" dy="0">Haselnuss</tspan></text><path fill="#390000" d="M81.5 365H83v36h-1.5z"/><g transform="translate(104.86 373)"><circle cy="10" r="10" fill="#eb3597"/><circle cy="10" r="7" fill="#fff"/><circle cy="10" r="4" fill="#cf0280"/><text x="17" y="14" fill="#eb3597" font-family="Lato" font-size="12" font-weight="bold"> 21 </text></g><path fill="#eeeeee50" d="M83 409h274v20H83z"/><path fill="url('#l')" d="M0 0h21.864v20H0z" transform="translate(83 409)"/><text x="-8" y="14" fill="#db36a4" font-family="Lato" font-size="12" font-weight="bold" text-anchor="end" transform="translate(83 409)"><tspan x="-8" dy="0">Mais</tspan></text><path fill="#390000" d="M81.5 401H83v36h-1.5z"/><g transform="translate(104.86 409)"><circle cy="10" r="10" fill="#db36a4"/><circle cy="10" r="7" fill="#fff"/><circle cy="10" r="4" fill="#c00b8c"/><text x="17" y="14" fill="#db36a4" font-family="Lato" font-size="12" font-weight="bold"> 21 </text></g><path fill="none" stroke="#ffffd4" stroke-dasharray="1,4" stroke-linecap="round" stroke-width="2" d="M85 23h196"/><path fill="none" stroke="#ffffd6" stroke-dasharray="1,4" stroke-linecap="round" stroke-width="2" d="M85 59h108.43"/><path fill="none" stroke="#ffffdb" stroke-dasharray="1,4" stroke-linecap="round" stroke-width="2" d="M85 95h45.72"/><path fill="none" stroke="#ffffe4" stroke-dasharray="1,4" stroke-linecap="round" stroke-width="2" d="M85 131h32.72"/><path fill="none" stroke="#ffffef" stroke-dasharray="1,4" stroke-linecap="round" stroke-width="2" d="M85 167h16.9"/><path fill="none" stroke="#fffffc" stroke-dasharray="1,4" stroke-linecap="round" stroke-width="2" d="M85 203h15.21"/><path fill="none" stroke="#fff" stroke-dasharray="1,4" stroke-linecap="round" stroke-width="2" d="M85 239h11.82M85 275h11.82M85 311h10.69"/><path fill="none" stroke="#fff9ff" stroke-dasharray="1,4" stroke-linecap="round" stroke-width="2" d="M85 347h9.56"/><path fill="none" stroke="#fff5ff" stroke-dasharray="1,4" stroke-linecap="round" stroke-width="2" d="M85 383h7.86"/><path fill="none" stroke="#fff3ff" stroke-dasharray="1,4" stroke-linecap="round" stroke-width="2" d="M85 419h7.86"/></svg>