<svg xmlns="http://www.w3.org/2000/svg" viewBox="0 0 38.1 38.1"><circle cx="19.3" cy="19" r="18.8" style="fill:#ce1483;fill-opacity:1"/><path d="M19.2.2C29.6.2 38 8.6 38 19s-8.4 18.8-18.8 18.8" style="fill:#9a0e62;fill-opacity:1"/><path d="M23.5 8.1c-.8-.1-1.6 0-2.5.4-.6.3-1.2.8-1.5 1.5-.3.5-.3 1.6-1 1.8-.2.1-.4-.4-.5-.5-.9-1.5-1.4-3.4-2-5-.3-1-.6-2-.8-3-.1-.4-.2-.9-.2-1.3-.1-.7-.4-.6-1.1-.4-.6.2-1.8.5-2.2.9-.3.3-.1 1 0 1.4.2 1.1.5 2.3.9 3.3.5 1.5 1.2 2.9 1.6 4.3.8 2.6 3.7 5.1 2 8-1 1.7-2.8 3-4.7 2.7-1.8-.2-3.5-1.5-5.3-.8-1.4.5-2.2 1.9-2.4 3.3-.2.9-.2 1.8-.1 2.7v1.2c.1.7.8 1.6 1.3 2.1.4.4 1.5 1.6 2.2 1.5.1-1.3 0-2.6.1-3.8 0-.6-.1-1.3.1-1.9 0-.1.1-.3.2-.4.1-.2.4-.2.6-.1 1.1.4 2.3 1.6 3.3 2.3 3.1 2.6 7.2 2.1 10.2-.2 1.2-1 2.4-2.1 3.4-3.4 2.1-2.6 3.7-6.2 3.7-9.7 0-2.7-2.4-6.4-5.3-6.9M19.3 25c-.6 0-1-.5-1-1 0-.6.5-1 1-1 .6 0 1 .5 1 1s-.5 1-1 1m1.7-4.7c-.4 0-.7-.3-.7-.7s.3-.7.7-.7.7.3.7.7-.3.7-.7.7m4.1-1.4c-.3 0-.6-.3-.6-.6s.3-.6.6-.6.6.3.6.6-.3.6-.6.6" style="fill:#fff"/></svg>