<svg xmlns="http://www.w3.org/2000/svg" width="1013.03" height="844.995" data-name="Layer 1"><path fill="#ce1483" d="M56.032 270.31c0 35.17 8.33 64.12 22.78 88.92"/><path fill="#d0cde1" d="m276.462 60.92 266.71 32.09m-477.9 108.21L452.462 151l-377.87 22.34"/><path fill="#ce1483" d="M589.998 72.002c0 .69.02 1.37.08 2.04"/><path fill="#d0cde1" d="M589.998 72.002c0 .69.02 1.37.08 2.04l41.92-5.04-41.9.72c-.07.75-.1 1.51-.1 2.28m10 14.11 38.78 4.67m-27.78-35.67 31.76 3.82"/><path fill="#ce1483" d="M206.265 576.128c.323.61.66 1.2 1.027 1.764"/><path fill="#d0cde1" d="M206.265 576.128c.323.61.66 1.2 1.027 1.764l34.666-24.103-36.674 20.278c.29.695.62 1.38.98 2.06m15.448 7.777 36.445-14.054m-41.26-18.486 29.845-11.514"/><path fill="#ce1483" d="M7.952 93.453a23 23 0 0 0-1.367 1.516"/><path fill="#d0cde1" d="M7.952 93.453a23 23 0 0 0-1.367 1.516l33.53 25.66-30.5-28.739a25 25 0 0 0-1.663 1.563M5.26 110.536l24.502 30.42m5.017-44.933 20.07 24.91"/><path fill="#a0616a" d="M533.25 609.453s-61.445 2.56-61.445 17.922 69.126 0 69.126 0z"/><path fill="#2f2e41" d="m625.419 844.995 115.21-7.681 5.12-61.446 25.603 53.765 112.65-15.361c-2.56-97.29-43.524-192.018-46.084-204.819s-8.679-65.695-8.679-65.695c-11.188-23.734-69.817-25.961-115.774-23.81-19.048.87-35.945 2.508-46.365 3.686-6.887.768-10.958 1.332-10.958 1.332-18.357 18.92-30.186 44.701-37.456 73.504-26.217 103.766 6.733 246.525 6.733 246.525"/><circle cx="-753.431" cy="187.015" r="64.006" fill="#a0616a" transform="scale(-1 1)"/><path fill="#a0616a" d="M796.955 202.376s17.921 79.367 46.084 102.41c28.162 23.042-110.09 0-110.09 0s30.722-51.205 7.68-74.247 56.326-28.163 56.326-28.163"/><path fill="#d0cde1" d="m666.383 530.086 42.474 4.71 118.82 13.212s.563-1.511 1.562-4.25c8.628-23.529 50.18-138.022 54.763-172.406 5.12-38.404-48.644-84.488-48.644-84.488s-51.205-10.241-66.566-10.241-76.807 23.042-76.807 23.042l-22.914 206.124-1.971 17.845z"/><path d="m618.686 598.47 86.1-50.462s1.51-4.916 4.071-13.211c1.28-4.148 2.842-9.166 4.608-14.85 9.934-31.9 26.601-84.538 39.966-122.993 20.481-58.885-79.368 104.97-79.368 104.97l-4.992 3.865-1.971 17.845c-6.887.768-10.958 1.332-10.958 1.332-18.357 18.92-30.186 44.701-37.456 73.504" opacity=".15"/><path fill="#d0cde1" d="M732.949 304.786s25.602 33.283 5.12 92.168-48.644 151.054-48.644 151.054L540.93 635.056l-20.482-25.603 138.253-107.53s5.12-194.577 30.723-202.258c25.602-7.68 43.524 5.12 43.524 5.12"/><path fill="#a0616a" d="M859.68 528.806s-35.843 74.247-51.204 66.566c-15.362-7.68 38.403-84.488 38.403-84.488z"/><path fill="#d0cde1" d="m863.52 325.267 135.693 112.65s51.205 35.844-43.524 61.446c-94.729 25.603-102.41 40.964-102.41 40.964s-10.24-33.283-23.041-28.163l110.09-53.765-89.609-53.764z"/><path fill="#2f2e41" d="M918.057 239.549c-7.122-3.527-22.848-10.645-36.244-19.22.94-27.898-2.496-53.223-12.552-66.647-5.645-12.817-17.498-25.648-26.781-35.753-22.798-24.816-73.21-38.667-82.151-26.269-67.625 1.335-74.745 54.343-74.745 54.343.352 22.172 23.396 22.874 43.582 22.066-1.808 15.136 3.01 30.864 16.96 37.839 26.676 13.338 34.679 30.677 21.34 42.682-13.338 12.004-37.346 44.015-5.335 52.018s36.013 24.009 26.676 30.677c-9.337 6.67 21.341-12.004 21.341-12.004s5.335 32.012 33.345 24.009c2.51-.718 5.02-2.555 7.486-5.304 7.564 8.312 14.313 13.227 19.4 13.254 29.13.154 25.636-32.11 25.636-32.11s34.576 9.71 23.787 5.806-11.25-20.396 17.417-36.734c28.668-16.337-3.082-40.69-19.162-48.653"/><path fill="#3f3d56" d="m560.647 323.18.464-.06-1.132 4.306"/><path fill="#d0cde1" d="m457.883 469.56-43.096-117.67-2.429.89 43.096 117.67zm29.855-128.444-2.585-.113-5.5 125.193 2.584.113z"/><path fill="#3f3d56" d="m438.741 565.71 90.757-14.04m-93.084-5.232 90.757-14.04m-93.084-5.233 90.757-14.04m-37.904 63.801c-18.001 2.785-34.147-4.99-36.062-17.367l65.192-10.085c1.915 12.376-11.127 24.667-29.13 27.452"/><path fill="#d0cde1" d="M454.317 327.1c3.873-.599 7.076-3.66 8.833-5.712.576-.672 1.136-1.37 1.699-2.069 2.045-2.546 3.977-4.95 6.666-6.205 5.937-2.77 12.932 1.1 18.989 5.25l1.463-2.133c-6.659-4.566-14.424-8.783-21.546-5.462-3.235 1.51-5.448 4.265-7.589 6.93a85 85 0 0 1-1.647 2.007c-1.826 2.133-5.469 5.589-9.372 4.792"/></svg>