<svg xmlns="http://www.w3.org/2000/svg" width="524.67" height="392.996"><path fill="#a0616a" d="m146.064 297.497-29.619 3.22-14.165-9.659-8.2 9.659 3.935 20.379 4.508 16.097 27.33-13.88 22.006-1.992z"/><path fill="#2f2e41" d="m296.088 263.371-71.471-1.287-86.924 36.7 11.59 25.112 78.553-21.892 121.694 34.77-16.741-82.417zm-196.035 36.473 14.205-1.105-18.068-38.171s-8.37-2.956-9.658 6.248 9.696 71.528 12.915 71.528 14.022-6.302 14.022-6.302l-15.991-30.266z"/><path fill="#f2f2f2" d="M456.35 289.393a50 50 0 0 0-4.65.722c-7.035 1.433-7.18 6.21-7.119 7.305l-.048-.03a11.6 11.6 0 0 0-1.418 3.367l-.322-14.64c.208-.435.398-.928.556-1.432.526 1.621 1.39 3.153 2.134 3.052.967-.132 1.39-2.98 1.209-5.003 1.23 1.585 3.301 3.28 4.082 2.757.624-.417.254-2.137-.427-3.7 1.42.856 2.993 1.418 3.48.875.667-.741-.93-3.27-2.4-4.683 1.969.184 4.474-.13 4.639-1.027.135-.738-1.356-1.67-2.952-2.27 1.603-.423 3.102-1.16 3.052-1.888-.059-.866-2.284-1.446-4.204-1.534 1.448-1.133 2.779-2.7 2.372-3.407-.374-.652-2.115-.4-3.72.174.95-1.358 1.618-2.89 1.109-3.413-.634-.653-2.883.474-4.418 1.719.299-1.94.148-4.388-.722-4.61-.728-.185-1.76 1.24-2.467 2.79-.312-1.628-.945-3.173-1.676-3.173-1.04 0-1.883 3.136-1.883 5.18q0 .172.008.328a6 6 0 0 0-.36-.38c-1.466-1.424-4.304-3.004-5.029-2.258-.509.524.16 2.055 1.11 3.413-1.606-.573-3.346-.825-3.72-.174-.503.875 1.646 3.06 3.392 4.119a6 6 0 0 0-.333-.032c-2.038-.139-5.225.489-5.296 1.527-.05.728 1.45 1.465 3.053 1.888-1.596.6-3.088 1.532-2.952 2.27.164.897 2.67 1.211 4.64 1.027-1.472 1.412-3.068 3.942-2.402 4.683.488.543 2.06-.019 3.48-.874-.68 1.563-1.051 3.282-.427 3.7.825.551 3.088-1.37 4.28-3.022-.12 2.022.363 4.8 1.323 4.909.401.046.827-.382 1.21-1.042l-1.087 15.738c-.254 1.832 1.372 3.028 1.517 3.783l.235 10.657a11.5 11.5 0 0 0-1.102-2.306l-.048.03c.062-1.096-.084-5.873-7.12-7.305a50 50 0 0 0-4.648-.723c-1.688-.181-2.347 2.129-.822 2.875 2.208 1.081 4.285 2.443 5.368 4.055 2.768 4.123 6.593 1.74 7.136 1.37a11.3 11.3 0 0 1 1.257 2.998l.125 5.66c-.03.134-.052.209-.053.214l.058.018.301 13.696 2.796-.022-1-14c.168-.756.685-3.328 0-6l-1-11c-.002-.009.057.288 0 0l-1.304-4.322c.19-1.338.63-2.842 1.524-4.33.543.37 4.368 2.753 7.136-1.37 1.082-1.612 3.16-2.974 5.368-4.054 1.524-.747.866-3.057-.822-2.875m-12.772 32.405-.053-2.395c.107.906.101 1.723.053 2.395"/><path fill="#3f3d56" d="M0 337.107c0 .66.53 1.19 1.19 1.19h522.29c.66 0 1.19-.53 1.19-1.19s-.53-1.19-1.19-1.19H1.19c-.66 0-1.19.53-1.19 1.19"/><path fill="#a0616a" d="m346.553 177.51 7.083-23.823 20.604-.644 8.37 29.619z"/><path d="m346.553 177.51 7.083-23.823 20.604-.644 8.37 29.619z" opacity=".1"/><path fill="#e6e6e6" d="m378.182 174.194-33.482-1.288-10.38 21.345-16.019 94.554 84.027 18.994s5.15-105.596-6.44-120.405-17.706-13.2-17.706-13.2"/><path fill="#a0616a" d="M280.123 100.149c-1.396-7.454-6.373-12.775-11.116-11.886s-7.456 7.65-6.06 15.107a19 19 0 0 0 3.573 8.22l6.312 31.506 12.453-2.528-5.517-31.46a19 19 0 0 0 .355-8.96"/><path fill="#e6e6e6" d="M373.167 182.774 304.788 169.3l-19.216-57.796-21.533 5.093 21.602 85.38 77.4 10.185z"/><path fill="#ce1483" d="M269.028 7.567c-.067.065-.129.133-.195.2C258.478-2.51 241.802-2.6 231.336 7.562c-10.503 10.202-10.858 26.95-.796 37.589l-.007.006.25.258 37.05 38.148 38.407-37.301-.107-.11c.064-.061.131-.118.195-.18 10.606-10.301 10.853-27.248.553-37.854s-27.248-10.853-37.853-.552m9.163 189.2c-.123.12-.237.246-.36.367-19.07-18.925-49.784-19.091-69.059-.375-19.344 18.79-19.997 49.637-1.467 69.23l-.012.012.461.475 68.238 70.26 70.734-68.7-.196-.202c.118-.114.242-.219.36-.333 19.533-18.971 19.988-50.184 1.018-69.717-18.971-19.533-50.184-19.988-69.717-1.017"/><path fill="#2f2e41" d="M382.517 275.083s25.267 21.053 15.894 33.819-41.255 35.626-55.65 28.536-44.29-58.332-44.29-58.332l-7.817 52.489-20.464-1.808s-14.864-74.144-1.157-85.514 76.112 8.729 76.112 8.729z"/><path fill="#a0616a" d="m275.303 322.824-5.862 18.202-12.209 17.114 9.358 14.015 29.749-19.596-.103-10.078-4.671-6.288-3.29-12.061z"/><path fill="#2f2e41" d="m265.943 365.25-7.465-12.136-25.722 33.495s1.19 8.797 9.968 5.743 63.208-30.964 61.739-33.829-7.501-18.294-7.501-18.294l-28.125 26.432z"/><path fill="#a0616a" d="M281.73 274.905c-7.546.748-13.276 5.248-12.8 10.05s6.981 8.088 14.53 7.339a19 19 0 0 0 8.497-2.85l31.934-3.575-1.446-12.625-31.82 2.786a19 19 0 0 0-8.894-1.125"/><path fill="#e6e6e6" d="M372.065 189.325 352.75 256.29l-59.237 14.165 3.22 21.892 86.923-14.165 16.815-76.236z"/><circle cx="361.32" cy="133.455" r="27.363" fill="#a0616a"/><path fill="#2f2e41" d="M363.504 96.668c-.792.462-1.852-.237-2.106-1.118s.042-1.817.335-2.685l1.476-4.373c1.047-3.101 2.159-6.311 4.426-8.672 3.423-3.562 8.863-4.469 13.76-3.812 6.288.843 12.492 4.248 15.416 9.879s1.679 13.487-3.604 17c7.53 8.63 10.154 18.249 9.74 29.695-.415 11.446-12.888 21.98-21.022 30.043-1.817-1.101-3.468-6.261-2.47-8.136 1-1.875-.432-4.047.806-5.774s2.272 1.023 1.021-.694c-.79-1.083 2.291-3.576 1.118-4.224-5.674-3.137-7.561-10.21-11.125-15.625-4.299-6.533-11.656-10.957-19.441-11.691-4.29-.405-8.82.328-12.335 2.818s-5.79 6.939-4.976 11.169c-2.111-2.144-3.162-5.285-2.765-8.268.396-2.982 2.23-5.74 4.829-7.258-1.58-5.223-.227-11.232 3.44-15.274s18.538-3.354 23.89-2.29z"/><path fill="#2f2e41" d="M364.335 116.64c7.09.765 12.208 6.905 16.53 12.577 2.491 3.268 5.101 6.878 5.038 10.987-.063 4.155-2.84 7.718-4.168 11.656-2.17 6.435-.055 14.092 5.11 18.502-5.104.969-10.621-2.858-11.503-7.978-1.025-5.96 3.493-11.713 2.958-17.737-.472-5.307-4.654-9.391-8.21-13.36-3.555-3.968-6.895-9.233-5.259-14.304z"/></svg>