<svg xmlns="http://www.w3.org/2000/svg" width="813.31" height="791.716" data-name="Layer 1"><path fill="#3f3d56" d="M722.259 699.89s.621-13.026 13.366-11.512"/><circle cx="718.658" cy="681.115" r="6.379" fill="#ffda33"/><path fill="#3f3d56" d="M717.62 691.857h1.801v12.604h-1.801z"/><path fill="#e5e5e5" d="M289.22 316.92q0 4.785-.31 9.49a143.8 143.8 0 0 1-13.47 52.19c-.06.14-.13.27-.19.4-.36.76-.73 1.52-1.11 2.27a142 142 0 0 1-7.65 13.5 144.46 144.46 0 0 1-118.56 66.72l1.43 82.24 18.65-9.82 3.33 6.33-21.84 11.5 2.67 152.74.03 2.04-14.42 3.21.03-2.05 4.54-246.18a144.18 144.18 0 0 1-102-44.38c-.91-.94-1.81-1.91-2.69-2.87-.04-.04-.07-.08-.1-.11a144.8 144.8 0 0 1-26.34-40.76c.14.16.29.31.43.47a144.64 144.64 0 0 1 68.58-186.38c.5-.25 1.01-.49 1.51-.74a144.75 144.75 0 0 1 187.53 56.93c.88 1.48 1.73 2.99 2.55 4.51a143.85 143.85 0 0 1 17.4 68.75"/><circle cx="269.754" cy="189.539" r="189.539" fill="#ffda33"/><path d="M323.15 117.084c-41.152 96.26 3.522 207.655 99.783 248.806a189.55 189.55 0 0 0 216.045-48.203c-41.147 96.263-152.54 140.944-248.804 99.797S249.23 264.944 290.377 168.68a189.6 189.6 0 0 1 32.772-51.596" opacity=".2" style="isolation:isolate" transform="translate(-193.345 -54.142)"/><path fill="#3f3d56" d="m280.01 717.56-19.36-5.43.04-2.08 5.8-315.28.29-15.72.01-.46 1.01-55.08 1.47-79.84v-.01l1-54.12h.53l1.02 58.63 1.33 76.31.95 54.15v.4l.04 2.23v.01l1.84 105.55.19 10.49 3.8 218.15z"/><path fill="#3f3d56" d="m269.088 490.447 31.331-16.496 4.367 8.294-31.331 16.495z"/><path fill="#cbcbcb" d="M176.669 755.716h89.372v2h-89.372zm163.999 34h89.372v2h-89.372zm255-26h89.372v2h-89.372z"/><path fill="#f1f1f1" d="M644.22 682.34v-58.174s22.67 41.243 0 58.174"/><path fill="#f1f1f1" d="m645.62 682.33-42.854-39.341s45.713 11.19 42.854 39.34m-444.4 14.011v-58.174s22.67 41.243 0 58.174"/><path fill="#f1f1f1" d="m202.62 696.33-42.854-39.341s45.713 11.19 42.854 39.34m152.6 42.011V666s28.191 51.286 0 72.34"/><path fill="#f1f1f1" d="m356.961 738.327-53.29-48.921s56.846 13.916 53.29 48.921"/><path fill="#cbcbcb" d="m813.31 729.49-.55 1.93-167.83-47.8-126.43 27.87-161.69 27.62-.22-.06-76.58-21.49-19.36-5.43-59.13-16.6-49.32 10.99-14.42 3.21-31.35 6.99-.43-1.95 31.81-7.09 14.36-3.2 49.41-11.01.24.06 58.87 16.52 19.28 5.41 76.94 21.6 161.2-27.53 126.88-27.97.25.06z"/><path fill="#3f3d56" d="m513.051 121.437 12.795-10.234c-9.94-1.096-14.024 4.325-15.695 8.615-7.766-3.224-16.219 1.002-16.219 1.002l25.6 9.294a19.37 19.37 0 0 0-6.48-8.677m-470.001-4 12.795-10.234c-9.94-1.096-14.024 4.325-15.695 8.615-7.766-3.224-16.219 1.002-16.219 1.002l25.6 9.294a19.37 19.37 0 0 0-6.48-8.677m441.999 195 12.795-10.234c-9.94-1.096-14.024 4.325-15.695 8.615-7.766-3.224-16.219 1.002-16.219 1.002l25.6 9.294a19.37 19.37 0 0 0-6.48-8.677"/><path fill="#ffb7b7" d="m398.156 752.578 9.779 3.633 18.667-35.99-14.433-5.362z"/><path fill="#2f2e41" d="m396.847 748.458 19.259 7.155a13.093 13.093 0 0 1 7.713 16.833l-.148.4-31.532-11.716Z"/><path fill="#ffb7b7" d="m494.392 762.733 10.432-.001 4.963-40.238-15.397.001z"/><path fill="#2f2e41" d="m492.582 759.327 20.544-.001h.001a13.093 13.093 0 0 1 13.093 13.092v.426l-33.638.001ZM446.63 483.664l3.404-6.808 28.931 14.466-.85 5.956 5.53 7.233s9.36 5.106 7.659 22.124l-1.702 16.168-2.128 20.847 14.892 51.481 7.658 68.074 5.53 54.884-26.803-1.276-24.677-89.347-43.397 96.154-29.782-7.658 40.844-95.303 5.106-39.994s-3.404-21.273 12.763-35.738l-2.552-7.659v-9.437l-8.51-45.022Z"/><path d="m444.872 581.23.963-.272 18.72 66.372-.962.271z" opacity=".2"/><path fill="#3f3d56" d="M489.176 567.905h-41.695v-4.255h41.695z"/><ellipse cx="489.176" cy="566.203" fill="#3f3d56" rx="1.702" ry="4.255"/><circle cx="663.719" cy="506.898" r="22.682" fill="#ffb7b7" transform="rotate(-61.337 521.396 642.847)"/><circle cx="435.665" cy="424.594" r="20.066" fill="#2f2e41"/><path fill="#2f2e41" d="M410.201 422.444a20.067 20.067 0 1 0 39.143 8.23 20.067 20.067 0 0 1-39.143-8.23"/><path fill="#2f2e41" d="M489.473 446.46a23.724 23.724 0 1 1-14.157-19.1c3.963-3.196 8.875-2.206 12.87 1.167 4.516 3.814 5.857 6.433 9.36 12.705-3.445.483-4.629 4.744-8.073 5.227"/><path fill="#ffda33" d="M406.099 514.67c.254 6.722.757 19.953.757 20.628 0 .712 10.03 21.48 14.364 30.42v.004l.83 1.704a4.03 4.03 0 0 0 3.702 2.275l18.938-.34a4.036 4.036 0 0 0 3.966-3.934l2.112-83.315A2.06 2.06 0 0 0 448.71 480h-24.422a5.49 5.49 0 0 0-4.94 3.1l-11.722 24.25a15.5 15.5 0 0 0-1.527 7.32"/><path fill="#ffda33" d="M448.985 559.71a54.2 54.2 0 0 0 12.94-10.936 60 60 0 0 0 14.955-34.888c.963-11.072-1.234-19.303-6.53-24.463-6.731-6.559-15.894-5.606-16.28-5.562l-.411.047-6.208 5.252 1.757 2.076 5.554-4.7c1.7-.085 8.642-.103 13.712 4.857 4.668 4.565 6.584 12.054 5.697 22.258a57.3 57.3 0 0 1-14.208 33.236 52.7 52.7 0 0 1-12.29 10.44Z"/><path fill="#3f3d56" d="m413.563 528.945.183-.888 33.089 6.796-.182.888z"/><path fill="#3f3d56" d="m433.406 532.632 2.149-52.651.906.037-2.15 52.651zm-27.307-17.962c.254 6.722.757 19.953.757 20.628 0 .712 10.03 21.48 14.364 30.42l-8.077-46.9a10.34 10.34 0 0 0-6.713-7.973 15.2 15.2 0 0 0-.331 3.825"/><path fill="#ffb7b7" d="M455.725 612.959a7.98 7.98 0 0 1 2.595-11.957l-1.642-18.16 10.792-3.689 1.958 25.678a8.022 8.022 0 0 1-13.703 8.128"/><path fill="#cbcbcb" d="M448.661 503.359a12.45 12.45 0 0 1 8.422-12.743 11.3 11.3 0 0 1 7.112.007 12.45 12.45 0 0 1 8.434 11.848l.809 92.222-19.123.694Z"/></svg>