<svg xmlns="http://www.w3.org/2000/svg" width="650.502" height="698.685" data-name="Layer 1"><path fill="#f0f0f0" d="M140.808 282.963c-30.666-30.188-43.618-61.682-36.47-88.68 9.171-34.644 49.917-58.598 111.79-65.72l.228 1.988c-61.01 7.021-101.135 30.438-110.085 64.245-6.956 26.273 5.808 57.079 35.94 86.742zm295.87 107.157c-38.272 0-79.862-5.687-121.173-16.623-51.086-13.525-97.926-33.938-135.457-59.035l1.112-1.662c37.35 24.975 83.983 45.295 134.857 58.763 45.975 12.172 92.294 17.812 133.934 16.323l.072 1.998q-6.596.238-13.345.237m87.802-12.577-.64-1.895c34.229-11.573 55.638-30.216 61.912-53.915 7.976-30.128-9.351-65.089-48.79-98.443-39.64-33.524-96.8-61.34-160.956-78.324l.512-1.934c64.436 17.059 121.875 45.019 161.735 78.73 40.062 33.882 57.618 69.567 49.433 100.482-6.454 24.38-28.31 43.5-63.206 55.299m-314.307 13.413C134.97 357.603 77.021 314.33 47 269.11l1.666-1.106c29.813 44.907 87.459 87.922 162.318 121.124zm264.409 57.782q-11.636 0-23.668-.52l.085-1.998c59.865 2.592 112.684-4.572 152.758-20.721l.748 1.855c-34.958 14.086-79.514 21.384-129.923 21.384m-43.634-318.382a711 711 0 0 0-38-11.2C319.374 99.68 247.05 92.764 183.792 99.162l-.2-1.99c63.493-6.419 136.064.513 209.867 20.052a713 713 0 0 1 38.108 11.232z" style="fill:#ce1483;fill-opacity:.24772571"/><path fill="#f0f0f0" d="M93.808 285.963c-30.666-30.188-43.618-61.682-36.47-88.68 9.171-34.644 49.917-58.598 111.79-65.72l.228 1.988c-61.01 7.021-101.135 30.438-110.085 64.245-6.956 26.273 5.808 57.079 35.94 86.742zm295.87 107.157c-38.272 0-79.862-5.687-121.173-16.623-51.086-13.525-97.926-33.938-135.457-59.035l1.112-1.662c37.35 24.975 83.983 45.295 134.857 58.763 45.975 12.172 92.294 17.812 133.934 16.323l.072 1.998q-6.596.238-13.345.237m87.802-12.577-.64-1.895c34.229-11.573 55.638-30.216 61.912-53.915 7.976-30.128-9.351-65.089-48.79-98.443-39.64-33.524-96.8-61.34-160.956-78.324l.512-1.934c64.436 17.059 121.875 45.019 161.735 78.73 40.062 33.882 57.618 69.567 49.433 100.482-6.454 24.38-28.31 43.5-63.206 55.299m-314.307 13.413C87.97 360.603 30.021 317.33 0 272.11l1.666-1.106c29.813 44.907 87.459 87.922 162.318 121.124zm264.409 57.782q-11.636 0-23.668-.52l.085-1.998c59.865 2.592 112.684-4.572 152.758-20.721l.748 1.855c-34.958 14.086-79.514 21.384-129.923 21.384m-43.634-318.382a711 711 0 0 0-38-11.2c-73.574-19.477-145.898-26.393-209.156-19.995l-.2-1.99c63.493-6.419 136.064.513 209.867 20.052a713 713 0 0 1 38.108 11.232z" style="fill:#ce1483;fill-opacity:.24772571"/><g data-name="Group 221"><path fill="#ffb6b6" d="m396.385 313.382 17-2 6 52 15.319 71.808a11 11 0 1 1-11.933 1.5l-15.386-42.308z" data-name="Path 2938"/><path fill="#ffb6b6" d="M371.689 684.096h14.006l6.664-54.025h-20.672z" data-name="Path 2939"/><path fill="#2f2e41" d="M368.117 697.67h45.162v-.571a17.58 17.58 0 0 0-17.577-17.578h-27.585z" data-name="Path 2940"/><path fill="#ffb6b6" d="m264.199 676.457 13.752 2.655 16.788-51.78-20.3-3.92z" data-name="Path 2941"/><path fill="#2f2e41" d="m258.121 689.11 44.343 8.563.108-.561a17.58 17.58 0 0 0-13.926-20.593l-27.083-5.23z" data-name="Path 2942"/><path fill="#2f2e41" d="m393.651 228.169-8.138 15.614-60.951-13.443 6.677-30.273c5.285-23.962 26.472-41.267 50.434-35.982s35.142 28.705 29.857 52.667l-9.822 30.6-9.938-2.192z" data-name="Path 2943"/><path fill="#2f2e41" d="M415.385 400.383s6 30-2 74-10 63-10 63 6 7 2 11 0 12 0 12l-9 97-31-5 4-91s-4-8-2-10-2-14-2-14l-5-95-31 104s3 4 0 7-9 18-9 18l-20 70-32-6 18-80s-2-5 1-8a7.83 7.83 0 0 0 2-7s-3-3 1-7 6-20 6-20 3-107 13-113 106 0 106 0" data-name="Path 2944"/><circle cx="370.168" cy="206.921" r="28" fill="#ffb6b6" data-name="Ellipse 569"/><path fill="#e6e6e6" d="M330.708 242.763s-20.324-2.381-26.324 3.619l6 121s-4 3-2 10a28.6 28.6 0 0 1 0 14s-6 7-3 10 111 1 111 1 4-7-2-11-3-15-3-15 2-3-3-8-9-46-9-46l13-50s-13.086-14.771-28.043-15.885z" data-name="Path 2945"/><path fill="#e6e6e6" d="m396.89 273.069 15.493-.688s9 18 10 34l5.507 59.688-35.507 5.312z" data-name="Path 2946"/><path fill="#2f2e41" d="m394.157 208.31 10.4-13.382a10.91 10.91 0 0 0-8.282-12.97l-39.292-8.666a10.91 10.91 0 0 0-12.97 8.282l-.022.1 2.814 16.159.494-.088c24.385-4.348 31.331-2.818 46.459 10.226z" data-name="Path 2947"/><path fill="#ffb6b6" d="m289.509 422.123 1.875-78.74 2-56 24 3-12.889 133.845a11 11 0 1 1-15.457-1.75q.23-.185.471-.356z" data-name="Path 2948"/><path fill="#e6e6e6" d="m321.891 248.069-17.507-1.688s-3 0-6 10-19.492 115.688-19.492 115.688l36.493 3.312z" data-name="Path 2949"/></g><circle cx="156.166" cy="65.035" r="45.498" fill="#ce1483" data-name="Ellipse 563"/><circle cx="574.83" cy="227.42" r="31.244" fill="#ce1483" data-name="Ellipse 565"/><path fill="#cacaca" d="M649.502 698.685h-600" data-name="Path 2960"/><g data-name="Group 58"><path fill="#fd6584" d="M607.698 658.012a19.47 19.47 0 0 1-18.806-3.313c-6.587-5.528-8.652-14.637-10.332-23.07l-4.97-24.945 10.405 7.165c7.483 5.152 15.134 10.47 20.316 17.933s7.443 17.65 3.28 25.727" data-name="Path 438"/><path fill="#f2f2f2" d="M606.091 689.948c1.31-9.542 2.657-19.206 1.738-28.85-.816-8.565-3.429-16.93-8.749-23.789a39.6 39.6 0 0 0-10.153-9.2c-1.015-.641-1.95.968-.939 1.606a37.62 37.62 0 0 1 14.881 17.956c3.24 8.241 3.76 17.224 3.2 25.978-.338 5.294-1.053 10.553-1.774 15.806a.964.964 0 0 0 .65 1.144.936.936 0 0 0 1.144-.65z" data-name="Path 439"/><path fill="#e6e6e6" d="M596.664 674.639a14.34 14.34 0 0 1-12.49 6.447c-6.324-.3-11.596-4.713-16.34-8.9l-14.036-12.396 9.29-.444c6.68-.32 13.532-.618 19.9 1.442 6.366 2.06 12.23 7.018 13.393 13.6" data-name="Path 442"/><path fill="#f2f2f2" d="M609.793 695.434c-6.3-11.156-13.618-23.555-26.685-27.518a29.8 29.8 0 0 0-11.224-1.16c-1.192.1-.894 1.94.3 1.838a27.67 27.67 0 0 1 17.912 4.739c5.051 3.438 8.983 8.217 12.311 13.286 2.039 3.1 3.865 6.34 5.691 9.573.58 1.032 2.285.287 1.695-.758" data-name="Path 443"/></g><g data-name="Group 222"><path fill="#e6e6e6" d="M112.999 671a14.34 14.34 0 0 0 13.96-1.64c5.075-3.785 6.977-10.391 8.57-16.516l4.707-18.121-7.95 4.826c-5.716 3.47-11.564 7.055-15.69 12.324-4.127 5.268-6.215 12.65-3.495 18.764" data-name="Path 2961"/><path fill="#f2f2f2" d="M113.743 695.581c-1.015-12.772-1.882-27.143 6.735-37.736a29.8 29.8 0 0 1 8.658-7.237c1.044-.584 1.826 1.108.778 1.69a27.66 27.66 0 0 0-12.2 13.945c-2.264 5.675-2.852 11.836-2.776 17.9.043 3.71.341 7.417.635 11.118.096 1.18-1.735 1.515-1.83.32" data-name="Path 2962"/></g><circle cx="94.865" cy="334.46" r="44.913" fill="#e4e4e4" data-name="Ellipse 567" style="fill:#ce1483;fill-opacity:.24772571"/><circle cx="67.751" cy="170.342" r="8" fill="#f2f2f2" style="fill:#ce1483;fill-opacity:.24772571"/><circle cx="478.751" cy="130.342" r="8" fill="#fd6584" style="fill:#ce1483;fill-opacity:.24772571"/><circle cx="531.751" cy="414.342" r="8" fill="#f2f2f2" style="fill:#ce1483;fill-opacity:.24772571"/><path fill="#f2f2f2" d="m173.48 201.643.303-1.977 39.072 5.994c-3.981-3.843-17.168-15.731-29.127-16.936-14.286-1.44-20.572 4.676-21.403 12.918-.831 8.243 4.108 15.49 18.395 16.93 12.11 1.221 27.642-8.043 32.095-10.894zM547.368 95.728l-1.206-1.596 31.545-23.824c-5.532.173-23.248 1.334-32.452 9.064-10.995 9.236-10.995 18.006-5.667 24.35 5.328 6.343 13.966 7.858 24.962-1.377 9.32-7.829 13.513-25.421 14.575-30.601zm-74.483 229.337-.867-1.149 22.694-17.14c-3.98.125-16.725.96-23.346 6.522-7.91 6.644-7.911 12.954-4.078 17.518 3.833 4.563 10.048 5.653 17.959-.991 6.705-5.632 9.722-18.289 10.485-22.015z" style="fill:#ce1483;fill-opacity:.24772571"/><path fill="#f0f0f0" d="M293.23 52.252c6.15-16.532 20.677-30.817 38.233-32.516m42.317 42.14q-.442.157-.886.323M208.23 280.252c6.15-16.532 20.677-30.817 38.233-32.516m42.317 42.14q-.442.157-.886.323m268.681 113.968c-3.138-11.73-.677-25.54 8.5-33.49m40.55 6.787q-.186.264-.368.534" style="fill:#ce1483;fill-opacity:.24772571"/></svg>