<svg xmlns="http://www.w3.org/2000/svg" width="841" height="756" style="fill:none;stroke:none;fill-rule:evenodd;clip-rule:evenodd;stroke-linecap:round;stroke-linejoin:round;stroke-miterlimit:1.5"><style data-font-family="Roboto">@import url(https://fonts.googleapis.com/css2?family=Roboto:wght@400;700&amp;display=block);</style><g id="items" style="isolation:isolate"><g id="blend" style="mix-blend-mode:normal"><g id="g-root-sy_0_cu_hyf0d7vynlz7-fill" data-item-order="-456186" transform="translate(14 290)"><path id="sy_0_cu_hyf0d7vynlz7-fill" fill="#666" stroke="none" d="M250 130c0 66.274-53.726 120-120 120S10 196.274 10 130 63.726 10 130 10s120 53.726 120 120"/></g><g id="g-root-sy_6_cu_4nkz2zvynkec-fill" data-item-order="-456182" transform="translate(186.37 482)"><path id="sy_6_cu_4nkz2zvynkec-fill" fill="#e55753" stroke="none" d="M209.63 130 53.64 10C42.216 25.207 27.264 37.613 10 46l199.63 180h420v-96z"/></g><g id="g-root-sy_5_cu_1ut20t7vynkzx-fill" data-item-order="-456178" transform="translate(230.009 446)"><path id="sy_5_cu_1ut20t7vynkzx-fill" fill="#de8431" stroke="none" d="M165.991 70 28.498 10A119.6 119.6 0 0 1 10 46l155.991 120h420V70z"/></g><g id="g-root-sy_4_cu_1qd8iorvynls6-fill" data-item-order="-456174" transform="translate(248.506 410)"><path id="sy_4_cu_1qd8iorvynls6-fill" fill="#e0cb15" stroke="none" d="m10 46 137.493 60h420.001V10H15.493c0 12.543-1.924 24.636-5.493 36"/></g><g id="g-root-sy_3_cu_1d2ehejvynk7b-fill" data-item-order="-456170" transform="translate(248.506 314)"><path id="sy_3_cu_1d2ehejvynk7b-fill" fill="#92bd39" stroke="none" d="M10 70c3.57 11.365 5.494 23.457 5.494 36h552V10H147.493z"/></g><g id="g-root-sy_2_cu_18mkza3vynkzk-fill" data-item-order="-456166" transform="translate(230.009 218)"><path id="sy_2_cu_18mkza3vynkzk-fill" fill="#3cc583" stroke="none" d="M165.991 10 10 130a119.6 119.6 0 0 1 18.498 36l137.493-60h420V10z"/></g><g id="g-root-sy_1_cu_zqxz17vynls9-fill" data-item-order="-456162" transform="translate(186.37 122)"><path id="sy_1_cu_zqxz17vynls9-fill" fill="#1eabda" stroke="none" d="M209.63 10 10 190c17.265 8.387 32.217 20.793 43.64 36l155.99-120h420V10z"/></g><g id="g-root-ic_shie_1hbcrkrvyoz62-fill" data-item-order="-2304" transform="translate(422 146)"><path id="ic_shie_1hbcrkrvyoz62-fill" fill="#484848" stroke="none" d="M29.1 45.44a.98.98 0 0 0-.76-.84 22 22 0 0 0-2.46-.44 1 1 0 0 1-.88-.98V34a1 1 0 0 1 .6-.9l4.84-2.16A6 6 0 0 0 34 25.4V24a2 2 0 0 0-4 0v1.4a2 2 0 0 1-1.18 1.82L25.7 28.6a.5.5 0 0 1-.48 0 .52.52 0 0 1-.22-.42v-5.24a1 1 0 0 1 .58-.94l6.9-3.14A6 6 0 0 0 36 13.42V12a2 2 0 0 0-4 0v1.42a2 2 0 0 1-1.18 1.82l-5.12 2.34a.5.5 0 0 1-.7-.46V16a2 2 0 0 0-4 0v6.44a.5.5 0 0 1-.26.44.46.46 0 0 1-.5 0l-5.32-3.38a2 2 0 0 1-.92-1.7V12a2 2 0 0 0-4 0v5.8a6 6 0 0 0 2.78 5.06l7.76 4.94a1 1 0 0 1 .46.84v4.12a.52.52 0 0 1-.24.42.46.46 0 0 1-.5 0l-3.24-1.78A2 2 0 0 1 16 29.64V29a2 2 0 1 0-4 0v.64a6 6 0 0 0 3.08 5.26l5.4 3.1a.96.96 0 0 1 .52.86v4.42a1 1 0 0 1-.88.98C14.26 44.86 10 47.6 10 51a1 1 0 0 0 1 1h19.58a.5.5 0 0 0 .44-.74 16.6 16.6 0 0 1-1.92-5.82M56.14 34a32.9 32.9 0 0 0-11.18-2 32 32 0 0 0-11.1 2A3.08 3.08 0 0 0 32 36.92v6.78a15.4 15.4 0 0 0 10.38 13.6l1.1.42c.47.19.973.286 1.48.28.5.008.998-.088 1.46-.28l1.12-.42C53.7 54.96 58 49.3 58 43.7v-6.78A3.08 3.08 0 0 0 56.14 34M51 46h-3a1 1 0 0 0-1 1v3a2 2 0 0 1-4 0v-3a1 1 0 0 0-1-1h-3a2 2 0 0 1 0-4h3a1 1 0 0 0 1-1v-3a2 2 0 0 1 4 0v3a1 1 0 0 0 1 1h3a2 2 0 0 1 0 4m-40-5.5a1.5 1.5 0 1 0 3 0 1.5 1.5 0 0 0-3 0m6-29a1.5 1.5 0 1 0 3 0 1.5 1.5 0 0 0-3 0m22 11a1.5 1.5 0 1 0 3 0 1.5 1.5 0 0 0-3 0m13 2a1.5 1.5 0 1 0 3 0 1.5 1.5 0 0 0-3 0m-5-11a1.5 1.5 0 1 0 3 0 1.5 1.5 0 0 0-3 0"/></g><g id="g-root-ic_top_dili8rvyp05n-fill" data-item-order="-2304" transform="translate(422 242)"><path id="ic_top_dili8rvyp05n-fill" fill="#484848" stroke="none" d="M24.2 22.8a6.4 6.4 0 1 0 0-12.8 6.4 6.4 0 0 0 0 12.8m7 20.4q0-.426.038-.84c-4.476 2.916-8.156 7.2-8.038 10.64 0 4.124 1.93 4.55 13.138 4.594A5.66 5.66 0 0 1 35.7 55c0-1.22.434-2.382 1.15-3.336-3.29-1.416-5.65-4.716-5.65-8.464m9.564 9.192c-1.12.324-2.064 1.452-2.064 2.608 0 1.184.818 2.272 1.976 2.6C55.608 57.6 58 57.592 58 53c0-3.534-3.86-7.96-8.462-10.878A10 10 0 0 1 49.6 43.2c0 4.878-3.998 8.994-8.836 9.192m-.364-3.03c-3.476 0-6.162-2.686-6.162-6.162s2.686-6.162 6.162-6.162 6.162 2.686 6.162 6.162-2.686 6.162-6.162 6.162M10.514 33.97v11.91h14.62v-8.732l1.42 1.504c1.45 1.65 3.626 1.282 4.896.184 1.27-1.1 1.45-3.116.362-4.4-1.088-1.464-2.984-3.764-4.796-5.964-1.996-2.748-5.26-4.398-8.886-3.848-4.35.55-7.616 4.764-7.616 9.346"/></g><g id="g-root-ic_netw_18gypi3vyqfik-fill" data-item-order="-2304" transform="translate(422 338)"><path id="ic_netw_18gypi3vyqfik-fill" fill="#484848" stroke="none" d="m45.04 32.8 3.28-2A5.88 5.88 0 0 0 52 32a6 6 0 1 0-6-6q.003.719.16 1.42l-3 1.88A27.3 27.3 0 0 0 36 27.74v-6a6 6 0 1 0-4 0v6a27 27 0 0 0-7.1 1.56l-3.02-2A6.6 6.6 0 0 0 22 26a6 6 0 1 0-6 6 5.88 5.88 0 0 0 3.64-1.24l3.36 2.1v4.72a11.2 11.2 0 0 0 2 6.32l-3.7 3.06A6 6 0 1 0 24 52a5.9 5.9 0 0 0-.3-1.88l4.12-3.3a15 15 0 0 0 4 2.24l.92.34a3.54 3.54 0 0 0 2.56 0l.92-.34a15 15 0 0 0 4-2.24l4.12 3.3A5.9 5.9 0 0 0 44 52a6 6 0 1 0 2.74-5.04L42.9 44a11.04 11.04 0 0 0 2.14-6.34ZM52 24a2 2 0 1 1 0 4 2 2 0 0 1 0-4m-36 4a2 2 0 1 1 0-4 2 2 0 0 1 0 4m2 26a2 2 0 1 1 0-4 2 2 0 0 1 0 4m32-4a2 2 0 1 1 0 4 2 2 0 0 1 0-4M34 14a2 2 0 1 1 0 4 2 2 0 0 1 0-4m5.04 25.14h-3.5v3.5a1.5 1.5 0 1 1-3 0v-3.5h-3.5a1.5 1.5 0 1 1 0-3h3.5v-3.5a1.5 1.5 0 1 1 3 0v3.5h3.5a1.5 1.5 0 0 1 0 3"/></g><g id="g-root-ic_2_1qehguzvyqeq5-fill" data-item-order="-2304" transform="translate(422 434)"><path id="ic_2_1qehguzvyqeq5-fill" fill="#484848" stroke="none" d="M23.8 10.88a1 1 0 0 1 1 1v5.372h5.37a1 1 0 0 1 1 1v5.5a1 1 0 0 1-1 1H24.8v5.37a1 1 0 0 1-1 1h-5.5a1 1 0 0 1-1-1v-5.37h-5.37a1 1 0 0 1-1-1v-5.5a1 1 0 0 1 1-1h5.37V11.88a1 1 0 0 1 1-1zm-4.89 25.88a17.6 17.6 0 0 1-.396-2.64H23.8q.16.001.316-.01c.426 2.446 3.248 3.526 5.668 2.554l13.22-5.3c2.562-1.03 3.864-4.03 2.06-6.122-2.84-3.3-6.916-5.064-10.894-4.628v-2.362c0-1.068-.418-2.04-1.1-2.756a17.6 17.6 0 0 1 3.016-.256c3.306 0 6.02.68 8.294 1.934 2.272 1.25 4.048 3.04 5.528 5.166 2.42 3.482 4.12 8.002 5.896 12.734l.002.004c.364.966.73 1.944 1.108 2.92V38a2.332 2.332 0 0 1-2.172 3.166h-2.37v4.318a6.32 6.32 0 0 1-6.318 6.318h-1.658v4.316a1 1 0 0 1-1 1h-18.61a1 1 0 0 1-1-1V45.444a17.6 17.6 0 0 1-4.876-8.684"/></g><g id="g-root-ic_exch_zn74ijvyrspa-fill" data-item-order="-2304" transform="translate(422 530)"><path id="ic_exch_zn74ijvyrspa-fill" fill="#484848" stroke="none" d="M28.56 18c.145.03.295.03.44 0a.94.94 0 0 0 .6-.2l4-3a.96.96 0 0 0 .4-.8.96.96 0 0 0-.4-.8l-4-3a1.02 1.02 0 0 0-1.04 0 1.02 1.02 0 0 0-.56.8v.5a.5.5 0 0 1-.5.5H24a6 6 0 0 0-6 6v3a.5.5 0 0 1-.5.5H17a1 1 0 0 0-.8 1.6l3 4a1 1 0 0 0 1.6 0l3-4a1 1 0 0 0-.8-1.6h-.5a.5.5 0 0 1-.5-.5v-3a2 2 0 0 1 2-2h3.5a.5.5 0 0 1 .5.5v.5a1.02 1.02 0 0 0 .56 1M14 38h12a4 4 0 0 0 0-8H14a4 4 0 1 0 0 8m4-4a2 2 0 1 1-4 0 2 2 0 0 1 4 0m-4 14h12a4 4 0 1 0 0-8H14a4 4 0 0 0 0 8m4-4a2 2 0 1 1-4 0 2 2 0 0 1 4 0m-4 14h12a4 4 0 1 0 0-8H14a4 4 0 1 0 0 8m4-4a2 2 0 1 1-4 0 2 2 0 0 1 4 0m36-44H42a4 4 0 0 0 0 8h12a4 4 0 1 0 0-8m-12 4a2 2 0 1 1 4 0 2 2 0 0 1-4 0m12 6H42a4 4 0 0 0 0 8h12a4 4 0 1 0 0-8m-12 4a2 2 0 1 1 4 0 2 2 0 0 1-4 0m12 6H42a4 4 0 0 0 0 8h12a4 4 0 1 0 0-8m-12 4a2 2 0 1 1 4 0 2 2 0 0 1-4 0"/></g><g id="g-root-ic_1_1haqahnvyt6hb-fill" data-item-order="-2304" transform="translate(422 626)"><path id="ic_1_1haqahnvyt6hb-fill" fill="#484848" stroke="none" d="M34 10c-13.255 0-24 10.745-24 24s10.745 24 24 24 24-10.745 24-24-10.745-24-24-24M14 34a20 20 0 0 1 4.7-12.86l4.48 4.48a2 2 0 0 0 2.82 0 2 2 0 0 0 0-2.82l-4.44-4.44c7.962-5.972 19.104-5.18 26.142 1.858s7.83 18.18 1.858 26.142l-4-4a2.008 2.008 0 1 0-2.84 2.84l4.1 4A20 20 0 0 1 14 34m27.86 1.34 2.36 1.1a1.5 1.5 0 0 0 1.26-2.72l-2.36-1.1c.414-1.05.71-2.144.88-3.26a6 6 0 0 0 0-1.7l2.76-.76a1.515 1.515 0 1 0-.88-2.9l-2.76.76-.32.16a6.5 6.5 0 0 0-2.8-2.26q.015-.15 0-.3l.16-2.36a1.503 1.503 0 1 0-3-.18l-.14 2.34a6.4 6.4 0 0 0-3.12 1.2.7.7 0 0 0-.16-.2L32 22a1.5 1.5 0 1 0-1.84 2.36l1.68 1.32h.14a6 6 0 0 0-.64 2 10 10 0 0 1-2 3.82s0-.1-.14-.14l-2.94-2a1.509 1.509 0 0 0-1.72 2.48l2.6 1.78a4 4 0 0 1-.64.36 6.24 6.24 0 0 0-3.42 3.6l-3.14-.56a1.52 1.52 0 0 0-.6 2.98l3.14.56h.28a6 6 0 0 0 .44 1.74 6.26 6.26 0 0 0 2.3 2.72v.1l-1.12 2.28a1.48 1.48 0 0 0 .76 2c.186.093.392.141.6.14a1.52 1.52 0 0 0 1.38-.9l1.04-2.36a1.4 1.4 0 0 0 0-.28 6.16 6.16 0 0 0 3.26-.44 17 17 0 0 0 3.04-1.72l1 2a1.48 1.48 0 0 0 1.34.82 1.7 1.7 0 0 0 .68-.16 1.5 1.5 0 0 0 .64-2l-1.1-2.16a1.8 1.8 0 0 0-.24-.3 24.6 24.6 0 0 0 5.08-6.7m-13.3 5.58a1.8 1.8 0 1 1-.04-3.6 1.8 1.8 0 0 1 .04 3.6m8.8-14.46a2.7 2.7 0 1 1-2.68 2.68c0-1.48 1.2-2.68 2.68-2.68m-4.64 10.46a1.8 1.8 0 1 1 1.78 1.78 1.78 1.78 0 0 1-1.78-1.78"/></g><g id="g-root-tx_dieviels_vbqxzvvynjeq-fill" data-item-order="0" transform="translate(164 38)"><text id="tx_dieviels_vbqxzvvynjeq-fill" fill="#484848" stroke="none" font-family="Roboto, sans-serif" font-size="20" style="font:20px Roboto,sans-serif;white-space:pre"><tspan x="17.32" y="33.2">Die vielschichtigen Vorteile der Entzündungsreduktion</tspan></text></g><g id="g-root-tx_vermeidu_1hjgxp7vynll8-fill" data-item-order="0" transform="translate(482 146)"><text id="tx_vermeidu_1hjgxp7vynll8-fill" fill="#fff" stroke="none" font-family="Roboto, sans-serif" font-size="20" style="font:20px Roboto,sans-serif;white-space:pre"><tspan x="12" y="33.2">Vermeidung chronischer </tspan><tspan x="12" y="57.2">Krankheiten</tspan></text></g><g id="g-root-tx_schmerzm_13ynb17vyoykt-fill" data-item-order="0" transform="translate(482 254)"><text id="tx_schmerzm_13ynb17vyoykt-fill" fill="#fff" stroke="none" font-family="Roboto, sans-serif" font-size="20" style="font:20px Roboto,sans-serif;white-space:pre"><tspan x="12" y="33.2">Schmerzmanagement</tspan></text></g><g id="g-root-tx_verbesse_qn6snvvyp05q-fill" data-item-order="0" transform="translate(482 338)"><text id="tx_verbesse_qn6snvvyp05q-fill" fill="#fff" stroke="none" font-family="Roboto, sans-serif" font-size="20" style="font:20px Roboto,sans-serif;white-space:pre"><tspan x="12" y="33.2">Verbesserung der </tspan><tspan x="12" y="57.2">Immunfunktion</tspan></text></g><g id="g-root-tx_entzndun_94nfdnvynlsb-fill" data-item-order="0" transform="translate(26 398)"><text id="tx_entzndun_94nfdnvynlsb-fill" fill="#fff" stroke="none" font-family="Roboto, sans-serif" font-size="20" font-weight="bold" style="font:700 20px Roboto,sans-serif;white-space:pre"><tspan x="16.58" y="33.2">Entzündungsreduktion</tspan></text></g><g id="g-root-tx_verbesse_m7dajfvyp0xz-fill" data-item-order="0" transform="translate(482 434)"><text id="tx_verbesse_m7dajfvyp0xz-fill" fill="#fff" stroke="none" font-family="Roboto, sans-serif" font-size="20" style="font:20px Roboto,sans-serif;white-space:pre"><tspan x="12" y="33.2">Verbesserung der psychischen </tspan><tspan x="12" y="57.2">Gesundheit</tspan></text></g><g id="g-root-tx_verbesse_8wj997vyozd4-fill" data-item-order="0" transform="translate(482 530)"><text id="tx_verbesse_8wj997vyozd4-fill" fill="#fff" stroke="none" font-family="Roboto, sans-serif" font-size="20" style="font:20px Roboto,sans-serif;white-space:pre"><tspan x="12" y="33.2">Verbesserung der </tspan><tspan x="12" y="57.2">mitochondrialen Funktion</tspan></text></g><g id="g-root-tx_verbesse_1um6suzvyp0qx-fill" data-item-order="0" transform="translate(482 626)"><text id="tx_verbesse_1um6suzvyp0qx-fill" fill="#fff" stroke="none" font-family="Roboto, sans-serif" font-size="20" style="font:20px Roboto,sans-serif;white-space:pre"><tspan x="12" y="33.2">Verbesserung der </tspan><tspan x="12" y="57.2">Darmgesundheit</tspan></text></g><g id="g-root-sy_0_cu_hyf0d7vynlz7-stroke" data-item-order="-456186" transform="translate(14 290)"><path id="sy_0_cu_hyf0d7vynlz7-stroke" fill="none" stroke="#fff" stroke-linecap="round" stroke-linejoin="round" stroke-miterlimit="4" stroke-width="2" d="M250 130c0 66.274-53.726 120-120 120S10 196.274 10 130 63.726 10 130 10s120 53.726 120 120"/></g><g id="g-root-sy_6_cu_4nkz2zvynkec-stroke" data-item-order="-456182" transform="translate(186.37 482)"><path id="sy_6_cu_4nkz2zvynkec-stroke" fill="none" stroke="#fff" stroke-linecap="round" stroke-linejoin="round" stroke-miterlimit="4" stroke-width="2" d="M209.63 130 53.64 10C42.216 25.207 27.264 37.613 10 46l199.63 180h420v-96z"/></g><g id="g-root-sy_5_cu_1ut20t7vynkzx-stroke" data-item-order="-456178" transform="translate(230.009 446)"><path id="sy_5_cu_1ut20t7vynkzx-stroke" fill="none" stroke="#fff" stroke-linecap="round" stroke-linejoin="round" stroke-miterlimit="4" stroke-width="2" d="M165.991 70 28.498 10A119.6 119.6 0 0 1 10 46l155.991 120h420V70z"/></g><g id="g-root-sy_4_cu_1qd8iorvynls6-stroke" data-item-order="-456174" transform="translate(248.506 410)"><path id="sy_4_cu_1qd8iorvynls6-stroke" fill="none" stroke="#fff" stroke-linecap="round" stroke-linejoin="round" stroke-miterlimit="4" stroke-width="2" d="m10 46 137.494 60h420V10h-552c0 12.543-1.925 24.636-5.494 36"/></g><g id="g-root-sy_3_cu_1d2ehejvynk7b-stroke" data-item-order="-456170" transform="translate(248.506 314)"><path id="sy_3_cu_1d2ehejvynk7b-stroke" fill="none" stroke="#fff" stroke-linecap="round" stroke-linejoin="round" stroke-miterlimit="4" stroke-width="2" d="M10 70c3.57 11.365 5.494 23.457 5.494 36h552V10h-420z"/></g><g id="g-root-sy_2_cu_18mkza3vynkzk-stroke" data-item-order="-456166" transform="translate(230.009 218)"><path id="sy_2_cu_18mkza3vynkzk-stroke" fill="none" stroke="#fff" stroke-linecap="round" stroke-linejoin="round" stroke-miterlimit="4" stroke-width="2" d="M165.991 10 10 130a119.6 119.6 0 0 1 18.498 36l137.493-60h420V10z"/></g><g id="g-root-sy_1_cu_zqxz17vynls9-stroke" data-item-order="-456162" transform="translate(186.37 122)"><path id="sy_1_cu_zqxz17vynls9-stroke" fill="none" stroke="#fff" stroke-linecap="round" stroke-linejoin="round" stroke-miterlimit="4" stroke-width="2" d="M209.63 10 10 190c17.265 8.387 32.217 20.793 43.64 36l155.99-120h420V10z"/></g></g></g><path id="wdbq0u3xmxsll" fill="#80808088" stroke="none" d="M65.283 12.757a.35.35 0 0 0 .584.157l5.203-5.141-6.183 3.523zm-2.216-11.7a.35.35 0 0 0-.522.305v3.111l3.276-1.868zm3.728 2.105-4.25 2.421v2.445l6.391-3.644zm4.708 3.303a.35.35 0 0 0 0-.609l-1.592-.9-7.365 4.199v1.782a.35.35 0 0 0 .523.305l8.435-4.777zM44.542 2.513c0-.433.355-.783.792-.783s.792.35.792.783-.355.783-.792.783-.792-.35-.792-.783m59.171 0c0-.433.355-.783.792-.783s.792.35.792.783-.355.783-.792.783-.792-.35-.792-.783m-85.951 7.636h-1.27v-.487c-.276.201-.864.609-1.881.609-1.202 0-2.274-.794-2.137-2.078.118-1.106 1.153-1.584 1.848-1.727l2.17-.345c0-.539-.29-.956-1.064-1.006s-1.21.305-1.571 1.017l-1.124-.605c1.218-2.631 5.029-1.764 5.029.414zm-1.27-2.86c.006.396-.062 1.112-.819 1.59-.587.37-1.841.299-1.903-.395-.049-.555.461-.791.906-.898zm72.662 2.86h-1.27v-.487c-.276.201-.864.609-1.881.609-1.202 0-2.274-.794-2.137-2.078.118-1.106 1.153-1.584 1.848-1.727l2.17-.345c0-.539-.29-.956-1.064-1.006s-1.21.305-1.571 1.017l-1.124-.605c1.218-2.631 5.029-1.764 5.029.414zm-1.27-2.86c.006.396-.062 1.112-.82 1.59-.587.37-1.841.299-1.903-.395-.049-.555.461-.791.906-.898zm11.212 2.86H97.85v-8.45h1.246v4.895l2.68-2.559h1.738l-2.633 2.535 2.715 3.578h-1.556l-2.077-2.707-.867.844zm6.053-6.114h-1.255v6.113h1.255zm-59.2 0h-1.255v6.113h1.255zm5.584 6.113V1.697h1.255v2.695c.361-.346 1-.485 1.47-.485 1.452 0 2.477 1.082 2.457 2.448v3.792h-1.27v-3.68c0-.408-.214-1.339-1.315-1.339-.968 0-1.342.756-1.342 1.339v3.681zm-4.76-4.894V4.039h.621a.45.45 0 0 0 .45-.45v-.855h1.251v1.305h1.309v1.215h-1.309v3.109c0 .293.105.664.648.664.365 0 .531-.035.736-.07v1.137s-.361.113-.857.113c-1.398 0-1.777-1.051-1.777-1.788V5.254h-1.071zM36.528 4.039h-1.394l2.191 6.106h1.125l1.234-3.918 1.238 3.918h1.129l2.188-6.106h-1.383l-1.359 3.93-1.256-3.93h-1.124l-1.242 3.957zM26.212 7.141c-.02 1.566 1.187 3.129 3.223 3.129 1.566 0 2.383-.918 2.734-1.719L31.172 8c-.315.399-.801 1.094-1.738 1.094-1.145 0-1.825-.781-1.891-1.52h4.625c.074-.284.148-.995-.03-1.559-.336-1.064-1.221-2.102-2.839-2.102s-3.088 1.152-3.088 3.227zm1.363-.75h3.348c-.055-.43-.566-1.301-1.623-1.301a1.79 1.79 0 0 0-1.725 1.301m-8.758.75c.038 1.758 1.277 3.133 3.145 3.133 1.074 0 1.723-.477 1.961-.672v.547h1.242V1.703h-1.258v2.888c-.414-.36-1.062-.68-1.93-.68-1.91 0-3.198 1.473-3.16 3.23m1.309-.08c0 1.119.723 1.978 1.836 1.978a1.88 1.88 0 0 0 1.94-1.904c0-1.371-1.011-1.99-1.972-1.99s-1.805.798-1.805 1.916zm76.683-.028C96.771 5.275 95.532 3.9 93.664 3.9c-1.074 0-1.723.477-1.961.672v-.547h-1.242v8.22h1.258V9.583c.414.36 1.063.68 1.93.68 1.91 0 3.198-1.473 3.16-3.23m-1.309.08c0-1.119-.723-1.978-1.836-1.978a1.88 1.88 0 0 0-1.94 1.904c0 1.371 1.011 1.99 1.972 1.99S95.5 8.231 95.5 7.113m10.941 3.06V4.036h1.254v.382c.361-.346 1-.485 1.47-.485 1.452 0 2.477 1.082 2.457 2.448v3.792h-1.27V6.492c0-.408-.214-1.339-1.315-1.339-.969 0-1.342.756-1.342 1.339v3.681zm-30.383-.021V1.824h1.084l4.215 5.777V1.824h1.32v8.328h-1.094l-4.207-5.796v5.796zM5.24 10.149H4V2.377h1.014l2.664 3.597 2.654-3.592h1.03v7.766h-1.256V4.762L7.678 8.068 5.24 4.742z" transform="translate(20 722)"/></svg>