<svg xmlns="http://www.w3.org/2000/svg" width="1618" height="1000" viewBox="-449 214 1618 1000"><path d="M-449.001 213.531a.47.47 0 0 0-.468.468l.001 1000.001c0 .258.21.468.468.468h1618.001a.47.47 0 0 0 .468-.467L1169.468 214a.47.47 0 0 0-.468-.468z" style="fill:#d4eff0;fill-opacity:1;stroke-linejoin:miter"/><path d="m967.17 1067.723-5.351 6.107q-38.044 18.454-222.631 29.52-185.865 11.055-437.737 8.965-240.379-2.92-384.5-17.092-46.177-4.58-76.072-9.983l-25.126-5.554q-20.706-5.732-20.939-11.963 6.286-19.124 171.688-31.822t414.49-13.182q249.088.483 414.49 13.181 165.402 12.7 171.688 31.823" style="fill:#4cbadd;fill-opacity:.54901963;stroke-linejoin:miter"/><path d="M277.367 1058.206c0 18.126-51.79 32.819-115.676 32.819s-115.677-14.694-115.677-32.819 51.79-32.818 115.677-32.818c63.886 0 115.676 14.693 115.676 32.818" style="fill:#4cbadd;fill-opacity:.99607843;stroke-linejoin:miter"/><path d="m46.104 795.205 229.578.001v259.713l-229.578.001z" style="fill:#4cbadd;fill-opacity:1;stroke-linejoin:miter"/><path d="M283.24 992.76c0 44.996-54.911 81.473-122.647 81.473s-122.647-36.477-122.647-81.474c0-44.996 54.911-81.474 122.647-81.474S283.24 947.763 283.24 992.76m-.114-216.797c0 44.997-54.911 81.474-122.647 81.474S37.832 820.96 37.832 775.963c0-44.996 54.911-81.474 122.647-81.474s122.647 36.477 122.647 81.474m2.999-185.503c0 44.997-54.911 81.474-122.647 81.474S40.831 635.457 40.831 590.46s54.911-81.474 122.647-81.474 122.647 36.477 122.647 81.474" style="fill:#4cbadd;fill-opacity:1;stroke-linejoin:miter"/><path d="M47.152 609.644H276.73v140.2H47.152z" style="fill:#4cbadd;fill-opacity:1;stroke-linejoin:miter"/><path d="m259.967 1066.515-.904 2.291q-6.424 6.925-37.593 11.077-31.385 4.15-73.915 3.365-40.59-1.096-64.926-6.414-7.798-1.719-12.846-3.746l-4.242-2.084q-3.497-2.15-3.536-4.49 1.061-7.175 28.99-11.94 27.93-4.765 69.99-4.947 42.061.182 69.99 4.947 27.93 4.764 28.992 11.94" style="fill:#000;fill-opacity:.09411765;stroke-linejoin:miter"/><path d="M111.782 453.237h101.094v64.595l-101.094.001z" style="fill:#4cbadd;fill-opacity:1;stroke-linejoin:miter"/><path d="M231.694 676.512q4.981 0 8.524 3.542 3.542 3.543 3.542 8.524t-3.542 8.523-8.524 3.543-8.523-3.543q-3.432-3.542-3.432-8.523t3.542-8.524q3.432-3.542 8.413-3.542m0-23.467q-14.722 0-25.127 10.405-10.406 10.405-10.406 25.128 0 14.722 10.406 25.127 10.405 10.406 25.127 10.406 14.723 0 25.239-10.406 10.405-10.405 10.405-25.127 0-14.723-10.516-25.128-10.405-10.405-25.128-10.405m-170.912 1.992v75.826H84.36V704.74h15.94v26.124h23.578v-75.826H100.3v26.124H84.36v-26.124Zm99.072-1.77q-12.066 0-20.7 8.633-8.634 8.524-8.634 20.7h23.467q0-2.435 1.77-4.206 1.661-1.66 4.097-1.66 2.546 0 4.317 1.77 1.66 1.661 1.66 4.096v.554q0 .221-.11.553 0 .443-.111.775-.11.332-.332.664-7.528 11.402-15.166 22.914l-15.275 22.803h57.45v-23.467h-13.615q.664-.886 1.328-1.882.553-.885 1.218-1.771 2.214-3.1 4.206-6.42 1.882-3.21 2.878-6.753.554-1.881.775-3.874.221-1.882.221-3.764.11-11.623-8.302-20.7-8.413-8.966-21.142-8.966" style="fill:#fff;fill-opacity:.28627452;stroke-linejoin:miter"/><path d="M103.961 441.126v33.044h7.82l.001 42.365q-19.319 5.879-35.028 16.314-34.607 22.99-35.923 57.611.05 11.282 4.382 21.66l1.94 3.71-.001 129.29q-17.946 31.667-1.047 59.846V964.03q-4.13 7.762-6.149 15.313l-1.79 10.422q-.766 10.32 2.566 20.231 1.97 5.86 5.373 11.576v33.348l.662.001q-.603 1.609-.753 3.285.046 4.545 4.132 8.725l4.959 4.05q5.9 3.939 15.012 7.28 28.44 10.334 75.877 12.464 7.901.242 15.473.242 8.553 0 16.686-.309l-5.114-649.531h-10.314z" style="fill:#fff;fill-opacity:.15294118;stroke-linejoin:miter"/><path d="M103.961 441.126h58.764l58.763.001v33.041l-117.527.002z" style="fill:#2e74a4;fill-opacity:.99607843;stroke-linejoin:miter"/><path d="m231.89 525.307-.649 1.648q-1.228 1.763-7.621 4.033-4.706 1.366-8.92 2.273-5.212.955-10.492 1.66-22.107 2.868-50.153 2.467-29.027-.624-46.119-3.934-3.552-.63-7.179-1.643-7.516-2.319-7.816-2.801-3.707-1.892-3.402-3.846.992-5.066 20.89-8.413 20.636-3.517 50.284-3.587 11.497-.062 28.768 1.005 11.268.845 21.562 2.551 10.463 1.902 14.036 3.389 3.533 1.483 5.258 2.64 1.365 1.342 1.554 2.558" style="fill:#fff;fill-opacity:.10980392;stroke-linejoin:miter"/><path d="m237.593 809.159-.022 1.294q-.186 1.746-.857 3.207-.335.731-.792 1.39-1.248 1.588-1.644 1.82-.643.553-1.346.971-1.81.929-2.244.953-1.585.434-3.41.33-2.12-.339-2.46-.552-.766-.275-1.461-.671-1.39-.793-2.497-2.07-2.482-3.1-2.265-6.59.085-1.737.693-3.232.304-.747.739-1.434.142-.389 1.584-1.908 2.41-2.257 5.995-2.53.898-.023 1.737.085.456-.027 2.378.618 1.494.608 2.747 1.74.626.565 1.128 1.204.329.274 1.228 2.083.632 1.499.769 3.292" style="fill:#fff;fill-opacity:.30588236;stroke-linejoin:miter"/><path d="m224.392 808.226.007.248q-.022.337-.14.623l-.064.14q-.07.137-.165.261-.094.124-.213.236-.238.222-.527.344-.144.06-.3.096-.404.066-.5.049-.168-.011-.324-.046-.086-.003-.439-.158-.273-.141-.496-.378-.502-.575-.488-1.248.002-.334.107-.626.053-.146.13-.282.025-.075.29-.379.445-.452 1.131-.534.345-.023.648.056.369.122.43.177.135.078.26.182.25.207.407.475.175.348.182.435.044.157.064.329" style="fill:#fff;fill-opacity:.25882354;stroke-linejoin:miter"/><path d="m169.922 749.278-.191.677q-.342.893-.899 1.568-.278.337-.61.62-.878.661-1.118.728-.416.2-.844.323-1.081.236-1.313.188-.894.007-1.84-.303-1.068-.473-1.216-.633-.365-.251-.675-.557-.62-.61-1.024-1.437-.873-1.976-.272-3.782.287-.901.815-1.602.264-.35.589-.651.129-.185 1.1-.783 1.581-.85 3.505-.494.476.113.901.287.244.05 1.165.657.701.528 1.202 1.298.25.385.425.79.135.19.355 1.267.124.877-.055 1.839" style="fill:#fff;fill-opacity:.30588236;stroke-linejoin:miter"/><path d="m163.11 746.945-.031.132q-.059.174-.16.308l-.054.065q-.056.062-.123.114t-.145.094q-.156.084-.325.108-.084.011-.171.008-.222-.021-.27-.044-.087-.03-.164-.07-.045-.012-.208-.143-.125-.113-.209-.268-.183-.373-.082-.725.048-.175.144-.314.047-.07.107-.13.024-.036.205-.159.298-.176.67-.123.185.036.333.12.177.115.201.153.06.06.112.132.102.144.147.306.044.208.035.255.002.088-.012.181" style="fill:#fff;fill-opacity:.25882354;stroke-linejoin:miter"/><path d="m222.016 736.797-.022 1.294q-.186 1.746-.857 3.208-.335.73-.792 1.39-1.248 1.588-1.644 1.82-.643.553-1.346.97-1.81.93-2.244.954-1.585.434-3.41.33-2.12-.34-2.46-.552-.766-.275-1.461-.671-1.39-.793-2.497-2.07-2.482-3.1-2.265-6.59.085-1.737.693-3.232.304-.747.739-1.434.143-.389 1.584-1.908 2.41-2.257 5.995-2.53.898-.023 1.737.085.456-.028 2.378.618 1.494.608 2.746 1.74.627.565 1.129 1.204.329.274 1.228 2.083.632 1.499.769 3.291" style="fill:#fff;fill-opacity:.30588236;stroke-linejoin:miter"/><path d="m208.815 735.864.007.25q-.022.336-.14.622l-.064.14q-.07.137-.165.261-.094.124-.213.235-.238.223-.527.345-.144.06-.3.096-.404.066-.5.048-.168-.01-.324-.045-.086-.003-.439-.158-.273-.141-.496-.378-.502-.575-.488-1.248.003-.334.107-.626.053-.146.13-.281.025-.076.29-.38.445-.453 1.131-.534.345-.023.648.056.369.122.43.177.135.078.26.182.25.207.407.475.175.347.183.435.043.157.063.328" style="fill:#fff;fill-opacity:.25882354;stroke-linejoin:miter"/><path d="m186.086 648.699-.05.703q-.151.944-.559 1.72-.203.387-.47.733-.726.827-.948.941-.365.282-.76.49-1.011.452-1.248.453-.875.19-1.865.08-1.143-.246-1.321-.372-.409-.172-.776-.408-.733-.471-1.297-1.198-1.26-1.758-1.04-3.65.096-.942.47-1.737.187-.398.444-.759.089-.207.917-.991 1.376-1.158 3.334-1.202.49.014.942.097.25-.002 1.275.405.796.374 1.444 1.026.324.326.579.688.17.158.607 1.168.3.834.322 1.813" style="fill:#fff;fill-opacity:.30588236;stroke-linejoin:miter"/><path d="m178.934 647.808-.004.135q-.021.183-.093.335l-.04.074q-.042.072-.097.137t-.123.122q-.136.114-.296.172-.08.029-.167.043-.22.024-.272.012-.092-.01-.175-.034-.047-.004-.235-.099-.144-.084-.258-.22-.256-.327-.23-.692.012-.182.077-.338.033-.078.08-.15.015-.04.167-.197.256-.233.631-.258.189-.002.35.05.198.077.23.108.071.047.136.107.13.12.207.27.085.194.087.242.019.087.025.18" style="fill:#fff;fill-opacity:.25882354;stroke-linejoin:miter"/><path d="m107.864 767.948-.076.964q-.22 1.294-.788 2.353-.284.53-.655 1-1.005 1.127-1.31 1.282-.506.382-1.05.662-1.393.609-1.717.607-1.203.25-2.56.088-1.566-.35-1.808-.526-.56-.24-1.06-.568-1-.655-1.766-1.66-1.708-2.427-1.385-5.02.144-1.292.667-2.378.261-.544.617-1.036.125-.284 1.27-1.35 1.903-1.572 4.59-1.61.67.025 1.291.144.342 0 1.745.571 1.087.523 1.969 1.425.44.45.786.951.232.22.819 1.61.402 1.148.421 2.491" style="fill:#fff;fill-opacity:.30588236;stroke-linejoin:miter"/><path d="m98.06 766.641-.006.186q-.032.25-.133.458l-.054.102q-.06.098-.135.187-.077.088-.17.165-.188.155-.409.233-.11.038-.229.057-.304.03-.374.014-.126-.016-.24-.05-.064-.005-.32-.138-.198-.117-.353-.304-.347-.453-.306-.954.017-.25.11-.462.045-.106.11-.204.021-.055.233-.27.352-.317.868-.345.259-.002.48.072.27.107.313.15.098.066.186.149.177.166.281.373.115.268.116.333.026.12.033.248" style="fill:#fff;fill-opacity:.25882354;stroke-linejoin:miter"/><path d="m253.478 700.32-.021 1.294q-.187 1.746-.858 3.208-.335.73-.792 1.39-1.248 1.587-1.643 1.82-.644.552-1.347.97-1.81.93-2.244.954-1.585.434-3.41.33-2.12-.34-2.46-.552-.766-.275-1.46-.671-1.391-.793-2.498-2.07-2.482-3.1-2.265-6.59.085-1.737.693-3.232.304-.747.739-1.434.143-.389 1.584-1.908 2.41-2.257 5.995-2.53.899-.023 1.737.085.457-.028 2.378.618 1.494.608 2.747 1.74.626.565 1.128 1.204.329.274 1.228 2.083.632 1.498.769 3.291" style="fill:#fff;fill-opacity:.30588236;stroke-linejoin:miter"/><path d="m240.278 699.387.006.249q-.022.337-.14.623l-.064.14q-.07.137-.165.26-.094.125-.213.236-.238.223-.526.344-.145.061-.301.096-.404.066-.5.05-.168-.012-.324-.046-.085-.003-.438-.158-.274-.141-.497-.378-.501-.576-.488-1.248.003-.334.108-.626.052-.146.13-.282.024-.076.29-.379.444-.453 1.13-.534.346-.023.648.056.37.122.43.177.136.078.26.181.25.208.407.475.176.348.183.436.043.157.064.328" style="fill:#fff;fill-opacity:.25882354;stroke-linejoin:miter"/><path d="m195.95 731.752-.021 1.294q-.186 1.746-.857 3.207-.336.731-.793 1.39-1.248 1.588-1.643 1.82-.643.553-1.346.971-1.81.928-2.244.953-1.586.434-3.41.33-2.121-.339-2.46-.552-.766-.275-1.462-.671-1.39-.793-2.496-2.07-2.482-3.1-2.266-6.59.085-1.737.693-3.232.304-.747.74-1.434.142-.389 1.584-1.908 2.41-2.257 5.994-2.53.899-.023 1.737.085.457-.027 2.378.618 1.495.608 2.747 1.74.626.565 1.128 1.204.33.274 1.228 2.083.632 1.499.77 3.291" style="fill:#fff;fill-opacity:.30588236;stroke-linejoin:miter"/><path d="m182.75 730.819.006.248q-.022.337-.139.623l-.065.14q-.07.137-.164.26-.095.125-.213.237-.238.222-.527.344-.144.06-.301.096-.403.066-.5.048-.168-.01-.323-.045-.086-.003-.44-.158-.273-.141-.495-.378-.502-.576-.488-1.248.002-.334.107-.626.052-.146.13-.282.025-.076.29-.379.445-.453 1.131-.534.345-.023.648.056.368.122.43.177.135.078.26.181.25.208.406.476.176.347.183.435.044.157.064.329" style="fill:#fff;fill-opacity:.25882354;stroke-linejoin:miter"/><path d="m120.731 704.918-.192.678q-.341.892-.898 1.567-.278.338-.61.62-.879.661-1.119.728-.415.201-.843.323-1.082.236-1.313.188-.895.007-1.84-.302-1.068-.474-1.216-.633-.365-.252-.675-.557-.621-.61-1.025-1.437-.873-1.977-.272-3.782.287-.902.815-1.603.265-.35.59-.65.129-.186 1.099-.783 1.582-.851 3.505-.495.476.114.902.288.244.049 1.164.656.702.529 1.202 1.298.25.385.426.791.134.19.355 1.267.123.876-.055 1.838" style="fill:#fff;fill-opacity:.30588236;stroke-linejoin:miter"/><path d="m113.919 702.586-.031.131q-.059.175-.16.309l-.054.065q-.056.062-.123.114t-.145.094q-.156.084-.325.107-.084.012-.172.009-.221-.022-.269-.044-.087-.03-.164-.07-.045-.013-.209-.144-.124-.112-.208-.268-.184-.372-.083-.724.048-.176.144-.315.048-.069.108-.13.023-.036.205-.158.297-.177.67-.123.184.036.332.12.177.115.202.152.06.06.111.132.103.144.148.307.044.207.035.254.001.089-.012.182" style="fill:#fff;fill-opacity:.25882354;stroke-linejoin:miter"/><path d="m73.417 711.929-.076.964q-.22 1.294-.788 2.353-.284.53-.655 1-1.005 1.127-1.31 1.281-.506.383-1.05.663-1.393.608-1.717.607-1.203.25-2.56.088-1.566-.351-1.808-.526-.56-.24-1.06-.568-1-.656-1.766-1.66-1.708-2.427-1.385-5.02.144-1.292.667-2.378.261-.544.617-1.036.125-.284 1.27-1.35 1.903-1.572 4.59-1.61.67.025 1.291.144.342 0 1.745.571 1.087.523 1.969 1.425.44.451.786.95.232.22.819 1.611.402 1.147.421 2.491" style="fill:#fff;fill-opacity:.30588236;stroke-linejoin:miter"/><path d="m63.614 710.622-.007.186q-.032.25-.133.458l-.054.101q-.06.099-.135.187-.076.089-.17.166-.188.155-.409.232-.11.039-.229.058-.304.03-.374.014-.125-.016-.24-.05-.064-.005-.32-.138-.197-.118-.353-.305-.347-.452-.306-.953.017-.25.11-.462.045-.107.11-.204.021-.055.233-.27.353-.317.868-.346.259-.001.48.072.27.108.313.152.098.064.186.148.177.166.281.373.115.267.116.333.026.119.033.248" style="fill:#fff;fill-opacity:.25882354;stroke-linejoin:miter"/><path d="m78.622 673.14-.022 1.293q-.186 1.746-.857 3.208-.335.73-.792 1.39-1.248 1.587-1.643 1.82-.644.552-1.347.97-1.81.93-2.244.954-1.585.434-3.41.33-2.12-.34-2.46-.552-.766-.276-1.461-.671-1.39-.793-2.497-2.07-2.482-3.1-2.265-6.59.085-1.737.693-3.232.304-.747.739-1.434.143-.389 1.584-1.908 2.41-2.257 5.995-2.53.899-.023 1.737.085.457-.028 2.378.618 1.494.608 2.747 1.74.626.565 1.128 1.204.329.274 1.228 2.083.632 1.499.769 3.291" style="fill:#fff;fill-opacity:.30588236;stroke-linejoin:miter"/><path d="m65.421 672.206.007.25q-.022.336-.14.622l-.064.14q-.07.137-.165.26-.094.125-.213.236-.238.223-.526.344-.145.061-.302.096-.403.066-.499.05-.168-.012-.324-.046-.086-.003-.439-.158-.273-.141-.496-.378-.501-.576-.488-1.248.003-.334.108-.626.052-.146.13-.282.024-.076.29-.379.444-.453 1.13-.534.346-.023.648.056.37.121.43.177.136.078.26.181.25.208.407.475.175.348.183.436.043.157.063.328" style="fill:#fff;fill-opacity:.25882354;stroke-linejoin:miter"/><path d="m123.24 672.974-.05.703q-.152.945-.56 1.72-.203.388-.47.733-.726.827-.947.942-.366.282-.76.489-1.012.452-1.249.453-.875.19-1.865.08-1.143-.246-1.32-.372-.41-.171-.776-.407-.734-.472-1.298-1.198-1.26-1.758-1.04-3.65.096-.942.47-1.738.188-.397.444-.758.089-.208.917-.992 1.376-1.157 3.334-1.201.49.013.942.096.25-.001 1.276.405.795.375 1.443 1.026.324.326.579.688.17.159.607 1.169.3.833.322 1.812" style="fill:#fff;fill-opacity:.30588236;stroke-linejoin:miter"/><path d="m116.087 672.083-.004.136q-.021.182-.093.334l-.04.075q-.042.072-.097.137-.055.064-.122.121-.136.115-.297.172-.08.03-.167.044-.22.024-.272.012-.092-.01-.175-.034-.047-.004-.234-.1-.145-.084-.26-.219-.255-.328-.228-.693.01-.182.076-.337.033-.078.08-.15.015-.04.168-.197.255-.234.63-.258.189-.003.351.05.197.076.229.108.071.046.136.106.13.12.207.27.086.195.087.243.02.086.025.18" style="fill:#fff;fill-opacity:.25882354;stroke-linejoin:miter"/><path d="m133.371 726.493-.05.703q-.151.944-.559 1.72-.203.387-.471.733-.725.827-.947.941-.366.282-.76.49-1.012.452-1.248.453-.875.19-1.865.08-1.143-.246-1.321-.372-.409-.172-.776-.408-.733-.471-1.297-1.198-1.26-1.758-1.04-3.65.096-.942.47-1.737.187-.398.444-.759.089-.207.917-.991 1.376-1.158 3.334-1.202.49.014.942.097.25-.002 1.275.405.795.374 1.444 1.026.324.326.578.688.171.158.608 1.168.3.834.322 1.813" style="fill:#fff;fill-opacity:.30588236;stroke-linejoin:miter"/><path d="m126.219 725.602-.004.135q-.022.183-.094.335l-.039.074q-.042.072-.097.137t-.123.122q-.136.114-.296.172-.08.029-.167.043-.22.025-.273.012-.09-.01-.175-.034-.046-.004-.234-.099-.144-.084-.258-.22-.257-.327-.23-.692.011-.182.077-.338.033-.078.08-.15.015-.04.167-.197.255-.233.631-.258.189-.002.35.05.198.077.23.108.07.047.136.107.13.12.207.27.085.194.087.242.019.087.025.18" style="fill:#fff;fill-opacity:.25882354;stroke-linejoin:miter"/><path d="M425.974 441.762q2.406 0 3.263 1.319t.857 4.877v16.347q0 3.625-.89 5.043-.857 1.384-3.23 1.384t-3.263-1.417q-.857-1.385-.857-5.01v-16.347q0-3.526.857-4.877.857-1.319 3.263-1.319m0-5.306q-5.735 0-7.976 3.032t-2.24 10.744v11.7q0 7.844 2.273 10.975t7.976 3.131q5.669 0 7.943-3.13 2.274-3.132 2.274-10.976v-11.7q0-7.711-2.241-10.744t-8.009-3.032m-30.782 5.834q1.055 0 1.615.099 3.592.626 3.592 9.063v28.475q0 7.745-2.142 9.393-.725.593-1.351.659-.593.132-2.01.132-1.385 0-2.373-.791-1.945-1.516-1.945-9.36v-28.541q0-4.45.824-6.394.79-1.944 1.78-2.34.955-.395 2.01-.395m71.847 19.28q2.406 0 3.262 1.318.857 1.318.857 4.878v16.347q0 3.625-.89 5.042-.89 1.384-3.262 1.384-2.34 0-3.23-1.417-.857-1.384-.857-5.01v-16.346q0-3.527.857-4.878.857-1.318 3.263-1.318m-112.252-24.422v5.735h16.511q0 .033-1.252 3.263-1.253 3.197-3.296 10.052-6.558 20.928-7.91 38.955h7.284q1.12-18.06 6.525-36.648 1.516-5.438 3.362-10.678 1.846-5.208 1.911-5.735v-4.944Zm100.65.034-23.333 58.004h5.9l23.07-58.005Zm11.569 19.082q-5.735 0-7.976 3.032t-2.24 10.744v11.7q0 7.843 2.273 10.974t7.976 3.131q5.668 0 7.942-3.13 2.274-3.132 2.274-10.975v-11.7q0-7.712-2.24-10.744-2.242-3.032-8.01-3.032m-71.583-19.775q-6.79 0-9.228 3.823-2.406 3.79-2.406 11.502v27.718q0 8.074 2.373 12.227 2.373 4.12 9.327 4.12 6.92 0 9.327-4.186 2.372-4.153 2.372-12.161v-27.718q0-7.745-2.471-11.535t-9.294-3.79" style="fill:#4cbadd;fill-opacity:1;stroke-linejoin:miter"/><path d="m737.627 773.037-.028.013v.001zm-85.456-366.325c-5.68 0-11.216 1.146-15.239 3.263-6.54 3.426-13.185 11.19-15.177 17.792-.91 2.967-.897 5.476.023 18.74.587 8.02.34 8.309-1.753 8.864v.001l-1.224.305a.38.38 0 0 0-.29.372v5.38c0 6.871.463 8.455 3.686 10.913 1.193.923 2.418 2.045 2.765 2.531l.004.006c.925 1.246 1.651 4.387 2.58 11.543v.002c.46 3.378 1.195 7.146 1.634 8.344 1.264 3.531 1.287 3.579-.755 7.85l-.001.003c-1.054 2.264-2.28 4.223-2.677 4.497l-.005.004c-1.43 1.026-5.262 2.353-15.33 5.208h-.002c-10.948 3.15-12.236 3.625-15.906 6.124l-2.554 1.74h-10.297l-.001.001c-11.696.037-12.692.152-18.27 2.882-5.16 2.541-9.251 6.836-12.203 12.74-1.83 3.662-2.607 6.356-4.3 14.739v.001c-.848 4.283-1.84 8.465-2.206 9.343l-.004.008c-.86 2.208-2.518 4.783-6.011 9.043l-.003.003c-4.469 5.557-6.868 11.038-10.868 24.69v.002c-3.461 11.92-4.987 16.063-7.073 19.629-4.48 7.454-5.11 9.11-7.269 18.827-.883 3.84-2.184 8.542-2.942 10.474v.002c-2.62 6.82-3.59 10.23-4.365 15.57v.002c-1.773 12.14-1.926 23.279-.579 37.523.46 4.975.537 8.762.345 17.827-.27 10.873-.346 11.763-1.375 16.452-2.389 10.403-2.897 18.144-1.656 25.32 1.355 7.974 3.931 12.381 8.775 14.843 2.283 1.18 7.71 2.687 11.538 3.19 1.108.144 2.066.222 2.895.222 2.286 0 3.66-.592 4.517-2.02v.001c1.315-2.193.468-3.901-2.638-6.892-2.826-2.713-3.418-3.963-3.418-7.141 0-3.834 2.675-8.034 4.612-8.034 1.44 0 2.473 1.346 4.984 7.977 2.387 6.344 3.297 8.052 5.744 8.052q.361-.001.758-.042h-.001c.868-.072 1.864-.287 2.21-.553a.6.6 0 0 0 .214-.314c.163-.547-.227-1.976-.865-3.757l-.001-.003c-.648-1.753-1.95-5.967-2.872-9.344-2.354-8.759-2.908-9.951-7.046-16.14-6.478-9.697-7.545-12.541-7.507-19.501.038-7.102 1.644-16.051 4.166-23.122.567-1.55 3.208-7.18 5.9-12.448 2.681-5.287 5.272-10.848 5.75-12.433 1.325-4.17 1.75-9.065 1.285-14.217v-.001c-.609-6.504.34-11.737 3.076-17.36l.001-.004c1.39-2.93 2.036-3.695 7.687-9.307 5.895-5.819 6.419-6.498 9.246-11.34 3.832-6.526 8.147-13.067 8.885-13.558h-.004a.7.7 0 0 1 .237-.054c.19 0 .442.246 1.172 3.098 1.053 4.094 2.386 6.865 7.308 14.94 4.564 7.593 6.504 11.786 7.951 17.118 1.568 5.928 2.871 14.546 3.216 21.824v.003c.5 9.005.963 13.062 2.352 19.658v.002c1.496 6.977 1.513 9.807.247 13.158v.001c-1.792 4.637-2.216 7.815-3.367 24.783-.5 7.528-1.113 13.353-1.88 17.949-1.876 11.15-3.021 15.124-10.322 36.14-4.773 13.819-6.584 20.95-8.702 34.85-2.807 18.186-3.58 28.173-2.963 38.014.23 3.767.693 7.981 1.008 9.398 1.097 4.919.61 15.42-1.39 30.035-1.686 12.304-3.407 18.886-8.317 31.62-4.638 12.06-6.137 24.223-5.752 46.072v.001c.231 11.162.5 15.092 2.961 41.727 1.5 16.19 2.728 30.775 2.766 32.448v.001c-.003 3.857-1.419 14.994-2.41 18.842-.977 3.798-2.656 6.295-5.769 8.508h-.001c-2.806 2.015-3.742 3.441-4.531 6.796-.519 2.14-3.966 7.806-6.518 10.55l-.002.001c-.85.925-2.856 2.48-4.454 3.47-5.258 3.261-5.947 3.938-5.947 6.974 0 2.361.346 2.85 4.29 7.14 4.144 4.494 4.865 5.131 8.633 5.131.347 0 .742-.005 1.15-.011h.004c.381-.012.724-.017 1.072-.017 2.021 0 3.48.19 4.65.538l-.001.001c1.468.453 2.78.703 4.026.703 3.288 0 5.97-1.745 9.733-5.647 3.424-3.54 3.487-3.663 5.73-9.232v-.001c1.232-3.08 2.612-5.81 3.018-6.24.427-.395 1.421-.833 2.259-.98v.001c2.364-.374 4.685-2.576 5.718-5.317l.002-.004c.995-2.747 1.02-5.865.052-10.283-1.526-6.904-1.365-10.276.669-15.021 1.375-3.145 1.507-4.818.59-7.612-1.353-4.208-1.102-15.266.667-27.266 2.417-16.076 5.868-28.804 11.504-42.262 4.62-11.087 5.744-14.804 7.326-23.714.775-4.146.89-6.327.89-13.252 0-7.204-.155-9.184-1.08-15.048-.577-3.687-1.15-8.36-1.265-10.378-.3-5.259.186-6.635 4.97-13.675 2.183-3.219 4.502-6.886 5.135-8.19v.001c2.643-5.207 4.61-12.866 5.727-22.07.27-2.138.631-5.224.925-7.737l.228-1.951c.723-6.011 1.471-8.117 5.222-15.044v-.002l.002-.003c4.622-8.588 6.13-12.03 16.58-37.581 8.486-20.762 12.848-29.956 13.994-30.316l.005.001a.6.6 0 0 1 .207.03l-.005.001-.011.051-.005.017c-.075.298-.381 1.411-.688 2.486-.322 1.09-.63 4.093-.783 6.616v.005c-.273 5.725.17 7.703 3.33 15.837 4.983 12.803 7.014 21.15 9.394 38.423 1.46 10.563 2.804 23.083 3.264 30.334.232 3.97.771 8.41 1.392 11.204 1.069 5.272 1.213 10.013.386 13.55l-.005.024h-.001c-.312 1.352-1.491 5.384-2.639 9.018-3.542 11.127-5.163 18.688-6.05 28.405-.774 8.556-.187 12.949 3.012 23.703v.001c.189.626.358 1.16.51 1.642.127.396.24.754.343 1.096 1.046 3.48 1.019 5.375.634 27.748l-.157 9.252c-.385 23.826-.538 26.571-2.225 37.805v.001c-.994 6.729-1.214 11.65-.477 13.532.579 1.563 2.309 3.328 3.9 3.981 1.963.817 5.739 1.293 9.731 1.293.89 0 1.796-.024 2.695-.073a53 53 0 0 1 2.803-.078c1.658 0 2.978.094 3.744.262h.001c1.854.4 2.12.557 8.915 5.846 4.226 3.325 8.688 4.953 21.863 8.026v.001c5.079 1.193 8.442 1.77 10.725 1.77 1.465 0 2.53-.237 3.323-.742 1.762-1.091 2.909-3.698 2.949-6.2v-.006c0-2.236-.908-3.375-3.684-5.018-.873-.524-1.27-1.053-1.515-2.025v.001c-.514-2.23-2.09-3.211-7.537-5.306-9.073-3.508-10.873-4.809-22.965-16.9v-.001l-8.908-8.87-.632-3.608c-.914-5.37-.84-14.858.193-21.706v.001c.496-3.283 2.874-13.68 6.18-26.868 6.262-25.046 6.306-25.297 7.272-30.982l.037-.215c1.349-7.9 2.31-17.676 3.118-31.133.383-6.516.572-7.832 1.908-12.602 3.35-12.017 3.817-14.97 4.164-25.88v.001l.266-7.97 1.946-3.18c5.697-9.302 8.508-20.366 10.7-42.015v.001c2.001-19.67 1.886-26.541-.77-45.251-2.195-15.55-4.045-23.337-8.82-36.969-1.876-5.32-2.986-9.493-4.945-18.402l-.003-.016c-3.76-17.418-3.91-18.395-4.254-31.235-.347-12.252-1.082-16.41-4.369-24.879l-1.724-4.423 1.201-4.956c.695-2.78 1.466-6.787 1.775-8.913v-.006l.489-3.755 3.641-5.538c4.194-6.349 7.667-12.481 9.294-16.278.779-1.829 1.183-2.37 1.496-2.37.54 0 1.45 1.22 3.587 4.835 2.598 4.395 4.234 8.28 5.184 12.156l.349 1.461.627 2.63.907 3.823c1.353 5.724 2.134 7.825 5.869 15.643l2.62 5.506.456 6.5c.345 5.21.345 7.61-.038 11.852v.001c-.739 8.168-.053 11.046 6.064 25.32 8.716 20.388 9.902 27.09 6.976 38.377l-.003.01c-1.021 3.894-1.473 4.455-3.74 5.462v.001c-2.482 1.08-3.977 2.7-4.895 5.335-.399 1.035-2.418 6.14-4.53 11.437-5.017 12.448-5.252 13.15-5.292 15.431v.007c0 1.56.155 2.126 1.103 2.576l.005.002c.396.18.798.279 1.208.279 1.634 0 3.14-1.54 4.963-4.457 1.062-1.664 2.086-3.017 2.428-3.312l.006.001c1.197.431 7.433 6.778 7.582 7.767l-.002.001c-.115.807-3.512 5.72-4.302 6.24-.27-.076-1.09-.424-1.982-.87h-.002c-1.66-.818-2.791-1.24-3.77-1.24-.599 0-1.121.156-1.652.438-.876.459-1.357 1.026-1.357 1.876 0 1.362.97 1.856 3.87 2.86h.002c1.81.616 1.73.552 1.974 2.155.388 2.795.564 3.246 2.57 3.246 1.528 0 1.974-.355 3.786-2.437l.001-.001c2.372-2.748 2.672-2.88 5.477-3.174l.004-.001 2.268-.27a.38.38 0 0 0 .302-.216l2.46-5.227v-.002c1.92-4.147 2.779-5.509 4.103-6.76 2.246-2.09 3.71-4.696 4.265-7.773v.001c.278-1.311.623-7.506.815-13.712v.001c.538-16.598 1.421-30.614 2.495-39.551 2.002-16.4 2.08-34.035.192-48.713-1.35-10.563-2.434-14.481-6.18-22.783v-.001c-2.455-5.407-4.244-10.519-4.775-13.545-.11-.697-.264-4.925-.341-9.361-.116-9.192-.202-9.66-3.524-18.197-3.513-9.05-3.97-12.11-4.009-26.42v.001c0-17.016-1.411-23.394-6.448-28.628-3.673-3.829-6.7-5.545-18.764-10.77h-.001c-9.17-3.953-11.823-5.473-16.356-9.244-7.069-5.871-10.064-7.582-20.048-11.629h-.001c-4.868-1.947-5.37-2.32-5.79-3.226v.001c-.423-.917-1.5-9.579-1.848-15.267-.035-.843.44-3.048 1.288-5.63 1.626-4.995 2.13-7.832 2.746-15.075l.431-5.03h1.202c.913-.04 2.19-.276 2.896-.567v.001c2.176-.889 2.466-2.785 2.39-9.735-.037-6.621-.3-8.337-2.766-8.337-.542 0-1.036-.2-1.188-.345h-.005c-.225-.45-.662-4.072-.961-8.368v-.002c-1.69-22.513-4.768-30.23-14.397-34.867-3.926-1.904-8.118-3.067-13.033-3.687h-.001a42 42 0 0 0-5.01-.3" style="fill:#ffc29b;fill-opacity:1;stroke-linejoin:miter"/><path d="M529.794 587.077a258 258 0 0 0-2.007 6.568c-3.461 11.92-4.987 16.064-7.073 19.63-4.48 7.454-5.11 9.11-7.269 18.827-.883 3.84-2.184 8.542-2.942 10.474-2.62 6.822-3.59 10.232-4.365 15.573-1.773 12.14-1.926 23.28-.579 37.524.46 4.975.537 8.762.345 17.827-.27 10.873-.346 11.763-1.375 16.452-2.389 10.403-2.897 18.144-1.656 25.32 1.355 7.974 3.931 12.381 8.775 14.843 2.283 1.18 7.71 2.687 11.538 3.19 1.108.144 2.066.222 2.895.222 2.285 0 3.66-.592 4.516-2.019 1.316-2.193.469-3.901-2.637-6.892-2.826-2.713-3.418-3.963-3.418-7.141 0-3.834 2.675-8.034 4.612-8.034 1.44 0 2.473 1.346 4.984 7.977 2.387 6.344 3.297 8.052 5.744 8.052q.359 0 .75-.042c.876-.073 1.871-.288 2.216-.553a.6.6 0 0 0 .214-.314c.164-.547-.226-1.976-.864-3.757-.65-1.756-1.952-5.97-2.873-9.347-2.354-8.759-2.908-9.951-7.046-16.14-6.478-9.697-7.545-12.54-7.507-19.5.038-7.103 1.644-16.052 4.166-23.123.567-1.55 3.208-7.18 5.9-12.448 2.68-5.286 5.271-10.846 5.75-12.433 1.325-4.17 1.75-9.065 1.285-14.217-.609-6.505.34-11.738 3.076-17.362 1.391-2.933 2.037-3.698 7.688-9.31 5.895-5.819 6.419-6.498 9.246-11.34 3.83-6.522 8.142-13.06 8.884-13.557a.7.7 0 0 1 .234-.055c.19 0 .442.246 1.172 3.098 1.053 4.094 2.386 6.865 7.308 14.94 4.564 7.593 6.504 11.786 7.951 17.118 1.568 5.928 2.871 14.546 3.216 21.824.5 9.008.963 13.065 2.352 19.661 1.496 6.98 1.513 9.809.247 13.16-1.792 4.638-2.216 7.816-3.367 24.784-.5 7.528-1.113 13.353-1.88 17.949-1.876 11.15-3.021 15.124-10.322 36.14-4.773 13.819-6.584 20.95-8.702 34.85-2.807 18.186-3.58 28.173-2.963 38.014.23 3.767.693 7.981 1.008 9.398 1.097 4.919.61 15.42-1.39 30.035-1.686 12.304-3.407 18.886-8.317 31.62-4.638 12.06-6.137 24.223-5.752 46.072.231 11.163.5 15.093 2.961 41.728 1.5 16.19 2.728 30.775 2.766 32.448-.003 3.858-1.419 14.995-2.41 18.843-.977 3.798-2.656 6.295-5.769 8.508-2.807 2.015-3.743 3.441-4.532 6.796-.519 2.14-3.966 7.806-6.518 10.55-.853.926-2.858 2.481-4.456 3.47-5.258 3.262-5.947 3.94-5.947 6.975 0 2.361.346 2.85 4.29 7.14 4.144 4.494 4.865 5.131 8.633 5.131.347 0 .742-.005 1.15-.011a34 34 0 0 1 1.076-.017c2.021 0 3.48.19 4.65.538 1.467.454 2.78.704 4.025.704 3.288 0 5.97-1.745 9.733-5.647 3.424-3.54 3.487-3.663 5.73-9.232 1.231-3.079 2.61-5.808 3.017-6.24.427-.395 1.418-.832 2.255-.98 2.37-.374 4.69-2.576 5.723-5.317.997-2.751 1.023-5.869.054-10.287-1.526-6.904-1.365-10.276.669-15.021 1.375-3.144 1.507-4.818.59-7.611-1.353-4.208-1.102-15.267.667-27.267 2.417-16.076 5.868-28.804 11.504-42.262 4.62-11.087 5.744-14.804 7.326-23.714.775-4.146.89-6.327.89-13.252 0-7.204-.155-9.184-1.08-15.048-.577-3.687-1.15-8.36-1.265-10.378-.3-5.259.186-6.635 4.97-13.675 2.183-3.219 4.502-6.886 5.135-8.19 2.643-5.206 4.61-12.865 5.727-22.07.27-2.137.631-5.223.925-7.736l.228-1.951c.723-6.011 1.471-8.117 5.222-15.044 4.624-8.593 6.131-12.035 16.582-37.586 8.486-20.762 12.848-29.956 13.994-30.316a.6.6 0 0 1 .212.032q-.008.018-.016.051l-.005.017c-.075.298-.381 1.411-.688 2.486-.322 1.09-.63 4.093-.783 6.616-.273 5.73.17 7.708 3.33 15.842 4.983 12.803 7.014 21.15 9.394 38.423 1.46 10.563 2.804 23.083 3.264 30.334.232 3.97.771 8.41 1.392 11.204 1.069 5.272 1.213 10.013.386 13.55l-.005.024c-.313 1.352-1.492 5.384-2.64 9.018-3.542 11.127-5.163 18.688-6.05 28.405-.774 8.556-.187 12.949 3.012 23.703.189.627.358 1.16.51 1.643.127.396.24.754.343 1.096 1.046 3.48 1.019 5.375.634 27.748l-.157 9.252c-.385 23.826-.538 26.571-2.225 37.805-.994 6.73-1.214 11.65-.477 13.533.579 1.563 2.309 3.328 3.9 3.981 1.963.817 5.739 1.293 9.731 1.293.89 0 1.796-.024 2.695-.073a54 54 0 0 1 2.803-.078c1.658 0 2.978.094 3.744.262 1.855.4 2.122.557 8.916 5.846 4.226 3.325 8.688 4.953 21.863 8.026 5.079 1.194 8.442 1.77 10.725 1.77 1.465 0 2.53-.236 3.323-.741 1.762-1.091 2.909-3.698 2.949-6.2 0-2.242-.908-3.381-3.684-5.024-.873-.524-1.27-1.053-1.515-2.025-.514-2.23-2.09-3.21-7.537-5.305-9.073-3.508-10.873-4.809-22.965-16.9l-8.908-8.87-.632-3.609c-.914-5.37-.84-14.858.193-21.706.496-3.282 2.874-13.68 6.18-26.867 6.262-25.046 6.306-25.297 7.272-30.982l.037-.215c1.349-7.9 2.31-17.676 3.118-31.133.383-6.516.572-7.832 1.908-12.602 3.35-12.017 3.817-14.97 4.164-25.88l.266-7.97 1.946-3.18c5.696-9.3 8.508-20.365 10.7-42.013 2.001-19.67 1.886-26.542-.77-45.251-2.195-15.55-4.045-23.337-8.82-36.969-1.876-5.32-2.986-9.493-4.945-18.402l-.003-.016c-3.76-17.418-3.91-18.395-4.254-31.235-.347-12.252-1.082-16.41-4.369-24.879l-1.724-4.423 1.201-4.956c.695-2.78 1.466-6.787 1.775-8.913l.489-3.762 3.641-5.537c4.194-6.349 7.667-12.481 9.294-16.278.779-1.829 1.183-2.37 1.496-2.37.54 0 1.45 1.22 3.587 4.835 2.598 4.395 4.234 8.28 5.184 12.156l.349 1.461.627 2.63.907 3.823c1.353 5.724 2.134 7.825 5.869 15.643l2.62 5.506.456 6.5c.345 5.21.345 7.61-.038 11.852-.739 8.17-.053 11.047 6.064 25.32 8.716 20.39 9.902 27.092 6.976 38.378-1.024 3.904-1.476 4.465-3.743 5.472-2.482 1.082-3.977 2.702-4.895 5.336a2007 2007 0 0 1-4.53 11.437c-5.017 12.448-5.252 13.15-5.292 15.431 0 1.568.155 2.133 1.103 2.583.4.182.803.28 1.213.28 1.634 0 3.14-1.54 4.963-4.456 1.062-1.664 2.086-3.017 2.428-3.312 1.203.432 7.439 6.779 7.588 7.768-.117.808-3.514 5.722-4.304 6.24-.27-.075-1.09-.423-1.982-.868-1.662-.819-2.793-1.241-3.772-1.241-.599 0-1.121.156-1.652.438-.876.459-1.357 1.026-1.357 1.876 0 1.362.97 1.856 3.87 2.86 1.812.616 1.732.552 1.976 2.155.388 2.795.564 3.246 2.57 3.246 1.528 0 1.974-.355 3.786-2.437 2.373-2.75 2.673-2.88 5.478-3.175l2.272-.27a.38.38 0 0 0 .302-.217l2.46-5.227c1.92-4.15 2.779-5.51 4.103-6.762 2.246-2.09 3.71-4.696 4.265-7.772.278-1.311.623-7.506.815-13.712.538-16.597 1.421-30.613 2.495-39.55 2.002-16.4 2.08-34.035.192-48.713-1.35-10.563-2.434-14.481-6.18-22.783-2.455-5.408-4.244-10.52-4.775-13.546-.11-.697-.264-4.925-.341-9.361-.116-9.192-.202-9.66-3.524-18.197-2.54-6.545-3.483-9.958-3.825-16.76H529.8Z" style="fill:#4cbadd;fill-opacity:.99607843;stroke-linejoin:miter"/><path d="M490.404 540.8a107.3 107.3 0 0 1-26.993 19.695l-12.537-24.459a79.8 79.8 0 0 0 20.073-14.648Zm-75.494 31.422h-.244a107 107 0 0 1-32.796-5.124l8.418-26.164a79.4 79.4 0 0 0 24.378 3.803h.18Zm-75.642-31.082a107.3 107.3 0 0 1-19.754-26.95l24.43-12.591a79.8 79.8 0 0 0 14.694 20.04Zm-31.59-75.423v-.484c0-11.334 1.767-22.28 5.05-32.567l26.183 8.359a79.5 79.5 0 0 0-3.749 24.208l.001.362Zm30.913-75.711a107.3 107.3 0 0 1 26.905-19.815l12.647 24.402a79.8 79.8 0 0 0-20.01 14.739Zm75.351-31.76.724-.002c11.249 0 22.119 1.741 32.337 4.978l-8.299 26.202a79.5 79.5 0 0 0-24.038-3.695c-.189 0-.352 0-.543.002Zm75.781 30.744a107.3 107.3 0 0 1 19.875 26.86l-24.374 12.702a79.8 79.8 0 0 0-14.783-19.977Zm31.928 75.276a106.9 106.9 0 0 1-5.194 33.993l-26.145-8.477a79.4 79.4 0 0 0 3.858-24.549c0-.234 0-.49-.003-.723Z" style="fill:#4cbadd;fill-opacity:1;stroke-linejoin:miter"/><path d="m619.879 730.032-.694.345q-.98.382-1.94.427-.481.023-.958-.038-1.187-.226-1.419-.372-.47-.19-.887-.449-.991-.706-1.124-.93-.667-.723-1.114-1.721-.404-1.22-.384-1.46-.064-.482-.045-.96.038-.958.412-1.897.965-2.173 2.879-3.019.946-.432 1.908-.52.48-.045.966-.003.246-.031 1.45.317 1.863.66 2.995 2.49.26.47.433.946.14.235.326 1.433.088.962-.168 1.94-.129.488-.33.93-.055.25-.769 1.226-.622.749-1.537 1.315" style="fill:#fff;fill-opacity:.30588236;stroke-linejoin:miter"/><path d="m616.74 722.76-.13.072q-.185.081-.37.097l-.092.005q-.092 0-.183-.016-.093-.016-.184-.048-.184-.066-.328-.186-.072-.06-.134-.133-.146-.196-.163-.252-.041-.092-.065-.185-.023-.046-.037-.276 0-.185.064-.368.168-.425.529-.603.178-.09.362-.115.092-.013.186-.009.047-.008.28.05.364.111.596.454.107.177.149.36.037.229.024.277-.004.093-.025.188-.041.19-.14.347-.137.189-.182.217-.07.066-.156.124" style="fill:#fff;fill-opacity:.25882354;stroke-linejoin:miter"/><path d="m633.073 677.585-.413.084q-.568.065-1.08-.045-.256-.056-.498-.154-.593-.285-.695-.394-.221-.166-.404-.36-.423-.51-.461-.646-.25-.473-.346-1.06-.042-.698.002-.821.033-.263.11-.512.154-.498.482-.94.81-1.008 1.935-1.186.558-.096 1.076-.008.259.044.508.134.134.018.719.369.887.606 1.227 1.727.071.284.096.558.041.143-.029.8-.087.518-.358.995-.136.24-.304.444-.063.124-.575.538-.432.307-.992.477" style="fill:#fff;fill-opacity:.30588236;stroke-linejoin:miter"/><path d="m632.437 673.322-.079.02q-.108.017-.208 0l-.049-.01q-.048-.014-.094-.035t-.09-.05q-.088-.06-.147-.144-.029-.042-.051-.089-.05-.123-.051-.155-.009-.054-.009-.106-.005-.028.02-.15.025-.098.085-.186.147-.2.362-.243.106-.023.207-.01.05.006.098.022.026.002.141.065.176.11.25.322.032.108.028.21-.013.125-.026.149-.015.048-.04.095-.048.094-.121.163-.099.08-.126.089-.047.025-.1.043" style="fill:#fff;fill-opacity:.25882354;stroke-linejoin:miter"/><path d="m654.046 701.833-.693.345q-.98.382-1.94.428-.482.023-.958-.039-1.187-.226-1.42-.372-.47-.19-.886-.448-.992-.707-1.124-.93-.667-.724-1.114-1.722-.404-1.22-.384-1.459-.065-.483-.046-.962.039-.957.413-1.896.964-2.173 2.879-3.018.946-.433 1.908-.522.48-.044.965-.002.246-.03 1.45.317 1.863.66 2.995 2.49.26.47.433.946.14.235.326 1.434.089.961-.168 1.938-.128.489-.33.932-.054.25-.768 1.226-.623.748-1.538 1.314" style="fill:#fff;fill-opacity:.30588236;stroke-linejoin:miter"/><path d="m650.908 694.561-.13.072q-.185.081-.37.098l-.092.004q-.092 0-.184-.016t-.184-.048q-.184-.066-.327-.185-.072-.06-.135-.134-.146-.196-.163-.252-.04-.092-.065-.185-.022-.046-.037-.276 0-.184.064-.368.168-.425.53-.603.178-.09.362-.115.092-.013.185-.008.047-.008.281.049.364.112.596.454.107.177.148.36.037.23.025.277-.005.093-.025.188-.042.19-.14.347-.137.19-.182.217-.071.066-.157.124" style="fill:#fff;fill-opacity:.25882354;stroke-linejoin:miter"/><path d="m690.974 658.486-.387.168q-.543.179-1.067.176-.263-.002-.52-.05-.639-.157-.761-.243-.25-.117-.47-.27-.518-.412-.584-.538-.341-.413-.555-.969-.184-.675-.167-.804-.02-.265.003-.525.05-.52.28-1.02.587-1.153 1.653-1.557.528-.208 1.053-.228.263-.01.525.027.135-.01.78.214.994.413 1.556 1.441.128.264.208.528.07.132.136.79.02.525-.148 1.048-.084.262-.206.497-.037.135-.454.645-.36.389-.875.67" style="fill:#fff;fill-opacity:.30588236;stroke-linejoin:miter"/><path d="m689.48 654.44-.074.035q-.103.039-.204.043l-.05-.001q-.05-.003-.1-.014-.049-.011-.098-.032-.098-.04-.173-.11-.037-.034-.069-.076-.074-.111-.081-.142-.02-.052-.03-.103-.011-.025-.012-.151.005-.1.045-.198.104-.226.305-.313.1-.044.2-.052.051-.004.102.001.026-.003.152.035.194.072.31.264.053.1.07.2.014.126.006.152-.005.05-.02.101-.027.103-.086.185-.08.099-.105.113-.04.034-.089.063" style="fill:#fff;fill-opacity:.25882354;stroke-linejoin:miter"/><path d="m606.066 649.744-.533.226q-.748.239-1.467.229-.36-.006-.712-.073-.875-.224-1.042-.344-.342-.163-.64-.375-.708-.573-.796-.746-.464-.57-.751-1.336-.245-.929-.22-1.106-.025-.363.011-.72.073-.711.396-1.395.82-1.576 2.287-2.118.726-.279 1.447-.3.361-.011.72.043.186-.012 1.068.303 1.359.578 2.119 1.996.171.363.279.726.094.182.177 1.084.02.722-.216 1.439-.118.358-.289.68-.052.183-.63.878-.499.53-1.208.91" style="fill:#fff;fill-opacity:.30588236;stroke-linejoin:miter"/><path d="m604.062 644.175-.1.047q-.142.052-.28.056l-.07-.001q-.068-.004-.136-.02-.068-.017-.135-.045-.134-.057-.236-.153-.05-.048-.094-.106-.1-.153-.11-.196-.026-.07-.04-.14-.014-.036-.014-.209.008-.137.065-.27.144-.31.422-.426.137-.06.276-.07.069-.004.138.003.036-.004.208.05.265.1.423.366.072.137.094.275.017.173.006.208-.008.07-.028.14-.04.14-.12.252-.111.135-.146.153-.056.046-.123.086" style="fill:#fff;fill-opacity:.25882354;stroke-linejoin:miter"/><path d="m682.093 708.512-.693.345q-.98.381-1.941.427-.48.023-.957-.038-1.187-.227-1.42-.373-.47-.19-.886-.448-.992-.706-1.125-.93-.666-.723-1.114-1.722-.403-1.22-.383-1.459-.065-.482-.046-.961.038-.957.413-1.897.964-2.172 2.879-3.018.946-.433 1.907-.521.481-.044.966-.002.246-.031 1.45.317 1.863.659 2.995 2.489.26.471.433.946.14.235.326 1.434.089.962-.168 1.939-.128.488-.33.931-.055.25-.768 1.226-.623.748-1.538 1.315" style="fill:#fff;fill-opacity:.30588236;stroke-linejoin:miter"/><path d="m678.955 701.24-.13.071q-.186.082-.37.098l-.092.004q-.092 0-.184-.016t-.184-.048q-.184-.065-.328-.185-.072-.06-.134-.134-.146-.196-.163-.251-.04-.093-.065-.185-.022-.047-.037-.277 0-.184.064-.368.168-.425.53-.602.177-.091.362-.116.091-.012.185-.008.047-.008.281.05.363.111.595.454.108.177.149.36.037.229.025.276-.005.094-.025.189-.042.19-.141.346-.137.19-.181.217-.071.067-.157.125" style="fill:#fff;fill-opacity:.25882354;stroke-linejoin:miter"/><path d="m649.552 686.592-.693.345q-.98.382-1.941.427-.48.023-.957-.038-1.187-.226-1.42-.372-.47-.19-.886-.448-.992-.707-1.124-.93-.667-.724-1.114-1.722-.404-1.22-.384-1.46-.065-.482-.046-.96.039-.958.413-1.897.964-2.173 2.879-3.019.946-.433 1.908-.52.48-.045.965-.003.246-.031 1.45.317 1.863.66 2.995 2.49.26.47.433.946.14.235.326 1.433.089.962-.168 1.94-.128.488-.33.93-.054.25-.768 1.226-.623.749-1.538 1.315" style="fill:#fff;fill-opacity:.30588236;stroke-linejoin:miter"/><path d="m646.414 679.32-.13.072q-.185.081-.37.097l-.092.005q-.092 0-.184-.016t-.184-.048q-.184-.066-.328-.186-.072-.06-.134-.133-.145-.196-.163-.252-.04-.092-.065-.185-.022-.046-.037-.276 0-.185.065-.368.168-.425.528-.603.179-.09.363-.116.092-.012.185-.008.047-.008.282.05.363.112.595.454.107.177.148.36.037.229.025.277-.004.093-.025.188-.042.19-.14.347-.137.189-.182.217-.071.066-.157.124" style="fill:#fff;fill-opacity:.25882354;stroke-linejoin:miter"/><path d="m643.105 639.23-.413.085q-.568.064-1.08-.046-.256-.055-.498-.153-.593-.285-.694-.394-.221-.166-.404-.36-.423-.51-.462-.646-.25-.473-.345-1.06-.042-.699.002-.821.033-.263.11-.512.153-.498.481-.94.81-1.008 1.935-1.186.558-.096 1.077-.008.259.044.508.134.133.018.718.369.888.606 1.228 1.727.07.284.095.558.042.143-.028.8-.088.517-.359.995-.136.24-.303.444-.064.124-.576.538-.431.307-.992.477" style="fill:#fff;fill-opacity:.30588236;stroke-linejoin:miter"/><path d="m642.47 634.968-.079.02q-.109.017-.208 0l-.05-.01q-.048-.014-.094-.035t-.09-.05q-.087-.06-.146-.144-.03-.042-.052-.089-.05-.124-.05-.155-.009-.054-.009-.106-.005-.028.02-.151.025-.097.084-.185.148-.2.362-.243.107-.023.207-.01.05.006.099.022.026.002.14.065.176.11.25.322.032.108.028.21-.012.125-.025.149-.015.048-.04.095-.048.094-.122.163-.098.08-.126.089-.046.025-.1.043" style="fill:#fff;fill-opacity:.25882354;stroke-linejoin:miter"/><path d="m626.354 616.016-.533.225q-.748.24-1.467.23-.36-.006-.712-.074-.875-.223-1.042-.343-.342-.163-.64-.375-.708-.573-.796-.746-.464-.57-.751-1.336-.245-.929-.219-1.106-.026-.363.01-.72.073-.712.396-1.395.82-1.576 2.287-2.118.726-.28 1.447-.3.361-.011.72.043.186-.012 1.068.303 1.359.578 2.119 1.996.171.363.279.726.094.181.177 1.084.021.722-.216 1.438-.118.359-.289.68-.052.184-.63.879-.499.53-1.208.91" style="fill:#fff;fill-opacity:.30588236;stroke-linejoin:miter"/><path d="m624.35 610.447-.1.047q-.142.052-.28.056l-.07-.001q-.068-.005-.136-.02-.068-.017-.135-.045-.134-.057-.236-.154-.05-.048-.093-.105-.1-.153-.11-.196-.027-.07-.04-.14-.015-.036-.015-.209.008-.137.065-.271.144-.31.422-.425.137-.06.276-.07.069-.004.139.003.035-.004.207.05.266.1.423.366.072.137.094.275.017.173.006.208-.008.07-.028.14-.04.14-.12.252-.111.134-.146.153-.056.046-.123.086" style="fill:#fff;fill-opacity:.25882354;stroke-linejoin:miter"/><path d="m648.402 608.104-.694.344q-.979.382-1.94.428-.481.023-.958-.038-1.187-.227-1.419-.373-.47-.19-.887-.448-.991-.706-1.124-.93-.667-.723-1.114-1.722-.404-1.22-.384-1.459-.064-.483-.045-.961.038-.957.412-1.897.965-2.172 2.88-3.018.945-.433 1.907-.521.48-.044.966-.002.246-.031 1.45.317 1.863.659 2.995 2.489.26.471.433.946.14.235.326 1.434.088.962-.168 1.939-.129.488-.33.931-.055.25-.769 1.226-.622.749-1.537 1.315" style="fill:#fff;fill-opacity:.30588236;stroke-linejoin:miter"/><path d="m645.264 600.832-.13.071q-.186.082-.37.098l-.092.004q-.093 0-.184-.015-.092-.017-.184-.049-.184-.065-.328-.185-.072-.06-.134-.134-.146-.196-.163-.251-.04-.093-.065-.185-.023-.047-.037-.277 0-.184.064-.368.168-.425.529-.602.178-.091.362-.116.092-.012.186-.008.047-.008.28.05.364.111.596.454.107.177.149.36.037.229.024.276-.004.094-.025.189-.041.19-.14.346-.137.19-.182.217-.07.067-.156.125" style="fill:#fff;fill-opacity:.25882354;stroke-linejoin:miter"/><path d="m660.772 631.77-.387.167q-.544.18-1.068.176-.262-.001-.52-.048-.638-.158-.76-.244-.25-.117-.47-.27-.518-.413-.584-.538-.342-.413-.556-.97-.184-.674-.166-.804-.021-.264.003-.524.049-.52.28-1.02.587-1.153 1.653-1.557.527-.208 1.053-.228.263-.01.525.027.135-.01.78.214.994.413 1.556 1.441.128.264.208.527.07.132.136.79.02.525-.148 1.05-.084.261-.207.496-.037.135-.453.644-.36.39-.875.67" style="fill:#fff;fill-opacity:.30588236;stroke-linejoin:miter"/><path d="m659.277 627.723-.073.036q-.103.038-.204.042h-.05q-.05-.003-.1-.014-.05-.012-.098-.032-.098-.04-.173-.11-.038-.035-.07-.077-.073-.11-.08-.141-.02-.052-.03-.103-.011-.026-.013-.151.006-.1.046-.198.104-.227.305-.313.1-.044.2-.052.051-.004.102 0 .026-.002.151.036.194.071.31.264.054.1.071.2.014.126.005.151-.005.051-.019.102-.028.102-.086.185-.08.099-.105.112-.04.034-.09.063" style="fill:#fff;fill-opacity:.25882354;stroke-linejoin:miter"/><path d="m635.12 651.887-.388.168q-.543.179-1.068.176-.262-.002-.52-.049-.638-.157-.76-.244-.25-.116-.47-.27-.518-.412-.584-.538-.342-.413-.556-.968-.184-.676-.166-.805-.021-.264.003-.524.049-.52.28-1.02.587-1.153 1.653-1.558.528-.208 1.053-.228.263-.01.525.027.135-.01.78.215.994.413 1.556 1.44.128.265.208.528.07.132.136.79.02.525-.148 1.049-.084.262-.206.497-.037.134-.454.644-.36.39-.875.67" style="fill:#fff;fill-opacity:.30588236;stroke-linejoin:miter"/><path d="m633.624 647.841-.073.035q-.103.04-.204.043h-.05q-.05-.003-.1-.015-.049-.01-.098-.031-.098-.041-.173-.11-.037-.035-.069-.077-.074-.11-.081-.142-.02-.051-.03-.102-.011-.026-.012-.152.005-.1.045-.198.104-.226.305-.312.1-.044.2-.052.051-.004.102 0 .026-.002.151.036.195.071.311.264.053.1.07.2.014.126.005.151-.005.05-.018.102-.029.102-.087.184-.08.1-.105.113-.04.034-.089.063" style="fill:#fff;fill-opacity:.25882354;stroke-linejoin:miter"/></svg>