<svg xmlns="http://www.w3.org/2000/svg" width="1531" height="1093" viewBox="-221 567 1531 1093"><path d="M-221.001 566.167a.83.83 0 0 0-.832.832l.001 1093c0 .46.373.833.832.833h1531a.83.83 0 0 0 .833-.831L1310.832 567a.83.83 0 0 0-.832-.832z" style="fill:#9fc2aa;fill-opacity:1;stroke-linejoin:miter"/><path d="m180.35 1258.872 1.5-89.416q6.444-44.99 14.099-65.36 6.864-20.748 29.457-57.99l79.38 8.751q-4.992 62.963-13.268 84.594-7.245 23.388-33.295 50.462l12.34 55.403z" style="fill:#ffa57a;fill-opacity:1;stroke-linejoin:miter"/><path d="M265.701 971.517c-41.898 0-75.86 33.966-75.86 75.859 0 41.894 33.962 75.86 75.86 75.86s75.86-33.966 75.86-75.86-33.962-75.858-75.86-75.859m0 104.306c-15.708 0-28.447-12.735-28.447-28.447s12.74-28.447 28.447-28.447c15.708 0 28.447 12.735 28.447 28.447s-12.74 28.447-28.447 28.447" style="fill:#e89c25;fill-opacity:1;stroke-linejoin:miter"/><path d="M265.701 993.465c32.733 0 59.436 25.54 61.441 57.776.08-1.29.194-2.565.194-3.864 0-34.041-27.594-61.635-61.635-61.636-34.042 0-61.636 27.594-61.636 61.635 0 1.3.114 2.574.195 3.86 2.005-32.23 28.703-57.771 61.441-57.771" style="fill:#946c57;fill-opacity:1;stroke-linejoin:miter"/><path d="M298.89 1042.636c0-15.713-12.74-28.448-28.448-28.448-9.06 0-17.116 4.247-22.33 10.857 4.845-3.822 10.946-6.116 17.589-6.116 15.708 0 28.447 12.735 28.447 28.448 0 6.647-2.294 12.744-6.116 17.589 6.605-5.21 10.857-13.265 10.857-22.33m-28.448 75.858c-41.898 0-75.86-33.966-75.86-75.859 0-19.742 7.606-37.66 19.961-51.157-15.143 13.868-24.701 33.738-24.701 55.898 0 41.894 33.96 75.86 75.859 75.86 22.155 0 42.026-9.559 55.899-24.702-13.498 12.356-31.415 19.96-51.158 19.96" style="fill:#bb7e1f;fill-opacity:1;stroke-linejoin:miter"/><path d="M294.115 1048.021c1.147.67 2.451 1.266 3.817 1.83.607-2.309.957-4.717.957-7.216 0-15.712-12.74-28.447-28.447-28.447-9.06 0-17.116 4.247-22.33 10.857l.64-.422a28 28 0 0 1 2.555-1.702l1.223-.692a27 27 0 0 1 2.802-1.266l1.342-.522c1.01-.34 2.058-.593 3.115-.82l1.295-.294a28 28 0 0 1 4.618-.398c15.707 0 28.447 12.735 28.447 28.448z" style="fill:#623a25;fill-opacity:1;stroke-linejoin:miter"/><path d="m491.712 1054.02-1.911.009q-67.878 2.407-139.98 59.037-41.42 25.786-68.362 119.535l-9.473-19.418-103.88 33.326 5.844 115.086q4.169 28.16 13.207 40.904 43.913 54.011 120.89 32.954l18.067 224.6 559.177.001-28.401-74.3q28.135-31.967 34.837-46.56 8.784-15.79-1.633-39.425 41.565-34.555 37.508-83.965-14.571-148.73-56.277-210.793-38.031-59.843-124.8-92.238-39.403-15.678-130.388-36.61-98.854-24.656-124.425-22.144" style="fill:#fff;fill-opacity:1;stroke-linejoin:miter"/><path d="m588.617 1104.718-69.688-41.928q-5.6-21.511-3.107-39.94 1.958-20.932 18.603-58.788 22.637-47.455 38.22-69.76 33.77-48.793 50.659-61.077 30.503-26.658 66.361-26.723 38.496-.358 93.266 29.478 45.428 22.389 64.565 144.316 9.58 73.378 3.877 100.983-3.107 29.978-23.413 57.894-9.374 11.79-19.662 21.961z" style="fill:#000;fill-opacity:1;stroke-linejoin:miter"/><path d="M585.673 1065.826v.004l-12.213 211.537 112.109-179.353z" style="fill:#ffa57a;fill-opacity:1;stroke-linejoin:miter"/><path d="m585.918 1079.492-2.351-9.593q-10.66-43.252-13.062-63.78-3.504-25.252.781-42.76 2.992-11.54 8.57-20.506 8.569-13.25 19.321-24.329 24.55-55.292 36.41-67.214 9.574-11.193 20.901-14.172 11.154-3.38 35.607-.603 25.28 12.748 35.841 21.588 13.315 10.284 17.516 25.17 1.162 2.228 1.876 16.133.306 5.323-1.975 36.093-.275 6.154-.018 12.191.311 6.022 1.144 11.892 4.976 29.004 4.953 34.716.23 14.535-.86 17.58-2.538 20.678-31.362 56.62-10.633 13.09-22.16 26.304z" style="fill:#ffa57a;fill-opacity:1;stroke-linejoin:miter"/><path d="m702.328 1194.3-.005.016zl-.005.016Z" style="fill:#ff5600;fill-opacity:1;stroke-linejoin:miter"/><path d="m653.725 1051.1-.014.026q-14.05-3.158-22.384-6.15-7.649-2.626-23.762-10.224 1.344-7.961 2.902-12.631 1.34-4.044 3.59-7.587 2.61-4.142 7.834-10.085l37.037 13-1.387 13.883z" style="fill:#000;fill-opacity:1;stroke-linejoin:miter"/><path d="m658.404 1017.335-.362-1.329q-1.325-5.547-3.328-9.561-1.226-2.07-2.094-2.712-.786-.766-2.523-1.445-2.352-.84-7.483-.529-3.844-2.378-6.28-3.247-2.144-.781-4.07-.671-4.174.23-11.084 6.476z" style="fill:#fff;fill-opacity:1;stroke-linejoin:miter"/><path d="m630.378 1040.19-23.165-6.185q.146 8.194.738 12.182.658 4.96 2.53 8.198 1.815 2.976 4.75 4.82 4.181 2.49 8.769 3.586 10.098 2.63 16.698-.176 5.728-2.052 14.342-13.844z" style="fill:#ff9ad1;fill-opacity:1;stroke-linejoin:miter"/><path d="m653.962 1049.217.616-2.67q2.594-10.801 4.253-20.604 1.558-10.695 1.135-15.169-.238-5.659-1.96-9.178-.226-.795-2.062-2.696-1.565-1.343-3.638-1.855-1.91-.772-9.238-.494-3.464-3.295-10.104-4.199-3.273-.13-4.087.226-1.465.323-3.015 1.144l-1.547.988q-4.809 3.216-9.336 13.844-4.252 10.05-7.515 23.56-.53 2.384-.603 3.449-.067 1.1.47.216.502-.851 1.464-3.072 3.922-9.37 6.771-15.46 4.247-8.603 5.187-9.75 3.553-5.63 6.96-7.47 3.39-1.8 6.68-1.15 2.485.253 8.168 3.183 5.812.265 7.398 1.012 6.42 2.07 6.848 11.93.907 6.888-2.845 34.215" style="fill:#ff001f;fill-opacity:1;stroke-linejoin:miter"/><path d="m608.536 1030.66.052 2.003q.18 15.573 2.64 21.295 1.352 2.994 4.112 4.597 2.773 1.625 7.52 2.805 13.578 3.332 19.966-.08 3.148-1.83 4.943-4.38 3.398-4.66 7.212-13.365l.082 1.361q-.413 5.89-4.226 13.819-2.927 6.03-8.21 9.753-4.654 2.986-10.085 3.352-2.809.249-5.767.006-2.964-.229-5.865-.95l-2.832-.818q-5.719-1.862-9.501-5.393l-1.643-1.847q-1.444-1.94-2.172-4.219-1.362-4.596-.6-10.2 1.292-8.449 4.374-17.74" style="fill:#ff001f;fill-opacity:1;stroke-linejoin:miter"/><path d="M672.937 994.371v.004zv.004Z" style="fill:#000;fill-opacity:1;stroke-linejoin:miter"/><path d="m646.297 971.795-.72-.023q-3.594-.07-5.146.124-1.48.134-2.632.722-1.36.807-1.21 2.04.086.44.583.82.327.207.456.227.374.117.737.13.254.003.528-.016.123.016.909-.207.642-.201 1.406-.584 2.347-1.27 5.09-3.233" style="fill:#000;fill-opacity:.30980393;stroke-linejoin:miter"/><path d="M639.553 991.73v.003zl-.007.013Z" style="fill:#000;fill-opacity:1;stroke-linejoin:miter"/><path d="m655.132 975.07.661.303q3.277 1.466 4.602 2.288.665.42 1.155.83.44.348.918.965.876 1.308.212 2.353-.27.367-.877.487-.378.046-.501.014-.402-.05-.73-.192-.232-.09-.468-.25-.237-.143-.486-.34l-.24-.228q-.509-.45-1.03-1.124-.535-.714-1.228-1.808-.477-.698-1.988-3.299" style="fill:#000;fill-opacity:.30588236;stroke-linejoin:miter"/><path d="m646.783 928.503-.747-1.024q-2.605-3.595-3.786-4.931-1.97-2.236-2.404-2.566-2.53-2.42-5.255-3.393l-1.24-.348-1.274-.235-1.31-.105q-1.345-.041-2.746.101-3.486.3-10.267 2.334 5.366 3.403 8.374 4.973 2.996 1.546 3.595 1.767 1.209.512 2.413.94 4.841 1.823 14.647 2.487" style="fill:#fff;fill-opacity:.99607843;stroke-linejoin:miter"/><path d="m627.329 919.635-.094.608q-.133 1.855 1.008 3.254 1.14 1.414 3.077 1.64 1.876.143 3.277-.988 1.4-1.147 1.647-3.09.125-1.86-1.008-3.27-1.154-1.389-3.091-1.632-1.876-.126-3.27.992-.451.368-.795.843l-.319.506q-.286.523-.432 1.137m23.485-4.429v.003q-4.755-3.409-7.26-4.794-2.69-1.566-5.439-2.371-1.078-.31-2.172-.482-.542-.157-3.295-.274-2.755-.068-7.784.578z" style="fill:#000;fill-opacity:.99607843;stroke-linejoin:miter"/><path d="m686.093 940.788 1.502-.517q4.502-1.619 8.734-2.361 1.396-.211 2.743-.234l1.331.034q1.163.044 2.847.53 2.932 1.002 5.605 3.43 2.783 2.504 6.783 7.682-11.33-.554-16.178-2.1-1.232-.36-2.404-.803-.62-.167-3.433-1.468-2.793-1.34-7.53-4.193" style="fill:#fff;fill-opacity:.99607843;stroke-linejoin:miter"/><path d="M690.544 927.6v.003q5.8-.025 8.806.325 2.98.388 3.509.586 1.124.253 2.193.625 2.691 1.023 4.862 2.558 2.598 1.83 6.013 4.999zm6.71 14.245-.1.589q-.06.84.134 1.586.095.363.261.699.035.199.618.988.497.627 1.17 1.018.133.154 1.087.464.38.12.815.17.837.052 1.57-.134.373-.098.715-.245l.342-.18q.33-.186.65-.444 1.24-1.002 1.577-2.666.151-.842.015-1.606-.075-.37-.202-.733-.028-.18-.52-1.018-.073-.203-.79-.882-.285-.267-.618-.461-.666-.388-1.494-.55-.848-.155-1.612-.018-.928.213-1.094.338-.349.16-.666.37-.655.441-1.12 1.082-.491.645-.738 1.633" style="fill:#000;fill-opacity:.99607843;stroke-linejoin:miter"/><path d="M340.925 1056.708c.379-3.064.635-6.155.635-9.312-.005-12.053-2.883-23.407-7.875-33.525-12.38-25.067-38.134-42.353-67.984-42.354-41.898 0-75.86 33.966-75.86 75.859 0 1.555.143 3.082.233 4.619 3.12-.114 6.49-.404 9.492-.968 21.326-3.954 23.383-10.113 40.086-15.077 4.414-10.018 14.404-17.021 26.049-17.021 15.707 0 28.447 12.735 28.447 28.448l-.033.644c13.109 7.6 42.263 8.577 46.81 8.687" style="fill:#89421d;fill-opacity:1;stroke-linejoin:miter"/><path d="M195.166 1051.634c-.35-2.959-.583-5.95-.583-8.999 0-19.742 7.605-37.66 19.96-51.157a78 78 0 0 0-5.39 5.452l-.033.038a76 76 0 0 0-4.699 5.826l-.19.252a79 79 0 0 0-3.892 5.955l-.37.616c-1.114 1.92-2.114 3.902-3.058 5.927l-.512 1.062c-.844 1.887-1.574 3.83-2.262 5.794l-.564 1.536c-.602 1.848-1.085 3.75-1.55 5.66l-.498 1.945c-.403 1.896-.683 3.845-.939 5.789l-.308 2.038a74 74 0 0 0-.436 8.008c0 1.555.142 3.082.232 4.619a77 77 0 0 0 5.092-.361" style="fill:#623a25;fill-opacity:1;stroke-linejoin:miter"/><path d="M639.559 1061.085c-34.437 0-62.358 15.392-62.358 31.18v25.98c0 15.787 27.92 31.179 62.358 31.178 34.441 0 62.358-15.391 62.358-31.178v-25.98c0-15.788-27.917-31.18-62.358-31.18m.023 54.564c-17.173 0-31.202 1.686-31.202-5.443s13.922-12.91 31.099-12.91c17.173 0 31.095 5.781 31.095 12.91s-13.82 5.443-30.992 5.443" style="fill:#ffd2a6;fill-opacity:1;stroke-linejoin:miter"/><path d="M620.818 1099.88c5.2-1.621 11.658-2.584 18.66-2.584 7.046 0 13.547.975 18.761 2.615 7.555-2.356 12.438-6.105 12.438-10.326 0-7.132-13.922-12.91-31.095-12.91s-31.095 5.778-31.095 12.91c0 4.202 4.84 7.936 12.33 10.295" style="fill:#d770ad;fill-opacity:1;stroke-linejoin:miter"/><path d="M612.6 1103.71c5.39-3.833 15.408-6.414 26.879-6.414 11.468 0 21.485 2.58 26.874 6.413 2.684-1.906 4.221-4.126 4.221-6.493 0-7.129-13.922-12.91-31.095-12.91-17.177 0-31.1 5.781-31.1 12.91 0 2.368 1.538 4.587 4.222 6.493" style="fill:#f4be8e;fill-opacity:1;stroke-linejoin:miter"/><path d="M639.559 1061.085c-34.437 0-62.358 15.392-62.358 31.18v11.071l22.6 18.787c2.371 1.968 6.2 3.231 9.496 3.231.582 0 1.153-.041 1.69-.121l23.852-3.635c2.573-.392 6.92-.392 9.493 0l23.803 3.631c3.585.547 8.396-.788 11.186-3.106l22.596-18.787v-11.072c0-15.787-27.917-31.179-62.358-31.179m.023 41.41c-17.173 0-31.095-5.78-31.095-12.91 0-7.132 13.922-12.91 31.095-12.91s31.095 5.778 31.095 12.91c0 7.13-13.922 12.91-31.095 12.91" style="fill:#ec87c0;fill-opacity:1;stroke-linejoin:miter"/><path d="M599.82 1090.426a2.6 2.6 0 0 0-.579-.434c-1.583-.883-1.811-1.891-1.846-2.576a4.3 4.3 0 0 1 .343-1.83l-.015.025a2.598 2.598 0 0 0-4.171-2.98q-.31.315-.491.693h-.004c-.092.183-.883 1.865-.86 4.02.034 3.036 1.64 5.59 4.521 7.19.99.547 2.261.406 3.102-.435a2.6 2.6 0 0 0 0-3.673" style="fill:#a0d468;fill-opacity:1;stroke-linejoin:miter"/><path d="M645.52 1069.642a2.59 2.59 0 0 0 0 3.672 2.59 2.59 0 0 0 3.672 0 2.593 2.593 0 0 0 0-3.672 2.59 2.59 0 0 0-3.673 0" style="fill:#ed5564;fill-opacity:1;stroke-linejoin:miter"/><path d="M671.5 1072.237a2.605 2.605 0 0 0 0 3.677 2.607 2.607 0 0 0 3.676 0 2.606 2.606 0 0 0 0-3.677 2.606 2.606 0 0 0-3.677 0" style="fill:#5d9cec;fill-opacity:1;stroke-linejoin:miter"/><path d="M650.714 1111.21a2.6 2.6 0 0 0 0 3.677 2.605 2.605 0 0 0 3.677 0 2.605 2.605 0 0 0 0-3.676 2.605 2.605 0 0 0-3.677 0" style="fill:#a0d468;fill-opacity:1;stroke-linejoin:miter"/><path d="M629.93 1108.615a2.594 2.594 0 0 0 0 3.673 2.594 2.594 0 0 0 3.673 0 2.593 2.593 0 0 0 0-3.673 2.593 2.593 0 0 0-3.673 0" style="fill:#ffce54;fill-opacity:1;stroke-linejoin:miter"/><path d="M690.766 1087.827a2.57 2.57 0 0 0-1.504-.735v-.004c-5.073-.659-5.534-2.827-5.549-2.923.015.084.011.133.011.133a2.598 2.598 0 0 0-4.43-1.668 2.6 2.6 0 0 0-.75 2.01l-.004.001q.001.026.008.072v.012c.046.464.297 2.04 1.69 3.669 1.77 2.062 4.583 3.36 8.354 3.848l.004-.004a2.6 2.6 0 0 0 2.17-.735 2.603 2.603 0 0 0 0-3.676" style="fill:#48cfad;fill-opacity:1;stroke-linejoin:miter"/><path d="M676.535 1102.727h.004l-.099-.022h-.015c-.472-.096-1.953-.297-3.871.384-2.558.91-4.792 2.938-6.642 6.029-.594 1-.468 2.31.392 3.17a2.597 2.597 0 0 0 3.677 0 2.8 2.8 0 0 0 .388-.506l.004.003c2.512-4.204 4.88-4.003 5.058-3.98a2.61 2.61 0 0 0 2.345-.712 2.605 2.605 0 0 0 0-3.677 2.6 2.6 0 0 0-1.241-.689m-1.2 5.055c.031.004.062.015.092.019-.057-.008-.091-.02-.091-.02" style="fill:#ffce54;fill-opacity:1;stroke-linejoin:miter"/><path d="M616.175 1107.854c-5.664 0-7.597-1.972-7.83-3.015.02.073.02.115.02.115h-.005a2.6 2.6 0 0 0-.738-1.537 2.605 2.605 0 0 0-3.676 0 2.6 2.6 0 0 0-.743 2.138c.042.373.358 2.334 2.322 4.187 2.322 2.196 5.907 3.307 10.65 3.307v.004a2.6 2.6 0 0 0 1.838-.765 2.594 2.594 0 0 0 0-3.673 2.6 2.6 0 0 0-1.839-.761" style="fill:#ed5564;fill-opacity:1;stroke-linejoin:miter"/><path d="M628.407 1064.442a2.605 2.605 0 0 0-3.677 0 2.57 2.57 0 0 0-.719 1.404l-.004.004c-.681 4.02-5.75 5.664-5.968 5.732a2.6 2.6 0 0 0-1.103.655 2.606 2.606 0 0 0 0 3.676c.7.701 1.701.914 2.588.652.506-.153 8.331-2.608 9.595-9.782q-.001-.007.004-.015.001-.027.008-.053v.003a2.61 2.61 0 0 0-.724-2.276" style="fill:#4fc2e9;fill-opacity:1;stroke-linejoin:miter"/><path d="m645.638 1404.39-13.324-142.367q-32.83-26.516-38.726-43.02-7.773-15.925-2.282-54.267-19.91-42.9-23.444-54.788-4.888-13.993-2.679-20.695 7.049-9.963 22.396 31.921-9.408-11.222-6.002-15.801 9.156-9.403 18.461-4.077 2.996 2.3 5.019 6.618.11-1.216 7.373 20.328 1.063 2.991 4.65 7.708 2.596 4.447 34.788 26.928 25.45 1.665 32.719-8.81 4.306-4.131 7.614-16.13 1.579-2.95 1.409-28.204.751-5.758 1.358-6.354 3.66-7.281 11.412-3.343 7.008 4.441 6.978 21.412.657 13.36-10.077 65.183 4.66 17.021 4.347 27.504-.862 12.636-10.172 26.878l47.449 106.005q-30.971 25.954-47.62 35.182-16.44 9.896-51.647 22.189" style="fill:#ffa57a;fill-opacity:1;stroke-linejoin:miter"/><path d="m291.059 1252.22 32.395 92.526q-.982-15.95-6.862-32.1-6.175-17.503-23.02-54.804zm460.732 94.824 99.417 127.081q-14.487-32.128-31.97-53.81-18.833-23.932-61.092-66.763zM646.464 1419.5q34.024 97.476 54.162 138.509 8.028 16.725 16.345 30.38l8.407 12.695q8.488 11.832 17.372 19.442 17.588 14.023 36.492 14.023 5.852 0 11.83-1.344 22.168-3 68.718-32.642h-.01q-39.8 18.395-62.06 18.395-.635 0-1.255-.015-27.358-1.1-44.562-17.144-8.89-7.599-17.733-18.705-4.444-3.84-26.444-39.612-26.35-46.785-52.545-105.045l-8.71-18.937Z" style="fill:#000;fill-opacity:.11764706;stroke-linejoin:miter"/></svg>