<?xml version="1.0" encoding="UTF-8" standalone="yes"?> <svg xmlns="http://www.w3.org/2000/svg" xmlns:xlink="http://www.w3.org/1999/xlink" width="841" height="756" viewBox="0 0 841 756" style="fill:none;stroke:none;fill-rule:evenodd;clip-rule:evenodd;stroke-linecap:round;stroke-linejoin:round;stroke-miterlimit:1.5;" version="1.1"><style class="text-font-style fontImports" data-font-family="Roboto">@import url('https://fonts.googleapis.com/css2?family=Roboto:wght@400;700&amp;display=block');</style><g id="items" style="isolation: isolate"><g id="blend" style="mix-blend-mode: normal"><g id="g-root-sy_0_cu_hyf0d7vynlz7-fill" data-item-order="-456186" transform="translate(14, 290)"><g id="sy_0_cu_hyf0d7vynlz7-fill" stroke="none" fill="#666666"><g><path d="M 250 130C 250 196.274 196.274 250 130 250C 63.7258 250 10 196.274 10 130C 10 63.7258 63.7258 10 130 10C 196.274 10 250 63.7258 250 130Z"></path></g></g></g><g id="g-root-sy_6_cu_4nkz2zvynkec-fill" data-item-order="-456182" transform="translate(186.36962890625, 482)"><g id="sy_6_cu_4nkz2zvynkec-fill" stroke="none" fill="#e55753"><g><path d="M 209.63 130L 53.6393 10C 42.2165 25.2074 27.2648 37.6127 10 46L 209.63 226L 629.63 226L 629.63 130L 209.63 130Z"></path></g></g></g><g id="g-root-sy_5_cu_1ut20t7vynkzx-fill" data-item-order="-456178" transform="translate(230.0087890625, 446)"><g id="sy_5_cu_1ut20t7vynkzx-fill" stroke="none" fill="#de8431"><g><path d="M 165.991 70L 28.4976 10C 24.3791 23.1129 18.0703 35.2558 10 46L 165.991 166L 585.991 166L 585.991 70L 165.991 70Z"></path></g></g></g><g id="g-root-sy_4_cu_1qd8iorvynls6-fill" data-item-order="-456174" transform="translate(248.50634765625, 410)"><g id="sy_4_cu_1qd8iorvynls6-fill" stroke="none" fill="#e0cb15"><g><path d="M 10 46L 147.493 106L 567.494 106L 567.494 10L 147.493 10L 15.4936 10C 15.4936 22.5425 13.5694 34.6355 10 46Z"></path></g></g></g><g id="g-root-sy_3_cu_1d2ehejvynk7b-fill" data-item-order="-456170" transform="translate(248.50634765625, 314)"><g id="sy_3_cu_1d2ehejvynk7b-fill" stroke="none" fill="#92bd39"><g><path d="M 10 70C 13.5694 81.3645 15.4936 93.4575 15.4936 106L 147.493 106L 567.494 106L 567.494 10L 147.493 10L 10 70Z"></path></g></g></g><g id="g-root-sy_2_cu_18mkza3vynkzk-fill" data-item-order="-456166" transform="translate(230.0087890625, 218)"><g id="sy_2_cu_18mkza3vynkzk-fill" stroke="none" fill="#3cc583"><g><path d="M 165.991 10L 10 130C 18.0703 140.744 24.3791 152.887 28.4976 166L 165.991 106L 585.991 106L 585.991 10L 165.991 10Z"></path></g></g></g><g id="g-root-sy_1_cu_zqxz17vynls9-fill" data-item-order="-456162" transform="translate(186.36962890625, 122)"><g id="sy_1_cu_zqxz17vynls9-fill" stroke="none" fill="#1eabda"><g><path d="M 209.63 10L 10 190C 27.2648 198.387 42.2165 210.793 53.6393 226L 209.63 106L 629.63 106L 629.63 10L 209.63 10Z"></path></g></g></g><g id="g-root-ic_shie_1hbcrkrvyoz62-fill" data-item-order="-2304" transform="translate(422, 146)"><g id="ic_shie_1hbcrkrvyoz62-fill" stroke="none" fill="#484848"><g><path d="M 29.1 45.439999C 29.050539 45.027115 28.745892 44.690399 28.34 44.599998C 27.528811 44.407753 26.707537 44.260857 25.880001 44.16C 25.38258 44.099918 25.006405 43.680996 25 43.18L 25 34C 25.006493 33.608387 25.241009 33.256615 25.6 33.099998L 30.440001 30.940001C 32.62458 29.967699 34.023281 27.791071 34 25.400002L 34 24C 34 22.895432 33.104568 22 32 22C 30.89543 22 30 22.895432 30 24L 30 25.4C 29.99836 26.185799 29.536718 26.897823 28.82 27.219999L 25.700001 28.6C 25.550461 28.681822 25.369539 28.681822 25.220001 28.6C 25.083393 28.503521 25.001526 28.347231 25 28.179998L 25 22.939999C 24.987055 22.538631 25.215462 22.168453 25.58 22L 32.48 18.860001C 34.615768 17.890549 35.990814 15.765473 36 13.42L 36 12C 36 10.895431 35.104568 10 34 10C 32.895432 10 32 10.895431 32 12L 32 13.42C 31.99836 14.205799 31.536718 14.917824 30.82 15.24L 25.700001 17.58C 25.545139 17.647589 25.366615 17.632391 25.225407 17.539597C 25.0842 17.446802 24.999411 17.288967 25 17.119999L 25 16C 25 14.895431 24.104568 14 23 14C 21.895432 14 21 14.895431 21 16L 21 22.439999C 21.0005 22.623226 20.900742 22.792051 20.74 22.880001C 20.587883 22.978487 20.392117 22.978487 20.24 22.880001L 14.92 19.5C 14.341675 19.128988 13.994288 18.48708 14 17.799999L 14 12C 14 10.895431 13.104569 10 12 10C 10.895431 10 10 10.895431 10 12L 10 17.799999C 10.000946 19.850948 11.049422 21.759327 12.78 22.860001L 20.540001 27.799999C 20.82616 27.983595 20.999434 28.300009 21 28.639999L 21 32.760002C 20.99395 32.930954 20.904213 33.087997 20.759998 33.18C 20.607883 33.278488 20.412117 33.278488 20.26 33.18L 17.02 31.4C 16.38476 31.042961 15.993982 30.368677 16 29.639999L 16 29C 16 27.89543 15.104569 27 14 27C 12.895431 27 12 27.89543 12 29L 12 29.639999C 11.993284 31.823097 13.172859 33.837566 15.08 34.900002L 20.48 38C 20.801523 38.165794 21.002546 38.498253 21 38.860001L 21 43.279999C 20.993595 43.780994 20.61742 44.199917 20.119999 44.259998C 14.26 44.860001 10 47.599998 10 51C 10 51.552284 10.447715 52 11 52L 30.58 52C 30.756828 52.000484 30.920761 51.907532 31.011135 51.755539C 31.101507 51.60355 31.104879 51.415127 31.02 51.259998C 30.025187 49.455601 29.374146 47.48214 29.099998 45.439999ZM 56.139999 34C 52.557453 32.690266 48.774433 32.013519 44.960003 32C 41.170769 32.004211 37.412403 32.681396 33.860001 34C 32.699863 34.499809 31.962536 35.657333 32 36.919998L 32 43.700001C 32.391975 49.915073 36.48848 55.282368 42.380001 57.299999L 43.48 57.720001C 43.94986 57.910637 44.452972 58.005817 44.959999 58C 45.460701 58.00753 45.957615 57.912231 46.420002 57.720005L 47.540001 57.299999C 53.700001 54.959999 58 49.299999 58 43.700001L 58 36.919998C 58.03746 35.657333 57.300133 34.499809 56.139999 34ZM 51 46L 48 46C 47.447716 46 47 46.447716 47 47L 47 50C 47 51.104568 46.104568 52 45 52C 43.895432 52 43 51.104568 43 50L 43 47C 43 46.447716 42.552284 46 42 46L 39 46C 37.895432 46 37 45.104568 37 44C 37 42.895432 37.895432 42 39 42L 42 42C 42.552284 42 43 41.552284 43 41L 43 38C 43 36.895432 43.895432 36 45 36C 46.104568 36 47 36.895432 47 38L 47 41C 47 41.552284 47.447716 42 48 42L 51 42C 52.104568 42 53 42.895432 53 44C 53 45.104568 52.104568 46 51 46ZM 11 40.5C 11 41.32843 11.671573 42 12.5 42C 13.328427 42 14 41.32843 14 40.5C 14 39.671574 13.328427 39 12.5 39C 11.671573 39 11 39.671574 11 40.5M 17 11.5C 17 12.328427 17.671574 13 18.5 13C 19.328426 13 20 12.328427 20 11.5C 20 10.671573 19.328426 10 18.5 10C 17.671574 10 17 10.671573 17 11.5M 39 22.5C 39 23.328426 39.671574 24 40.5 24C 41.32843 24 42 23.328426 42 22.5C 42 21.671574 41.32843 21 40.5 21C 39.671574 21 39 21.671574 39 22.5M 52 24.5C 52 25.328426 52.671574 26 53.5 26C 54.32843 26 55 25.328426 55 24.5C 55 23.671574 54.32843 23 53.5 23C 52.671574 23 52 23.671574 52 24.5M 47 13.5C 47 14.328427 47.671574 15 48.5 15C 49.32843 15 50 14.328427 50 13.5C 50 12.671573 49.32843 12 48.5 12C 47.671574 12 47 12.671573 47 13.5"></path></g></g></g><g id="g-root-ic_top_dili8rvyp05n-fill" data-item-order="-2304" transform="translate(422, 242)"><g id="ic_top_dili8rvyp05n-fill" stroke="none" fill="#484848"><g><path d="M 24.200001 22.799999C 27.734623 22.799999 30.6 19.934624 30.6 16.4C 30.6 12.865377 27.734623 10 24.200001 10C 20.665379 10 17.799999 12.865377 17.799999 16.4C 17.799999 19.934624 20.665379 22.799999 24.200001 22.799999ZM 31.200001 43.200001C 31.200001 42.916 31.212 42.636002 31.238001 42.360001C 26.761999 45.276001 23.082001 49.560001 23.200001 53C 23.200001 57.124001 25.130001 57.549999 36.337997 57.594002C 35.92141 56.792622 35.702652 55.903187 35.700001 55C 35.700001 53.779999 36.134003 52.618 36.849998 51.664001C 33.559998 50.248001 31.200001 46.948002 31.200001 43.200001ZM 40.764 52.391998C 39.643997 52.716 38.700001 53.844002 38.700001 55C 38.700001 56.183998 39.517998 57.271999 40.676003 57.599998C 55.608002 57.599998 58 57.591999 58 53C 58 49.466 54.139999 45.040001 49.537998 42.122002C 49.578876 42.479885 49.599575 42.83979 49.600002 43.200001C 49.599998 48.077999 45.602001 52.194 40.764 52.391998ZM 40.400002 49.362C 36.924 49.362 34.237999 46.675999 34.237999 43.200001C 34.237999 39.723999 36.924 37.038002 40.400002 37.038002C 43.875999 37.038002 46.562 39.723999 46.562 43.200001C 46.562 46.675999 43.875999 49.362 40.400002 49.362ZM 10.514 33.970001L 10.514 45.880001L 25.133999 45.880001L 25.133999 37.148003L 26.554001 38.652C 28.004 40.302002 30.18 39.933998 31.450001 38.835999C 32.720001 37.736 32.900002 35.720001 31.812 34.436001C 30.724001 32.972 28.827999 30.672001 27.016001 28.472C 25.02 25.723999 21.756001 24.074001 18.130001 24.624001C 13.78 25.174 10.514 29.388 10.514 33.970001Z"></path></g></g></g><g id="g-root-ic_netw_18gypi3vyqfik-fill" data-item-order="-2304" transform="translate(422, 338)"><g id="ic_netw_18gypi3vyqfik-fill" stroke="none" fill="#484848"><g><path d="M 10 10M 45.040001 32.799999L 48.32 30.799999C 49.376083 31.603855 50.673058 32.026779 52 32C 55.313709 32 58 29.313709 58 26C 58 22.686291 55.313709 20 52 20C 48.686295 20 46 22.686291 46 26C 46.001629 26.477739 46.055275 26.953878 46.16 27.42L 43.16 29.299999C 40.854424 28.460119 38.445999 27.935379 36 27.74L 36 21.74C 38.755096 20.765926 40.407745 17.948668 39.913589 15.068535C 39.419441 12.1884 36.922218 10.083146 34 10.083146C 31.077784 10.083146 28.580563 12.1884 28.086409 15.068535C 27.592257 17.948668 29.244907 20.765926 32 21.740002L 32 27.74C 29.574085 27.93926 27.186003 28.463966 24.899998 29.299999L 21.880001 27.299999C 21.962997 26.871717 22.003193 26.436241 22 26C 22 22.686291 19.313709 20 16 20C 12.686292 20 10 22.686291 10 26C 10 29.313709 12.686292 32 16 32C 17.318016 32.00631 18.599936 31.569614 19.639999 30.76L 23 32.860001L 23 37.580002C 23.01368 39.840214 23.710892 42.043404 25 43.900002L 21.299999 46.959999C 19.006836 45.449879 15.981182 45.689064 13.953777 47.540741C 11.926373 49.392418 11.414595 52.384052 12.71119 54.804363C 14.007786 57.224674 16.781878 58.456024 19.446621 57.794048C 22.111366 57.132072 23.986744 54.745708 24 52C 24.002787 51.361198 23.901459 50.726212 23.700001 50.119999L 27.82 46.82C 29.02997 47.768276 30.379229 48.523861 31.82 49.059998L 32.739998 49.400002C 33.147629 49.560299 33.581989 49.641743 34.02 49.640003C 34.457836 49.639843 34.891846 49.558468 35.299999 49.399998L 36.220001 49.060001C 37.66077 48.523861 39.010029 47.768276 40.220001 46.82L 44.34 50.119999C 44.124939 50.723942 44.01009 51.35899 44 52C 44.001328 54.743725 45.86364 57.137001 48.522923 57.81245C 51.182209 58.487896 53.96088 57.273415 55.271366 54.862885C 56.581852 52.452358 56.09024 49.459984 54.077412 47.595432C 52.064587 45.730885 49.043404 45.469246 46.740002 46.960003L 42.900002 44C 44.252033 42.158939 44.999718 39.943829 45.040001 37.66ZM 52 24C 53.104568 24 54 24.895432 54 26C 54 27.10457 53.104568 28 52 28C 50.895432 28 50 27.10457 50 26C 50 24.895432 50.895432 24 52 24ZM 16 28C 14.895431 28 14 27.10457 14 26C 14 24.895432 14.895431 24 16 24C 17.104568 24 18 24.895432 18 26C 18 27.10457 17.104568 28 16 28ZM 18 54C 16.895432 54 16 53.104568 16 52C 16 50.895432 16.895432 50 18 50C 19.104568 50 20 50.895432 20 52C 20 53.104568 19.104568 54 18 54ZM 50 50C 51.104568 50 52 50.895432 52 52C 52 53.104568 51.104568 54 50 54C 48.895432 54 48 53.104568 48 52C 48 50.895432 48.895432 50 50 50ZM 34 14C 35.104568 14 36 14.895431 36 16C 36 17.104568 35.104568 18 34 18C 32.895432 18 32 17.104568 32 16C 32 14.895431 32.895432 14 34 14ZM 39.040001 39.139999L 35.540001 39.139999L 35.540001 42.639999C 35.540001 43.46843 34.868427 44.139999 34.040001 44.139999C 33.211571 44.139999 32.540001 43.46843 32.540001 42.639999L 32.540001 39.139999L 29.040001 39.139999C 28.211573 39.139999 27.540001 38.46843 27.540001 37.639999C 27.540001 36.811573 28.211573 36.139999 29.040001 36.139999L 32.540001 36.139999L 32.540001 32.639999C 32.540001 31.811573 33.211571 31.140001 34.040001 31.140001C 34.868427 31.140001 35.540001 31.811573 35.540001 32.639999L 35.540001 36.139999L 39.040001 36.139999C 39.868427 36.139999 40.540001 36.811573 40.540001 37.639999C 40.540001 38.46843 39.868427 39.139999 39.040001 39.139999Z"></path></g></g></g><g id="g-root-ic_2_1qehguzvyqeq5-fill" data-item-order="-2304" transform="translate(422, 434)"><g id="ic_2_1qehguzvyqeq5-fill" stroke="none" fill="#484848"><g><path d="M 23.799999 10.88C 24.352283 10.88 24.799999 11.327715 24.799999 11.88L 24.799999 17.251999L 30.17 17.251999C 30.722284 17.251999 31.17 17.699715 31.17 18.251999L 31.17 23.751999C 31.17 24.304285 30.722284 24.751999 30.17 24.751999L 24.799999 24.751999L 24.799999 30.122C 24.799999 30.674284 24.352283 31.122 23.799999 31.122L 18.299999 31.122C 17.747715 31.122 17.299999 30.674284 17.299999 30.122L 17.299999 24.751999L 11.93 24.751999C 11.377715 24.751999 10.93 24.304285 10.93 23.751999L 10.93 18.251999C 10.93 17.699715 11.377715 17.251999 11.93 17.251999L 17.299999 17.251999L 17.299999 11.88C 17.299999 11.327715 17.747715 10.88 18.299999 10.88L 23.799999 10.88ZM 18.91 36.760002C 18.711357 35.891296 18.578976 35.008759 18.514 34.120003L 23.799999 34.120003C 23.906 34.120003 24.012001 34.118 24.116001 34.110001C 24.542 36.556 27.364 37.636002 29.784 36.664001L 43.004002 31.364C 45.566002 30.334 46.868 27.334 45.063999 25.242001C 42.223999 21.942001 38.148003 20.178001 34.169998 20.614L 34.169998 18.251999C 34.169998 17.184 33.751999 16.212 33.07 15.496C 34.066116 15.324217 35.07518 15.238566 36.085999 15.24C 39.391998 15.24 42.105999 15.92 44.380001 17.174C 46.652 18.424 48.428001 20.214001 49.908001 22.34C 52.327999 25.821999 54.028 30.341999 55.804001 35.073997L 55.806 35.077999C 56.169998 36.043999 56.535999 37.021999 56.914001 37.998001L 56.914001 38C 57.188202 38.715992 57.092941 39.521019 56.659214 40.153244C 56.225483 40.785469 55.508698 41.164104 54.742001 41.166L 52.372002 41.166L 52.372002 45.484001C 52.371998 48.973331 49.543331 51.801998 46.053997 51.801998L 44.396 51.801998L 44.396 56.118C 44.396 56.670284 43.948284 57.118 43.396 57.118L 24.785999 57.118C 24.233715 57.118 23.785999 56.670284 23.785999 56.118L 23.785999 45.444C 21.358484 43.079159 19.665354 40.063751 18.91 36.760002Z"></path></g></g></g><g id="g-root-ic_exch_zn74ijvyrspa-fill" data-item-order="-2304" transform="translate(422, 530)"><g id="ic_exch_zn74ijvyrspa-fill" stroke="none" fill="#484848"><g><path d="M 28.559999 18C 28.705112 18.030193 28.854887 18.030193 29 18C 29.217096 18.004637 29.429104 17.933968 29.6 17.799999L 33.599998 14.8C 33.857002 14.615529 34.006622 14.316284 34 14C 34.006622 13.683715 33.857002 13.38447 33.599998 13.2L 29.6 10.2C 29.279367 10.009995 28.88063 10.009995 28.559999 10.2C 28.249517 10.35418 28.038595 10.655499 28 11L 28 11.5C 28 11.776142 27.776142 12 27.5 12L 24 12C 20.686291 12 18 14.686292 18 18L 18 21C 18 21.276142 17.776142 21.5 17.5 21.5L 17 21.5C 16.621227 21.5 16.274965 21.714003 16.105572 22.052788C 15.93618 22.391571 15.972736 22.796982 16.200001 23.1L 19.200001 27.1C 19.388855 27.351807 19.685242 27.5 20 27.5C 20.314758 27.5 20.611145 27.351807 20.799999 27.1L 23.799999 23.1C 24.027264 22.796982 24.06382 22.391571 23.894428 22.052788C 23.725035 21.714003 23.378773 21.5 23 21.5L 22.5 21.5C 22.223858 21.5 22 21.276142 22 21L 22 18C 22 16.895432 22.895432 16 24 16L 27.5 16C 27.776142 16 28 16.223858 28 16.5L 28 17C 27.964039 17.416609 28.186001 17.812967 28.559999 18ZM 14 38L 26 38C 28.209139 38 30 36.209137 30 34C 30 31.790861 28.209139 30 26 30L 14 30C 11.790861 30 10 31.790861 10 34C 10 36.209137 11.790861 38 14 38ZM 18 34C 18 35.104568 17.104568 36 16 36C 14.895431 36 14 35.104568 14 34C 14 32.895432 14.895431 32 16 32C 17.104568 32 18 32.895432 18 34ZM 14 48L 26 48C 28.209139 48 30 46.209141 30 44C 30 41.790863 28.209139 40 26 40L 14 40C 11.790861 40 10 41.790863 10 44C 10 46.209141 11.790861 48 14 48ZM 18 44C 18 45.104568 17.104568 46 16 46C 14.895431 46 14 45.104568 14 44C 14 42.895432 14.895431 42 16 42C 17.104568 42 18 42.895432 18 44ZM 14 58L 26 58C 28.209139 58 30 56.209141 30 54C 30 51.790859 28.209139 50 26 50L 14 50C 11.790861 50 10 51.790859 10 54C 10 56.209141 11.790861 58 14 58ZM 18 54C 18 55.104568 17.104568 56 16 56C 14.895431 56 14 55.104568 14 54C 14 52.895432 14.895431 52 16 52C 17.104568 52 18 52.895432 18 54ZM 54 10L 42 10C 39.790863 10 38 11.790861 38 14C 38 16.209139 39.790863 18 42 18L 54 18C 56.209141 18 58 16.209139 58 14C 58 11.790861 56.209141 10 54 10ZM 42 14C 42 12.895431 42.895432 12 44 12C 45.104568 12 46 12.895431 46 14C 46 15.104569 45.104568 16 44 16C 42.895432 16 42 15.104569 42 14ZM 54 20L 42 20C 39.790863 20 38 21.790861 38 24C 38 26.209139 39.790863 28 42 28L 54 28C 56.209141 28 58 26.209139 58 24C 58 21.790861 56.209141 20 54 20ZM 42 24C 42 22.895432 42.895432 22 44 22C 45.104568 22 46 22.895432 46 24C 46 25.104568 45.104568 26 44 26C 42.895432 26 42 25.104568 42 24ZM 54 30L 42 30C 39.790863 30 38 31.790861 38 34C 38 36.209137 39.790863 38 42 38L 54 38C 56.209141 38 58 36.209137 58 34C 58 31.790861 56.209141 30 54 30ZM 42 34C 42 32.895432 42.895432 32 44 32C 45.104568 32 46 32.895432 46 34C 46 35.104568 45.104568 36 44 36C 42.895432 36 42 35.104568 42 34Z"></path></g></g></g><g id="g-root-ic_1_1haqahnvyt6hb-fill" data-item-order="-2304" transform="translate(422, 626)"><g id="ic_1_1haqahnvyt6hb-fill" stroke="none" fill="#484848"><g><path d="M 34 10C 20.745167 10 10.000001 20.745167 10.000002 34C 10.000002 47.254833 20.745167 58 34 58C 47.254833 58 58 47.254833 58 34C 58 20.745167 47.254837 10 34 10ZM 14 34C 14.004852 29.293873 15.669106 24.740189 18.700001 21.139999L 23.18 25.619999C 23.960075 26.395447 25.219925 26.395447 26 25.619999C 26.775448 24.839924 26.775448 23.580074 26 22.799999L 21.560001 18.360001C 29.522406 12.388194 40.664299 13.180023 47.702137 20.217863C 54.739979 27.255703 55.531807 38.397594 49.560001 46.360001L 45.560001 42.360001C 44.775757 41.575756 43.504246 41.575756 42.720001 42.360001C 41.935757 43.144245 41.935757 44.415756 42.720001 45.200001L 46.82 49.200001C 40.881599 54.159733 32.615189 55.249359 25.594433 51.997822C 18.573677 48.746284 14.058163 41.736935 14 34ZM 10 10M 41.860001 35.34L 44.220001 36.440002C 44.419506 36.535912 44.638672 36.583855 44.860001 36.580002C 45.561199 36.574081 46.16473 36.083153 46.313293 35.39785C 46.461857 34.71254 46.115803 34.015755 45.48 33.720001L 43.119999 32.620003C 43.534454 31.569706 43.829639 30.476185 44 29.360001C 44.080685 28.796206 44.080685 28.223795 44 27.66L 46.759998 26.9C 47.560814 26.656994 48.013004 25.810814 47.77 25.01C 47.526993 24.209187 46.680813 23.756996 45.880001 24L 43.119999 24.76L 42.799999 24.92C 42.098736 23.917442 41.127968 23.133896 40 22.66C 40.009056 22.560205 40.009056 22.459795 40 22.360001L 40.16 20C 40.209869 19.171471 39.578556 18.459427 38.750015 18.409714C 37.921478 18.360001 37.209557 18.991451 37.16 19.82L 37.02 22.16C 35.892281 22.277473 34.815788 22.691509 33.900002 23.360001C 33.859421 23.284061 33.80518 23.216259 33.739998 23.16L 32 22C 31.582863 21.624569 30.991047 21.513393 30.466101 21.711849C 29.941156 21.910307 29.570902 22.385197 29.506462 22.942692C 29.44202 23.500185 29.694172 24.04702 30.16 24.360001L 31.84 25.68L 31.98 25.68C 31.650757 26.303862 31.434107 26.980896 31.34 27.68C 30.959057 29.083622 30.276525 30.387257 29.34 31.5C 29.34 31.5 29.34 31.4 29.200001 31.360001L 26.26 29.360001C 25.575169 28.885036 24.634964 29.055168 24.16 29.74C 23.685036 30.424833 23.855167 31.365036 24.540001 31.84L 27.139999 33.620003C 26.937531 33.758366 26.723387 33.878822 26.499998 33.979996C 24.911074 34.65522 23.672901 35.958557 23.08 37.580002L 19.939999 37.02C 19.117096 36.854317 18.315685 37.387096 18.15 38.209999C 17.984314 39.032906 18.517096 39.834312 19.34 40L 22.48 40.559998L 22.76 40.559998C 22.8186 41.158783 22.966927 41.745342 23.200001 42.299999C 23.687092 43.410267 24.486111 44.355194 25.5 45.02L 25.5 45.119999L 24.380001 47.400002C 24.206173 47.764755 24.189034 48.184723 24.332561 48.562428C 24.476089 48.940132 24.767805 49.242737 25.139999 49.400002C 25.326157 49.493343 25.531757 49.541317 25.740002 49.540001C 26.336796 49.53693 26.876574 49.184902 27.119999 48.639999L 28.16 46.279999C 28.169357 46.186901 28.169357 46.093098 28.16 46C 29.26646 46.151558 30.393309 45.99947 31.42 45.559998C 32.489891 45.092949 33.50864 44.516552 34.459999 43.84L 35.459999 45.84C 35.712769 46.347404 36.233154 46.665852 36.800003 46.66C 37.03537 46.6549 37.267048 46.600388 37.48 46.5C 38.202217 46.118721 38.486694 45.229733 38.120003 44.5L 37.02 42.34C 36.951187 42.231541 36.870705 42.130943 36.779999 42.040001C 38.845581 40.115013 40.564049 37.848526 41.860001 35.34ZM 28.559999 40.919998C 27.830204 40.928108 27.167744 40.494736 26.882826 39.8228C 26.597908 39.150871 26.746933 38.373402 27.260118 37.85445C 27.773304 37.335499 28.549059 37.177795 29.224131 37.455193C 29.899204 37.732582 30.339956 38.39016 30.34 39.120003C 30.340061 40.106354 29.546293 40.909042 28.559999 40.919998ZM 37.360001 26.459999C 38.455647 26.451914 39.44754 27.106764 39.870571 28.117483C 40.293602 29.128201 40.063873 30.294355 39.289116 31.069115C 38.514355 31.843874 37.348202 32.073601 36.337482 31.650572C 35.326767 31.227541 34.671913 30.235645 34.68 29.139999C 34.68 27.659876 35.879875 26.459999 37.360001 26.459999ZM 32.720001 36.919998C 32.711914 36.188393 33.14748 35.524681 33.821884 35.240959C 34.496284 34.957237 35.275326 35.109962 35.792683 35.627319C 36.31004 36.144676 36.462765 36.923714 36.179043 37.598118C 35.895321 38.272522 35.231609 38.708084 34.5 38.700001C 33.51693 38.699997 32.720001 37.903065 32.720001 36.919998Z"></path></g></g></g><g id="g-root-tx_dieviels_vbqxzvvynjeq-fill" data-item-order="0" transform="translate(164, 38)"><g id="tx_dieviels_vbqxzvvynjeq-fill" stroke="none" fill="#484848"><g><text style="font: 20px Roboto, sans-serif; white-space: pre;" font-size="20px" font-family="Roboto, sans-serif"><tspan x="17.32" y="33.2">Die vielschichtigen Vorteile der Entzündungsreduktion</tspan></text></g></g></g><g id="g-root-tx_vermeidu_1hjgxp7vynll8-fill" data-item-order="0" transform="translate(482, 146)"><g id="tx_vermeidu_1hjgxp7vynll8-fill" stroke="none" fill="#ffffff"><g><text style="font: 20px Roboto, sans-serif; white-space: pre;" font-size="20px" font-family="Roboto, sans-serif"><tspan x="12" y="33.2">Vermeidung chronischer </tspan><tspan x="12" y="57.2">Krankheiten</tspan></text></g></g></g><g id="g-root-tx_schmerzm_13ynb17vyoykt-fill" data-item-order="0" transform="translate(482, 254)"><g id="tx_schmerzm_13ynb17vyoykt-fill" stroke="none" fill="#ffffff"><g><text style="font: 20px Roboto, sans-serif; white-space: pre;" font-size="20px" font-family="Roboto, sans-serif"><tspan x="12" y="33.2">Schmerzmanagement</tspan></text></g></g></g><g id="g-root-tx_verbesse_qn6snvvyp05q-fill" data-item-order="0" transform="translate(482, 338)"><g id="tx_verbesse_qn6snvvyp05q-fill" stroke="none" fill="#ffffff"><g><text style="font: 20px Roboto, sans-serif; white-space: pre;" font-size="20px" font-family="Roboto, sans-serif"><tspan x="12" y="33.2">Verbesserung der </tspan><tspan x="12" y="57.2">Immunfunktion</tspan></text></g></g></g><g id="g-root-tx_entzndun_94nfdnvynlsb-fill" data-item-order="0" transform="translate(26, 398)"><g id="tx_entzndun_94nfdnvynlsb-fill" stroke="none" fill="#ffffff"><g><text style="font: bold 20px Roboto, sans-serif; white-space: pre;" font-weight="bold" font-size="20px" font-family="Roboto, sans-serif"><tspan x="16.58" y="33.2">Entzündungsreduktion</tspan></text></g></g></g><g id="g-root-tx_verbesse_m7dajfvyp0xz-fill" data-item-order="0" transform="translate(482, 434)"><g id="tx_verbesse_m7dajfvyp0xz-fill" stroke="none" fill="#ffffff"><g><text style="font: 20px Roboto, sans-serif; white-space: pre;" font-size="20px" font-family="Roboto, sans-serif"><tspan x="12" y="33.2">Verbesserung der psychischen </tspan><tspan x="12" y="57.2">Gesundheit</tspan></text></g></g></g><g id="g-root-tx_verbesse_8wj997vyozd4-fill" data-item-order="0" transform="translate(482, 530)"><g id="tx_verbesse_8wj997vyozd4-fill" stroke="none" fill="#ffffff"><g><text style="font: 20px Roboto, sans-serif; white-space: pre;" font-size="20px" font-family="Roboto, sans-serif"><tspan x="12" y="33.2">Verbesserung der </tspan><tspan x="12" y="57.2">mitochondrialen Funktion</tspan></text></g></g></g><g id="g-root-tx_verbesse_1um6suzvyp0qx-fill" data-item-order="0" transform="translate(482, 626)"><g id="tx_verbesse_1um6suzvyp0qx-fill" stroke="none" fill="#ffffff"><g><text style="font: 20px Roboto, sans-serif; white-space: pre;" font-size="20px" font-family="Roboto, sans-serif"><tspan x="12" y="33.2">Verbesserung der </tspan><tspan x="12" y="57.2">Darmgesundheit</tspan></text></g></g></g><g id="g-root-sy_0_cu_hyf0d7vynlz7-stroke" data-item-order="-456186" transform="translate(14, 290)"><g id="sy_0_cu_hyf0d7vynlz7-stroke" fill="none" stroke-linecap="round" stroke-linejoin="round" stroke-miterlimit="4" stroke="#ffffff" stroke-width="2"><g><path d="M 250 130C 250 196.2742 196.2742 250 130 250C 63.7258 250 10 196.2742 10 130C 10 63.7258 63.7258 10 130 10C 196.2742 10 250 63.7258 250 130Z"></path></g></g></g><g id="g-root-sy_6_cu_4nkz2zvynkec-stroke" data-item-order="-456182" transform="translate(186.36962890625, 482)"><g id="sy_6_cu_4nkz2zvynkec-stroke" fill="none" stroke-linecap="round" stroke-linejoin="round" stroke-miterlimit="4" stroke="#ffffff" stroke-width="2"><g><path d="M 209.6304 130L 53.6393 10C 42.2165 25.2074 27.2648 37.6127 10 46L 209.6304 226L 629.6305 226L 629.6305 130L 209.6304 130Z"></path></g></g></g><g id="g-root-sy_5_cu_1ut20t7vynkzx-stroke" data-item-order="-456178" transform="translate(230.0087890625, 446)"><g id="sy_5_cu_1ut20t7vynkzx-stroke" fill="none" stroke-linecap="round" stroke-linejoin="round" stroke-miterlimit="4" stroke="#ffffff" stroke-width="2"><g><path d="M 165.9911 70L 28.4976 10C 24.3791 23.1129 18.0703 35.2558 10 46L 165.9911 166L 585.9912 166L 585.9912 70L 165.9911 70Z"></path></g></g></g><g id="g-root-sy_4_cu_1qd8iorvynls6-stroke" data-item-order="-456174" transform="translate(248.50634765625, 410)"><g id="sy_4_cu_1qd8iorvynls6-stroke" fill="none" stroke-linecap="round" stroke-linejoin="round" stroke-miterlimit="4" stroke="#ffffff" stroke-width="2"><g><path d="M 10 46L 147.4935 106L 567.4937 106L 567.4937 10L 147.4935 10L 15.4936 10C 15.4936 22.5425 13.5694 34.6355 10 46Z"></path></g></g></g><g id="g-root-sy_3_cu_1d2ehejvynk7b-stroke" data-item-order="-456170" transform="translate(248.50634765625, 314)"><g id="sy_3_cu_1d2ehejvynk7b-stroke" fill="none" stroke-linecap="round" stroke-linejoin="round" stroke-miterlimit="4" stroke="#ffffff" stroke-width="2"><g><path d="M 10 70C 13.5694 81.3645 15.4936 93.4575 15.4936 106L 147.4935 106L 567.4937 106L 567.4937 10L 147.4935 10L 10 70Z"></path></g></g></g><g id="g-root-sy_2_cu_18mkza3vynkzk-stroke" data-item-order="-456166" transform="translate(230.0087890625, 218)"><g id="sy_2_cu_18mkza3vynkzk-stroke" fill="none" stroke-linecap="round" stroke-linejoin="round" stroke-miterlimit="4" stroke="#ffffff" stroke-width="2"><g><path d="M 165.9911 10L 10 130C 18.0703 140.7442 24.3791 152.8871 28.4976 166L 165.9911 106L 585.9912 106L 585.9912 10L 165.9911 10Z"></path></g></g></g><g id="g-root-sy_1_cu_zqxz17vynls9-stroke" data-item-order="-456162" transform="translate(186.36962890625, 122)"><g id="sy_1_cu_zqxz17vynls9-stroke" fill="none" stroke-linecap="round" stroke-linejoin="round" stroke-miterlimit="4" stroke="#ffffff" stroke-width="2"><g><path d="M 209.6304 10L 10 190C 27.2648 198.3873 42.2165 210.7926 53.6393 226L 209.6304 106L 629.6305 106L 629.6305 10L 209.6304 10Z"></path></g></g></g><g id="g-root-ic_shie_1hbcrkrvyoz62-stroke" data-item-order="-2304" transform="translate(422, 146)"></g><g id="g-root-ic_top_dili8rvyp05n-stroke" data-item-order="-2304" transform="translate(422, 242)"></g><g id="g-root-ic_netw_18gypi3vyqfik-stroke" data-item-order="-2304" transform="translate(422, 338)"></g><g id="g-root-ic_2_1qehguzvyqeq5-stroke" data-item-order="-2304" transform="translate(422, 434)"></g><g id="g-root-ic_exch_zn74ijvyrspa-stroke" data-item-order="-2304" transform="translate(422, 530)"></g><g id="g-root-ic_1_1haqahnvyt6hb-stroke" data-item-order="-2304" transform="translate(422, 626)"></g><g id="g-root-tx_dieviels_vbqxzvvynjeq-stroke" data-item-order="0" transform="translate(164, 38)"></g><g id="g-root-tx_vermeidu_1hjgxp7vynll8-stroke" data-item-order="0" transform="translate(482, 146)"></g><g id="g-root-tx_schmerzm_13ynb17vyoykt-stroke" data-item-order="0" transform="translate(482, 254)"></g><g id="g-root-tx_verbesse_qn6snvvyp05q-stroke" data-item-order="0" transform="translate(482, 338)"></g><g id="g-root-tx_entzndun_94nfdnvynlsb-stroke" data-item-order="0" transform="translate(26, 398)"></g><g id="g-root-tx_verbesse_m7dajfvyp0xz-stroke" data-item-order="0" transform="translate(482, 434)"></g><g id="g-root-tx_verbesse_8wj997vyozd4-stroke" data-item-order="0" transform="translate(482, 530)"></g><g id="g-root-tx_verbesse_1um6suzvyp0qx-stroke" data-item-order="0" transform="translate(482, 626)"></g></g></g><path id="wdbq0u3xmxsll" d="M65.283 12.757a.35.35 0 0 0 .584.157l5.203-5.141-6.183 3.523.396 1.461zm-2.216-11.7a.35.35 0 0 0-.522.305v3.111l3.276-1.868-2.754-1.548zm3.728 2.105l-4.25 2.421v2.445l6.391-3.644-2.141-1.222zm4.708 3.303a.35.35 0 0 0 0-.609l-1.592-.9-7.365 4.199v1.782a.35.35 0 0 0 .523.305l8.435-4.777z M44.542 2.513c0-.433.355-.783.792-.783s.792.35.792.783-.355.783-.792.783-.792-.35-.792-.783zm59.171 0c0-.433.355-.783.792-.783s.792.35.792.783-.355.783-.792.783-.792-.35-.792-.783zm-85.951 7.636h-1.27v-.487c-.276.201-.864.609-1.881.609-1.202 0-2.274-.794-2.137-2.078.118-1.106 1.153-1.584 1.848-1.727l2.17-.345c0-.539-.29-.956-1.064-1.006s-1.21.305-1.571 1.017l-1.124-.605c1.218-2.631 5.029-1.764 5.029.414v4.207zm-1.27-2.86c.006.396-.062 1.112-.819 1.59-.587.37-1.841.299-1.903-.395-.049-.555.461-.791.906-.898l1.816-.297zm72.662 2.86h-1.27v-.487c-.276.201-.864.609-1.881.609-1.202 0-2.274-.794-2.137-2.078.118-1.106 1.153-1.584 1.848-1.727l2.17-.345c0-.539-.29-.956-1.064-1.006s-1.21.305-1.571 1.017l-1.124-.605c1.218-2.631 5.029-1.764 5.029.414v4.207zm-1.27-2.86c.006.396-.062 1.112-.82 1.59-.587.37-1.841.299-1.903-.395-.049-.555.461-.791.906-.898l1.816-.297zM99.096 10.149H97.85v-8.45h1.246v4.895l2.68-2.559h1.738l-2.633 2.535 2.715 3.578h-1.556l-2.077-2.707-.867.844v1.863zm6.053-6.114h-1.255v6.113h1.255V4.035zm-59.2 0h-1.255v6.113h1.255V4.035zm5.584 6.113V1.697h1.255v2.695c.361-.346 1-.485 1.47-.485 1.452 0 2.477 1.082 2.457 2.448v3.792h-1.27v-3.68c0-.408-.214-1.339-1.315-1.339-.968 0-1.342.756-1.342 1.339v3.681h-1.255zm-4.76-4.894V4.039h.621a.45.45 0 0 0 .45-.45v-.855h1.251v1.305h1.309v1.215h-1.309v3.109c0 .293.105.664.648.664.365 0 .531-.035.736-.07v1.137s-.361.113-.857.113c-1.398 0-1.777-1.051-1.777-1.788V5.254h-1.071zM36.528 4.039h-1.394l2.191 6.106h1.125l1.234-3.918 1.238 3.918h1.129l2.188-6.106h-1.383l-1.359 3.93-1.256-3.93h-1.124l-1.242 3.957-1.348-3.957zM26.212 7.141c-.02 1.566 1.187 3.129 3.223 3.129 1.566 0 2.383-.918 2.734-1.719L31.172 8c-.315.399-.801 1.094-1.738 1.094-1.145 0-1.825-.781-1.891-1.52h4.625c.074-.284.148-.995-.03-1.559-.336-1.064-1.221-2.102-2.839-2.102s-3.088 1.152-3.088 3.227zm1.363-.75h3.348c-.055-.43-.566-1.301-1.623-1.301a1.79 1.79 0 0 0-1.725 1.301zm-8.758.75c.038 1.758 1.277 3.133 3.145 3.133 1.074 0 1.723-.477 1.961-.672v.547h1.242V1.703h-1.258v2.888c-.414-.36-1.062-.68-1.93-.68-1.91 0-3.198 1.473-3.16 3.23zm1.309-.08c0 1.119.723 1.978 1.836 1.978a1.88 1.88 0 0 0 1.94-1.904c0-1.371-1.011-1.99-1.972-1.99s-1.805.798-1.805 1.916zm76.683-.028C96.771 5.275 95.532 3.9 93.664 3.9c-1.074 0-1.723.477-1.961.672v-.547h-1.242v8.22h1.258V9.583c.414.36 1.063.68 1.93.68 1.91 0 3.198-1.473 3.16-3.23zm-1.309.08c0-1.119-.723-1.978-1.836-1.978a1.88 1.88 0 0 0-1.94 1.904c0 1.371 1.011 1.99 1.972 1.99S95.5 8.231 95.5 7.113zM106.441 10.173V4.036h1.254v.382c.361-.346 1-.485 1.47-.485 1.452 0 2.477 1.082 2.457 2.448v3.792h-1.27V6.492c0-.408-.214-1.339-1.315-1.339-.969 0-1.342.756-1.342 1.339v3.681h-1.254zm-30.383-.021V1.824h1.084l4.215 5.777V1.824h1.32v8.328h-1.094l-4.207-5.796v5.796h-1.319zM5.24 10.149H4V2.377h1.014l2.664 3.597 2.654-3.592h1.03v7.766h-1.256V4.762L7.678 8.068 5.24 4.742v5.407z" transform="translate(20, 722)" fill="#80808088" stroke="none"></path></svg> 