<?xml version="1.0" encoding="UTF-8"?> <svg xmlns="http://www.w3.org/2000/svg" data-v-bbb6212e="" id="canvas" viewBox="0 0 375.00 442.00" width="708.6038961038961" height="835.2077922077922" style="font-family: Arial;"><defs><linearGradient x1="0%" x2="100%" y1="0%" y2="0%" id="def-grad-main-0-1A"><stop offset="0%" stop-color="#ffc839"></stop><stop offset="100%" stop-color="#ffe154"></stop></linearGradient><linearGradient x1="0%" x2="100%" y1="0%" y2="0%" id="def-grad-main-1-1A"><stop offset="0%" stop-color="#ffb93e"></stop><stop offset="100%" stop-color="#ffd258"></stop></linearGradient><linearGradient x1="0%" x2="100%" y1="0%" y2="0%" id="def-grad-main-2-1A"><stop offset="0%" stop-color="#ffab46"></stop><stop offset="100%" stop-color="#ffc45e"></stop></linearGradient><linearGradient x1="0%" x2="100%" y1="0%" y2="0%" id="def-grad-main-3-1A"><stop offset="0%" stop-color="#ff9c51"></stop><stop offset="100%" stop-color="#ffb569"></stop></linearGradient><linearGradient x1="0%" x2="100%" y1="0%" y2="0%" id="def-grad-main-4-1A"><stop offset="0%" stop-color="#ff8e5c"></stop><stop offset="100%" stop-color="#ffa673"></stop></linearGradient><linearGradient x1="0%" x2="100%" y1="0%" y2="0%" id="def-grad-main-5-1A"><stop offset="0%" stop-color="#ff7f69"></stop><stop offset="100%" stop-color="#ff9880"></stop></linearGradient><linearGradient x1="0%" x2="100%" y1="0%" y2="0%" id="def-grad-main-6-1A"><stop offset="0%" stop-color="#ff7277"></stop><stop offset="100%" stop-color="#ff8c8e"></stop></linearGradient><linearGradient x1="0%" x2="100%" y1="0%" y2="0%" id="def-grad-main-7-1A"><stop offset="0%" stop-color="#ff6785"></stop><stop offset="100%" stop-color="#ff819c"></stop></linearGradient><linearGradient x1="0%" x2="100%" y1="0%" y2="0%" id="def-grad-main-8-1A"><stop offset="0%" stop-color="#ff5d93"></stop><stop offset="100%" stop-color="#ff79ab"></stop></linearGradient><linearGradient x1="0%" x2="100%" y1="0%" y2="0%" id="def-grad-main-9-1A"><stop offset="0%" stop-color="#ff57a2"></stop><stop offset="100%" stop-color="#ff73ba"></stop></linearGradient><linearGradient x1="0%" x2="100%" y1="0%" y2="0%" id="def-grad-main-10-1A"><stop offset="0%" stop-color="#ff54af"></stop><stop offset="100%" stop-color="#ff6fc8"></stop></linearGradient><linearGradient x1="0%" x2="100%" y1="0%" y2="0%" id="def-grad-main-11-1A"><stop offset="0%" stop-color="#f653bc"></stop><stop offset="100%" stop-color="#ff6ed5"></stop></linearGradient></defs><g transform="translate(83.00, 13.00)"><g><g transform="translate(0.00, 0.00) scale(1.000) rotate(0.00)"><rect x="0" y="0" width="274" height="20" fill="#eeeeee50"></rect><path d="M0,0 h10 h200 v20 H0 v-20z" fill="url('#def-grad-main-0-1A')"></path><text x="-8" y="14" font-size="12" font-weight="bold" fill="#f5af19" text-anchor="end" font-family="Lato"><tspan x="-8" dy="0">Weizenkeim</tspan></text><rect x="-1.5" y="-8" width="1.5" height="36" fill="#390000"></rect></g><g transform="translate(210.00, 0.00) scale(1.000) rotate(0.00)"><circle cx="0" cy="10" r="10" fill="#f5af19"></circle><circle cx="0" cy="10" r="7" fill="#ffffff"></circle><circle cx="0" cy="10" r="4" fill="#d99700"></circle><text x="17" y="14" font-size="12" font-weight="bold" fill="#f5af19" text-anchor="start" font-family="Lato"> 354 </text></g></g><g><g transform="translate(0.00, 36.00) scale(1.000) rotate(0.00)"><rect x="0" y="0" width="274" height="20" fill="#eeeeee50"></rect><path d="M0,0 h10 h112.42937853107344 v20 H0 v-20z" fill="url('#def-grad-main-1-1A')"></path><text x="-8" y="14" font-size="12" font-weight="bold" fill="#fea122" text-anchor="end" font-family="Lato"><tspan x="-8" dy="0">Cheddar </tspan></text><rect x="-1.5" y="-8" width="1.5" height="36" fill="#390000"></rect></g><g transform="translate(122.43, 36.00) scale(1.000) rotate(0.00)"><circle cx="0" cy="10" r="10" fill="#fea122"></circle><circle cx="0" cy="10" r="7" fill="#ffffff"></circle><circle cx="0" cy="10" r="4" fill="#e28900"></circle><text x="17" y="14" font-size="12" font-weight="bold" fill="#fea122" text-anchor="start" font-family="Lato"> 199 </text></g></g><g><g transform="translate(0.00, 72.00) scale(1.000) rotate(0.00)"><rect x="0" y="0" width="274" height="20" fill="#eeeeee50"></rect><path d="M0,0 h10 h49.717514124293785 v20 H0 v-20z" fill="url('#def-grad-main-2-1A')"></path><text x="-8" y="14" font-size="12" font-weight="bold" fill="#ff932d" text-anchor="end" font-family="Lato"><tspan x="-8" dy="0">Pilze </tspan></text><rect x="-1.5" y="-8" width="1.5" height="36" fill="#390000"></rect></g><g transform="translate(59.72, 72.00) scale(1.000) rotate(0.00)"><circle cx="0" cy="10" r="10" fill="#ff932d"></circle><circle cx="0" cy="10" r="7" fill="#ffffff"></circle><circle cx="0" cy="10" r="4" fill="#e27b0e"></circle><text x="17" y="14" font-size="12" font-weight="bold" fill="#ff932d" text-anchor="start" font-family="Lato"> 88 </text></g></g><g><g transform="translate(0.00, 108.00) scale(1.000) rotate(0.00)"><rect x="0" y="0" width="274" height="20" fill="#eeeeee50"></rect><path d="M0,0 h10 h36.72316384180791 v20 H0 v-20z" fill="url('#def-grad-main-3-1A')"></path><text x="-8" y="14" font-size="12" font-weight="bold" fill="#ff843a" text-anchor="end" font-family="Lato"><tspan x="-8" dy="0">Erbsen </tspan></text><rect x="-1.5" y="-8" width="1.5" height="36" fill="#390000"></rect></g><g transform="translate(46.72, 108.00) scale(1.000) rotate(0.00)"><circle cx="0" cy="10" r="10" fill="#ff843a"></circle><circle cx="0" cy="10" r="7" fill="#ffffff"></circle><circle cx="0" cy="10" r="4" fill="#e26c22"></circle><text x="17" y="14" font-size="12" font-weight="bold" fill="#ff843a" text-anchor="start" font-family="Lato"> 65 </text></g></g><g><g transform="translate(0.00, 144.00) scale(1.000) rotate(0.00)"><rect x="0" y="0" width="274" height="20" fill="#eeeeee50"></rect><path d="M0,0 h10 h20.903954802259886 v20 H0 v-20z" fill="url('#def-grad-main-4-1A')"></path><text x="-8" y="14" font-size="12" font-weight="bold" fill="#ff7546" text-anchor="end" font-family="Lato"><tspan x="-8" dy="0">Muscheln </tspan></text><rect x="-1.5" y="-8" width="1.5" height="36" fill="#390000"></rect></g><g transform="translate(30.90, 144.00) scale(1.000) rotate(0.00)"><circle cx="0" cy="10" r="10" fill="#ff7546"></circle><circle cx="0" cy="10" r="7" fill="#ffffff"></circle><circle cx="0" cy="10" r="4" fill="#e25d30"></circle><text x="17" y="14" font-size="12" font-weight="bold" fill="#ff7546" text-anchor="start" font-family="Lato"> 37 </text></g></g><g><g transform="translate(0.00, 180.00) scale(1.000) rotate(0.00)"><rect x="0" y="0" width="274" height="20" fill="#eeeeee50"></rect><path d="M0,0 h10 h19.2090395480226 v20 H0 v-20z" fill="url('#def-grad-main-5-1A')"></path><text x="-8" y="14" font-size="12" font-weight="bold" fill="#ff6653" text-anchor="end" font-family="Lato"><tspan x="-8" dy="0">Brokkoli</tspan></text><rect x="-1.5" y="-8" width="1.5" height="36" fill="#390000"></rect></g><g transform="translate(29.21, 180.00) scale(1.000) rotate(0.00)"><circle cx="0" cy="10" r="10" fill="#ff6653"></circle><circle cx="0" cy="10" r="7" fill="#ffffff"></circle><circle cx="0" cy="10" r="4" fill="#e24d3e"></circle><text x="17" y="14" font-size="12" font-weight="bold" fill="#ff6653" text-anchor="start" font-family="Lato"> 34 </text></g></g><g><g transform="translate(0.00, 216.00) scale(1.000) rotate(0.00)"><rect x="0" y="0" width="274" height="20" fill="#eeeeee50"></rect><path d="M0,0 h10 h15.819209039548024 v20 H0 v-20z" fill="url('#def-grad-main-6-1A')"></path><text x="-8" y="14" font-size="12" font-weight="bold" fill="#ff5861" text-anchor="end" font-family="Lato"><tspan x="-8" dy="0">Kichererbse</tspan></text><rect x="-1.5" y="-8" width="1.5" height="36" fill="#390000"></rect></g><g transform="translate(25.82, 216.00) scale(1.000) rotate(0.00)"><circle cx="0" cy="10" r="10" fill="#ff5861"></circle><circle cx="0" cy="10" r="7" fill="#ffffff"></circle><circle cx="0" cy="10" r="4" fill="#e23d4c"></circle><text x="17" y="14" font-size="12" font-weight="bold" fill="#ff5861" text-anchor="start" font-family="Lato"> 28 </text></g></g><g><g transform="translate(0.00, 252.00) scale(1.000) rotate(0.00)"><rect x="0" y="0" width="274" height="20" fill="#eeeeee50"></rect><path d="M0,0 h10 h15.819209039548024 v20 H0 v-20z" fill="url('#def-grad-main-7-1A')"></path><text x="-8" y="14" font-size="12" font-weight="bold" fill="#ff4b6e" text-anchor="end" font-family="Lato"><tspan x="-8" dy="0">Blumenkohl</tspan></text><rect x="-1.5" y="-8" width="1.5" height="36" fill="#390000"></rect></g><g transform="translate(25.82, 252.00) scale(1.000) rotate(0.00)"><circle cx="0" cy="10" r="10" fill="#ff4b6e"></circle><circle cx="0" cy="10" r="7" fill="#ffffff"></circle><circle cx="0" cy="10" r="4" fill="#e22c58"></circle><text x="17" y="14" font-size="12" font-weight="bold" fill="#ff4b6e" text-anchor="start" font-family="Lato"> 28 </text></g></g><g><g transform="translate(0.00, 288.00) scale(1.000) rotate(0.00)"><rect x="0" y="0" width="274" height="20" fill="#eeeeee50"></rect><path d="M0,0 h10 h14.689265536723164 v20 H0 v-20z" fill="url('#def-grad-main-8-1A')"></path><text x="-8" y="14" font-size="12" font-weight="bold" fill="#ff407c" text-anchor="end" font-family="Lato"><tspan x="-8" dy="0">Sauerkraut</tspan></text><rect x="-1.5" y="-8" width="1.5" height="36" fill="#390000"></rect></g><g transform="translate(24.69, 288.00) scale(1.000) rotate(0.00)"><circle cx="0" cy="10" r="10" fill="#ff407c"></circle><circle cx="0" cy="10" r="7" fill="#ffffff"></circle><circle cx="0" cy="10" r="4" fill="#e21a66"></circle><text x="17" y="14" font-size="12" font-weight="bold" fill="#ff407c" text-anchor="start" font-family="Lato"> 26 </text></g></g><g><g transform="translate(0.00, 324.00) scale(1.000) rotate(0.00)"><rect x="0" y="0" width="274" height="20" fill="#eeeeee50"></rect><path d="M0,0 h10 h13.559322033898304 v20 H0 v-20z" fill="url('#def-grad-main-9-1A')"></path><text x="-8" y="14" font-size="12" font-weight="bold" fill="#f7388a" text-anchor="end" font-family="Lato"><tspan x="-8" dy="0">Vollkorn</tspan></text><rect x="-1.5" y="-8" width="1.5" height="36" fill="#390000"></rect></g><g transform="translate(23.56, 324.00) scale(1.000) rotate(0.00)"><circle cx="0" cy="10" r="10" fill="#f7388a"></circle><circle cx="0" cy="10" r="7" fill="#ffffff"></circle><circle cx="0" cy="10" r="4" fill="#db0773"></circle><text x="17" y="14" font-size="12" font-weight="bold" fill="#f7388a" text-anchor="start" font-family="Lato"> 24 </text></g></g><g><g transform="translate(0.00, 360.00) scale(1.000) rotate(0.00)"><rect x="0" y="0" width="274" height="20" fill="#eeeeee50"></rect><path d="M0,0 h10 h11.864406779661017 v20 H0 v-20z" fill="url('#def-grad-main-10-1A')"></path><text x="-8" y="14" font-size="12" font-weight="bold" fill="#eb3597" text-anchor="end" font-family="Lato"><tspan x="-8" dy="0">Haselnuss</tspan></text><rect x="-1.5" y="-8" width="1.5" height="36" fill="#390000"></rect></g><g transform="translate(21.86, 360.00) scale(1.000) rotate(0.00)"><circle cx="0" cy="10" r="10" fill="#eb3597"></circle><circle cx="0" cy="10" r="7" fill="#ffffff"></circle><circle cx="0" cy="10" r="4" fill="#cf0280"></circle><text x="17" y="14" font-size="12" font-weight="bold" fill="#eb3597" text-anchor="start" font-family="Lato"> 21 </text></g></g><g><g transform="translate(0.00, 396.00) scale(1.000) rotate(0.00)"><rect x="0" y="0" width="274" height="20" fill="#eeeeee50"></rect><path d="M0,0 h10 h11.864406779661017 v20 H0 v-20z" fill="url('#def-grad-main-11-1A')"></path><text x="-8" y="14" font-size="12" font-weight="bold" fill="#db36a4" text-anchor="end" font-family="Lato"><tspan x="-8" dy="0">Mais</tspan></text><rect x="-1.5" y="-8" width="1.5" height="36" fill="#390000"></rect></g><g transform="translate(21.86, 396.00) scale(1.000) rotate(0.00)"><circle cx="0" cy="10" r="10" fill="#db36a4"></circle><circle cx="0" cy="10" r="7" fill="#ffffff"></circle><circle cx="0" cy="10" r="4" fill="#c00b8c"></circle><text x="17" y="14" font-size="12" font-weight="bold" fill="#db36a4" text-anchor="start" font-family="Lato"> 21 </text></g></g><g><g><path d="M2.00 10.00L198.00 10.00" fill="none" stroke="#ffffd4" stroke-width="2" stroke-linecap="round" stroke-dasharray="1,4"></path></g><g><path d="M2.00 46.00L110.43 46.00" fill="none" stroke="#ffffd6" stroke-width="2" stroke-linecap="round" stroke-dasharray="1,4"></path></g><g><path d="M2.00 82.00L47.72 82.00" fill="none" stroke="#ffffdb" stroke-width="2" stroke-linecap="round" stroke-dasharray="1,4"></path></g><g><path d="M2.00 118.00L34.72 118.00" fill="none" stroke="#ffffe4" stroke-width="2" stroke-linecap="round" stroke-dasharray="1,4"></path></g><g><path d="M2.00 154.00L18.90 154.00" fill="none" stroke="#ffffef" stroke-width="2" stroke-linecap="round" stroke-dasharray="1,4"></path></g><g><path d="M2.00 190.00L17.21 190.00" fill="none" stroke="#fffffc" stroke-width="2" stroke-linecap="round" stroke-dasharray="1,4"></path></g><g><path d="M2.00 226.00L13.82 226.00" fill="none" stroke="#ffffff" stroke-width="2" stroke-linecap="round" stroke-dasharray="1,4"></path></g><g><path d="M2.00 262.00L13.82 262.00" fill="none" stroke="#ffffff" stroke-width="2" stroke-linecap="round" stroke-dasharray="1,4"></path></g><g><path d="M2.00 298.00L12.69 298.00" fill="none" stroke="#ffffff" stroke-width="2" stroke-linecap="round" stroke-dasharray="1,4"></path></g><g><path d="M2.00 334.00L11.56 334.00" fill="none" stroke="#fff9ff" stroke-width="2" stroke-linecap="round" stroke-dasharray="1,4"></path></g><g><path d="M2.00 370.00L9.86 370.00" fill="none" stroke="#fff5ff" stroke-width="2" stroke-linecap="round" stroke-dasharray="1,4"></path></g><g><path d="M2.00 406.00L9.86 406.00" fill="none" stroke="#fff3ff" stroke-width="2" stroke-linecap="round" stroke-dasharray="1,4"></path></g></g></g></svg> 