<?xml version="1.0" encoding="UTF-8"?> <svg xmlns="http://www.w3.org/2000/svg" viewBox="0 0 354 299.25" width="968.025" height="818.309" style="font-family:Arial"><defs><linearGradient x1="0%" x2="100%" y1="0%" y2="0%" id="a"><stop offset="0%" stop-color="#623200"></stop><stop offset="100%" stop-color="#f37121"></stop></linearGradient><linearGradient x1="0%" x2="100%" y1="0%" y2="0%" id="b"><stop offset="0%" stop-color="#623200"></stop><stop offset="100%" stop-color="#f57a1c"></stop></linearGradient><linearGradient x1="0%" x2="100%" y1="0%" y2="0%" id="c"><stop offset="0%" stop-color="#623200"></stop><stop offset="100%" stop-color="#f78317"></stop></linearGradient><linearGradient x1="0%" x2="100%" y1="0%" y2="0%" id="d"><stop offset="0%" stop-color="#623200"></stop><stop offset="100%" stop-color="#f88b12"></stop></linearGradient><linearGradient x1="0%" x2="100%" y1="0%" y2="0%" id="e"><stop offset="0%" stop-color="#623200"></stop><stop offset="100%" stop-color="#f9940b"></stop></linearGradient><linearGradient x1="0%" x2="100%" y1="0%" y2="0%" id="f"><stop offset="0%" stop-color="#623200"></stop><stop offset="100%" stop-color="#f99d04"></stop></linearGradient></defs><g transform="translate(20 25)"><path fill="#623200" d="M35 122.5h12v5H35z"></path><text x="20" y="154" font-size="7.04" font-weight="600" fill="#945c0f" text-anchor="middle" font-family="Poppins"><tspan x="20" dy="0">Spermidin und die</tspan><tspan x="20" dy="9.6">Organsysteme</tspan></text><circle cx="20" cy="125" r="20" fill="#ae7228"></circle><path d="m20 120.583 1.208 3.209L24.417 125l-3.209 1.208L20 129.417l-1.208-3.209L15.583 125l3.209-1.208L20 120.583m0-4.75-2.5 6.667-6.667 2.5 6.667 2.5 2.5 6.667 2.5-6.667 6.667-2.5-6.667-2.5-2.5-6.667z" fill="currentColor" color="#ffd284"></path></g><path d="M105 27.5h5v-5h-5c-6.9 0-12.5 5.6-12.5 12.5v105c0 4.1-3.4 7.5-7.5 7.5H65v5h20c4.1 0 7.5 3.4 7.5 7.5v105c0 6.9 5.6 12.5 12.5 12.5h5v-5h-5c-4.1 0-7.5-3.4-7.5-7.5v-40c2.1 1.6 4.7 2.5 7.5 2.5h5v-5h-5c-4.1 0-7.5-3.4-7.5-7.5v-40c2.1 1.6 4.7 2.5 7.5 2.5h5v-5h-5c-4.1 0-7.5-3.4-7.5-7.5v-5c0-4.1-2-7.7-5-10 3-2.3 5-5.9 5-10v-5c0-4.1 3.4-7.5 7.5-7.5h5v-5h-5c-2.8 0-5.4.9-7.5 2.5V85c0-4.1 3.4-7.5 7.5-7.5h5v-5h-5c-2.8 0-5.4.9-7.5 2.5V35c0-4.1 3.4-7.5 7.5-7.5z" fill="#623200"></path><g transform="translate(150 25)"><path fill="url('#a')" d="M-45-2.5h30v5h-30z"></path><circle r="19" fill="#f37121"></circle><circle r="16" fill="#050505"></circle><path d="M-3.75-6.667a4.583 4.583 0 0 0-4.583 4.584c0 .416.075.833.183 1.25h3.4l1.058-2.809c.25-.666 1.234-.733 1.55 0L-.417.833.075-.35c.108-.275.4-.483.758-.483H8.15c.108-.417.183-.834.183-1.25A4.583 4.583 0 0 0 3.75-6.667c-1.55 0-2.917.775-3.75 1.95a4.593 4.593 0 0 0-3.75-1.95M-7.5.417a.833.833 0 0 0-.833.833.833.833 0 0 0 .833.833h2.033l4.634 4.584c.833.75.833.75 1.666 0l4.634-4.584H7.5a.833.833 0 0 0 .833-.833A.833.833 0 0 0 7.5.417H1.167L.392 2.333c-.334.842-1.292.725-1.6.025l-1.709-4.441-.8 1.941c-.125.317-.408.559-.783.559h-3z" fill="currentColor" color="#f37121"></path><text x="29" y="-11" font-size="7.92" font-weight="600" fill="#830a00" font-family="Poppins"><tspan x="29" dy="0">Herz-Kreislauf-System</tspan></text><text x="29" font-size="6.16" fill="#3e0000" font-family="Poppins"><tspan x="29" dy="0">Schutz für Herz und Kreislauf, reduziert</tspan><tspan x="29" dy="8.4">Atherosklerose </tspan></text></g><g transform="translate(150 75)"><path fill="url('#b')" d="M-45-2.5h30v5h-30z"></path><circle r="19" fill="#f57a1c"></circle><circle r="16" fill="#050505"></circle><g color="#f57a1c" fill="currentColor"><path d="M8.531 2.656c-.469-1-.875-2.031-1.25-3.094-.031-.156-.093-.343-.093-.5V-3.03a6.4 6.4 0 0 0-.25-1.75A5.775 5.775 0 0 0 5.53-7.313c-.125-.156-.281-.28-.406-.406-.094-.093-.219-.156-.281-.281A8.068 8.068 0 0 0-.47-10H-.5c-1.969 0-3.906.719-5.469 1.969-2.75 2.375-3.437 6.375-1.75 9.531.969 1.844 1.625 4.75 1.782 7.656V10h.843v-.875c-.156-3.031-.906-6.094-1.875-8-1.531-2.844-.875-6.406 1.532-8.5C-4.063-8.531-2.313-9.156-.47-9.156h.031c1.75 0 3.407.625 4.75 1.75.094.093.157.156.282.25l.375.375c.593.625 1 1.375 1.218 2.218.125.5.22 1 .22 1.532v2.094c0 .25.03.5.124.75.375 1.093.782 2.156 1.282 3.156v.125c-.032.031-.063.031-.094.031h-.532l-.093.031c-.344.125-.532.469-.532.781v.282c0 .218-.093.375-.218.531-.157.219-.282.469-.282.75v1.375c0 .281-.25.531-.53.531H3c-.75 0-1.344.594-1.344 1.344V10H2.5V8.875c0-.281.219-.5.5-.5h2.531c.782-.031 1.375-.656 1.375-1.469V5.625c0-.094.032-.156.094-.219.25-.281.406-.656.406-1.093v-.25h.282c.28 0 .593-.125.75-.344.187-.313.28-.719.093-1.063z"></path><path d="M1.75 1.219c.344.281.75.468 1.25.468 1.031 0 1.875-.843 1.875-1.875S4.031-2.063 3-2.063c-.594 0-1.094.282-1.469.72l-3.406-1.938c.031-.125.094-.281.094-.469 0-.906-.75-1.656-1.657-1.656s-1.656.75-1.656 1.656c0 .875.657 1.594 1.5 1.656l.75 4.375c-.344.219-.594.594-.594 1.031 0 .72.532 1.25 1.25 1.25s1.25-.53 1.25-1.25c0-.093 0-.156-.03-.25L1.75 1.22zM1.156-.625c-.031.125-.031.281-.031.406 0 .25.031.5.156.719l-2.718 1.844c-.157-.125-.407-.25-.625-.25l-.72-4.344a1.563 1.563 0 0 0 .5-.344L1.157-.625z"></path></g><text x="29" y="-11" font-size="7.92" font-weight="600" fill="#851b00" font-family="Poppins"><tspan x="29" dy="0">Neuroprotektion </tspan></text><text x="29" font-size="6.16" fill="#3e0000" font-family="Poppins"><tspan x="29" dy="0">Verringert das Risiko neurodegnererativer</tspan><tspan x="29" dy="8.4">Erkrankungen, schützt dein Gehirn </tspan></text></g><g transform="translate(150 125)"><path fill="url('#c')" d="M-45-2.5h30v5h-30z"></path><circle r="19" fill="#f78317"></circle><circle r="16" fill="#050505"></circle><path fill-rule="evenodd" clip-rule="evenodd" d="M0 8.333A8.333 8.333 0 1 0 0-8.333 8.333 8.333 0 1 0 0 8.333zM-5.523-1.12c.492.636 1.928.35 3.208-.639 1.28-.99 1.919-2.307 1.427-2.943-.492-.637-1.928-.35-3.208.639-1.28.989-1.919 2.306-1.427 2.943zm9.04 2.309c1.369.827 2.145 2.049 1.735 2.73-.412.68-1.855.562-3.224-.265C.658 2.826-.12 1.603.292.923c.412-.68 1.855-.563 3.224.265zm.346-1.665c.729-.34.764-1.805.078-3.272-.686-1.466-1.833-2.378-2.561-2.037-.73.341-.764 1.806-.078 3.272.685 1.466 1.832 2.378 2.56 2.037zm-4.855 2.95c.744 1.478.75 2.976.015 3.346-.735.37-1.933-.53-2.677-2.009-.743-1.478-.75-2.977-.015-3.346.735-.37 1.934.53 2.677 2.008z" fill="currentColor" color="#f78317"></path><text x="29" y="-11" font-size="7.92" font-weight="600" fill="#872700" font-family="Poppins"><tspan x="29" dy="0">Mikrobiom </tspan></text><text x="29" font-size="6.16" fill="#3e0000" font-family="Poppins"><tspan x="29" dy="0">Positiver Einfluss auf dein Mikrobiom und stärkt deine</tspan><tspan x="29" dy="8.4">Darmbarriere</tspan></text></g><g transform="translate(150 175)"><path fill="url('#d')" d="M-45-2.5h30v5h-30z"></path><circle r="19" fill="#f88b12"></circle><circle r="16" fill="#050505"></circle><path d="M.833-8.333v1.065L5-5.878l3.027-1.009.527 1.58-2.526.843 2.58 7.093A4.988 4.988 0 0 1 5 4.167a4.988 4.988 0 0 1-3.607-1.538L3.97-4.464.833-5.511V5.833h3.334V7.5h-8.334V5.833h3.334V-5.51l-3.14 1.047 2.58 7.093A4.985 4.985 0 0 1-5 4.167a4.988 4.988 0 0 1-3.607-1.538l2.578-7.093-2.525-.842.527-1.581L-5-5.88l4.167-1.39v-1.064H.833zM5-2.414 3.818.833h2.363L5-2.414zm-10 0L-6.182.833h2.363L-5-2.414z" fill="currentColor" color="#f88b12"></path><text x="29" y="-11" font-size="7.92" font-weight="600" fill="#893000" font-family="Poppins"><tspan x="29" dy="0">Stoffwechsel</tspan></text><text x="29" font-size="6.16" fill="#3e0000" font-family="Poppins"><tspan x="29" dy="0">Reguliert deinen Stoffwechsel und mildert</tspan><tspan x="29" dy="8.4">Veränderungen, die mit Übergewicht und Diabetes in</tspan><tspan x="29" dy="8.4">Verbindung stehen. </tspan></text></g><g transform="translate(150 225)"><path fill="url('#e')" d="M-45-2.5h30v5h-30z"></path><circle r="19" fill="#f9940b"></circle><circle r="16" fill="#050505"></circle><path d="M8.333-2.5a3.6 3.6 0 0 1-1.85-.458A2.833 2.833 0 0 0 5-3.333v-.834a3.6 3.6 0 0 1 1.85.459 2.833 2.833 0 0 0 1.483.375m0-1.667a2.833 2.833 0 0 1-1.483-.375A3.6 3.6 0 0 0 5-5.833V-5a2.833 2.833 0 0 1 1.483.375 3.6 3.6 0 0 0 1.85.458m0 2.5a2.833 2.833 0 0 1-1.483-.375A3.6 3.6 0 0 0 5-2.5v.833a2.833 2.833 0 0 1 1.483.375 3.6 3.6 0 0 0 1.85.459m-10 1.441A58.658 58.658 0 0 0 4.167-.833v-5.834S-1.25-8.333-3.75-8.333A4.583 4.583 0 0 0-4.9.683l.733 5.15h.834a2.5 2.5 0 0 0 1.216 1.942A2.625 2.625 0 0 1-.833 10H0a3.433 3.433 0 0 0-1.592-2.875c-.583-.458-.908-.767-.908-1.292h.833m-2.083-7.5A2.083 2.083 0 1 1-1.667-3.75 2.083 2.083 0 0 1-3.75-1.667z" fill="currentColor" color="#f9940b"></path><text x="29" y="-11" font-size="7.92" font-weight="600" fill="#8a3900" font-family="Poppins"><tspan x="29" dy="0">Haarwachstum</tspan></text><text x="29" font-size="6.16" fill="#3e0000" font-family="Poppins"><tspan x="29" dy="0">Fördert das Haarwachstum durch Verlängerung der</tspan><tspan x="29" dy="8.4">aktiven Wachstumsphase </tspan></text></g><g transform="translate(150 275)"><path fill="url('#f')" d="M-45-2.5h30v5h-30z"></path><circle r="19" fill="#f99d04"></circle><circle r="16" fill="#050505"></circle><path d="M4.717-.667c-.192-.25-.425-.466-.642-.683-.558-.5-1.192-.858-1.725-1.383C1.108-3.95.833-5.958 1.625-7.5.833-7.308.142-6.875-.45-6.4c-2.158 1.733-3.008 4.792-1.992 7.417.034.083.067.166.067.275 0 .183-.125.35-.292.416-.191.084-.391.034-.55-.1a.483.483 0 0 1-.116-.141c-.942-1.192-1.092-2.9-.459-4.267-1.391 1.133-2.15 3.05-2.041 4.858.05.417.1.834.241 1.25.117.5.342 1 .592 1.442.9 1.442 2.458 2.475 4.133 2.683 1.784.225 3.692-.1 5.059-1.333C5.717 4.717 6.25 2.5 5.467.6L5.358.383C5.183 0 4.717-.667 4.717-.667m-2.634 5.25a2.73 2.73 0 0 1-.916.5C.233 5.417-.7 4.95-1.25 4.4-.258 4.167.333 3.433.508 2.692.65 2.025.383 1.475.275.833.175.217.192-.308.417-.883.575-.567.742-.25.942 0c.641.833 1.65 1.2 1.866 2.333.034.117.05.234.05.359.025.683-.275 1.433-.775 1.891z" fill="currentColor" color="#f99d04"></path><text x="29" y="-11" font-size="7.92" font-weight="600" fill="#8a4300" font-family="Poppins"><tspan x="29" dy="0">Entzündungen</tspan></text><text x="29" font-size="6.16" fill="#3d0000" font-family="Poppins"><tspan x="29" dy="0">Hemmt Entzündungen und regeneriert Knorpelzellen</tspan><tspan x="29" dy="8.4">bei Arthrose </tspan></text></g></svg> 