<?xml version="1.0" encoding="UTF-8"?> <svg xmlns="http://www.w3.org/2000/svg" xmlns:xlink="http://www.w3.org/1999/xlink" version="1.1" width="1618px" height="1000px" viewBox="-350 195 1618 1000"><g id="layer1"><g style="fill:rgb(116,196,255); fill-opacity:1.0; stroke-linejoin: miter"><path d="M-350.001,193.49026C-350.40115,193.49026,-350.7849,193.64922,-351.06784,193.93216C-351.35077,194.2151,-351.50974,194.59886,-351.50974,194.999L-351.50873,1195.0C-351.50873,1195.8333,-350.83325,1196.5087,-350.0,1196.5087L1268.001,1196.5096C1268.4011,1196.5096,1268.7848,1196.3507,1269.0677,1196.0677C1269.3507,1195.7848,1269.5096,1195.4011,1269.5096,1195.001L1269.5087,195.0C1269.5087,194.16676,1268.8333,193.49127,1268.0,193.49127L-350.001,193.49026 Z"></path></g><g style="fill:rgb(0,0,0); fill-opacity:0.35686275; stroke-linejoin: miter"><path d="M975.9875,1106.9425L971.57715,1107.594Q940.22064,1109.563,788.0798,1110.7432Q634.88635,1111.9225,427.2883,1111.6995Q229.16309,1111.3877,110.37621,1109.8755Q72.31558,1109.387,47.675552,1108.8105L26.966303,1108.2181Q9.899979,1107.6063,9.708103,1106.9415Q14.888949,1104.9014,151.21628,1103.5468Q287.5436,1102.1921,492.84744,1102.1409Q698.15137,1102.1925,834.479,1103.5475Q970.8067,1104.9023,975.9875,1106.9425"></path></g><g style="fill:rgb(233,208,228); fill-opacity:0.99607843; stroke-linejoin: miter"><path d="M667.1099,886.9858L663.77496,912.1457Q646.7487,987.73193,585.14307,1029.7246Q523.13525,1071.653,443.67603,1057.8296Q368.09012,1040.8024,326.09784,979.19745Q312.6535,959.292,304.60236,936.32446L298.10718,912.8258Q293.06293,888.6818,294.65732,862.88995Q301.77377,783.88556,357.7207,734.73785Q413.6679,685.5894,492.93103,688.71246Q571.93665,695.82855,621.0852,751.77625Q670.2325,807.7229,667.1099,886.9858"></path></g><g style="fill:rgb(57,48,55); fill-opacity:1.0; stroke-linejoin: miter"><path d="M363.18472,671.82043C415.78342,639.6719,477.67584,630.0924,537.67914,644.41815C597.50006,658.85425,648.32275,695.7889,680.46967,748.38617C712.6169,800.98694,722.37805,862.76874,707.8712,922.88306C693.36383,982.9951,656.49994,1033.5255,603.90137,1065.6729C551.30365,1097.8198,489.52243,1107.5817,429.4093,1093.0735C369.2956,1078.5685,318.76593,1041.7041,286.6188,989.10535C254.47165,936.50665,244.71046,874.72455,259.21643,814.6107C273.83383,754.67914,310.5859,703.968,363.18472,671.82043 Z M441.43875,1043.2245C488.06314,1054.4763,536.14355,1046.8384,577.0939,1021.8103C618.0443,996.7833,646.65704,957.296,658.02045,910.8512C669.27203,864.22656,661.63556,816.1465,636.60736,775.1971C611.5796,734.2444,572.0918,705.63074,525.6493,694.26965C479.02423,683.01715,430.94427,690.6535,389.9928,715.68195C349.0432,740.70996,320.4292,780.1972,309.0667,826.6405C297.8159,873.2667,305.45224,921.3469,330.4813,962.2979C355.39777,1003.0657,394.81427,1031.9722,441.43875,1043.2245 Z"></path></g><g style="fill:rgb(125,139,150); fill-opacity:1.0; stroke-linejoin: miter"><path d="M244.13734,833.74866L251.20563,801.705Q281.47357,706.20435,365.46704,658.8997Q449.97647,611.7111,550.81805,638.2809Q646.3189,668.54663,693.6267,752.5388Q708.7519,779.66534,716.5951,810.1461L722.37036,841.134Q726.2051,872.7959,721.30597,905.84595Q703.4273,1006.8484,625.93024,1063.9976Q548.4346,1121.1449,446.66382,1108.3848Q345.6666,1090.5043,288.51855,1013.0117Q231.37242,935.51715,244.13734,833.74866 Z"></path></g><g style="fill:rgb(60,70,79); fill-opacity:1.0; stroke-linejoin: miter"><path d="M281.57343,838.7905L287.54062,811.7617Q313.07217,731.2071,383.919,691.30304Q455.2018,651.50604,540.2629,673.9146Q620.8136,699.4456,660.71893,770.295Q673.47375,793.17566,680.08734,818.88196L684.9637,845.0219Q688.1978,871.72565,684.0649,899.6079Q668.985,984.7998,603.615,1033.0024Q538.25085,1081.2102,452.40417,1070.4469Q367.21646,1055.3639,319.0131,989.9978Q270.81207,924.63104,281.57343,838.7905 Z"></path></g><g style="fill:rgb(83,93,102); fill-opacity:1.0; stroke-linejoin: miter"><path d="M286.5048,839.4561L292.32657,813.088Q317.2337,734.50366,386.3491,695.57404Q455.88992,656.7472,538.87274,678.6103Q617.45483,703.5163,656.3847,772.6349Q668.82904,794.95636,675.27997,820.03406L680.0364,845.53827Q683.1917,871.5878,679.1604,898.78705Q664.44867,981.89905,600.67615,1028.9238Q536.9098,1075.952,453.16153,1065.4507Q370.0547,1050.735,323.02966,986.9703Q276.0055,923.2,286.5048,839.4561 Z"></path></g><g style="fill:rgb(60,70,79); fill-opacity:1.0; stroke-linejoin: miter"><path d="M703.0957,947.01324L703.0956,947.0149C700.4869,954.7413,697.4935,962.2617,694.12695,969.58826L673.67633,960.1897C676.71173,953.5831,679.41785,946.7834,681.7699,939.8153 Z M676.36206,1001.3773L676.3619,1001.3805C671.8606,1008.12683,667.0044,1014.63745,661.84766,1020.854L644.5259,1006.4796C649.1832,1000.86646,653.57355,994.9817,657.63824,988.8882 Z M636.485,1046.9714L636.48474,1046.9747C630.40967,1052.3243,624.05774,1057.3607,617.4525,1062.0574L604.40625,1043.7158C610.3729,1039.4722,616.11847,1034.9186,621.6071,1030.0836 Z M586.2259,1080.7816L586.2258,1080.7832C578.9931,1084.3804,571.56067,1087.609,563.9369,1090.4507L556.07306,1069.3627C562.9546,1066.7964,569.6648,1063.882,576.1976,1060.6296 Z M528.92236,1100.4437L528.9223,1100.4456C521.03784,1102.0342,513.0227,1103.2225,504.8932,1103.9899L502.78143,1081.5814C510.11877,1080.8894,517.35925,1079.8169,524.4713,1078.3816 Z M468.44504,1104.564L468.4449,1104.5656C468.30823,1104.555,467.93796,1104.5311,467.8012,1104.5222L467.80096,1104.5255C459.84467,1104.0074,452.01947,1103.0997,444.3137,1101.815L448.01523,1079.6125C454.9714,1080.7747,462.05838,1081.5957,469.2543,1082.0614L469.25412,1082.0647C469.3915,1082.0702,469.70468,1082.0906,469.84143,1082.0991 Z M408.9287,1093.0125L408.9286,1093.014C401.1921,1090.4257,393.6629,1087.4546,386.32733,1084.1067L395.66858,1063.6307C402.28555,1066.6484,409.08826,1069.3347,416.06674,1071.6665 Z M354.49057,1066.4315L354.3896,1066.3622L354.38312,1066.3583L354.48434,1066.4253C347.7104,1061.9357,341.21393,1057.1188,334.97388,1051.9686L349.29913,1034.6077C354.93832,1039.2623,360.80423,1043.6116,366.9219,1047.668L367.02347,1047.7358L367.0298,1047.7411 Z M308.7848,1026.6785L308.78467,1026.6802C303.4138,1020.6151,298.3647,1014.28015,293.647,1007.68604L311.9527,994.59094C316.21643,1000.55176,320.77798,1006.2731,325.63348,1011.7545 Z M274.84006,976.5112L274.83978,976.51526C271.22354,969.29584,267.96817,961.85846,265.10782,954.25146L286.1748,946.32916C288.7561,953.1943,291.6966,959.91364,294.96225,966.428 Z M255.01642,919.26227L255.07697,919.53674L255.07553,919.5332L255.01578,919.25903C253.40375,911.3792,252.19385,903.36816,251.40579,895.2438L273.80817,893.0701C274.51947,900.4075,275.61212,907.63446,277.0666,914.74677L277.00687,914.4724L277.00745,914.47577 Z M250.73138,858.80554L250.73114,858.80896C250.7526,858.4509,250.78809,857.8702,250.81116,857.5141L250.81091,857.5175C251.31168,849.77716,252.18503,842.15533,253.41534,834.653L275.62665,838.2945C274.51514,845.07227,273.72507,851.9651,273.27203,858.9673L273.27182,858.9707C273.25348,859.2542,273.21664,859.84906,273.19928,860.13763 Z M262.1185,799.2504L262.1184,799.252C264.6824,791.5111,267.6379,783.96356,270.96228,776.62445L291.46466,785.90955C288.46472,792.5319,285.79782,799.3451,283.4843,806.3278 Z M288.5482,744.74L288.548,744.7436C293.01596,737.9604,297.82993,731.43036,302.9563,725.1833L320.35602,739.4603C315.72192,745.1077,311.3782,750.9992,307.34076,757.1246 Z M328.17557,698.9243L328.1755,698.9259C334.21945,693.53986,340.55048,688.46643,347.12628,683.7344L360.2723,702.004C354.32782,706.2803,348.61002,710.86505,343.1451,715.73083 Z M378.2478,664.84296L378.24966,664.8405L378.25656,664.83777L378.25525,664.8374C385.463,661.2026,392.8789,657.9312,400.48108,655.0476L408.46152,676.09283C401.60202,678.6934,394.9014,681.6502,388.39346,684.93176L388.3913,684.93335L388.38483,684.9363 Z M435.4436,644.86L435.4435,644.8616C443.31763,643.22546,451.3307,641.99274,459.45215,641.1813L461.6882,663.57855C454.3545,664.3102,447.1237,665.4219,440.01697,666.8975 Z M495.8836,640.40686L495.88333,640.4103C496.57364,640.44653,497.1252,640.47986,497.8186,640.5246L497.81842,640.5271C505.33105,641.01074,512.76294,641.8532,520.05383,643.0259L516.4738,665.24774C509.88922,664.1868,503.1635,663.4251,496.36584,662.9855L496.3657,662.9871C495.76456,662.9466,495.2152,662.9128,494.6111,662.87866 Z M555.47473,651.63043L555.4747,651.63226C563.22003,654.17346,570.77795,657.10785,578.1261,660.4117L568.8982,680.93945C562.2679,677.9589,555.44604,675.30994,548.4556,673.0159 Z M610.0571,677.9092L610.0571,677.91095C616.8548,682.3621,623.38715,687.1508,629.65466,692.2638L615.425,709.7012C609.7621,705.08057,603.8634,700.75854,597.72314,696.7347 Z M655.98254,717.4096L655.9823,717.41296C661.3881,723.4444,666.4711,729.7522,671.2254,736.3193L652.9917,749.5162C648.69507,743.5777,644.1019,737.8835,639.2168,732.4267 Z M690.2022,767.3882L690.2021,767.38983C693.85754,774.58417,697.154,782.00287,700.0574,789.5925L679.0354,797.6326C676.41315,790.77795,673.43976,784.08496,670.13635,777.5832 Z M710.34375,824.5295L710.34357,824.53284C711.9992,832.3995,713.2549,840.41034,714.0881,848.5293L691.69763,850.82684C690.946,843.4943,689.8129,836.2671,688.3185,829.1646 Z M714.9623,884.947L714.96216,884.94867C714.9145,885.82086,714.86487,886.6593,714.8084,887.5325L714.80835,887.53406C714.28046,895.7058,713.3359,903.7476,711.9952,911.65485L689.80426,907.8926C691.01495,900.75323,691.8704,893.47144,692.3487,886.07935L692.34863,886.08093C692.4015,885.2637,692.44275,884.5547,692.48645,883.74335 Z"></path></g><g style="fill:rgb(125,139,150); fill-opacity:0.99607843; stroke-linejoin: miter"><path d="M419.80896,807.3996L419.81177,807.4001L419.81177,807.4001L419.80896,807.3996"></path></g><g style="fill:rgb(205,205,208); fill-opacity:1.0; stroke-linejoin: miter"><path d="M335.79126,984.265C271.58295,904.08813,284.52908,787.0391,364.7078,722.8298C444.88504,658.6217,561.9325,671.5659,626.1395,751.7426C690.34796,831.91907,677.4038,948.9678,597.2251,1013.17737C517.04767,1077.3867,400.00073,1064.4432,335.79126,984.265 Z"></path></g><g style="fill:rgb(90,139,176); fill-opacity:1.0; stroke-linejoin: miter"><path d="M597.2251,1013.17737C517.0474,1077.3872,400.00073,1064.4432,335.79108,984.26514C271.5832,904.0876,284.52908,787.0391,364.7078,722.8298 Z"></path></g><g style="fill:rgb(255,255,255); fill-opacity:1.0; stroke-linejoin: miter"><path d="M522.44476,834.7857L439.48743,901.2195L572.3128,982.0685 Z"></path></g><g style="fill:rgb(222,221,224); fill-opacity:1.0; stroke-linejoin: miter"><path d="M480.9669,868.0031L439.48743,901.2195L572.3128,982.0685 Z"></path></g><g style="fill:rgb(255,0,57); fill-opacity:1.0; stroke-linejoin: miter"><path d="M522.44476,834.7857L439.48743,901.2195L389.6205,753.93854 Z"></path></g><g style="fill:rgb(191,60,26); fill-opacity:1.0; stroke-linejoin: miter"><path d="M480.9669,868.0031L439.48743,901.2195L389.6205,753.93854 Z"></path></g><g style="fill:rgb(255,255,255); fill-opacity:1.0; stroke-linejoin: miter"><path d="M904.3426,650.3203C904.3398,650.32025,904.345,650.3188,904.3594,650.3172L904.3597,650.31793C904.3605,650.31696,904.3633,650.31683,904.3691,650.31665C904.3579,650.3188,904.3499,650.32025,904.3456,650.3203 Z M850.9031,637.675C850.8982,637.67413,850.894,637.6722,850.88983,637.6708L850.88995,637.6721C850.80493,637.6408,850.7791,637.6243,850.78906,637.6243C850.79944,637.62415,850.84674,637.64044,850.9068,637.675 Z M897.5591,628.852C897.5593,628.852,897.5593,628.852,897.5593,628.852L897.55927,628.8528 Z M868.3976,676.02527C873.9449,675.9763,879.9342,674.00964,885.41956,670.3915C890.55396,667.01056,896.71313,660.831,901.52167,654.33246L901.52435,654.32916L901.5267,654.3261L901.52734,654.325C902.89777,652.43646,904.1058,650.8166,904.4922,650.32153C904.82465,650.3494,905.50977,650.4892,906.2818,650.7243L906.282,650.7254C908.12976,651.28876,910.67786,651.57007,913.03064,651.5494C914.5453,651.536,916.0099,651.39716,917.17773,651.1137L917.1811,651.1129C921.1106,650.1346,923.96875,648.4397,927.0431,645.3105C930.0522,642.2476,931.59644,639.6888,932.85254,635.5407L932.8534,635.53754C933.45953,633.49603,933.57733,632.32556,933.5484,629.04083C933.49774,623.2849,932.318,619.83307,928.6732,614.62726L928.67316,614.6284C926.8036,611.9556,922.38306,607.6796,919.347,605.5555L919.34564,605.55475C912.61707,600.8756,904.1034,598.1137,896.8593,598.1774C896.3633,598.1819,895.8762,598.1994,895.3924,598.23035L895.39215,598.2312C886.1616,598.8299,879.8944,603.61566,877.14215,612.1542L877.1413,612.1568C876.6512,613.7037,876.1503,615.66626,876.05115,616.52625L876.0514,616.5272L875.8425,617.9833C875.8208,618.1357,875.8627,618.2906,875.95856,618.41113C876.05426,618.532,876.1956,618.6082,876.3491,618.6218L878.62823,618.82306L878.6323,618.8233C881.0189,619.0164,885.3577,620.28284,887.9719,621.5919L887.9747,621.5932C891.09894,623.137,896.4271,627.11346,897.3996,628.61646L897.4067,628.6269L897.4069,628.62744C897.5021,628.7675,897.5379,628.8346,897.5514,628.8659L897.55444,628.8671C897.5118,628.97644,897.2992,629.2217,896.4638,629.9966L896.4529,630.0068C895.64886,630.7937,894.24603,632.0633,893.3129,632.8548L893.30835,632.85876L891.9851,634.0063L890.4087,632.60986C885.92444,628.61224,880.3978,626.5361,875.14014,626.5823C871.72394,626.6124,868.4179,627.5388,865.59467,629.4223L865.59076,629.42554L865.58966,629.42596L865.58307,629.43036C864.57733,630.13556,863.30804,631.124,862.7925,631.6838L862.79083,631.6858C861.4775,633.1228,859.6945,636.3118,859.0875,638.2881C858.8458,639.0727,858.7147,639.35065,858.6438,639.44403L858.64014,639.4451C858.62726,639.44214,858.61115,639.43915,858.59094,639.4345L858.57806,639.4317C856.58765,639.03094,852.63715,638.12366,851.3109,637.7861L851.3146,637.7871C851.5904,636.7491,852.4899,634.2282,853.0878,633.0053C855.7375,627.65216,859.81604,623.5982,865.11444,621.108L865.1144,621.1088L867.79193,619.8509C867.97375,619.76526,868.0962,619.58905,868.1128,619.3889L868.2844,617.33185C868.5686,614.2207,869.80756,609.34125,870.95624,606.8357L870.9562,606.83704C872.47833,603.56604,874.125,601.2669,876.742,598.7291C881.4083,594.2304,887.149,591.66034,894.5985,590.7525L894.601,590.75214C896.03613,590.57043,897.3653,590.3799,897.6822,590.2823L897.6827,590.2834C897.6945,590.2795,897.8472,590.2366,897.9622,590.12036L897.9636,590.1212C898.19727,589.8891,898.13965,589.55316,898.1376,589.5532L898.13745,589.55414C898.09784,589.20685,897.8299,588.52905,897.5546,587.91766L897.554,587.9165C895.82434,584.10803,894.86316,577.92145,895.28827,573.2909L895.28827,573.2896C895.909,566.3408,899.1378,560.2958,904.18335,556.49603L904.18335,556.497L906.2862,554.9292C906.46155,554.7987,906.5452,554.57825,906.50055,554.364L906.2361,553.1013L906.23645,553.1024C906.1148,552.44885,905.9679,550.1075,905.948,547.83655C905.9106,543.60046,906.476,540.872,907.8887,538.01434L907.8889,538.0155L908.5037,536.8524C908.6193,536.634,908.57855,536.3657,908.4035,536.19183L905.7549,533.55817L905.7523,533.5556C902.0283,529.89667,898.2702,528.20667,893.6688,528.24725C890.3112,528.2769,886.26056,529.68646,883.0715,531.9184L883.0668,531.92175L881.5896,532.9786C881.4252,533.0958,881.33673,533.29285,881.3578,533.49347L881.5993,535.79767C882.209,541.90857,880.1693,549.388,876.3633,555.0515C874.6263,557.59607,870.6188,561.5444,869.42847,562.2261L869.42487,562.22754C869.2617,561.9944,868.9983,561.616,868.6588,561.12787C868.2215,560.49896,867.6937,559.7398,867.104,558.8992L864.945,555.81775L865.55756,555.34534L865.5598,555.3432C871.62054,550.616,874.80115,542.864,873.7601,535.3954L873.75916,535.3896C873.2802,532.204,872.15533,528.79126,870.70074,526.2967L870.7001,526.2955C869.1753,523.6969,865.5953,520.11316,863.0252,518.6604L863.0256,518.6614C862.26807,518.2062,861.6864,517.8154,861.397,517.59155L861.40045,517.5926C861.6641,516.93665,862.23804,515.47614,862.875,513.8544L862.875,513.85516L864.1765,510.5855L864.7884,510.85114L864.7883,510.85217C869.68445,513.00006,874.7599,517.6725,877.6284,522.6721L877.6284,522.6734C878.09375,523.5034,878.59216,524.28296,878.8024,524.5211L878.8009,524.52216C878.79443,524.52124,878.99115,524.7549,879.27765,524.7524C879.3903,524.7514,879.4887,524.7139,879.49365,524.7121L879.49396,524.71344C879.77655,524.6155,880.9241,524.041,882.17365,523.40204L882.1754,523.4015C886.1568,521.35126,888.7213,520.71545,893.444,520.6739C896.40393,520.6479,898.0515,520.7918,899.46674,521.1701L899.4672,521.1713C903.7483,522.3086,908.7079,525.18536,911.56757,528.238L912.8769,529.65C912.9882,529.7703,913.1408,529.8311,913.2939,529.8297C913.41785,529.8285,913.54236,529.78644,913.64514,529.70215L916.0946,527.6877L916.096,527.6863C920.2239,524.26746,925.71136,521.75635,931.50104,520.64557L931.5013,520.6467L931.5039,520.64514C932.9053,520.3748,934.22363,520.0666,934.5281,519.94684L934.5282,519.9481L934.5283,519.9479C934.537,519.94403,934.66425,519.8975,934.76276,519.79755C935.06726,519.48773,934.8975,519.0806,934.8809,519.0376C934.81287,518.8614,934.6934,518.6841,934.5594,518.5304L934.5598,518.53186C933.52454,517.26953,931.84717,511.7605,931.5006,508.0581L931.5005,508.05536L931.25745,505.59045C931.24207,505.43494,931.16254,505.2928,931.0381,505.1985C930.9384,505.12262,930.81696,505.08307,930.69366,505.08405C930.66315,505.0844,930.63214,505.08716,930.6015,505.0927L929.4647,505.29224L929.4647,505.29346C926.48065,505.81647,923.6191,506.0918,920.9561,506.11536C918.42194,506.13763,916.0752,505.93127,913.98926,505.497L913.9869,505.49652C902.72284,503.20422,894.4207,495.80347,890.14014,484.20935L890.1397,484.20874C889.5341,482.57654,889.1327,481.5849,888.5993,481.23578C888.42834,481.1234,888.2376,481.0667,888.03796,481.06836C887.99335,481.0688,887.9513,481.07184,887.9103,481.07703L887.9099,481.07727L887.90344,481.078L887.8965,481.07922C886.4249,481.28833,884.99225,481.3994,883.6016,481.41162C878.82495,481.45343,874.5042,480.33514,870.58154,478.04755L870.58154,478.049C869.4927,477.40765,868.8462,477.03503,868.20184,477.04077C867.8534,477.04382,867.54297,477.15417,867.2357,477.2782L867.2283,477.28113C863.5635,478.81915,859.2967,479.69672,855.3628,479.73145C854.3476,479.74048,853.3602,479.69348,852.40906,479.58765L852.404,479.58728C849.3017,479.27008,845.42804,478.39594,843.5894,477.64862L843.5848,477.6469L842.569,477.24475C842.5,477.2173,842.4283,477.20428,842.35767,477.20496C842.159,477.2068,841.9693,477.3145,841.8692,477.49817L840.62604,479.78314C838.822,483.0465,837.19867,487.44452,836.2446,491.64026L836.244,491.6433C835.5317,494.87036,835.445,495.93066,835.4911,501.1701C835.5335,505.99097,835.6749,507.65027,836.2802,510.3272C838.6093,520.726,843.5805,529.5121,851.2218,536.7659L851.2232,536.7675L853.183,538.61584L851.38745,540.31445L851.3876,540.3157C847.07294,544.3833,842.9672,550.01117,840.57654,555.1597C833.2419,570.8108,836.0403,588.5107,847.9628,602.44556L849.25885,603.9785L847.80365,606.2031C845.4008,609.8447,842.3049,616.4677,840.99835,620.7357L840.9971,620.7402C840.4066,622.7288,839.60895,626.1754,839.24493,628.4168L839.244,628.42255C838.6994,632.0124,838.6156,633.3477,838.8219,638.74554C838.9938,643.8545,839.2003,645.5397,839.8693,648.3374L839.8705,648.34186C842.05585,657.16833,845.6703,663.7244,851.187,668.85767L851.18756,668.85815C855.2373,672.61414,858.9513,674.63116,863.7877,675.59393L863.7877,675.5949C865.27484,675.8976,866.8184,676.0391,868.3976,676.02527 Z"></path></g><g style="fill:rgb(255,255,255); fill-opacity:1.0; stroke-linejoin: miter"><path d="M941.51953,492.79456C941.50336,492.7768,941.4894,492.75812,941.477,492.7398L941.477,492.7409L941.5227,492.79456 Z M867.1859,385.83655C867.18536,385.8362,867.18463,385.83557,867.18414,385.83533L867.18353,385.83475C867.15643,385.8135,867.1455,385.80194,867.1455,385.79987L867.147,385.80124C867.1516,385.80222,867.16797,385.81482,867.18945,385.83655 Z M869.8756,378.92575C869.8682,378.92566,869.8702,378.92422,869.8848,378.92413C869.8876,378.9243,869.8901,378.9243,869.89294,378.9243L869.8964,378.9255C869.88916,378.92517,869.88324,378.9255,869.8791,378.92566 Z M957.86426,523.3815C959.2768,523.369,960.67676,523.2663,961.7856,523.06934L961.7852,523.07043C969.4453,521.70667,976.9905,516.34784,981.7117,509.01556L981.71375,509.01202C984.78656,504.16772,986.7861,498.6679,987.8772,492.04852L987.8776,492.047C988.6379,487.35828,988.6198,478.28674,987.87036,472.87048L987.8698,472.8676C985.08167,453.4562,975.0135,439.82172,958.51984,433.23914L958.51276,433.23627L958.5064,433.23395L958.5063,433.23474C957.0394,432.66714,955.58136,432.1217,954.91675,431.93988L954.9194,431.94067C955.08966,431.3899,955.4246,429.984,955.744,428.60016L955.7445,428.59863C956.30786,426.12253,956.3885,424.64285,956.3748,419.4524L956.3748,419.44885C956.326,413.9062,956.2237,412.92575,955.5162,410.45068C954.5552,407.08685,953.0151,403.75198,951.2763,401.27298L951.27655,401.2738C949.95087,399.32556,946.7142,396.11484,944.7826,394.79788L944.7826,394.79895C942.8424,393.47467,939.2243,391.9011,936.513,391.18433L936.51074,391.1837C934.6038,390.68756,931.8188,390.46625,929.01184,390.49088C926.24414,390.51538,923.4027,390.7787,921.28015,391.28082L921.27344,391.2825C920.4123,391.4971,919.6395,391.67215,919.118,391.78653L919.1149,391.7879C919.14813,391.18976,919.21606,390.23776,919.31885,389.15158L919.3194,389.14554C919.8706,382.5348,918.6582,375.60883,915.9994,370.24796L915.99866,370.24643C913.0895,364.42645,907.59845,360.15683,901.2836,358.78296L901.27655,358.7815C899.8862,358.498,898.74384,358.37125,896.9028,358.38718C896.1175,358.39413,895.1971,358.4274,894.08264,358.4849L894.08466,358.48596C889.31287,358.68677,886.19055,359.35873,881.91113,361.0305L880.5248,361.55792L878.6752,359.93338L878.6752,359.93478C873.1404,355.03363,867.88135,352.08685,862.0089,350.59332L862.0091,350.59445C860.38434,350.17786,858.52136,350.03625,855.5665,350.0623L855.5703,350.06335C855.42255,350.06247,855.2636,350.0632,855.12054,350.06433C850.6696,350.10352,848.4883,350.61035,844.7833,352.42468C836.9943,356.17804,831.58356,363.13724,829.06696,372.58978C828.4611,374.7667,828.3797,376.04218,828.42633,381.3511C828.44556,387.124,828.5146,387.81573,829.3836,390.94696L829.38367,390.9481C830.54016,395.15915,832.4014,399.52505,834.54803,403.06393L834.54926,403.06607C836.385,406.0654,840.1297,411.08344,841.4313,412.29663L841.4458,412.3094L841.86664,412.67548L840.2343,414.70694C834.8941,421.3346,831.68134,428.18665,830.43134,435.6428L830.4307,435.6459C829.7597,439.8017,830.04315,446.90158,831.0795,450.67966L831.07947,450.68063C833.498,459.60165,838.54346,466.41138,845.4501,469.9184C848.4097,471.42737,851.52014,472.1634,854.6495,472.1358C858.9383,472.09808,863.2342,470.6266,867.20526,467.79102L868.78253,466.6844L869.31573,467.09155L869.31573,467.09265C871.85913,469.08252,875.8097,471.4485,878.0338,472.31012L878.03406,472.31128C880.3787,473.24408,880.96497,473.30634,884.48126,473.3078L884.4863,473.30835C888.0191,473.27637,888.5366,473.20898,890.3235,472.31305L890.3235,472.31403C893.43335,470.7729,895.6133,467.685,896.49445,463.7861L896.49445,463.78735C897.00354,461.59668,896.9548,456.80527,896.41406,454.06522L896.41406,454.06668C896.2473,453.13943,896.1639,452.31836,896.1638,452.0152L896.16693,452.01627C896.3983,451.7897,897.1167,451.259,898.0409,450.71994L898.0513,450.71414C899.1771,450.0249,901.1572,448.5936,902.4106,447.44925L902.4106,447.4503C908.1177,442.4473,911.1353,436.4896,911.0792,430.1275C911.0343,425.00473,909.57916,421.68292,905.7477,417.8863C903.7235,415.86548,902.7139,415.17163,900.1784,413.99615C897.0386,412.52457,894.1752,411.63123,891.95483,411.4856L891.95514,411.48685L890.7874,411.4012C890.7721,411.4001,890.75684,411.3997,890.7417,411.3998C890.5034,411.40182,890.2898,411.55533,890.21405,411.7846L889.2895,414.57626L889.28937,414.57724C886.7142,422.4071,882.2389,427.7351,875.3251,431.26865C873.4036,432.25067,870.4552,433.36353,868.8116,433.71365L868.80365,433.71545L868.3414,433.82056L867.90656,431.9063L867.90656,431.9075C867.6613,430.78473,867.3038,429.27014,867.0589,428.23395L867.05896,428.23373C867.01636,428.0532,866.9496,427.771,866.9191,427.64084L866.61456,426.33542L867.3891,426.12027L867.38947,426.12106C868.1648,425.90988,869.7778,425.2456,870.9981,424.70065L871.01044,424.6948C881.5789,419.66415,885.53687,408.69116,880.5975,398.31503C880.53436,398.18234,880.47107,398.05298,880.40515,397.92044L880.404,397.91824C878.06067,393.26895,874.5573,389.80255,869.47644,387.10953L869.46967,387.10608C868.58154,386.65067,867.8449,386.2421,867.45776,386.01053L867.4612,386.01166C867.9299,384.69324,869.62604,380.2331,870.13226,378.9697C870.4197,379.04327,870.90533,379.20618,871.5081,379.46368L871.50824,379.4648C880.2466,383.24197,887.6269,391.83157,889.6237,400.57767L889.624,400.57846L890.1831,403.00925C890.2362,403.2398,890.4281,403.41232,890.663,403.44083L892.37286,403.64697L892.37573,403.6473C899.87775,404.51428,907.97253,408.68143,912.4753,413.93307C914.5657,416.38495,917.16266,421.22382,917.98914,424.20212L917.9898,424.2052C918.7173,426.7726,919.02155,432.88458,918.5538,435.5914L918.5537,435.59265C917.3157,442.85822,913.24945,449.5081,907.07367,454.25754L907.07367,454.25854L905.34534,455.56976C905.20416,455.67667,905.12195,455.8444,905.1235,456.02164L905.14856,458.86832C905.18054,462.51083,904.53174,465.4379,902.8903,468.95386C901.7699,471.30707,901.0876,472.30872,898.93225,474.5338L898.9305,474.53564L896.2664,477.31067C896.1203,477.4629,896.0717,477.68427,896.1407,477.88367L897.17944,480.87933C898.9592,486.18866,901.2205,489.7353,904.71497,492.84747L904.71515,492.84796C908.8374,496.51447,914.2171,498.30652,920.6128,498.25024C925.52997,498.2069,931.0515,497.07257,937.087,494.8576L937.0971,494.85376L937.09735,494.85486C938.7868,494.22748,940.5282,493.54987,941.1871,493.22906C941.07886,493.57947,940.9286,494.0193,940.73987,494.49725L940.7337,494.51318C938.7341,500.068,938.12585,506.396,939.3092,510.64697L939.3093,510.64764C941.0351,516.9837,946.18396,521.6418,952.8125,522.98535L952.81244,522.9865C954.1957,523.26776,956.06555,523.3971,957.86426,523.3815 Z"></path></g><g style="fill:rgb(255,255,255); fill-opacity:1.0; stroke-linejoin: miter"><path d="M940.91,620.01666L941.04584,619.99884C941.1403,619.9747,941.6206,619.87866,942.144,619.8124L942.15796,619.8105C944.435,619.46454,947.20245,618.5665,949.7333,617.32184C951.9429,616.2578,953.00073,615.44604,954.9169,613.4631L954.9172,613.4642C958.61993,609.6611,960.37134,605.6646,960.96466,599.8568L960.9649,599.85785C961.7669,592.07715,958.9203,582.71783,953.99805,576.6993L953.9939,576.69403C953.57886,576.1991,953.21564,575.7433,952.9466,575.3945L952.94934,575.3958C953.4462,575.3436,954.1344,575.2843,954.9094,575.231L954.91046,575.2323C958.71497,574.9718,961.37134,574.2653,965.0543,572.4959L965.0543,572.49713C972.1622,569.08966,977.1769,564.0826,980.649,556.9171L980.64966,556.9152C983.10834,551.78986,983.7073,549.2341,983.68896,543.5179L983.689,543.519C983.68665,539.636,983.5491,538.46924,982.9077,536.3127L982.9077,536.3139C982.10724,533.5716,980.37354,529.98926,978.7673,527.7374L978.76544,527.73444C978.2153,526.972,977.6814,526.2323,977.55774,526.0502L977.55774,526.0515C977.3644,525.7661,977.0413,525.7563,976.9537,525.75476L976.9552,525.7559C976.9422,525.75446,976.93756,525.7547,976.9246,525.75476C976.39685,525.7594,975.3213,526.1713,974.1445,526.73444L974.1445,526.7357C968.4374,529.38367,964.0351,530.47455,958.75275,530.52106C955.2075,530.55176,953.1641,530.29535,946.45795,528.90204L946.4553,528.90155C943.2099,528.2441,940.4166,527.9075,937.8239,527.9304C933.4135,527.9692,929.63104,529.0489,925.2354,531.2849L925.2355,531.28625C919.99774,533.9294,916.34283,537.2953,914.4096,541.28143L914.4096,541.2822L914.4081,541.28455C913.3958,543.3886,913.32935,543.7689,913.359,547.13873C913.3867,550.2789,913.4918,550.96277,914.3714,552.97754C914.9073,554.2195,916.1176,556.3002,917.0652,557.615L917.0746,557.6277L917.07574,557.6294L917.07574,557.6307C917.5802,558.30634,918.01416,558.9083,918.3123,559.3364L918.3155,559.3375C918.18585,559.34235,918.0419,559.34644,917.88654,559.34766C910.97217,559.4085,904.69385,565.0333,902.97076,572.5602C902.43225,574.8667,902.472,579.3533,903.0508,581.67914L903.0513,581.6814C903.72845,584.3552,905.57245,587.8381,907.39233,589.85345L907.3934,589.85455C908.7728,591.3754,909.5195,591.8562,911.80426,592.74634L911.8104,592.7491C916.12067,594.3725,922.14154,597.5541,924.98785,599.67316L924.99115,599.6754C928.3511,602.1416,932.4845,606.3608,934.6565,609.57263L934.66046,609.5785C935.5992,610.92883,937.1917,613.76544,938.24945,615.8964L938.2508,615.89954C939.18933,617.76294,940.1043,619.41724,940.4233,619.77936L940.42285,619.7806C940.4188,619.77954,940.61127,620.0194,940.91,620.01666 Z"></path></g><g style="fill:rgb(255,255,255); fill-opacity:1.0; stroke-linejoin: miter"><path d="M747.9657,651.69727C747.96814,651.69666,747.9632,651.69543,747.9486,651.6941L747.9482,651.6951C747.94745,651.6941,747.9445,651.6939,747.93884,651.6939C747.94995,651.69617,747.95795,651.69727,747.96246,651.69727 Z M801.17365,638.1132C801.17834,638.1116,801.18274,638.11,801.1866,638.10846L801.1866,638.1098C801.271,638.07666,801.2967,638.06036,801.28656,638.06036C801.27625,638.0605,801.2293,638.0775,801.16986,638.1131 Z M754.3693,630.11304C754.36926,630.11285,754.36926,630.11285,754.36926,630.11285L754.36926,630.1136 Z M784.3571,676.7652C778.8097,676.814,772.7868,674.9531,767.2384,671.43195C762.0456,668.1418,755.7787,662.0717,750.8564,655.6592L750.85376,655.65564L750.85126,655.6529L750.8507,655.652C749.4471,653.78766,748.211,652.18915,747.816,651.70087C747.484,651.73474,746.8015,651.8866,746.0337,652.13495L746.0337,652.1364C744.19604,652.73236,741.65326,653.0585,739.3003,653.07916C737.7855,653.0925,736.31885,652.9797,735.1461,652.7171L735.1428,652.7161C731.1968,651.8067,728.309,650.16254,725.1797,647.08777C722.1171,644.07874,720.528,641.5471,719.19904,637.4217L719.1982,637.4185C718.5563,635.3884,718.41797,634.2202,718.38885,630.93555C718.3382,625.17944,719.4568,621.7077,723.0096,616.4382L723.0096,616.4395C724.8318,613.7338,729.17645,609.3809,732.17487,607.20355L732.1761,607.20306C738.82117,602.4061,747.2853,599.4941,754.52893,599.43036C755.02515,599.42596,755.5121,599.43506,755.9965,599.45764L755.9968,599.45825C765.2363,599.89484,771.587,604.5694,774.4891,613.05786L774.49,613.0607C775.00714,614.5988,775.5426,616.55237,775.6569,617.4106L775.65674,617.41144L775.8909,618.8634C775.91547,619.01544,775.87634,619.17126,775.78265,619.2936C775.689,619.416,775.54913,619.49445,775.3959,619.5109L773.12067,619.7524L773.1165,619.7526C770.7337,619.98785,766.418,621.32983,763.8273,622.6849L763.8245,622.68634C760.7279,624.2847,755.4706,628.3544,754.5247,629.8745L754.5179,629.88525L754.51776,629.88654C754.42487,630.0273,754.3904,630.09467,754.37756,630.12665L754.37427,630.12775C754.419,630.23645,754.6357,630.47784,755.4848,631.2378L755.4957,631.2478C756.3136,632.02014,757.73834,633.26495,758.68555,634.04016L758.69,634.044L760.03345,635.1679L761.58496,633.744C765.99805,629.6683,771.487,627.4952,776.7449,627.4489C780.161,627.41895,783.48285,628.2866,786.33875,630.1202L786.3425,630.1231L786.3439,630.12366L786.3504,630.1282C787.36865,630.81476,788.6549,631.7813,789.18036,632.33203L789.1818,632.3338C790.5207,633.7474,792.35944,636.9046,793.0013,638.86993C793.25684,639.65027,793.3927,639.9259,793.46533,640.01776L793.4691,640.01886C793.48175,640.0157,793.49774,640.01196,793.5178,640.00745L793.5308,640.0042C795.5138,639.5684,799.4477,638.592,800.76776,638.2312L800.76416,638.2324C800.4702,637.19904,799.52625,634.69476,798.90686,633.4824C796.1634,628.1767,792.0142,624.195,786.67267,621.79877L786.67255,621.79956L783.97345,620.5885C783.7904,620.5066,783.66486,620.33276,783.64453,620.13293L783.43677,618.0788C783.0977,614.9734,781.77295,610.1166,780.5803,607.6315L780.5804,607.6327C779.00085,604.3892,777.3138,602.11926,774.65265,599.6278C769.90796,595.21204,764.123,592.7435,756.6588,591.96686L756.65607,591.96655C755.21814,591.80994,753.8858,591.6428,753.5671,591.5509L753.5668,591.552C753.5549,591.5484,753.4013,591.50806,753.28455,591.3939L753.28326,591.39514C753.04535,591.16724,753.09705,590.82996,753.09906,590.83L753.09924,590.831C753.1327,590.4829,753.38855,589.8007,753.65295,589.18475L753.6536,589.1836C755.3159,585.34485,756.168,579.14215,755.66156,574.5202L755.66144,574.5189C754.91846,567.58234,751.584,561.59454,746.47235,557.8846L746.47235,557.8854L744.34204,556.355C744.1643,556.2275,744.07684,556.0085,744.1178,555.79376L744.35986,554.5265L744.35956,554.5277C744.4697,553.8719,744.5754,551.52844,744.5554,549.25775C744.5184,545.0212,743.90497,542.3033,742.4422,539.471L742.4422,539.4723L741.80676,538.32C741.6873,538.104,741.7233,537.8349,741.8953,537.65796L744.4971,534.97815L744.4995,534.9756C748.1587,531.2516,751.8863,529.4954,756.48773,529.455C759.84534,529.42535,763.92017,530.7638,767.1477,532.9392L767.15247,532.9423L768.6482,533.97314C768.8144,534.08746,768.9066,534.28284,768.889,534.484L768.6883,536.79193C768.1861,542.91254,770.3569,550.35516,774.26215,555.9506C776.044,558.46436,780.1204,562.34155,781.32263,563.002L781.3261,563.0032C781.4852,562.76764,781.74194,562.3843,782.0727,561.8905C782.4989,561.2541,783.0135,560.4856,783.588,559.63464L785.6922,556.5158L785.07153,556.05444L785.0693,556.05225C778.9262,551.43243,775.60944,543.73755,776.519,536.25165L776.5197,536.2458C776.9426,533.05273,778.00714,529.6203,779.41766,527.1006L779.41846,527.0994C780.89716,524.47455,784.4133,520.82794,786.95776,519.3301L786.95734,519.3313C787.7068,518.86273,788.2814,518.4618,788.56683,518.2328L788.5634,518.234C788.2883,517.58246,787.6888,516.1325,787.0231,514.5219L787.0231,514.523L785.66437,511.27686L785.057,511.55316L785.0571,511.55438C780.1996,513.78796,775.2074,518.54926,772.42737,523.5987L772.4272,523.59985C771.9767,524.43805,771.4919,525.2262,771.286,525.468L771.2875,525.4689C771.29407,525.468,771.1015,525.7051,770.81494,525.7075C770.7023,525.7085,770.6033,525.67285,770.5982,525.6711L770.598,525.67236C770.31384,525.5795,769.1562,525.0252,767.89545,524.40857L767.89404,524.4077C763.877,522.4279,761.3017,521.8373,756.57916,521.8787C753.6192,521.90485,751.9743,522.0778,750.5662,522.4805L750.56555,522.481C746.30536,523.6947,741.3972,526.6588,738.5915,529.7612L737.30725,531.1961C737.19806,531.31824,737.0465,531.3817,736.8938,531.383C736.76953,531.38403,736.64435,531.3443,736.5401,531.2616L734.0556,529.2908L734.0539,529.2895C729.8664,525.9439,724.3356,523.5301,718.5273,522.5213L718.5271,522.5221L718.5244,522.52057C717.1184,522.2751,715.7948,521.99023,715.4884,521.87585L715.4881,521.87555L715.4881,521.8769C715.4795,521.8732,715.3514,521.8289,715.25116,521.73065C714.94135,521.42596,715.1039,521.01636,715.1197,520.9729C715.1845,520.7955,715.30084,520.6161,715.4321,520.4601L715.4317,520.46124C716.4447,519.18097,718.02466,513.64325,718.30585,509.9355L718.3062,509.93274L718.5058,507.46387C718.5184,507.30817,718.59534,507.1646,718.718,507.06793C718.8164,506.99042,718.937,506.94855,719.0603,506.9475C719.09125,506.94733,719.1221,506.94946,719.15283,506.95465L720.2929,507.13422L720.2929,507.13538C723.28564,507.6062,726.15173,507.8305,728.8148,507.80707C731.3489,507.78485,733.69165,507.53754,735.76965,507.06653L735.772,507.0658C746.994,504.57538,755.16437,497.02924,759.2402,485.36194L759.2404,485.36115C759.8174,483.71875,760.2012,482.72003,760.728,482.3617C760.8973,482.24634,761.0866,482.18634,761.28644,482.1845C761.33093,482.18433,761.3733,482.18634,761.41425,482.19104L761.4146,482.19202L761.4213,482.19183L761.42786,482.193C762.90295,482.3761,764.3375,482.4616,765.72797,482.44928C770.5047,482.4074,774.8053,481.21326,778.68713,478.85675L778.6871,478.8579C779.76434,478.1974,780.4044,477.8139,781.0485,477.8083C781.3972,477.80518,781.7093,477.9098,782.0188,478.0285L782.0263,478.03137C785.7178,479.50446,789.99927,480.30725,793.9331,480.27252C794.9482,480.26367,795.9347,480.19934,796.88385,480.07648L796.8889,480.076C799.98505,479.70416,803.84265,478.76196,805.66797,477.98273L805.6727,477.9804L806.68115,477.5608C806.74976,477.53192,806.8213,477.51788,806.8918,477.5172C807.0903,477.5155,807.2821,477.61993,807.38544,477.80182L808.6685,480.06445C810.5299,483.29596,812.23035,487.66443,813.25806,491.84265L813.259,491.84583C814.0279,495.0597,814.1333,496.1184,814.1795,501.3579C814.2219,506.17877,814.10974,507.8404,813.5518,510.52734C811.40625,520.96576,806.5903,529.8375,799.078,537.2248L799.07666,537.22656L797.1498,539.10895L798.9749,540.77606L798.9749,540.77716C803.36035,544.76794,807.5645,550.32263,810.0453,555.4284C817.6548,570.9481,815.1682,588.69464,803.49316,602.83704L802.22424,604.39246L803.71814,606.59125C806.1849,610.1899,809.3969,616.75745,810.7784,621.0017L810.77997,621.00604C811.4052,622.98413,812.26355,626.4164,812.6669,628.6507L812.66797,628.65643C813.27545,632.23627,813.383,633.5702,813.2717,638.97064C813.18994,644.082,813.01324,645.7704,812.3933,648.57935L812.3924,648.5838C810.36255,657.4472,806.8642,664.0659,801.43866,669.2957L801.4382,669.29614C797.4552,673.1227,793.7772,675.205,788.9585,676.2524L788.9588,676.25366C787.47723,676.5824,785.93616,676.7512,784.3571,676.7652 Z"></path></g><g style="fill:rgb(255,255,255); fill-opacity:1.0; stroke-linejoin: miter"><path d="M710.86945,622.0426L710.7334,622.02704C710.6385,622.0041,710.1564,621.91705,709.63214,621.85974L709.61804,621.8584C707.33545,621.5528,704.55237,620.70325,702.0003,619.5033C699.77234,618.4781,698.7003,617.68536,696.7493,615.7363L696.7493,615.7377C692.98,611.9999,691.1587,608.0351,690.4631,602.2385L690.46313,602.2397C689.52405,594.4744,692.2057,585.0662,697.0206,578.96204L697.0249,578.9564C697.431,578.45465,697.78644,577.9927,698.0493,577.6391L698.0467,577.6403C697.5486,577.59674,696.8597,577.5499,696.0837,577.50995L696.0829,577.5113C692.27435,577.3179,689.60626,576.6583,685.8925,574.9539L685.89246,574.95526C678.7255,571.6734,673.6237,566.7553,670.02594,559.6522L670.0249,559.65027C667.47656,554.5689,666.83276,552.02405,666.75037,546.30835L666.75037,546.30945C666.6845,542.42725,666.8013,541.2582,667.40466,539.09064L667.40466,539.0917C668.15686,536.336,669.82715,532.724,671.39343,530.44403L671.39526,530.4412C671.9319,529.66943,672.4525,528.92035,672.57306,528.7358L672.57324,528.7371C672.7615,528.4484,673.0843,528.43274,673.1717,528.42975L673.1703,528.43115C673.1834,528.42926,673.188,528.42926,673.20105,528.42914C673.7287,528.42444,674.8114,528.8175,675.998,529.36L675.9979,529.361C681.75073,531.9081,686.1715,532.921,691.45404,532.8745C694.99915,532.84326,697.0378,532.55084,703.7181,531.03973L703.72095,531.039C706.95416,530.32477,709.741,529.93915,712.3336,529.9161C716.744,529.877,720.545,530.89014,724.9793,533.0485L724.9793,533.04956C730.2629,535.6003,733.9766,538.9012,735.9794,542.85266L735.97974,542.8535L735.98114,542.8558C737.03033,544.9417,737.10364,545.3205,737.13324,548.69055C737.16095,551.831,737.06775,552.51636,736.22345,554.54675C735.7096,555.7976,734.5364,557.8992,733.612,559.23065L733.60297,559.2436L733.60187,559.2452L733.60187,559.2464C733.1094,559.93085,732.6861,560.54034,732.3954,560.9738L732.3924,560.9751C732.5222,560.9775,732.66595,560.9789,732.8212,560.9775C739.73584,560.91644,746.1119,566.4296,747.9674,573.92487C748.5467,576.2214,748.5858,580.70807,748.04803,583.04376L748.0476,583.046C747.4175,585.73145,745.6352,589.246,743.8513,591.29297L743.85034,591.2942C742.4978,592.83887,741.75946,593.33307,739.4907,594.2637L739.4847,594.26636C735.2037,595.9657,729.2399,599.253,726.43097,601.4215L726.428,601.4238C723.11206,603.94916,719.05304,608.24005,716.9379,611.4899L716.93414,611.49567C716.0193,612.86255,714.4768,615.72675,713.45703,617.8761L713.45544,617.87897C712.5503,619.759,711.66455,621.4291,711.3517,621.7967L711.35236,621.7978C711.3562,621.79645,711.16815,622.04004,710.86945,622.0426 Z"></path></g><g style="fill:rgb(255,255,255); fill-opacity:1.0; stroke-linejoin: miter"><path d="M708.0202,494.85052C708.03577,494.83276,708.0496,494.8141,708.06177,494.79517L708.06165,494.79657L708.01697,494.8507 Z M780.4584,386.60046C780.459,386.59988,780.4598,386.5994,780.4603,386.59906L780.4609,386.59833C780.48737,386.57648,780.4982,386.565,780.4982,386.56308L780.49677,386.56433C780.4919,386.56534,780.47614,386.57816,780.4547,386.60046 Z M777.6475,379.73776C777.65497,379.7377,777.65295,379.73633,777.63824,379.73642C777.63556,379.73657,777.63293,379.73657,777.6302,379.73682L777.6266,379.738C777.634,379.7377,777.63983,379.73788,777.644,379.73788 Z M692.21643,525.7205C690.8039,525.733,689.4025,525.655,688.29047,525.4772L688.29047,525.4785C680.60785,524.25024,672.96936,519.0251,668.1198,511.77655L668.1176,511.77332C664.9601,506.98358,662.8639,501.52008,661.65656,494.9214L661.6561,494.91986C660.81323,490.24506,660.67175,481.1745,661.3257,475.74597L661.32605,475.74298C663.7719,456.28552,673.5987,442.47574,689.97345,435.6034L689.9805,435.6004L689.9869,435.59802L689.98676,435.59894C691.4436,435.00534,692.89154,434.4345,693.553,434.24103L693.5504,434.24203C693.3705,433.69446,693.01074,432.2944,692.6671,430.9165L692.6669,430.91476C692.05975,428.44873,691.95264,426.9713,691.8753,421.7811L691.8753,421.77777C691.82635,416.23477,691.9113,415.25238,692.5752,412.7656C693.4769,409.38568,694.95807,406.02417,696.65283,403.51492L696.65283,403.516C697.9441,401.5445,701.12354,398.27753,703.0314,396.9266L703.0314,396.92758C704.9478,395.5695,708.5377,393.9325,711.2362,393.16815L711.2384,393.16757C713.1362,392.6378,715.91693,392.36743,718.72394,392.3427C721.4915,392.31842,724.33734,392.53174,726.4683,392.9962L726.475,392.9979C727.34,393.19736,728.1157,393.35873,728.63916,393.464L728.6424,393.46527C728.5986,392.86755,728.5137,391.91684,728.3919,390.83295L728.3912,390.82678C727.7238,384.22653,728.81396,377.28046,731.3781,371.87344L731.37866,371.872C734.18506,366.00186,739.59973,361.63614,745.8895,360.15143L745.8966,360.14963C747.2818,359.84155,748.4218,359.69504,750.2627,359.6788C751.0482,359.67178,751.96893,359.68857,753.0842,359.72635L753.0822,359.72757C757.8568,359.84442,760.99036,360.4614,765.2987,362.0574L766.694,362.5603L768.5148,360.90338L768.5148,360.9045C773.9624,355.90686,779.1687,352.8682,785.014,351.2716L785.0138,351.27274C786.63104,350.8271,788.4913,350.6528,791.446,350.6268L791.44226,350.62793C791.59015,350.62454,791.7489,350.62234,791.89197,350.62103C796.3428,350.58185,798.53296,351.05023,802.26886,352.79898C810.1228,356.4147,815.65564,363.27747,818.33813,372.68405C818.9825,374.8502,819.08606,376.124,819.1332,381.43262C819.21564,387.20514,819.1585,387.89813,818.3448,391.04404L818.34485,391.04517C817.26263,395.27585,815.47876,399.67438,813.39484,403.25027L813.39374,403.2522C811.6109,406.28336,807.9551,411.3667,806.67505,412.60233L806.66064,412.61575L806.2463,412.9891L807.9141,414.9913C813.37054,421.52374,816.7035,428.31873,818.0847,435.75156L818.0853,435.75485C818.82947,439.8981,818.6707,447.00156,817.70123,450.79745L817.70123,450.79852C815.44037,459.76074,810.51526,466.65863,803.67175,470.28613C800.73895,471.84723,797.6419,472.63782,794.5125,472.66534C790.2238,472.70312,785.9025,471.30774,781.8824,468.54236L780.2858,467.46375L779.7598,467.88007L779.76,467.88147C777.2518,469.9157,773.34326,472.35083,771.1348,473.25177L771.1347,473.25287C768.8068,474.22668,768.22156,474.299,764.7059,474.36194L764.70074,474.36328C761.16815,474.39307,760.6495,474.33502,758.84717,473.47058L758.84717,473.47192C755.71075,471.98596,753.4771,468.93658,752.5271,465.0537L752.52734,465.05472C751.9797,462.8734,751.944,458.08206,752.4365,455.33282L752.4365,455.33405C752.58685,454.40424,752.6557,453.58163,752.6507,453.27875L752.64746,453.27994C752.4122,453.05746,751.6845,452.53928,750.7508,452.01694L750.7406,452.01096C749.6028,451.34143,747.59796,449.94586,746.3247,448.8231L746.3245,448.8245C740.5302,443.92303,737.4081,438.01938,737.352,431.65707C737.3069,426.53442,738.70294,423.1873,742.4671,419.32388C744.4554,417.26767,745.45264,416.55637,747.9671,415.33633C751.0805,413.80966,753.9276,412.86627,756.14514,412.68127L756.1448,412.6826L757.31085,412.57635C757.32623,412.5749,757.34125,412.57425,757.35657,412.5741C757.59485,412.572,757.81104,412.72183,757.89105,412.94977L758.86444,415.7246L758.8647,415.72574C761.57715,423.50894,766.14575,428.75757,773.1208,432.1689C775.0592,433.1168,778.0266,434.17752,779.6763,434.49847L779.68414,434.49982L780.1482,434.59726L780.5494,432.67557L780.5494,432.67682C780.7745,431.54974,781.1055,430.02917,781.33185,428.9885L781.33185,428.98984C781.3716,428.80722,781.43317,428.5239,781.4614,428.3934L781.7431,427.0828L780.9648,426.8813L780.96454,426.88223C780.1855,426.6845,778.5611,426.04858,777.3313,425.5256L777.31885,425.51993C766.6633,420.6761,762.51276,409.77463,767.2689,399.31317C767.3296,399.17926,767.39056,399.0487,767.4542,398.915L767.45526,398.91275C769.7162,394.22314,773.15796,390.69556,778.1907,387.9132L778.19745,387.9095C779.0775,387.43878,779.80664,387.01703,780.1897,386.77905L780.1863,386.78033C779.6944,385.47003,777.9202,381.0406,777.3916,379.78656C777.1057,379.86493,776.62274,380.0365,776.0247,380.30466L776.0247,380.3058C767.354,384.23575,760.1264,392.95383,758.28357,401.73413L758.28345,401.735L757.7672,404.17508C757.7182,404.4065,757.52936,404.58228,757.295,404.61484L755.5891,404.85126L755.58624,404.8517C748.1008,405.8506,740.0808,410.15994,735.671,415.48996C733.62396,417.9781,731.1126,422.86194,730.3387,425.85455L730.33795,425.85764C729.656,428.43716,729.45966,434.55377,729.9748,437.25174L729.97504,437.2532C731.3409,444.49567,735.52374,451.07315,741.78204,455.71304L741.78186,455.71417L743.53284,456.9943C743.6759,457.09912,743.7613,457.2651,743.7628,457.44263L743.78784,460.28864C743.8199,463.93155,744.52014,466.847,746.2236,470.3332C747.3851,472.66656,748.08496,473.6557,750.27893,475.84247L750.28076,475.84393L752.9934,478.57233C753.14215,478.72174,753.1946,478.94232,753.12915,479.14264L752.1432,482.15613C750.4572,487.49615,748.2589,491.0818,744.81995,494.2552L744.8197,494.25555C740.7626,497.9945,735.4154,499.88123,729.01953,499.93756C724.1023,499.98065,718.56177,498.9436,712.48816,496.83527L712.4779,496.83148L712.4777,496.8327C710.7775,496.2353,709.02435,495.58813,708.36005,495.279C708.4745,495.62762,708.6323,496.0647,708.8296,496.53918L708.8361,496.5551C710.9332,502.07422,711.6524,508.39008,710.5443,512.6613L710.54425,512.6621C708.93036,519.02814,703.8642,523.7758,697.2604,525.23553L697.2607,525.23663C695.8824,525.54236,694.0153,525.7048,692.21643,525.7205 Z"></path></g><g style="fill:rgb(255,0,57); fill-opacity:1.0; stroke-linejoin: miter"><path d="M181.6012,374.47354C181.52783,374.47354,181.45471,374.47354,181.3814,374.47354C159.03813,374.51956,138.91022,382.8636,123.43633,398.4004C116.24829,405.67984,112.35223,410.99884,104.74805,423.9556C104.70871,424.02707,104.65412,424.0624,104.58389,424.0624C104.111916,424.06235,102.94234,422.45648,101.07571,419.32428C91.764305,403.4101,77.57409,390.06995,62.726074,383.26358C50.685574,377.71094,37.725784,374.9345,23.938425,374.9345C20.373953,374.9345,16.753952,375.1203,13.08001,375.49106C-9.319421,377.67313,-27.494228,385.95285,-42.054295,400.51068C-54.908188,413.41846,-63.055534,429.3677,-67.04321,449.58228C-68.855835,458.7433,-68.94181,476.44537,-67.21323,485.78232C-61.53424,516.4158,-44.685307,546.35486,-12.255036,583.3428C1.5738674,599.18646,28.731876,625.31946,52.826958,646.14825C66.34222,657.8413,96.060936,682.3208,104.25389,688.53033C104.273636,688.5454,104.30261,688.5527,104.340256,688.5528C105.681114,688.553,118.12048,679.11505,136.49779,664.3514C194.15144,617.83746,235.75362,572.9444,257.52765,533.64746C274.98325,502.1728,281.27155,472.91843,276.2125,446.9846C273.74472,434.41394,268.28506,421.48395,261.42868,411.97488C256.59198,405.26947,246.68303,395.76636,239.89749,391.26328C223.81593,380.58978,202.53014,374.4735,181.6012,374.47354 Z"></path></g></g></svg> 