<?xml version="1.0" encoding="UTF-8"?> <svg xmlns="http://www.w3.org/2000/svg" data-v-bbb6212e="" id="canvas" viewBox="0 0 320.00 278.75" width="499.4142259414226" height="435.03661087866107" style="font-family: Arial;"><defs><linearGradient x1="25%" x2="25%" y1="0%" y2="100%" id="def-grad-main-0-1A"><stop offset="0%" stop-color="#ffce47"></stop><stop offset="100%" stop-color="#c89d04"></stop></linearGradient><linearGradient x1="25%" x2="25%" y1="0%" y2="100%" id="def-grad-main-0-1B"><stop offset="0%" stop-color="#ffe760"></stop><stop offset="100%" stop-color="#e3b52c"></stop></linearGradient><linearGradient x1="25%" x2="25%" y1="0%" y2="100%" id="def-grad-main-1-1A"><stop offset="0%" stop-color="#ff9543"></stop><stop offset="100%" stop-color="#c76610"></stop></linearGradient><linearGradient x1="25%" x2="25%" y1="0%" y2="100%" id="def-grad-main-1-1B"><stop offset="0%" stop-color="#ffad5a"></stop><stop offset="100%" stop-color="#e37d2b"></stop></linearGradient><linearGradient x1="25%" x2="25%" y1="0%" y2="100%" id="def-grad-main-2-1A"><stop offset="0%" stop-color="#fd5958"></stop><stop offset="100%" stop-color="#c41f2f"></stop></linearGradient><linearGradient x1="25%" x2="25%" y1="0%" y2="100%" id="def-grad-main-2-1B"><stop offset="0%" stop-color="#ff736e"></stop><stop offset="100%" stop-color="#e03e43"></stop></linearGradient><linearGradient x1="25%" x2="25%" y1="0%" y2="100%" id="def-grad-main-3-1A"><stop offset="0%" stop-color="#d32e6f"></stop><stop offset="100%" stop-color="#9c0044"></stop></linearGradient><linearGradient x1="25%" x2="25%" y1="0%" y2="100%" id="def-grad-main-3-1B"><stop offset="0%" stop-color="#ef4c86"></stop><stop offset="100%" stop-color="#b80059"></stop></linearGradient><linearGradient x1="25%" x2="25%" y1="0%" y2="100%" id="def-grad-main-4-1A"><stop offset="0%" stop-color="#902775"></stop><stop offset="100%" stop-color="#5f0049"></stop></linearGradient><linearGradient x1="25%" x2="25%" y1="0%" y2="100%" id="def-grad-main-4-1B"><stop offset="0%" stop-color="#a9408c"></stop><stop offset="100%" stop-color="#77055f"></stop></linearGradient><linearGradient x1="25%" x2="25%" y1="0%" y2="100%" id="def-grad-main-5-1A"><stop offset="0%" stop-color="#492466"></stop><stop offset="100%" stop-color="#1e003b"></stop></linearGradient><linearGradient x1="25%" x2="25%" y1="0%" y2="100%" id="def-grad-main-5-1B"><stop offset="0%" stop-color="#60397d"></stop><stop offset="100%" stop-color="#330f50"></stop></linearGradient></defs><g transform="translate(65.00, 178.00)"><g><g transform="translate(0.00, 0.00) scale(1.000) rotate(0.00)"><path d="M0,0 v-150 h25 V10 L0,0z" fill="url('#def-grad-main-0-1A')"></path><path d="M50,0 v-150 h-25 V10 L50,0z" fill="url('#def-grad-main-0-1B')"></path><path d="M0,-150 l25,10 l25,-10 l-25-10 l-25,10z" fill="#ffff79"></path><text x="-10" y="14" font-size="7" font-weight="normal" fill="#222222" text-anchor="end" font-family="Lato"><tspan x="-10" dy="0">Holunder</tspan></text></g><g transform="translate(25.00, -165.00) scale(1.000) rotate(0.00)"><text x="0" y="0" font-size="8" font-weight="bold" fill="#c89d04" text-anchor="middle" font-family="Lato"> 1.4K </text></g></g><g><g transform="translate(40.00, 16.00) scale(1.000) rotate(0.00)"><path d="M0,0 v-90 h25 V10 L0,0z" fill="url('#def-grad-main-1-1A')"></path><path d="M50,0 v-90 h-25 V10 L50,0z" fill="url('#def-grad-main-1-1B')"></path><path d="M0,-90 l25,10 l25,-10 l-25-10 l-25,10z" fill="#ffc672"></path><text x="-10" y="14" font-size="7" font-weight="normal" fill="#222222" text-anchor="end" font-family="Lato"><tspan x="-10" dy="0">Heidelbeere</tspan></text></g><g transform="translate(65.00, -89.00) scale(1.000) rotate(0.00)"><text x="0" y="0" font-size="8" font-weight="bold" fill="#c76610" text-anchor="middle" font-family="Lato"> 840 </text></g></g><g><g transform="translate(80.00, 32.00) scale(1.000) rotate(0.00)"><path d="M0,0 v-81.42857142857142 h25 V10 L0,0z" fill="url('#def-grad-main-2-1A')"></path><path d="M50,0 v-81.42857142857142 h-25 V10 L50,0z" fill="url('#def-grad-main-2-1B')"></path><path d="M0,-81.42857142857142 l25,10 l25,-10 l-25-10 l-25,10z" fill="#ff8c85"></path><text x="-10" y="14" font-size="7" font-weight="normal" fill="#222222" text-anchor="end" font-family="Lato"><tspan x="-10" dy="0">Johannisbeere</tspan></text></g><g transform="translate(105.00, -64.43) scale(1.000) rotate(0.00)"><text x="0" y="0" font-size="8" font-weight="bold" fill="#c41f2f" text-anchor="middle" font-family="Lato"> 760 </text></g></g><g><g transform="translate(120.00, 48.00) scale(1.000) rotate(0.00)"><path d="M0,0 v-26.785714285714285 h25 V10 L0,0z" fill="url('#def-grad-main-3-1A')"></path><path d="M50,0 v-26.785714285714285 h-25 V10 L50,0z" fill="url('#def-grad-main-3-1B')"></path><path d="M0,-26.785714285714285 l25,10 l25,-10 l-25-10 l-25,10z" fill="#ff669d"></path><text x="-10" y="14" font-size="7" font-weight="normal" fill="#222222" text-anchor="end" font-family="Lato"><tspan x="-10" dy="0">Brombeere</tspan></text></g><g transform="translate(145.00, 6.21) scale(1.000) rotate(0.00)"><text x="0" y="0" font-size="8" font-weight="bold" fill="#9c0044" text-anchor="middle" font-family="Lato"> 250 </text></g></g><g><g transform="translate(160.00, 64.00) scale(1.000) rotate(0.00)"><path d="M0,0 v-24.642857142857142 h25 V10 L0,0z" fill="url('#def-grad-main-4-1A')"></path><path d="M50,0 v-24.642857142857142 h-25 V10 L50,0z" fill="url('#def-grad-main-4-1B')"></path><path d="M0,-24.642857142857142 l25,10 l25,-10 l-25-10 l-25,10z" fill="#c359a4"></path><text x="-10" y="14" font-size="7" font-weight="normal" fill="#222222" text-anchor="end" font-family="Lato"><tspan x="-10" dy="0">Erdbeere</tspan></text></g><g transform="translate(185.00, 24.36) scale(1.000) rotate(0.00)"><text x="0" y="0" font-size="8" font-weight="bold" fill="#5f0049" text-anchor="middle" font-family="Lato"> 230 </text></g></g><g><g transform="translate(200.00, 80.00) scale(1.000) rotate(0.00)"><path d="M0,0 v-22.5 h25 V10 L0,0z" fill="url('#def-grad-main-5-1A')"></path><path d="M50,0 v-22.5 h-25 V10 L50,0z" fill="url('#def-grad-main-5-1B')"></path><path d="M0,-22.5 l25,10 l25,-10 l-25-10 l-25,10z" fill="#774e94"></path><text x="-10" y="14" font-size="7" font-weight="normal" fill="#222222" text-anchor="end" font-family="Lato"><tspan x="-10" dy="0">Himbeere</tspan></text></g><g transform="translate(225.00, 42.50) scale(1.000) rotate(0.00)"><text x="0" y="0" font-size="8" font-weight="bold" fill="#1e003b" text-anchor="middle" font-family="Lato"> 210 </text></g></g><g><g><circle cx="-5.00" cy="12.00" r="0.8" fill="#4c1a00"></circle><path d="M10.00 6.00L-5.00 12.00" fill="none" stroke="#4c1a00" stroke-width="0.6" stroke-linecap="round" stroke-dasharray="0.6,2"></path><circle cx="10.00" cy="6.00" r="0.8" fill="#4c1a00"></circle></g><g><circle cx="35.00" cy="28.00" r="0.8" fill="#4c1a00"></circle><path d="M50.00 22.00L35.00 28.00" fill="none" stroke="#4c1a00" stroke-width="0.6" stroke-linecap="round" stroke-dasharray="0.6,2"></path><circle cx="50.00" cy="22.00" r="0.8" fill="#4c1a00"></circle></g><g><circle cx="75.00" cy="44.00" r="0.8" fill="#4c1a00"></circle><path d="M90.00 38.00L75.00 44.00" fill="none" stroke="#4c1a00" stroke-width="0.6" stroke-linecap="round" stroke-dasharray="0.6,2"></path><circle cx="90.00" cy="38.00" r="0.8" fill="#4c1a00"></circle></g><g><circle cx="115.00" cy="60.00" r="0.8" fill="#4c1a00"></circle><path d="M130.00 54.00L115.00 60.00" fill="none" stroke="#4c1a00" stroke-width="0.6" stroke-linecap="round" stroke-dasharray="0.6,2"></path><circle cx="130.00" cy="54.00" r="0.8" fill="#4c1a00"></circle></g><g><circle cx="155.00" cy="76.00" r="0.8" fill="#4c1a00"></circle><path d="M170.00 70.00L155.00 76.00" fill="none" stroke="#4c1a00" stroke-width="0.6" stroke-linecap="round" stroke-dasharray="0.6,2"></path><circle cx="170.00" cy="70.00" r="0.8" fill="#4c1a00"></circle></g><g><circle cx="195.00" cy="92.00" r="0.8" fill="#4c1a00"></circle><path d="M210.00 86.00L195.00 92.00" fill="none" stroke="#4c1a00" stroke-width="0.6" stroke-linecap="round" stroke-dasharray="0.6,2"></path><circle cx="210.00" cy="86.00" r="0.8" fill="#4c1a00"></circle></g></g></g></svg> 